G04 #@! TF.GenerationSoftware,KiCad,Pcbnew,(5.1.0-0)*
G04 #@! TF.CreationDate,2019-11-03T22:22:13+08:00*
G04 #@! TF.ProjectId,Pine,50696e65-2e6b-4696-9361-645f70636258,V1.0*
G04 #@! TF.SameCoordinates,Original*
G04 #@! TF.FileFunction,Paste,Top*
G04 #@! TF.FilePolarity,Positive*
%FSLAX46Y46*%
G04 Gerber Fmt 4.6, Leading zero omitted, Abs format (unit mm)*
G04 Created by KiCad (PCBNEW (5.1.0-0)) date 2019-11-03 22:22:13*
%MOMM*%
%LPD*%
G04 APERTURE LIST*
%ADD10C,0.100000*%
%ADD11C,0.150000*%
%ADD12C,0.300000*%
%ADD13C,0.400000*%
%ADD14C,1.150000*%
%ADD15R,1.650000X0.400000*%
%ADD16R,0.800000X0.900000*%
%ADD17R,0.250000X1.300000*%
%ADD18R,1.300000X0.250000*%
%ADD19C,0.400000*%
%ADD20C,0.600000*%
%ADD21R,0.650000X1.060000*%
%ADD22R,1.500000X1.500000*%
%ADD23R,1.200000X1.200000*%
%ADD24R,0.800000X1.000000*%
%ADD25R,1.500000X0.700000*%
%ADD26R,1.100000X1.100000*%
G04 APERTURE END LIST*
D10*
D11*
X177002200Y-166007200D02*
X177002200Y-198007200D01*
X285002200Y-198007200D01*
X285002200Y-166007200D01*
X177002200Y-166007200D01*
D10*
D11*
X10000000Y-10000000D02*
X10000000Y-200007200D01*
X287002200Y-200007200D01*
X287002200Y-10000000D01*
X10000000Y-10000000D01*
D10*
D11*
X12000000Y-12000000D02*
X12000000Y-198007200D01*
X285002200Y-198007200D01*
X285002200Y-12000000D01*
X12000000Y-12000000D01*
D10*
D11*
X60000000Y-12000000D02*
X60000000Y-10000000D01*
D10*
D11*
X110000000Y-12000000D02*
X110000000Y-10000000D01*
D10*
D11*
X160000000Y-12000000D02*
X160000000Y-10000000D01*
D10*
D11*
X210000000Y-12000000D02*
X210000000Y-10000000D01*
D10*
D11*
X260000000Y-12000000D02*
X260000000Y-10000000D01*
D10*
D11*
X36065476Y-11588095D02*
X35322619Y-11588095D01*
X35694047Y-11588095D02*
X35694047Y-10288095D01*
X35570238Y-10473809D01*
X35446428Y-10597619D01*
X35322619Y-10659523D01*
D10*
D11*
X85322619Y-10411904D02*
X85384523Y-10350000D01*
X85508333Y-10288095D01*
X85817857Y-10288095D01*
X85941666Y-10350000D01*
X86003571Y-10411904D01*
X86065476Y-10535714D01*
X86065476Y-10659523D01*
X86003571Y-10845238D01*
X85260714Y-11588095D01*
X86065476Y-11588095D01*
D10*
D11*
X135260714Y-10288095D02*
X136065476Y-10288095D01*
X135632142Y-10783333D01*
X135817857Y-10783333D01*
X135941666Y-10845238D01*
X136003571Y-10907142D01*
X136065476Y-11030952D01*
X136065476Y-11340476D01*
X136003571Y-11464285D01*
X135941666Y-11526190D01*
X135817857Y-11588095D01*
X135446428Y-11588095D01*
X135322619Y-11526190D01*
X135260714Y-11464285D01*
D10*
D11*
X185941666Y-10721428D02*
X185941666Y-11588095D01*
X185632142Y-10226190D02*
X185322619Y-11154761D01*
X186127380Y-11154761D01*
D10*
D11*
X236003571Y-10288095D02*
X235384523Y-10288095D01*
X235322619Y-10907142D01*
X235384523Y-10845238D01*
X235508333Y-10783333D01*
X235817857Y-10783333D01*
X235941666Y-10845238D01*
X236003571Y-10907142D01*
X236065476Y-11030952D01*
X236065476Y-11340476D01*
X236003571Y-11464285D01*
X235941666Y-11526190D01*
X235817857Y-11588095D01*
X235508333Y-11588095D01*
X235384523Y-11526190D01*
X235322619Y-11464285D01*
D10*
D11*
X285941666Y-10288095D02*
X285694047Y-10288095D01*
X285570238Y-10350000D01*
X285508333Y-10411904D01*
X285384523Y-10597619D01*
X285322619Y-10845238D01*
X285322619Y-11340476D01*
X285384523Y-11464285D01*
X285446428Y-11526190D01*
X285570238Y-11588095D01*
X285817857Y-11588095D01*
X285941666Y-11526190D01*
X286003571Y-11464285D01*
X286065476Y-11340476D01*
X286065476Y-11030952D01*
X286003571Y-10907142D01*
X285941666Y-10845238D01*
X285817857Y-10783333D01*
X285570238Y-10783333D01*
X285446428Y-10845238D01*
X285384523Y-10907142D01*
X285322619Y-11030952D01*
D10*
D11*
X60000000Y-198007200D02*
X60000000Y-200007200D01*
D10*
D11*
X110000000Y-198007200D02*
X110000000Y-200007200D01*
D10*
D11*
X160000000Y-198007200D02*
X160000000Y-200007200D01*
D10*
D11*
X210000000Y-198007200D02*
X210000000Y-200007200D01*
D10*
D11*
X260000000Y-198007200D02*
X260000000Y-200007200D01*
D10*
D11*
X36065476Y-199595295D02*
X35322619Y-199595295D01*
X35694047Y-199595295D02*
X35694047Y-198295295D01*
X35570238Y-198481009D01*
X35446428Y-198604819D01*
X35322619Y-198666723D01*
D10*
D11*
X85322619Y-198419104D02*
X85384523Y-198357200D01*
X85508333Y-198295295D01*
X85817857Y-198295295D01*
X85941666Y-198357200D01*
X86003571Y-198419104D01*
X86065476Y-198542914D01*
X86065476Y-198666723D01*
X86003571Y-198852438D01*
X85260714Y-199595295D01*
X86065476Y-199595295D01*
D10*
D11*
X135260714Y-198295295D02*
X136065476Y-198295295D01*
X135632142Y-198790533D01*
X135817857Y-198790533D01*
X135941666Y-198852438D01*
X136003571Y-198914342D01*
X136065476Y-199038152D01*
X136065476Y-199347676D01*
X136003571Y-199471485D01*
X135941666Y-199533390D01*
X135817857Y-199595295D01*
X135446428Y-199595295D01*
X135322619Y-199533390D01*
X135260714Y-199471485D01*
D10*
D11*
X185941666Y-198728628D02*
X185941666Y-199595295D01*
X185632142Y-198233390D02*
X185322619Y-199161961D01*
X186127380Y-199161961D01*
D10*
D11*
X236003571Y-198295295D02*
X235384523Y-198295295D01*
X235322619Y-198914342D01*
X235384523Y-198852438D01*
X235508333Y-198790533D01*
X235817857Y-198790533D01*
X235941666Y-198852438D01*
X236003571Y-198914342D01*
X236065476Y-199038152D01*
X236065476Y-199347676D01*
X236003571Y-199471485D01*
X235941666Y-199533390D01*
X235817857Y-199595295D01*
X235508333Y-199595295D01*
X235384523Y-199533390D01*
X235322619Y-199471485D01*
D10*
D11*
X285941666Y-198295295D02*
X285694047Y-198295295D01*
X285570238Y-198357200D01*
X285508333Y-198419104D01*
X285384523Y-198604819D01*
X285322619Y-198852438D01*
X285322619Y-199347676D01*
X285384523Y-199471485D01*
X285446428Y-199533390D01*
X285570238Y-199595295D01*
X285817857Y-199595295D01*
X285941666Y-199533390D01*
X286003571Y-199471485D01*
X286065476Y-199347676D01*
X286065476Y-199038152D01*
X286003571Y-198914342D01*
X285941666Y-198852438D01*
X285817857Y-198790533D01*
X285570238Y-198790533D01*
X285446428Y-198852438D01*
X285384523Y-198914342D01*
X285322619Y-199038152D01*
D10*
D11*
X10000000Y-60000000D02*
X12000000Y-60000000D01*
D10*
D11*
X10000000Y-110000000D02*
X12000000Y-110000000D01*
D10*
D11*
X10000000Y-160000000D02*
X12000000Y-160000000D01*
D10*
D11*
X10690476Y-35216666D02*
X11309523Y-35216666D01*
X10566666Y-35588095D02*
X11000000Y-34288095D01*
X11433333Y-35588095D01*
D10*
D11*
X11092857Y-84907142D02*
X11278571Y-84969047D01*
X11340476Y-85030952D01*
X11402380Y-85154761D01*
X11402380Y-85340476D01*
X11340476Y-85464285D01*
X11278571Y-85526190D01*
X11154761Y-85588095D01*
X10659523Y-85588095D01*
X10659523Y-84288095D01*
X11092857Y-84288095D01*
X11216666Y-84350000D01*
X11278571Y-84411904D01*
X11340476Y-84535714D01*
X11340476Y-84659523D01*
X11278571Y-84783333D01*
X11216666Y-84845238D01*
X11092857Y-84907142D01*
X10659523Y-84907142D01*
D10*
D11*
X11402380Y-135464285D02*
X11340476Y-135526190D01*
X11154761Y-135588095D01*
X11030952Y-135588095D01*
X10845238Y-135526190D01*
X10721428Y-135402380D01*
X10659523Y-135278571D01*
X10597619Y-135030952D01*
X10597619Y-134845238D01*
X10659523Y-134597619D01*
X10721428Y-134473809D01*
X10845238Y-134350000D01*
X11030952Y-134288095D01*
X11154761Y-134288095D01*
X11340476Y-134350000D01*
X11402380Y-134411904D01*
D10*
D11*
X10659523Y-185588095D02*
X10659523Y-184288095D01*
X10969047Y-184288095D01*
X11154761Y-184350000D01*
X11278571Y-184473809D01*
X11340476Y-184597619D01*
X11402380Y-184845238D01*
X11402380Y-185030952D01*
X11340476Y-185278571D01*
X11278571Y-185402380D01*
X11154761Y-185526190D01*
X10969047Y-185588095D01*
X10659523Y-185588095D01*
D10*
D11*
X287002200Y-60000000D02*
X285002200Y-60000000D01*
D10*
D11*
X287002200Y-110000000D02*
X285002200Y-110000000D01*
D10*
D11*
X287002200Y-160000000D02*
X285002200Y-160000000D01*
D10*
D11*
X285692676Y-35216666D02*
X286311723Y-35216666D01*
X285568866Y-35588095D02*
X286002200Y-34288095D01*
X286435533Y-35588095D01*
D10*
D11*
X286095057Y-84907142D02*
X286280771Y-84969047D01*
X286342676Y-85030952D01*
X286404580Y-85154761D01*
X286404580Y-85340476D01*
X286342676Y-85464285D01*
X286280771Y-85526190D01*
X286156961Y-85588095D01*
X285661723Y-85588095D01*
X285661723Y-84288095D01*
X286095057Y-84288095D01*
X286218866Y-84350000D01*
X286280771Y-84411904D01*
X286342676Y-84535714D01*
X286342676Y-84659523D01*
X286280771Y-84783333D01*
X286218866Y-84845238D01*
X286095057Y-84907142D01*
X285661723Y-84907142D01*
D10*
D11*
X286404580Y-135464285D02*
X286342676Y-135526190D01*
X286156961Y-135588095D01*
X286033152Y-135588095D01*
X285847438Y-135526190D01*
X285723628Y-135402380D01*
X285661723Y-135278571D01*
X285599819Y-135030952D01*
X285599819Y-134845238D01*
X285661723Y-134597619D01*
X285723628Y-134473809D01*
X285847438Y-134350000D01*
X286033152Y-134288095D01*
X286156961Y-134288095D01*
X286342676Y-134350000D01*
X286404580Y-134411904D01*
D10*
D11*
X285661723Y-185588095D02*
X285661723Y-184288095D01*
X285971247Y-184288095D01*
X286156961Y-184350000D01*
X286280771Y-184473809D01*
X286342676Y-184597619D01*
X286404580Y-184845238D01*
X286404580Y-185030952D01*
X286342676Y-185278571D01*
X286280771Y-185402380D01*
X286156961Y-185526190D01*
X285971247Y-185588095D01*
X285661723Y-185588095D01*
D10*
D11*
X200434342Y-193785771D02*
X200434342Y-192285771D01*
X200791485Y-192285771D01*
X201005771Y-192357200D01*
X201148628Y-192500057D01*
X201220057Y-192642914D01*
X201291485Y-192928628D01*
X201291485Y-193142914D01*
X201220057Y-193428628D01*
X201148628Y-193571485D01*
X201005771Y-193714342D01*
X200791485Y-193785771D01*
X200434342Y-193785771D01*
X202577200Y-193785771D02*
X202577200Y-193000057D01*
X202505771Y-192857200D01*
X202362914Y-192785771D01*
X202077200Y-192785771D01*
X201934342Y-192857200D01*
X202577200Y-193714342D02*
X202434342Y-193785771D01*
X202077200Y-193785771D01*
X201934342Y-193714342D01*
X201862914Y-193571485D01*
X201862914Y-193428628D01*
X201934342Y-193285771D01*
X202077200Y-193214342D01*
X202434342Y-193214342D01*
X202577200Y-193142914D01*
X203077200Y-192785771D02*
X203648628Y-192785771D01*
X203291485Y-192285771D02*
X203291485Y-193571485D01*
X203362914Y-193714342D01*
X203505771Y-193785771D01*
X203648628Y-193785771D01*
X204720057Y-193714342D02*
X204577200Y-193785771D01*
X204291485Y-193785771D01*
X204148628Y-193714342D01*
X204077200Y-193571485D01*
X204077200Y-193000057D01*
X204148628Y-192857200D01*
X204291485Y-192785771D01*
X204577200Y-192785771D01*
X204720057Y-192857200D01*
X204791485Y-193000057D01*
X204791485Y-193142914D01*
X204077200Y-193285771D01*
X205434342Y-193642914D02*
X205505771Y-193714342D01*
X205434342Y-193785771D01*
X205362914Y-193714342D01*
X205434342Y-193642914D01*
X205434342Y-193785771D01*
X205434342Y-192857200D02*
X205505771Y-192928628D01*
X205434342Y-193000057D01*
X205362914Y-192928628D01*
X205434342Y-192857200D01*
X205434342Y-193000057D01*
X207220057Y-192428628D02*
X207291485Y-192357200D01*
X207434342Y-192285771D01*
X207791485Y-192285771D01*
X207934342Y-192357200D01*
X208005771Y-192428628D01*
X208077200Y-192571485D01*
X208077200Y-192714342D01*
X208005771Y-192928628D01*
X207148628Y-193785771D01*
X208077200Y-193785771D01*
X209005771Y-192285771D02*
X209148628Y-192285771D01*
X209291485Y-192357200D01*
X209362914Y-192428628D01*
X209434342Y-192571485D01*
X209505771Y-192857200D01*
X209505771Y-193214342D01*
X209434342Y-193500057D01*
X209362914Y-193642914D01*
X209291485Y-193714342D01*
X209148628Y-193785771D01*
X209005771Y-193785771D01*
X208862914Y-193714342D01*
X208791485Y-193642914D01*
X208720057Y-193500057D01*
X208648628Y-193214342D01*
X208648628Y-192857200D01*
X208720057Y-192571485D01*
X208791485Y-192428628D01*
X208862914Y-192357200D01*
X209005771Y-192285771D01*
X210934342Y-193785771D02*
X210077200Y-193785771D01*
X210505771Y-193785771D02*
X210505771Y-192285771D01*
X210362914Y-192500057D01*
X210220057Y-192642914D01*
X210077200Y-192714342D01*
X211648628Y-193785771D02*
X211934342Y-193785771D01*
X212077200Y-193714342D01*
X212148628Y-193642914D01*
X212291485Y-193428628D01*
X212362914Y-193142914D01*
X212362914Y-192571485D01*
X212291485Y-192428628D01*
X212220057Y-192357200D01*
X212077200Y-192285771D01*
X211791485Y-192285771D01*
X211648628Y-192357200D01*
X211577200Y-192428628D01*
X211505771Y-192571485D01*
X211505771Y-192928628D01*
X211577200Y-193071485D01*
X211648628Y-193142914D01*
X211791485Y-193214342D01*
X212077200Y-193214342D01*
X212220057Y-193142914D01*
X212291485Y-193071485D01*
X212362914Y-192928628D01*
X213005771Y-193214342D02*
X214148628Y-193214342D01*
X215648628Y-193785771D02*
X214791485Y-193785771D01*
X215220057Y-193785771D02*
X215220057Y-192285771D01*
X215077200Y-192500057D01*
X214934342Y-192642914D01*
X214791485Y-192714342D01*
X217077200Y-193785771D02*
X216220057Y-193785771D01*
X216648628Y-193785771D02*
X216648628Y-192285771D01*
X216505771Y-192500057D01*
X216362914Y-192642914D01*
X216220057Y-192714342D01*
X217720057Y-193214342D02*
X218862914Y-193214342D01*
X219862914Y-192285771D02*
X220005771Y-192285771D01*
X220148628Y-192357200D01*
X220220057Y-192428628D01*
X220291485Y-192571485D01*
X220362914Y-192857200D01*
X220362914Y-193214342D01*
X220291485Y-193500057D01*
X220220057Y-193642914D01*
X220148628Y-193714342D01*
X220005771Y-193785771D01*
X219862914Y-193785771D01*
X219720057Y-193714342D01*
X219648628Y-193642914D01*
X219577200Y-193500057D01*
X219505771Y-193214342D01*
X219505771Y-192857200D01*
X219577200Y-192571485D01*
X219648628Y-192428628D01*
X219720057Y-192357200D01*
X219862914Y-192285771D01*
X220862914Y-192285771D02*
X221791485Y-192285771D01*
X221291485Y-192857200D01*
X221505771Y-192857200D01*
X221648628Y-192928628D01*
X221720057Y-193000057D01*
X221791485Y-193142914D01*
X221791485Y-193500057D01*
X221720057Y-193642914D01*
X221648628Y-193714342D01*
X221505771Y-193785771D01*
X221077200Y-193785771D01*
X220934342Y-193714342D01*
X220862914Y-193642914D01*
D10*
D11*
X177002200Y-194507200D02*
X285002200Y-194507200D01*
D10*
D11*
X178434342Y-196585771D02*
X178434342Y-195085771D01*
X179291485Y-196585771D02*
X178648628Y-195728628D01*
X179291485Y-195085771D02*
X178434342Y-195942914D01*
X179934342Y-196585771D02*
X179934342Y-195585771D01*
X179934342Y-195085771D02*
X179862914Y-195157200D01*
X179934342Y-195228628D01*
X180005771Y-195157200D01*
X179934342Y-195085771D01*
X179934342Y-195228628D01*
X181505771Y-196442914D02*
X181434342Y-196514342D01*
X181220057Y-196585771D01*
X181077200Y-196585771D01*
X180862914Y-196514342D01*
X180720057Y-196371485D01*
X180648628Y-196228628D01*
X180577200Y-195942914D01*
X180577200Y-195728628D01*
X180648628Y-195442914D01*
X180720057Y-195300057D01*
X180862914Y-195157200D01*
X181077200Y-195085771D01*
X181220057Y-195085771D01*
X181434342Y-195157200D01*
X181505771Y-195228628D01*
X182791485Y-196585771D02*
X182791485Y-195800057D01*
X182720057Y-195657200D01*
X182577200Y-195585771D01*
X182291485Y-195585771D01*
X182148628Y-195657200D01*
X182791485Y-196514342D02*
X182648628Y-196585771D01*
X182291485Y-196585771D01*
X182148628Y-196514342D01*
X182077200Y-196371485D01*
X182077200Y-196228628D01*
X182148628Y-196085771D01*
X182291485Y-196014342D01*
X182648628Y-196014342D01*
X182791485Y-195942914D01*
X184148628Y-196585771D02*
X184148628Y-195085771D01*
X184148628Y-196514342D02*
X184005771Y-196585771D01*
X183720057Y-196585771D01*
X183577200Y-196514342D01*
X183505771Y-196442914D01*
X183434342Y-196300057D01*
X183434342Y-195871485D01*
X183505771Y-195728628D01*
X183577200Y-195657200D01*
X183720057Y-195585771D01*
X184005771Y-195585771D01*
X184148628Y-195657200D01*
X186005771Y-195800057D02*
X186505771Y-195800057D01*
X186720057Y-196585771D02*
X186005771Y-196585771D01*
X186005771Y-195085771D01*
X186720057Y-195085771D01*
X187362914Y-196442914D02*
X187434342Y-196514342D01*
X187362914Y-196585771D01*
X187291485Y-196514342D01*
X187362914Y-196442914D01*
X187362914Y-196585771D01*
X188077200Y-196585771D02*
X188077200Y-195085771D01*
X188434342Y-195085771D01*
X188648628Y-195157200D01*
X188791485Y-195300057D01*
X188862914Y-195442914D01*
X188934342Y-195728628D01*
X188934342Y-195942914D01*
X188862914Y-196228628D01*
X188791485Y-196371485D01*
X188648628Y-196514342D01*
X188434342Y-196585771D01*
X188077200Y-196585771D01*
X189577200Y-196442914D02*
X189648628Y-196514342D01*
X189577200Y-196585771D01*
X189505771Y-196514342D01*
X189577200Y-196442914D01*
X189577200Y-196585771D01*
X190220057Y-196157200D02*
X190934342Y-196157200D01*
X190077200Y-196585771D02*
X190577200Y-195085771D01*
X191077200Y-196585771D01*
X191577200Y-196442914D02*
X191648628Y-196514342D01*
X191577200Y-196585771D01*
X191505771Y-196514342D01*
X191577200Y-196442914D01*
X191577200Y-196585771D01*
X194577200Y-196585771D02*
X194577200Y-195085771D01*
X194720057Y-196014342D02*
X195148628Y-196585771D01*
X195148628Y-195585771D02*
X194577200Y-196157200D01*
X195791485Y-196585771D02*
X195791485Y-195585771D01*
X195791485Y-195085771D02*
X195720057Y-195157200D01*
X195791485Y-195228628D01*
X195862914Y-195157200D01*
X195791485Y-195085771D01*
X195791485Y-195228628D01*
X197148628Y-196514342D02*
X197005771Y-196585771D01*
X196720057Y-196585771D01*
X196577200Y-196514342D01*
X196505771Y-196442914D01*
X196434342Y-196300057D01*
X196434342Y-195871485D01*
X196505771Y-195728628D01*
X196577200Y-195657200D01*
X196720057Y-195585771D01*
X197005771Y-195585771D01*
X197148628Y-195657200D01*
X198434342Y-196585771D02*
X198434342Y-195800057D01*
X198362914Y-195657200D01*
X198220057Y-195585771D01*
X197934342Y-195585771D01*
X197791485Y-195657200D01*
X198434342Y-196514342D02*
X198291485Y-196585771D01*
X197934342Y-196585771D01*
X197791485Y-196514342D01*
X197720057Y-196371485D01*
X197720057Y-196228628D01*
X197791485Y-196085771D01*
X197934342Y-196014342D01*
X198291485Y-196014342D01*
X198434342Y-195942914D01*
X199791485Y-196585771D02*
X199791485Y-195085771D01*
X199791485Y-196514342D02*
X199648628Y-196585771D01*
X199362914Y-196585771D01*
X199220057Y-196514342D01*
X199148628Y-196442914D01*
X199077200Y-196300057D01*
X199077200Y-195871485D01*
X199148628Y-195728628D01*
X199220057Y-195657200D01*
X199362914Y-195585771D01*
X199648628Y-195585771D01*
X199791485Y-195657200D01*
X202077200Y-197157200D02*
X202005771Y-197085771D01*
X201862914Y-196871485D01*
X201791485Y-196728628D01*
X201720057Y-196514342D01*
X201648628Y-196157200D01*
X201648628Y-195871485D01*
X201720057Y-195514342D01*
X201791485Y-195300057D01*
X201862914Y-195157200D01*
X202005771Y-194942914D01*
X202077200Y-194871485D01*
X203362914Y-195085771D02*
X202648628Y-195085771D01*
X202577200Y-195800057D01*
X202648628Y-195728628D01*
X202791485Y-195657200D01*
X203148628Y-195657200D01*
X203291485Y-195728628D01*
X203362914Y-195800057D01*
X203434342Y-195942914D01*
X203434342Y-196300057D01*
X203362914Y-196442914D01*
X203291485Y-196514342D01*
X203148628Y-196585771D01*
X202791485Y-196585771D01*
X202648628Y-196514342D01*
X202577200Y-196442914D01*
X204077200Y-196442914D02*
X204148628Y-196514342D01*
X204077200Y-196585771D01*
X204005771Y-196514342D01*
X204077200Y-196442914D01*
X204077200Y-196585771D01*
X205577200Y-196585771D02*
X204720057Y-196585771D01*
X205148628Y-196585771D02*
X205148628Y-195085771D01*
X205005771Y-195300057D01*
X204862914Y-195442914D01*
X204720057Y-195514342D01*
X206220057Y-196442914D02*
X206291485Y-196514342D01*
X206220057Y-196585771D01*
X206148628Y-196514342D01*
X206220057Y-196442914D01*
X206220057Y-196585771D01*
X207220057Y-195085771D02*
X207362914Y-195085771D01*
X207505771Y-195157200D01*
X207577200Y-195228628D01*
X207648628Y-195371485D01*
X207720057Y-195657200D01*
X207720057Y-196014342D01*
X207648628Y-196300057D01*
X207577200Y-196442914D01*
X207505771Y-196514342D01*
X207362914Y-196585771D01*
X207220057Y-196585771D01*
X207077200Y-196514342D01*
X207005771Y-196442914D01*
X206934342Y-196300057D01*
X206862914Y-196014342D01*
X206862914Y-195657200D01*
X206934342Y-195371485D01*
X207005771Y-195228628D01*
X207077200Y-195157200D01*
X207220057Y-195085771D01*
X208362914Y-196014342D02*
X209505771Y-196014342D01*
X210505771Y-195085771D02*
X210648628Y-195085771D01*
X210791485Y-195157200D01*
X210862914Y-195228628D01*
X210934342Y-195371485D01*
X211005771Y-195657200D01*
X211005771Y-196014342D01*
X210934342Y-196300057D01*
X210862914Y-196442914D01*
X210791485Y-196514342D01*
X210648628Y-196585771D01*
X210505771Y-196585771D01*
X210362914Y-196514342D01*
X210291485Y-196442914D01*
X210220057Y-196300057D01*
X210148628Y-196014342D01*
X210148628Y-195657200D01*
X210220057Y-195371485D01*
X210291485Y-195228628D01*
X210362914Y-195157200D01*
X210505771Y-195085771D01*
X211505771Y-197157200D02*
X211577200Y-197085771D01*
X211720057Y-196871485D01*
X211791485Y-196728628D01*
X211862914Y-196514342D01*
X211934342Y-196157200D01*
X211934342Y-195871485D01*
X211862914Y-195514342D01*
X211791485Y-195300057D01*
X211720057Y-195157200D01*
X211577200Y-194942914D01*
X211505771Y-194871485D01*
D10*
D11*
X177002200Y-191507200D02*
X285002200Y-191507200D01*
D10*
D12*
X264411485Y-193785771D02*
X263911485Y-193071485D01*
X263554342Y-193785771D02*
X263554342Y-192285771D01*
X264125771Y-192285771D01*
X264268628Y-192357200D01*
X264340057Y-192428628D01*
X264411485Y-192571485D01*
X264411485Y-192785771D01*
X264340057Y-192928628D01*
X264268628Y-193000057D01*
X264125771Y-193071485D01*
X263554342Y-193071485D01*
X265625771Y-193714342D02*
X265482914Y-193785771D01*
X265197200Y-193785771D01*
X265054342Y-193714342D01*
X264982914Y-193571485D01*
X264982914Y-193000057D01*
X265054342Y-192857200D01*
X265197200Y-192785771D01*
X265482914Y-192785771D01*
X265625771Y-192857200D01*
X265697200Y-193000057D01*
X265697200Y-193142914D01*
X264982914Y-193285771D01*
X266197200Y-192785771D02*
X266554342Y-193785771D01*
X266911485Y-192785771D01*
X267482914Y-193642914D02*
X267554342Y-193714342D01*
X267482914Y-193785771D01*
X267411485Y-193714342D01*
X267482914Y-193642914D01*
X267482914Y-193785771D01*
X267482914Y-192857200D02*
X267554342Y-192928628D01*
X267482914Y-193000057D01*
X267411485Y-192928628D01*
X267482914Y-192857200D01*
X267482914Y-193000057D01*
X269125771Y-192285771D02*
X269625771Y-193785771D01*
X270125771Y-192285771D01*
X271411485Y-193785771D02*
X270554342Y-193785771D01*
X270982914Y-193785771D02*
X270982914Y-192285771D01*
X270840057Y-192500057D01*
X270697200Y-192642914D01*
X270554342Y-192714342D01*
X272054342Y-193642914D02*
X272125771Y-193714342D01*
X272054342Y-193785771D01*
X271982914Y-193714342D01*
X272054342Y-193642914D01*
X272054342Y-193785771D01*
X273054342Y-192285771D02*
X273197200Y-192285771D01*
X273340057Y-192357200D01*
X273411485Y-192428628D01*
X273482914Y-192571485D01*
X273554342Y-192857200D01*
X273554342Y-193214342D01*
X273482914Y-193500057D01*
X273411485Y-193642914D01*
X273340057Y-193714342D01*
X273197200Y-193785771D01*
X273054342Y-193785771D01*
X272911485Y-193714342D01*
X272840057Y-193642914D01*
X272768628Y-193500057D01*
X272697200Y-193214342D01*
X272697200Y-192857200D01*
X272768628Y-192571485D01*
X272840057Y-192428628D01*
X272911485Y-192357200D01*
X273054342Y-192285771D01*
D10*
D11*
X178362914Y-193714342D02*
X178577200Y-193785771D01*
X178934342Y-193785771D01*
X179077200Y-193714342D01*
X179148628Y-193642914D01*
X179220057Y-193500057D01*
X179220057Y-193357200D01*
X179148628Y-193214342D01*
X179077200Y-193142914D01*
X178934342Y-193071485D01*
X178648628Y-193000057D01*
X178505771Y-192928628D01*
X178434342Y-192857200D01*
X178362914Y-192714342D01*
X178362914Y-192571485D01*
X178434342Y-192428628D01*
X178505771Y-192357200D01*
X178648628Y-192285771D01*
X179005771Y-192285771D01*
X179220057Y-192357200D01*
X179862914Y-193785771D02*
X179862914Y-192785771D01*
X179862914Y-192285771D02*
X179791485Y-192357200D01*
X179862914Y-192428628D01*
X179934342Y-192357200D01*
X179862914Y-192285771D01*
X179862914Y-192428628D01*
X180434342Y-192785771D02*
X181220057Y-192785771D01*
X180434342Y-193785771D01*
X181220057Y-193785771D01*
X182362914Y-193714342D02*
X182220057Y-193785771D01*
X181934342Y-193785771D01*
X181791485Y-193714342D01*
X181720057Y-193571485D01*
X181720057Y-193000057D01*
X181791485Y-192857200D01*
X181934342Y-192785771D01*
X182220057Y-192785771D01*
X182362914Y-192857200D01*
X182434342Y-193000057D01*
X182434342Y-193142914D01*
X181720057Y-193285771D01*
X183077200Y-193642914D02*
X183148628Y-193714342D01*
X183077200Y-193785771D01*
X183005771Y-193714342D01*
X183077200Y-193642914D01*
X183077200Y-193785771D01*
X183077200Y-192857200D02*
X183148628Y-192928628D01*
X183077200Y-193000057D01*
X183005771Y-192928628D01*
X183077200Y-192857200D01*
X183077200Y-193000057D01*
X184862914Y-193357200D02*
X185577200Y-193357200D01*
X184720057Y-193785771D02*
X185220057Y-192285771D01*
X185720057Y-193785771D01*
X186862914Y-192785771D02*
X186862914Y-193785771D01*
X186505771Y-192214342D02*
X186148628Y-193285771D01*
X187077200Y-193285771D01*
D10*
D11*
X263434342Y-196585771D02*
X263434342Y-195085771D01*
X264791485Y-196585771D02*
X264791485Y-195085771D01*
X264791485Y-196514342D02*
X264648628Y-196585771D01*
X264362914Y-196585771D01*
X264220057Y-196514342D01*
X264148628Y-196442914D01*
X264077200Y-196300057D01*
X264077200Y-195871485D01*
X264148628Y-195728628D01*
X264220057Y-195657200D01*
X264362914Y-195585771D01*
X264648628Y-195585771D01*
X264791485Y-195657200D01*
X265505771Y-196442914D02*
X265577200Y-196514342D01*
X265505771Y-196585771D01*
X265434342Y-196514342D01*
X265505771Y-196442914D01*
X265505771Y-196585771D01*
X265505771Y-195657200D02*
X265577200Y-195728628D01*
X265505771Y-195800057D01*
X265434342Y-195728628D01*
X265505771Y-195657200D01*
X265505771Y-195800057D01*
X268148628Y-196585771D02*
X267291485Y-196585771D01*
X267720057Y-196585771D02*
X267720057Y-195085771D01*
X267577200Y-195300057D01*
X267434342Y-195442914D01*
X267291485Y-195514342D01*
X269862914Y-195014342D02*
X268577200Y-196942914D01*
X271148628Y-196585771D02*
X270291485Y-196585771D01*
X270720057Y-196585771D02*
X270720057Y-195085771D01*
X270577200Y-195300057D01*
X270434342Y-195442914D01*
X270291485Y-195514342D01*
D10*
D11*
X177002200Y-187507200D02*
X285002200Y-187507200D01*
D10*
D13*
X178714580Y-188211961D02*
X179857438Y-188211961D01*
X179036009Y-190211961D02*
X179286009Y-188211961D01*
X180274104Y-190211961D02*
X180440771Y-188878628D01*
X180524104Y-188211961D02*
X180416961Y-188307200D01*
X180500295Y-188402438D01*
X180607438Y-188307200D01*
X180524104Y-188211961D01*
X180500295Y-188402438D01*
X181107438Y-188878628D02*
X181869342Y-188878628D01*
X181476485Y-188211961D02*
X181262200Y-189926247D01*
X181333628Y-190116723D01*
X181512200Y-190211961D01*
X181702676Y-190211961D01*
X182655057Y-190211961D02*
X182476485Y-190116723D01*
X182405057Y-189926247D01*
X182619342Y-188211961D01*
X184190771Y-190116723D02*
X183988390Y-190211961D01*
X183607438Y-190211961D01*
X183428866Y-190116723D01*
X183357438Y-189926247D01*
X183452676Y-189164342D01*
X183571723Y-188973866D01*
X183774104Y-188878628D01*
X184155057Y-188878628D01*
X184333628Y-188973866D01*
X184405057Y-189164342D01*
X184381247Y-189354819D01*
X183405057Y-189545295D01*
X185155057Y-190021485D02*
X185238390Y-190116723D01*
X185131247Y-190211961D01*
X185047914Y-190116723D01*
X185155057Y-190021485D01*
X185131247Y-190211961D01*
X185286009Y-188973866D02*
X185369342Y-189069104D01*
X185262200Y-189164342D01*
X185178866Y-189069104D01*
X185286009Y-188973866D01*
X185262200Y-189164342D01*
X187607438Y-190211961D02*
X187857438Y-188211961D01*
X188619342Y-188211961D01*
X188797914Y-188307200D01*
X188881247Y-188402438D01*
X188952676Y-188592914D01*
X188916961Y-188878628D01*
X188797914Y-189069104D01*
X188690771Y-189164342D01*
X188488390Y-189259580D01*
X187726485Y-189259580D01*
X189607438Y-190211961D02*
X189774104Y-188878628D01*
X189857438Y-188211961D02*
X189750295Y-188307200D01*
X189833628Y-188402438D01*
X189940771Y-188307200D01*
X189857438Y-188211961D01*
X189833628Y-188402438D01*
X190726485Y-188878628D02*
X190559819Y-190211961D01*
X190702676Y-189069104D02*
X190809819Y-188973866D01*
X191012200Y-188878628D01*
X191297914Y-188878628D01*
X191476485Y-188973866D01*
X191547914Y-189164342D01*
X191416961Y-190211961D01*
X193143152Y-190116723D02*
X192940771Y-190211961D01*
X192559819Y-190211961D01*
X192381247Y-190116723D01*
X192309819Y-189926247D01*
X192405057Y-189164342D01*
X192524104Y-188973866D01*
X192726485Y-188878628D01*
X193107438Y-188878628D01*
X193286009Y-188973866D01*
X193357438Y-189164342D01*
X193333628Y-189354819D01*
X192357438Y-189545295D01*
X195440771Y-189259580D02*
X195357438Y-189164342D01*
X195178866Y-189069104D01*
X194988390Y-189069104D01*
X194786009Y-189164342D01*
X194678866Y-189259580D01*
X194559819Y-189450057D01*
X194536009Y-189640533D01*
X194607438Y-189831009D01*
X194690771Y-189926247D01*
X194869342Y-190021485D01*
X195059819Y-190021485D01*
X195262200Y-189926247D01*
X195369342Y-189831009D01*
X195464580Y-189069104D02*
X195369342Y-189831009D01*
X195452676Y-189926247D01*
X195547914Y-189926247D01*
X195750295Y-189831009D01*
X195869342Y-189640533D01*
X195928866Y-189164342D01*
X195774104Y-188878628D01*
X195512200Y-188688152D01*
X195143152Y-188592914D01*
X194750295Y-188688152D01*
X194440771Y-188878628D01*
X194214580Y-189164342D01*
X194071723Y-189545295D01*
X194119342Y-189926247D01*
X194274104Y-190211961D01*
X194536009Y-190402438D01*
X194905057Y-190497676D01*
X195297914Y-190402438D01*
X195607438Y-190211961D01*
X196655057Y-190211961D02*
X196905057Y-188211961D01*
X196786009Y-189164342D02*
X197928866Y-189164342D01*
X197797914Y-190211961D02*
X198047914Y-188211961D01*
X199774104Y-188878628D02*
X199607438Y-190211961D01*
X198916961Y-188878628D02*
X198786009Y-189926247D01*
X198857438Y-190116723D01*
X199036009Y-190211961D01*
X199321723Y-190211961D01*
X199524104Y-190116723D01*
X199631247Y-190021485D01*
X200440771Y-188878628D02*
X201202676Y-188878628D01*
X200809819Y-188211961D02*
X200595533Y-189926247D01*
X200666961Y-190116723D01*
X200845533Y-190211961D01*
X201036009Y-190211961D01*
X201619342Y-190116723D02*
X201797914Y-190211961D01*
X202178866Y-190211961D01*
X202381247Y-190116723D01*
X202500295Y-189926247D01*
X202512200Y-189831009D01*
X202440771Y-189640533D01*
X202262200Y-189545295D01*
X201976485Y-189545295D01*
X201797914Y-189450057D01*
X201726485Y-189259580D01*
X201738390Y-189164342D01*
X201857438Y-188973866D01*
X202059819Y-188878628D01*
X202345533Y-188878628D01*
X202524104Y-188973866D01*
X204190771Y-190116723D02*
X203988390Y-190211961D01*
X203607438Y-190211961D01*
X203428866Y-190116723D01*
X203345533Y-190021485D01*
X203274104Y-189831009D01*
X203345533Y-189259580D01*
X203464580Y-189069104D01*
X203571723Y-188973866D01*
X203774104Y-188878628D01*
X204155057Y-188878628D01*
X204333628Y-188973866D01*
X205893152Y-190211961D02*
X206024104Y-189164342D01*
X205952676Y-188973866D01*
X205774104Y-188878628D01*
X205393152Y-188878628D01*
X205190771Y-188973866D01*
X205905057Y-190116723D02*
X205702676Y-190211961D01*
X205226485Y-190211961D01*
X205047914Y-190116723D01*
X204976485Y-189926247D01*
X205000295Y-189735771D01*
X205119342Y-189545295D01*
X205321723Y-189450057D01*
X205797914Y-189450057D01*
X206000295Y-189354819D01*
X207012200Y-188878628D02*
X206762200Y-190878628D01*
X207000295Y-188973866D02*
X207202676Y-188878628D01*
X207583628Y-188878628D01*
X207762200Y-188973866D01*
X207845533Y-189069104D01*
X207916961Y-189259580D01*
X207845533Y-189831009D01*
X207726485Y-190021485D01*
X207619342Y-190116723D01*
X207416961Y-190211961D01*
X207036009Y-190211961D01*
X206857438Y-190116723D01*
X209428866Y-190116723D02*
X209226485Y-190211961D01*
X208845533Y-190211961D01*
X208666961Y-190116723D01*
X208595533Y-189926247D01*
X208690771Y-189164342D01*
X208809819Y-188973866D01*
X209012200Y-188878628D01*
X209393152Y-188878628D01*
X209571723Y-188973866D01*
X209643152Y-189164342D01*
X209619342Y-189354819D01*
X208643152Y-189545295D01*
D10*
D11*
X178934342Y-185600057D02*
X178434342Y-185600057D01*
X178434342Y-186385771D02*
X178434342Y-184885771D01*
X179148628Y-184885771D01*
X179720057Y-186385771D02*
X179720057Y-185385771D01*
X179720057Y-184885771D02*
X179648628Y-184957200D01*
X179720057Y-185028628D01*
X179791485Y-184957200D01*
X179720057Y-184885771D01*
X179720057Y-185028628D01*
X180648628Y-186385771D02*
X180505771Y-186314342D01*
X180434342Y-186171485D01*
X180434342Y-184885771D01*
X181791485Y-186314342D02*
X181648628Y-186385771D01*
X181362914Y-186385771D01*
X181220057Y-186314342D01*
X181148628Y-186171485D01*
X181148628Y-185600057D01*
X181220057Y-185457200D01*
X181362914Y-185385771D01*
X181648628Y-185385771D01*
X181791485Y-185457200D01*
X181862914Y-185600057D01*
X181862914Y-185742914D01*
X181148628Y-185885771D01*
X182505771Y-186242914D02*
X182577200Y-186314342D01*
X182505771Y-186385771D01*
X182434342Y-186314342D01*
X182505771Y-186242914D01*
X182505771Y-186385771D01*
X182505771Y-185457200D02*
X182577200Y-185528628D01*
X182505771Y-185600057D01*
X182434342Y-185528628D01*
X182505771Y-185457200D01*
X182505771Y-185600057D01*
X184362914Y-186385771D02*
X184362914Y-184885771D01*
X184934342Y-184885771D01*
X185077200Y-184957200D01*
X185148628Y-185028628D01*
X185220057Y-185171485D01*
X185220057Y-185385771D01*
X185148628Y-185528628D01*
X185077200Y-185600057D01*
X184934342Y-185671485D01*
X184362914Y-185671485D01*
X185862914Y-186385771D02*
X185862914Y-185385771D01*
X185862914Y-184885771D02*
X185791485Y-184957200D01*
X185862914Y-185028628D01*
X185934342Y-184957200D01*
X185862914Y-184885771D01*
X185862914Y-185028628D01*
X186577200Y-185385771D02*
X186577200Y-186385771D01*
X186577200Y-185528628D02*
X186648628Y-185457200D01*
X186791485Y-185385771D01*
X187005771Y-185385771D01*
X187148628Y-185457200D01*
X187220057Y-185600057D01*
X187220057Y-186385771D01*
X188505771Y-186314342D02*
X188362914Y-186385771D01*
X188077200Y-186385771D01*
X187934342Y-186314342D01*
X187862914Y-186171485D01*
X187862914Y-185600057D01*
X187934342Y-185457200D01*
X188077200Y-185385771D01*
X188362914Y-185385771D01*
X188505771Y-185457200D01*
X188577200Y-185600057D01*
X188577200Y-185742914D01*
X187862914Y-185885771D01*
X189220057Y-186242914D02*
X189291485Y-186314342D01*
X189220057Y-186385771D01*
X189148628Y-186314342D01*
X189220057Y-186242914D01*
X189220057Y-186385771D01*
X189934342Y-186385771D02*
X189934342Y-184885771D01*
X190077200Y-185814342D02*
X190505771Y-186385771D01*
X190505771Y-185385771D02*
X189934342Y-185957200D01*
X191148628Y-186385771D02*
X191148628Y-185385771D01*
X191148628Y-184885771D02*
X191077200Y-184957200D01*
X191148628Y-185028628D01*
X191220057Y-184957200D01*
X191148628Y-184885771D01*
X191148628Y-185028628D01*
X192505771Y-186314342D02*
X192362914Y-186385771D01*
X192077200Y-186385771D01*
X191934342Y-186314342D01*
X191862914Y-186242914D01*
X191791485Y-186100057D01*
X191791485Y-185671485D01*
X191862914Y-185528628D01*
X191934342Y-185457200D01*
X192077200Y-185385771D01*
X192362914Y-185385771D01*
X192505771Y-185457200D01*
X193791485Y-186385771D02*
X193791485Y-185600057D01*
X193720057Y-185457200D01*
X193577200Y-185385771D01*
X193291485Y-185385771D01*
X193148628Y-185457200D01*
X193791485Y-186314342D02*
X193648628Y-186385771D01*
X193291485Y-186385771D01*
X193148628Y-186314342D01*
X193077200Y-186171485D01*
X193077200Y-186028628D01*
X193148628Y-185885771D01*
X193291485Y-185814342D01*
X193648628Y-185814342D01*
X193791485Y-185742914D01*
X195148628Y-186385771D02*
X195148628Y-184885771D01*
X195148628Y-186314342D02*
X195005771Y-186385771D01*
X194720057Y-186385771D01*
X194577200Y-186314342D01*
X194505771Y-186242914D01*
X194434342Y-186100057D01*
X194434342Y-185671485D01*
X194505771Y-185528628D01*
X194577200Y-185457200D01*
X194720057Y-185385771D01*
X195005771Y-185385771D01*
X195148628Y-185457200D01*
X195505771Y-186528628D02*
X196648628Y-186528628D01*
X197005771Y-185385771D02*
X197005771Y-186885771D01*
X197005771Y-185457200D02*
X197148628Y-185385771D01*
X197434342Y-185385771D01*
X197577200Y-185457200D01*
X197648628Y-185528628D01*
X197720057Y-185671485D01*
X197720057Y-186100057D01*
X197648628Y-186242914D01*
X197577200Y-186314342D01*
X197434342Y-186385771D01*
X197148628Y-186385771D01*
X197005771Y-186314342D01*
X199005771Y-186314342D02*
X198862914Y-186385771D01*
X198577200Y-186385771D01*
X198434342Y-186314342D01*
X198362914Y-186242914D01*
X198291485Y-186100057D01*
X198291485Y-185671485D01*
X198362914Y-185528628D01*
X198434342Y-185457200D01*
X198577200Y-185385771D01*
X198862914Y-185385771D01*
X199005771Y-185457200D01*
X199648628Y-186385771D02*
X199648628Y-184885771D01*
X199648628Y-185457200D02*
X199791485Y-185385771D01*
X200077200Y-185385771D01*
X200220057Y-185457200D01*
X200291485Y-185528628D01*
X200362914Y-185671485D01*
X200362914Y-186100057D01*
X200291485Y-186242914D01*
X200220057Y-186314342D01*
X200077200Y-186385771D01*
X199791485Y-186385771D01*
X199648628Y-186314342D01*
D10*
D11*
X177002200Y-181507200D02*
X285002200Y-181507200D01*
D10*
D11*
X178362914Y-183614342D02*
X178577200Y-183685771D01*
X178934342Y-183685771D01*
X179077200Y-183614342D01*
X179148628Y-183542914D01*
X179220057Y-183400057D01*
X179220057Y-183257200D01*
X179148628Y-183114342D01*
X179077200Y-183042914D01*
X178934342Y-182971485D01*
X178648628Y-182900057D01*
X178505771Y-182828628D01*
X178434342Y-182757200D01*
X178362914Y-182614342D01*
X178362914Y-182471485D01*
X178434342Y-182328628D01*
X178505771Y-182257200D01*
X178648628Y-182185771D01*
X179005771Y-182185771D01*
X179220057Y-182257200D01*
X179862914Y-183685771D02*
X179862914Y-182185771D01*
X180505771Y-183685771D02*
X180505771Y-182900057D01*
X180434342Y-182757200D01*
X180291485Y-182685771D01*
X180077200Y-182685771D01*
X179934342Y-182757200D01*
X179862914Y-182828628D01*
X181791485Y-183614342D02*
X181648628Y-183685771D01*
X181362914Y-183685771D01*
X181220057Y-183614342D01*
X181148628Y-183471485D01*
X181148628Y-182900057D01*
X181220057Y-182757200D01*
X181362914Y-182685771D01*
X181648628Y-182685771D01*
X181791485Y-182757200D01*
X181862914Y-182900057D01*
X181862914Y-183042914D01*
X181148628Y-183185771D01*
X183077200Y-183614342D02*
X182934342Y-183685771D01*
X182648628Y-183685771D01*
X182505771Y-183614342D01*
X182434342Y-183471485D01*
X182434342Y-182900057D01*
X182505771Y-182757200D01*
X182648628Y-182685771D01*
X182934342Y-182685771D01*
X183077200Y-182757200D01*
X183148628Y-182900057D01*
X183148628Y-183042914D01*
X182434342Y-183185771D01*
X183577200Y-182685771D02*
X184148628Y-182685771D01*
X183791485Y-182185771D02*
X183791485Y-183471485D01*
X183862914Y-183614342D01*
X184005771Y-183685771D01*
X184148628Y-183685771D01*
X184648628Y-183542914D02*
X184720057Y-183614342D01*
X184648628Y-183685771D01*
X184577200Y-183614342D01*
X184648628Y-183542914D01*
X184648628Y-183685771D01*
X184648628Y-182757200D02*
X184720057Y-182828628D01*
X184648628Y-182900057D01*
X184577200Y-182828628D01*
X184648628Y-182757200D01*
X184648628Y-182900057D01*
D10*
D12*
X179411485Y-180542914D02*
X179340057Y-180614342D01*
X179125771Y-180685771D01*
X178982914Y-180685771D01*
X178768628Y-180614342D01*
X178625771Y-180471485D01*
X178554342Y-180328628D01*
X178482914Y-180042914D01*
X178482914Y-179828628D01*
X178554342Y-179542914D01*
X178625771Y-179400057D01*
X178768628Y-179257200D01*
X178982914Y-179185771D01*
X179125771Y-179185771D01*
X179340057Y-179257200D01*
X179411485Y-179328628D01*
X180268628Y-180685771D02*
X180125771Y-180614342D01*
X180054342Y-180542914D01*
X179982914Y-180400057D01*
X179982914Y-179971485D01*
X180054342Y-179828628D01*
X180125771Y-179757200D01*
X180268628Y-179685771D01*
X180482914Y-179685771D01*
X180625771Y-179757200D01*
X180697200Y-179828628D01*
X180768628Y-179971485D01*
X180768628Y-180400057D01*
X180697200Y-180542914D01*
X180625771Y-180614342D01*
X180482914Y-180685771D01*
X180268628Y-180685771D01*
X181411485Y-179685771D02*
X181411485Y-180685771D01*
X181411485Y-179828628D02*
X181482914Y-179757200D01*
X181625771Y-179685771D01*
X181840057Y-179685771D01*
X181982914Y-179757200D01*
X182054342Y-179900057D01*
X182054342Y-180685771D01*
X182554342Y-179685771D02*
X183125771Y-179685771D01*
X182768628Y-179185771D02*
X182768628Y-180471485D01*
X182840057Y-180614342D01*
X182982914Y-180685771D01*
X183125771Y-180685771D01*
X183625771Y-180685771D02*
X183625771Y-179685771D01*
X183625771Y-179971485D02*
X183697200Y-179828628D01*
X183768628Y-179757200D01*
X183911485Y-179685771D01*
X184054342Y-179685771D01*
X184768628Y-180685771D02*
X184625771Y-180614342D01*
X184554342Y-180542914D01*
X184482914Y-180400057D01*
X184482914Y-179971485D01*
X184554342Y-179828628D01*
X184625771Y-179757200D01*
X184768628Y-179685771D01*
X184982914Y-179685771D01*
X185125771Y-179757200D01*
X185197200Y-179828628D01*
X185268628Y-179971485D01*
X185268628Y-180400057D01*
X185197200Y-180542914D01*
X185125771Y-180614342D01*
X184982914Y-180685771D01*
X184768628Y-180685771D01*
X186125771Y-180685771D02*
X185982914Y-180614342D01*
X185911485Y-180471485D01*
X185911485Y-179185771D01*
X188482914Y-180685771D02*
X188482914Y-179900057D01*
X188411485Y-179757200D01*
X188268628Y-179685771D01*
X187982914Y-179685771D01*
X187840057Y-179757200D01*
X188482914Y-180614342D02*
X188340057Y-180685771D01*
X187982914Y-180685771D01*
X187840057Y-180614342D01*
X187768628Y-180471485D01*
X187768628Y-180328628D01*
X187840057Y-180185771D01*
X187982914Y-180114342D01*
X188340057Y-180114342D01*
X188482914Y-180042914D01*
X189197200Y-180685771D02*
X189197200Y-179685771D01*
X189197200Y-179185771D02*
X189125771Y-179257200D01*
X189197200Y-179328628D01*
X189268628Y-179257200D01*
X189197200Y-179185771D01*
X189197200Y-179328628D01*
X189911485Y-180685771D02*
X189911485Y-179685771D01*
X189911485Y-179971485D02*
X189982914Y-179828628D01*
X190054342Y-179757200D01*
X190197200Y-179685771D01*
X190340057Y-179685771D01*
X191482914Y-180614342D02*
X191340057Y-180685771D01*
X191054342Y-180685771D01*
X190911485Y-180614342D01*
X190840057Y-180542914D01*
X190768628Y-180400057D01*
X190768628Y-179971485D01*
X190840057Y-179828628D01*
X190911485Y-179757200D01*
X191054342Y-179685771D01*
X191340057Y-179685771D01*
X191482914Y-179757200D01*
X192340057Y-180685771D02*
X192197200Y-180614342D01*
X192125771Y-180542914D01*
X192054342Y-180400057D01*
X192054342Y-179971485D01*
X192125771Y-179828628D01*
X192197200Y-179757200D01*
X192340057Y-179685771D01*
X192554342Y-179685771D01*
X192697200Y-179757200D01*
X192768628Y-179828628D01*
X192840057Y-179971485D01*
X192840057Y-180400057D01*
X192768628Y-180542914D01*
X192697200Y-180614342D01*
X192554342Y-180685771D01*
X192340057Y-180685771D01*
X193482914Y-179685771D02*
X193482914Y-180685771D01*
X193482914Y-179828628D02*
X193554342Y-179757200D01*
X193697200Y-179685771D01*
X193911485Y-179685771D01*
X194054342Y-179757200D01*
X194125771Y-179900057D01*
X194125771Y-180685771D01*
X195982914Y-180685771D02*
X195982914Y-179185771D01*
X195982914Y-179757200D02*
X196125771Y-179685771D01*
X196411485Y-179685771D01*
X196554342Y-179757200D01*
X196625771Y-179828628D01*
X196697200Y-179971485D01*
X196697200Y-180400057D01*
X196625771Y-180542914D01*
X196554342Y-180614342D01*
X196411485Y-180685771D01*
X196125771Y-180685771D01*
X195982914Y-180614342D01*
X197197200Y-179685771D02*
X197554342Y-180685771D01*
X197911485Y-179685771D02*
X197554342Y-180685771D01*
X197411485Y-181042914D01*
X197340057Y-181114342D01*
X197197200Y-181185771D01*
X199625771Y-180685771D02*
X199625771Y-179685771D01*
X199625771Y-179828628D02*
X199697200Y-179757200D01*
X199840057Y-179685771D01*
X200054342Y-179685771D01*
X200197200Y-179757200D01*
X200268628Y-179900057D01*
X200268628Y-180685771D01*
X200268628Y-179900057D02*
X200340057Y-179757200D01*
X200482914Y-179685771D01*
X200697200Y-179685771D01*
X200840057Y-179757200D01*
X200911485Y-179900057D01*
X200911485Y-180685771D01*
X201840057Y-180685771D02*
X201697200Y-180614342D01*
X201625771Y-180542914D01*
X201554342Y-180400057D01*
X201554342Y-179971485D01*
X201625771Y-179828628D01*
X201697200Y-179757200D01*
X201840057Y-179685771D01*
X202054342Y-179685771D01*
X202197200Y-179757200D01*
X202268628Y-179828628D01*
X202340057Y-179971485D01*
X202340057Y-180400057D01*
X202268628Y-180542914D01*
X202197200Y-180614342D01*
X202054342Y-180685771D01*
X201840057Y-180685771D01*
X202982914Y-179685771D02*
X202982914Y-180685771D01*
X202982914Y-179828628D02*
X203054342Y-179757200D01*
X203197200Y-179685771D01*
X203411485Y-179685771D01*
X203554342Y-179757200D01*
X203625771Y-179900057D01*
X203625771Y-180685771D01*
X204340057Y-180685771D02*
X204340057Y-179685771D01*
X204340057Y-179185771D02*
X204268628Y-179257200D01*
X204340057Y-179328628D01*
X204411485Y-179257200D01*
X204340057Y-179185771D01*
X204340057Y-179328628D01*
X204840057Y-179685771D02*
X205411485Y-179685771D01*
X205054342Y-179185771D02*
X205054342Y-180471485D01*
X205125771Y-180614342D01*
X205268628Y-180685771D01*
X205411485Y-180685771D01*
X206125771Y-180685771D02*
X205982914Y-180614342D01*
X205911485Y-180542914D01*
X205840057Y-180400057D01*
X205840057Y-179971485D01*
X205911485Y-179828628D01*
X205982914Y-179757200D01*
X206125771Y-179685771D01*
X206340057Y-179685771D01*
X206482914Y-179757200D01*
X206554342Y-179828628D01*
X206625771Y-179971485D01*
X206625771Y-180400057D01*
X206554342Y-180542914D01*
X206482914Y-180614342D01*
X206340057Y-180685771D01*
X206125771Y-180685771D01*
X207268628Y-180685771D02*
X207268628Y-179685771D01*
X207268628Y-179971485D02*
X207340057Y-179828628D01*
X207411485Y-179757200D01*
X207554342Y-179685771D01*
X207697200Y-179685771D01*
X208197200Y-180685771D02*
X208197200Y-179685771D01*
X208197200Y-179185771D02*
X208125771Y-179257200D01*
X208197200Y-179328628D01*
X208268628Y-179257200D01*
X208197200Y-179185771D01*
X208197200Y-179328628D01*
X208911485Y-179685771D02*
X208911485Y-180685771D01*
X208911485Y-179828628D02*
X208982914Y-179757200D01*
X209125771Y-179685771D01*
X209340057Y-179685771D01*
X209482914Y-179757200D01*
X209554342Y-179900057D01*
X209554342Y-180685771D01*
X210911485Y-179685771D02*
X210911485Y-180900057D01*
X210840057Y-181042914D01*
X210768628Y-181114342D01*
X210625771Y-181185771D01*
X210411485Y-181185771D01*
X210268628Y-181114342D01*
X210911485Y-180614342D02*
X210768628Y-180685771D01*
X210482914Y-180685771D01*
X210340057Y-180614342D01*
X210268628Y-180542914D01*
X210197200Y-180400057D01*
X210197200Y-179971485D01*
X210268628Y-179828628D01*
X210340057Y-179757200D01*
X210482914Y-179685771D01*
X210768628Y-179685771D01*
X210911485Y-179757200D01*
X212554342Y-179685771D02*
X213125771Y-179685771D01*
X212768628Y-179185771D02*
X212768628Y-180471485D01*
X212840057Y-180614342D01*
X212982914Y-180685771D01*
X213125771Y-180685771D01*
X214197200Y-180614342D02*
X214054342Y-180685771D01*
X213768628Y-180685771D01*
X213625771Y-180614342D01*
X213554342Y-180471485D01*
X213554342Y-179900057D01*
X213625771Y-179757200D01*
X213768628Y-179685771D01*
X214054342Y-179685771D01*
X214197200Y-179757200D01*
X214268628Y-179900057D01*
X214268628Y-180042914D01*
X213554342Y-180185771D01*
X214911485Y-180685771D02*
X214911485Y-179685771D01*
X214911485Y-179828628D02*
X214982914Y-179757200D01*
X215125771Y-179685771D01*
X215340057Y-179685771D01*
X215482914Y-179757200D01*
X215554342Y-179900057D01*
X215554342Y-180685771D01*
X215554342Y-179900057D02*
X215625771Y-179757200D01*
X215768628Y-179685771D01*
X215982914Y-179685771D01*
X216125771Y-179757200D01*
X216197200Y-179900057D01*
X216197200Y-180685771D01*
X216911485Y-179685771D02*
X216911485Y-181185771D01*
X216911485Y-179757200D02*
X217054342Y-179685771D01*
X217340057Y-179685771D01*
X217482914Y-179757200D01*
X217554342Y-179828628D01*
X217625771Y-179971485D01*
X217625771Y-180400057D01*
X217554342Y-180542914D01*
X217482914Y-180614342D01*
X217340057Y-180685771D01*
X217054342Y-180685771D01*
X216911485Y-180614342D01*
X218840057Y-180614342D02*
X218697200Y-180685771D01*
X218411485Y-180685771D01*
X218268628Y-180614342D01*
X218197200Y-180471485D01*
X218197200Y-179900057D01*
X218268628Y-179757200D01*
X218411485Y-179685771D01*
X218697200Y-179685771D01*
X218840057Y-179757200D01*
X218911485Y-179900057D01*
X218911485Y-180042914D01*
X218197200Y-180185771D01*
X219554342Y-180685771D02*
X219554342Y-179685771D01*
X219554342Y-179971485D02*
X219625771Y-179828628D01*
X219697200Y-179757200D01*
X219840057Y-179685771D01*
X219982914Y-179685771D01*
X221125771Y-180685771D02*
X221125771Y-179900057D01*
X221054342Y-179757200D01*
X220911485Y-179685771D01*
X220625771Y-179685771D01*
X220482914Y-179757200D01*
X221125771Y-180614342D02*
X220982914Y-180685771D01*
X220625771Y-180685771D01*
X220482914Y-180614342D01*
X220411485Y-180471485D01*
X220411485Y-180328628D01*
X220482914Y-180185771D01*
X220625771Y-180114342D01*
X220982914Y-180114342D01*
X221125771Y-180042914D01*
X221625771Y-179685771D02*
X222197200Y-179685771D01*
X221840057Y-179185771D02*
X221840057Y-180471485D01*
X221911485Y-180614342D01*
X222054342Y-180685771D01*
X222197200Y-180685771D01*
X223340057Y-179685771D02*
X223340057Y-180685771D01*
X222697200Y-179685771D02*
X222697200Y-180471485D01*
X222768628Y-180614342D01*
X222911485Y-180685771D01*
X223125771Y-180685771D01*
X223268628Y-180614342D01*
X223340057Y-180542914D01*
X224054342Y-180685771D02*
X224054342Y-179685771D01*
X224054342Y-179971485D02*
X224125771Y-179828628D01*
X224197200Y-179757200D01*
X224340057Y-179685771D01*
X224482914Y-179685771D01*
X225554342Y-180614342D02*
X225411485Y-180685771D01*
X225125771Y-180685771D01*
X224982914Y-180614342D01*
X224911485Y-180471485D01*
X224911485Y-179900057D01*
X224982914Y-179757200D01*
X225125771Y-179685771D01*
X225411485Y-179685771D01*
X225554342Y-179757200D01*
X225625771Y-179900057D01*
X225625771Y-180042914D01*
X224911485Y-180185771D01*
X227411485Y-180685771D02*
X227411485Y-179685771D01*
X227411485Y-179185771D02*
X227340057Y-179257200D01*
X227411485Y-179328628D01*
X227482914Y-179257200D01*
X227411485Y-179185771D01*
X227411485Y-179328628D01*
X228125771Y-179685771D02*
X228125771Y-180685771D01*
X228125771Y-179828628D02*
X228197200Y-179757200D01*
X228340057Y-179685771D01*
X228554342Y-179685771D01*
X228697200Y-179757200D01*
X228768628Y-179900057D01*
X228768628Y-180685771D01*
X230840057Y-180685771D02*
X230697200Y-180614342D01*
X230625771Y-180542914D01*
X230554342Y-180400057D01*
X230554342Y-179971485D01*
X230625771Y-179828628D01*
X230697200Y-179757200D01*
X230840057Y-179685771D01*
X231054342Y-179685771D01*
X231197200Y-179757200D01*
X231268628Y-179828628D01*
X231340057Y-179971485D01*
X231340057Y-180400057D01*
X231268628Y-180542914D01*
X231197200Y-180614342D01*
X231054342Y-180685771D01*
X230840057Y-180685771D01*
X231768628Y-179685771D02*
X232340057Y-179685771D01*
X231982914Y-179185771D02*
X231982914Y-180471485D01*
X232054342Y-180614342D01*
X232197200Y-180685771D01*
X232340057Y-180685771D01*
X232840057Y-180685771D02*
X232840057Y-179185771D01*
X233482914Y-180685771D02*
X233482914Y-179900057D01*
X233411485Y-179757200D01*
X233268628Y-179685771D01*
X233054342Y-179685771D01*
X232911485Y-179757200D01*
X232840057Y-179828628D01*
X234768628Y-180614342D02*
X234625771Y-180685771D01*
X234340057Y-180685771D01*
X234197200Y-180614342D01*
X234125771Y-180471485D01*
X234125771Y-179900057D01*
X234197200Y-179757200D01*
X234340057Y-179685771D01*
X234625771Y-179685771D01*
X234768628Y-179757200D01*
X234840057Y-179900057D01*
X234840057Y-180042914D01*
X234125771Y-180185771D01*
X235482914Y-180685771D02*
X235482914Y-179685771D01*
X235482914Y-179971485D02*
X235554342Y-179828628D01*
X235625771Y-179757200D01*
X235768628Y-179685771D01*
X235911485Y-179685771D01*
X237554342Y-179685771D02*
X237554342Y-181185771D01*
X237554342Y-179757200D02*
X237697200Y-179685771D01*
X237982914Y-179685771D01*
X238125771Y-179757200D01*
X238197200Y-179828628D01*
X238268628Y-179971485D01*
X238268628Y-180400057D01*
X238197200Y-180542914D01*
X238125771Y-180614342D01*
X237982914Y-180685771D01*
X237697200Y-180685771D01*
X237554342Y-180614342D01*
X239554342Y-180685771D02*
X239554342Y-179900057D01*
X239482914Y-179757200D01*
X239340057Y-179685771D01*
X239054342Y-179685771D01*
X238911485Y-179757200D01*
X239554342Y-180614342D02*
X239411485Y-180685771D01*
X239054342Y-180685771D01*
X238911485Y-180614342D01*
X238840057Y-180471485D01*
X238840057Y-180328628D01*
X238911485Y-180185771D01*
X239054342Y-180114342D01*
X239411485Y-180114342D01*
X239554342Y-180042914D01*
X240268628Y-180685771D02*
X240268628Y-179685771D01*
X240268628Y-179971485D02*
X240340057Y-179828628D01*
X240411485Y-179757200D01*
X240554342Y-179685771D01*
X240697200Y-179685771D01*
X240982914Y-179685771D02*
X241554342Y-179685771D01*
X241197200Y-179185771D02*
X241197200Y-180471485D01*
X241268628Y-180614342D01*
X241411485Y-180685771D01*
X241554342Y-180685771D01*
X241982914Y-180614342D02*
X242125771Y-180685771D01*
X242411485Y-180685771D01*
X242554342Y-180614342D01*
X242625771Y-180471485D01*
X242625771Y-180400057D01*
X242554342Y-180257200D01*
X242411485Y-180185771D01*
X242197200Y-180185771D01*
X242054342Y-180114342D01*
X241982914Y-179971485D01*
X241982914Y-179900057D01*
X242054342Y-179757200D01*
X242197200Y-179685771D01*
X242411485Y-179685771D01*
X242554342Y-179757200D01*
X244625771Y-180685771D02*
X244482914Y-180614342D01*
X244411485Y-180542914D01*
X244340057Y-180400057D01*
X244340057Y-179971485D01*
X244411485Y-179828628D01*
X244482914Y-179757200D01*
X244625771Y-179685771D01*
X244840057Y-179685771D01*
X244982914Y-179757200D01*
X245054342Y-179828628D01*
X245125771Y-179971485D01*
X245125771Y-180400057D01*
X245054342Y-180542914D01*
X244982914Y-180614342D01*
X244840057Y-180685771D01*
X244625771Y-180685771D01*
X245554342Y-179685771D02*
X246125771Y-179685771D01*
X245768628Y-180685771D02*
X245768628Y-179400057D01*
X245840057Y-179257200D01*
X245982914Y-179185771D01*
X246125771Y-179185771D01*
X247554342Y-179685771D02*
X248125771Y-179685771D01*
X247768628Y-179185771D02*
X247768628Y-180471485D01*
X247840057Y-180614342D01*
X247982914Y-180685771D01*
X248125771Y-180685771D01*
X248625771Y-180685771D02*
X248625771Y-179185771D01*
X249268628Y-180685771D02*
X249268628Y-179900057D01*
X249197200Y-179757200D01*
X249054342Y-179685771D01*
X248840057Y-179685771D01*
X248697200Y-179757200D01*
X248625771Y-179828628D01*
X250554342Y-180614342D02*
X250411485Y-180685771D01*
X250125771Y-180685771D01*
X249982914Y-180614342D01*
X249911485Y-180471485D01*
X249911485Y-179900057D01*
X249982914Y-179757200D01*
X250125771Y-179685771D01*
X250411485Y-179685771D01*
X250554342Y-179757200D01*
X250625771Y-179900057D01*
X250625771Y-180042914D01*
X249911485Y-180185771D01*
X252411485Y-180685771D02*
X252411485Y-179685771D01*
X252411485Y-179971485D02*
X252482914Y-179828628D01*
X252554342Y-179757200D01*
X252697200Y-179685771D01*
X252840057Y-179685771D01*
X253554342Y-180685771D02*
X253411485Y-180614342D01*
X253340057Y-180542914D01*
X253268628Y-180400057D01*
X253268628Y-179971485D01*
X253340057Y-179828628D01*
X253411485Y-179757200D01*
X253554342Y-179685771D01*
X253768628Y-179685771D01*
X253911485Y-179757200D01*
X253982914Y-179828628D01*
X254054342Y-179971485D01*
X254054342Y-180400057D01*
X253982914Y-180542914D01*
X253911485Y-180614342D01*
X253768628Y-180685771D01*
X253554342Y-180685771D01*
X254911485Y-180685771D02*
X254768628Y-180614342D01*
X254697199Y-180542914D01*
X254625771Y-180400057D01*
X254625771Y-179971485D01*
X254697199Y-179828628D01*
X254768628Y-179757200D01*
X254911485Y-179685771D01*
X255125771Y-179685771D01*
X255268628Y-179757200D01*
X255340057Y-179828628D01*
X255411485Y-179971485D01*
X255411485Y-180400057D01*
X255340057Y-180542914D01*
X255268628Y-180614342D01*
X255125771Y-180685771D01*
X254911485Y-180685771D01*
X256054342Y-180685771D02*
X256054342Y-179685771D01*
X256054342Y-179828628D02*
X256125771Y-179757200D01*
X256268628Y-179685771D01*
X256482914Y-179685771D01*
X256625771Y-179757200D01*
X256697199Y-179900057D01*
X256697199Y-180685771D01*
X256697199Y-179900057D02*
X256768628Y-179757200D01*
X256911485Y-179685771D01*
X257125771Y-179685771D01*
X257268628Y-179757200D01*
X257340057Y-179900057D01*
X257340057Y-180685771D01*
D10*
D11*
X197002200Y-191507200D02*
X197002200Y-194507200D01*
D10*
D11*
X261002200Y-191507200D02*
X261002200Y-198007200D01*
D10*
G36*
X166084505Y-75501204D02*
G01*
X166108773Y-75504804D01*
X166132572Y-75510765D01*
X166155671Y-75519030D01*
X166177850Y-75529520D01*
X166198893Y-75542132D01*
X166218599Y-75556747D01*
X166236777Y-75573223D01*
X166253253Y-75591401D01*
X166267868Y-75611107D01*
X166280480Y-75632150D01*
X166290970Y-75654329D01*
X166299235Y-75677428D01*
X166305196Y-75701227D01*
X166308796Y-75725495D01*
X166310000Y-75749999D01*
X166310000Y-76650001D01*
X166308796Y-76674505D01*
X166305196Y-76698773D01*
X166299235Y-76722572D01*
X166290970Y-76745671D01*
X166280480Y-76767850D01*
X166267868Y-76788893D01*
X166253253Y-76808599D01*
X166236777Y-76826777D01*
X166218599Y-76843253D01*
X166198893Y-76857868D01*
X166177850Y-76870480D01*
X166155671Y-76880970D01*
X166132572Y-76889235D01*
X166108773Y-76895196D01*
X166084505Y-76898796D01*
X166060001Y-76900000D01*
X165409999Y-76900000D01*
X165385495Y-76898796D01*
X165361227Y-76895196D01*
X165337428Y-76889235D01*
X165314329Y-76880970D01*
X165292150Y-76870480D01*
X165271107Y-76857868D01*
X165251401Y-76843253D01*
X165233223Y-76826777D01*
X165216747Y-76808599D01*
X165202132Y-76788893D01*
X165189520Y-76767850D01*
X165179030Y-76745671D01*
X165170765Y-76722572D01*
X165164804Y-76698773D01*
X165161204Y-76674505D01*
X165160000Y-76650001D01*
X165160000Y-75749999D01*
X165161204Y-75725495D01*
X165164804Y-75701227D01*
X165170765Y-75677428D01*
X165179030Y-75654329D01*
X165189520Y-75632150D01*
X165202132Y-75611107D01*
X165216747Y-75591401D01*
X165233223Y-75573223D01*
X165251401Y-75556747D01*
X165271107Y-75542132D01*
X165292150Y-75529520D01*
X165314329Y-75519030D01*
X165337428Y-75510765D01*
X165361227Y-75504804D01*
X165385495Y-75501204D01*
X165409999Y-75500000D01*
X166060001Y-75500000D01*
X166084505Y-75501204D01*
X166084505Y-75501204D01*
G37*
D14*
X165735000Y-76200000D03*
D10*
G36*
X164034505Y-75501204D02*
G01*
X164058773Y-75504804D01*
X164082572Y-75510765D01*
X164105671Y-75519030D01*
X164127850Y-75529520D01*
X164148893Y-75542132D01*
X164168599Y-75556747D01*
X164186777Y-75573223D01*
X164203253Y-75591401D01*
X164217868Y-75611107D01*
X164230480Y-75632150D01*
X164240970Y-75654329D01*
X164249235Y-75677428D01*
X164255196Y-75701227D01*
X164258796Y-75725495D01*
X164260000Y-75749999D01*
X164260000Y-76650001D01*
X164258796Y-76674505D01*
X164255196Y-76698773D01*
X164249235Y-76722572D01*
X164240970Y-76745671D01*
X164230480Y-76767850D01*
X164217868Y-76788893D01*
X164203253Y-76808599D01*
X164186777Y-76826777D01*
X164168599Y-76843253D01*
X164148893Y-76857868D01*
X164127850Y-76870480D01*
X164105671Y-76880970D01*
X164082572Y-76889235D01*
X164058773Y-76895196D01*
X164034505Y-76898796D01*
X164010001Y-76900000D01*
X163359999Y-76900000D01*
X163335495Y-76898796D01*
X163311227Y-76895196D01*
X163287428Y-76889235D01*
X163264329Y-76880970D01*
X163242150Y-76870480D01*
X163221107Y-76857868D01*
X163201401Y-76843253D01*
X163183223Y-76826777D01*
X163166747Y-76808599D01*
X163152132Y-76788893D01*
X163139520Y-76767850D01*
X163129030Y-76745671D01*
X163120765Y-76722572D01*
X163114804Y-76698773D01*
X163111204Y-76674505D01*
X163110000Y-76650001D01*
X163110000Y-75749999D01*
X163111204Y-75725495D01*
X163114804Y-75701227D01*
X163120765Y-75677428D01*
X163129030Y-75654329D01*
X163139520Y-75632150D01*
X163152132Y-75611107D01*
X163166747Y-75591401D01*
X163183223Y-75573223D01*
X163201401Y-75556747D01*
X163221107Y-75542132D01*
X163242150Y-75529520D01*
X163264329Y-75519030D01*
X163287428Y-75510765D01*
X163311227Y-75504804D01*
X163335495Y-75501204D01*
X163359999Y-75500000D01*
X164010001Y-75500000D01*
X164034505Y-75501204D01*
X164034505Y-75501204D01*
G37*
D14*
X163685000Y-76200000D03*
D15*
X194323000Y-52760000D03*
X194323000Y-52110000D03*
X194323000Y-51460000D03*
X194323000Y-50810000D03*
X194323000Y-50160000D03*
D10*
G36*
X176870505Y-43243204D02*
G01*
X176894773Y-43246804D01*
X176918572Y-43252765D01*
X176941671Y-43261030D01*
X176963850Y-43271520D01*
X176984893Y-43284132D01*
X177004599Y-43298747D01*
X177022777Y-43315223D01*
X177039253Y-43333401D01*
X177053868Y-43353107D01*
X177066480Y-43374150D01*
X177076970Y-43396329D01*
X177085235Y-43419428D01*
X177091196Y-43443227D01*
X177094796Y-43467495D01*
X177096000Y-43491999D01*
X177096000Y-44392001D01*
X177094796Y-44416505D01*
X177091196Y-44440773D01*
X177085235Y-44464572D01*
X177076970Y-44487671D01*
X177066480Y-44509850D01*
X177053868Y-44530893D01*
X177039253Y-44550599D01*
X177022777Y-44568777D01*
X177004599Y-44585253D01*
X176984893Y-44599868D01*
X176963850Y-44612480D01*
X176941671Y-44622970D01*
X176918572Y-44631235D01*
X176894773Y-44637196D01*
X176870505Y-44640796D01*
X176846001Y-44642000D01*
X176195999Y-44642000D01*
X176171495Y-44640796D01*
X176147227Y-44637196D01*
X176123428Y-44631235D01*
X176100329Y-44622970D01*
X176078150Y-44612480D01*
X176057107Y-44599868D01*
X176037401Y-44585253D01*
X176019223Y-44568777D01*
X176002747Y-44550599D01*
X175988132Y-44530893D01*
X175975520Y-44509850D01*
X175965030Y-44487671D01*
X175956765Y-44464572D01*
X175950804Y-44440773D01*
X175947204Y-44416505D01*
X175946000Y-44392001D01*
X175946000Y-43491999D01*
X175947204Y-43467495D01*
X175950804Y-43443227D01*
X175956765Y-43419428D01*
X175965030Y-43396329D01*
X175975520Y-43374150D01*
X175988132Y-43353107D01*
X176002747Y-43333401D01*
X176019223Y-43315223D01*
X176037401Y-43298747D01*
X176057107Y-43284132D01*
X176078150Y-43271520D01*
X176100329Y-43261030D01*
X176123428Y-43252765D01*
X176147227Y-43246804D01*
X176171495Y-43243204D01*
X176195999Y-43242000D01*
X176846001Y-43242000D01*
X176870505Y-43243204D01*
X176870505Y-43243204D01*
G37*
D14*
X176521000Y-43942000D03*
D10*
G36*
X178920505Y-43243204D02*
G01*
X178944773Y-43246804D01*
X178968572Y-43252765D01*
X178991671Y-43261030D01*
X179013850Y-43271520D01*
X179034893Y-43284132D01*
X179054599Y-43298747D01*
X179072777Y-43315223D01*
X179089253Y-43333401D01*
X179103868Y-43353107D01*
X179116480Y-43374150D01*
X179126970Y-43396329D01*
X179135235Y-43419428D01*
X179141196Y-43443227D01*
X179144796Y-43467495D01*
X179146000Y-43491999D01*
X179146000Y-44392001D01*
X179144796Y-44416505D01*
X179141196Y-44440773D01*
X179135235Y-44464572D01*
X179126970Y-44487671D01*
X179116480Y-44509850D01*
X179103868Y-44530893D01*
X179089253Y-44550599D01*
X179072777Y-44568777D01*
X179054599Y-44585253D01*
X179034893Y-44599868D01*
X179013850Y-44612480D01*
X178991671Y-44622970D01*
X178968572Y-44631235D01*
X178944773Y-44637196D01*
X178920505Y-44640796D01*
X178896001Y-44642000D01*
X178245999Y-44642000D01*
X178221495Y-44640796D01*
X178197227Y-44637196D01*
X178173428Y-44631235D01*
X178150329Y-44622970D01*
X178128150Y-44612480D01*
X178107107Y-44599868D01*
X178087401Y-44585253D01*
X178069223Y-44568777D01*
X178052747Y-44550599D01*
X178038132Y-44530893D01*
X178025520Y-44509850D01*
X178015030Y-44487671D01*
X178006765Y-44464572D01*
X178000804Y-44440773D01*
X177997204Y-44416505D01*
X177996000Y-44392001D01*
X177996000Y-43491999D01*
X177997204Y-43467495D01*
X178000804Y-43443227D01*
X178006765Y-43419428D01*
X178015030Y-43396329D01*
X178025520Y-43374150D01*
X178038132Y-43353107D01*
X178052747Y-43333401D01*
X178069223Y-43315223D01*
X178087401Y-43298747D01*
X178107107Y-43284132D01*
X178128150Y-43271520D01*
X178150329Y-43261030D01*
X178173428Y-43252765D01*
X178197227Y-43246804D01*
X178221495Y-43243204D01*
X178245999Y-43242000D01*
X178896001Y-43242000D01*
X178920505Y-43243204D01*
X178920505Y-43243204D01*
G37*
D14*
X178571000Y-43942000D03*
D10*
G36*
X155534910Y-62166202D02*
G01*
X155559135Y-62169795D01*
X155582891Y-62175746D01*
X155605949Y-62183996D01*
X155628087Y-62194467D01*
X155649093Y-62207057D01*
X155668763Y-62221645D01*
X155686908Y-62238092D01*
X155703355Y-62256237D01*
X155717943Y-62275907D01*
X155730533Y-62296913D01*
X155741004Y-62319051D01*
X155749254Y-62342109D01*
X155755205Y-62365865D01*
X155758798Y-62390090D01*
X155760000Y-62414550D01*
X155760000Y-63315450D01*
X155758798Y-63339910D01*
X155755205Y-63364135D01*
X155749254Y-63387891D01*
X155741004Y-63410949D01*
X155730533Y-63433087D01*
X155717943Y-63454093D01*
X155703355Y-63473763D01*
X155686908Y-63491908D01*
X155668763Y-63508355D01*
X155649093Y-63522943D01*
X155628087Y-63535533D01*
X155605949Y-63546004D01*
X155582891Y-63554254D01*
X155559135Y-63560205D01*
X155534910Y-63563798D01*
X155510450Y-63565000D01*
X154859550Y-63565000D01*
X154835090Y-63563798D01*
X154810865Y-63560205D01*
X154787109Y-63554254D01*
X154764051Y-63546004D01*
X154741913Y-63535533D01*
X154720907Y-63522943D01*
X154701237Y-63508355D01*
X154683092Y-63491908D01*
X154666645Y-63473763D01*
X154652057Y-63454093D01*
X154639467Y-63433087D01*
X154628996Y-63410949D01*
X154620746Y-63387891D01*
X154614795Y-63364135D01*
X154611202Y-63339910D01*
X154610000Y-63315450D01*
X154610000Y-62414550D01*
X154611202Y-62390090D01*
X154614795Y-62365865D01*
X154620746Y-62342109D01*
X154628996Y-62319051D01*
X154639467Y-62296913D01*
X154652057Y-62275907D01*
X154666645Y-62256237D01*
X154683092Y-62238092D01*
X154701237Y-62221645D01*
X154720907Y-62207057D01*
X154741913Y-62194467D01*
X154764051Y-62183996D01*
X154787109Y-62175746D01*
X154810865Y-62169795D01*
X154835090Y-62166202D01*
X154859550Y-62165000D01*
X155510450Y-62165000D01*
X155534910Y-62166202D01*
X155534910Y-62166202D01*
G37*
D14*
X155185000Y-62865000D03*
D10*
G36*
X157584910Y-62166202D02*
G01*
X157609135Y-62169795D01*
X157632891Y-62175746D01*
X157655949Y-62183996D01*
X157678087Y-62194467D01*
X157699093Y-62207057D01*
X157718763Y-62221645D01*
X157736908Y-62238092D01*
X157753355Y-62256237D01*
X157767943Y-62275907D01*
X157780533Y-62296913D01*
X157791004Y-62319051D01*
X157799254Y-62342109D01*
X157805205Y-62365865D01*
X157808798Y-62390090D01*
X157810000Y-62414550D01*
X157810000Y-63315450D01*
X157808798Y-63339910D01*
X157805205Y-63364135D01*
X157799254Y-63387891D01*
X157791004Y-63410949D01*
X157780533Y-63433087D01*
X157767943Y-63454093D01*
X157753355Y-63473763D01*
X157736908Y-63491908D01*
X157718763Y-63508355D01*
X157699093Y-63522943D01*
X157678087Y-63535533D01*
X157655949Y-63546004D01*
X157632891Y-63554254D01*
X157609135Y-63560205D01*
X157584910Y-63563798D01*
X157560450Y-63565000D01*
X156909550Y-63565000D01*
X156885090Y-63563798D01*
X156860865Y-63560205D01*
X156837109Y-63554254D01*
X156814051Y-63546004D01*
X156791913Y-63535533D01*
X156770907Y-63522943D01*
X156751237Y-63508355D01*
X156733092Y-63491908D01*
X156716645Y-63473763D01*
X156702057Y-63454093D01*
X156689467Y-63433087D01*
X156678996Y-63410949D01*
X156670746Y-63387891D01*
X156664795Y-63364135D01*
X156661202Y-63339910D01*
X156660000Y-63315450D01*
X156660000Y-62414550D01*
X156661202Y-62390090D01*
X156664795Y-62365865D01*
X156670746Y-62342109D01*
X156678996Y-62319051D01*
X156689467Y-62296913D01*
X156702057Y-62275907D01*
X156716645Y-62256237D01*
X156733092Y-62238092D01*
X156751237Y-62221645D01*
X156770907Y-62207057D01*
X156791913Y-62194467D01*
X156814051Y-62183996D01*
X156837109Y-62175746D01*
X156860865Y-62169795D01*
X156885090Y-62166202D01*
X156909550Y-62165000D01*
X157560450Y-62165000D01*
X157584910Y-62166202D01*
X157584910Y-62166202D01*
G37*
D14*
X157235000Y-62865000D03*
D10*
G36*
X155534910Y-57721202D02*
G01*
X155559135Y-57724795D01*
X155582891Y-57730746D01*
X155605949Y-57738996D01*
X155628087Y-57749467D01*
X155649093Y-57762057D01*
X155668763Y-57776645D01*
X155686908Y-57793092D01*
X155703355Y-57811237D01*
X155717943Y-57830907D01*
X155730533Y-57851913D01*
X155741004Y-57874051D01*
X155749254Y-57897109D01*
X155755205Y-57920865D01*
X155758798Y-57945090D01*
X155760000Y-57969550D01*
X155760000Y-58870450D01*
X155758798Y-58894910D01*
X155755205Y-58919135D01*
X155749254Y-58942891D01*
X155741004Y-58965949D01*
X155730533Y-58988087D01*
X155717943Y-59009093D01*
X155703355Y-59028763D01*
X155686908Y-59046908D01*
X155668763Y-59063355D01*
X155649093Y-59077943D01*
X155628087Y-59090533D01*
X155605949Y-59101004D01*
X155582891Y-59109254D01*
X155559135Y-59115205D01*
X155534910Y-59118798D01*
X155510450Y-59120000D01*
X154859550Y-59120000D01*
X154835090Y-59118798D01*
X154810865Y-59115205D01*
X154787109Y-59109254D01*
X154764051Y-59101004D01*
X154741913Y-59090533D01*
X154720907Y-59077943D01*
X154701237Y-59063355D01*
X154683092Y-59046908D01*
X154666645Y-59028763D01*
X154652057Y-59009093D01*
X154639467Y-58988087D01*
X154628996Y-58965949D01*
X154620746Y-58942891D01*
X154614795Y-58919135D01*
X154611202Y-58894910D01*
X154610000Y-58870450D01*
X154610000Y-57969550D01*
X154611202Y-57945090D01*
X154614795Y-57920865D01*
X154620746Y-57897109D01*
X154628996Y-57874051D01*
X154639467Y-57851913D01*
X154652057Y-57830907D01*
X154666645Y-57811237D01*
X154683092Y-57793092D01*
X154701237Y-57776645D01*
X154720907Y-57762057D01*
X154741913Y-57749467D01*
X154764051Y-57738996D01*
X154787109Y-57730746D01*
X154810865Y-57724795D01*
X154835090Y-57721202D01*
X154859550Y-57720000D01*
X155510450Y-57720000D01*
X155534910Y-57721202D01*
X155534910Y-57721202D01*
G37*
D14*
X155185000Y-58420000D03*
D10*
G36*
X157584910Y-57721202D02*
G01*
X157609135Y-57724795D01*
X157632891Y-57730746D01*
X157655949Y-57738996D01*
X157678087Y-57749467D01*
X157699093Y-57762057D01*
X157718763Y-57776645D01*
X157736908Y-57793092D01*
X157753355Y-57811237D01*
X157767943Y-57830907D01*
X157780533Y-57851913D01*
X157791004Y-57874051D01*
X157799254Y-57897109D01*
X157805205Y-57920865D01*
X157808798Y-57945090D01*
X157810000Y-57969550D01*
X157810000Y-58870450D01*
X157808798Y-58894910D01*
X157805205Y-58919135D01*
X157799254Y-58942891D01*
X157791004Y-58965949D01*
X157780533Y-58988087D01*
X157767943Y-59009093D01*
X157753355Y-59028763D01*
X157736908Y-59046908D01*
X157718763Y-59063355D01*
X157699093Y-59077943D01*
X157678087Y-59090533D01*
X157655949Y-59101004D01*
X157632891Y-59109254D01*
X157609135Y-59115205D01*
X157584910Y-59118798D01*
X157560450Y-59120000D01*
X156909550Y-59120000D01*
X156885090Y-59118798D01*
X156860865Y-59115205D01*
X156837109Y-59109254D01*
X156814051Y-59101004D01*
X156791913Y-59090533D01*
X156770907Y-59077943D01*
X156751237Y-59063355D01*
X156733092Y-59046908D01*
X156716645Y-59028763D01*
X156702057Y-59009093D01*
X156689467Y-58988087D01*
X156678996Y-58965949D01*
X156670746Y-58942891D01*
X156664795Y-58919135D01*
X156661202Y-58894910D01*
X156660000Y-58870450D01*
X156660000Y-57969550D01*
X156661202Y-57945090D01*
X156664795Y-57920865D01*
X156670746Y-57897109D01*
X156678996Y-57874051D01*
X156689467Y-57851913D01*
X156702057Y-57830907D01*
X156716645Y-57811237D01*
X156733092Y-57793092D01*
X156751237Y-57776645D01*
X156770907Y-57762057D01*
X156791913Y-57749467D01*
X156814051Y-57738996D01*
X156837109Y-57730746D01*
X156860865Y-57724795D01*
X156885090Y-57721202D01*
X156909550Y-57720000D01*
X157560450Y-57720000D01*
X157584910Y-57721202D01*
X157584910Y-57721202D01*
G37*
D14*
X157235000Y-58420000D03*
D10*
G36*
X155534910Y-53276202D02*
G01*
X155559135Y-53279795D01*
X155582891Y-53285746D01*
X155605949Y-53293996D01*
X155628087Y-53304467D01*
X155649093Y-53317057D01*
X155668763Y-53331645D01*
X155686908Y-53348092D01*
X155703355Y-53366237D01*
X155717943Y-53385907D01*
X155730533Y-53406913D01*
X155741004Y-53429051D01*
X155749254Y-53452109D01*
X155755205Y-53475865D01*
X155758798Y-53500090D01*
X155760000Y-53524550D01*
X155760000Y-54425450D01*
X155758798Y-54449910D01*
X155755205Y-54474135D01*
X155749254Y-54497891D01*
X155741004Y-54520949D01*
X155730533Y-54543087D01*
X155717943Y-54564093D01*
X155703355Y-54583763D01*
X155686908Y-54601908D01*
X155668763Y-54618355D01*
X155649093Y-54632943D01*
X155628087Y-54645533D01*
X155605949Y-54656004D01*
X155582891Y-54664254D01*
X155559135Y-54670205D01*
X155534910Y-54673798D01*
X155510450Y-54675000D01*
X154859550Y-54675000D01*
X154835090Y-54673798D01*
X154810865Y-54670205D01*
X154787109Y-54664254D01*
X154764051Y-54656004D01*
X154741913Y-54645533D01*
X154720907Y-54632943D01*
X154701237Y-54618355D01*
X154683092Y-54601908D01*
X154666645Y-54583763D01*
X154652057Y-54564093D01*
X154639467Y-54543087D01*
X154628996Y-54520949D01*
X154620746Y-54497891D01*
X154614795Y-54474135D01*
X154611202Y-54449910D01*
X154610000Y-54425450D01*
X154610000Y-53524550D01*
X154611202Y-53500090D01*
X154614795Y-53475865D01*
X154620746Y-53452109D01*
X154628996Y-53429051D01*
X154639467Y-53406913D01*
X154652057Y-53385907D01*
X154666645Y-53366237D01*
X154683092Y-53348092D01*
X154701237Y-53331645D01*
X154720907Y-53317057D01*
X154741913Y-53304467D01*
X154764051Y-53293996D01*
X154787109Y-53285746D01*
X154810865Y-53279795D01*
X154835090Y-53276202D01*
X154859550Y-53275000D01*
X155510450Y-53275000D01*
X155534910Y-53276202D01*
X155534910Y-53276202D01*
G37*
D14*
X155185000Y-53975000D03*
D10*
G36*
X157584910Y-53276202D02*
G01*
X157609135Y-53279795D01*
X157632891Y-53285746D01*
X157655949Y-53293996D01*
X157678087Y-53304467D01*
X157699093Y-53317057D01*
X157718763Y-53331645D01*
X157736908Y-53348092D01*
X157753355Y-53366237D01*
X157767943Y-53385907D01*
X157780533Y-53406913D01*
X157791004Y-53429051D01*
X157799254Y-53452109D01*
X157805205Y-53475865D01*
X157808798Y-53500090D01*
X157810000Y-53524550D01*
X157810000Y-54425450D01*
X157808798Y-54449910D01*
X157805205Y-54474135D01*
X157799254Y-54497891D01*
X157791004Y-54520949D01*
X157780533Y-54543087D01*
X157767943Y-54564093D01*
X157753355Y-54583763D01*
X157736908Y-54601908D01*
X157718763Y-54618355D01*
X157699093Y-54632943D01*
X157678087Y-54645533D01*
X157655949Y-54656004D01*
X157632891Y-54664254D01*
X157609135Y-54670205D01*
X157584910Y-54673798D01*
X157560450Y-54675000D01*
X156909550Y-54675000D01*
X156885090Y-54673798D01*
X156860865Y-54670205D01*
X156837109Y-54664254D01*
X156814051Y-54656004D01*
X156791913Y-54645533D01*
X156770907Y-54632943D01*
X156751237Y-54618355D01*
X156733092Y-54601908D01*
X156716645Y-54583763D01*
X156702057Y-54564093D01*
X156689467Y-54543087D01*
X156678996Y-54520949D01*
X156670746Y-54497891D01*
X156664795Y-54474135D01*
X156661202Y-54449910D01*
X156660000Y-54425450D01*
X156660000Y-53524550D01*
X156661202Y-53500090D01*
X156664795Y-53475865D01*
X156670746Y-53452109D01*
X156678996Y-53429051D01*
X156689467Y-53406913D01*
X156702057Y-53385907D01*
X156716645Y-53366237D01*
X156733092Y-53348092D01*
X156751237Y-53331645D01*
X156770907Y-53317057D01*
X156791913Y-53304467D01*
X156814051Y-53293996D01*
X156837109Y-53285746D01*
X156860865Y-53279795D01*
X156885090Y-53276202D01*
X156909550Y-53275000D01*
X157560450Y-53275000D01*
X157584910Y-53276202D01*
X157584910Y-53276202D01*
G37*
D14*
X157235000Y-53975000D03*
D10*
G36*
X155534910Y-48831202D02*
G01*
X155559135Y-48834795D01*
X155582891Y-48840746D01*
X155605949Y-48848996D01*
X155628087Y-48859467D01*
X155649093Y-48872057D01*
X155668763Y-48886645D01*
X155686908Y-48903092D01*
X155703355Y-48921237D01*
X155717943Y-48940907D01*
X155730533Y-48961913D01*
X155741004Y-48984051D01*
X155749254Y-49007109D01*
X155755205Y-49030865D01*
X155758798Y-49055090D01*
X155760000Y-49079550D01*
X155760000Y-49980450D01*
X155758798Y-50004910D01*
X155755205Y-50029135D01*
X155749254Y-50052891D01*
X155741004Y-50075949D01*
X155730533Y-50098087D01*
X155717943Y-50119093D01*
X155703355Y-50138763D01*
X155686908Y-50156908D01*
X155668763Y-50173355D01*
X155649093Y-50187943D01*
X155628087Y-50200533D01*
X155605949Y-50211004D01*
X155582891Y-50219254D01*
X155559135Y-50225205D01*
X155534910Y-50228798D01*
X155510450Y-50230000D01*
X154859550Y-50230000D01*
X154835090Y-50228798D01*
X154810865Y-50225205D01*
X154787109Y-50219254D01*
X154764051Y-50211004D01*
X154741913Y-50200533D01*
X154720907Y-50187943D01*
X154701237Y-50173355D01*
X154683092Y-50156908D01*
X154666645Y-50138763D01*
X154652057Y-50119093D01*
X154639467Y-50098087D01*
X154628996Y-50075949D01*
X154620746Y-50052891D01*
X154614795Y-50029135D01*
X154611202Y-50004910D01*
X154610000Y-49980450D01*
X154610000Y-49079550D01*
X154611202Y-49055090D01*
X154614795Y-49030865D01*
X154620746Y-49007109D01*
X154628996Y-48984051D01*
X154639467Y-48961913D01*
X154652057Y-48940907D01*
X154666645Y-48921237D01*
X154683092Y-48903092D01*
X154701237Y-48886645D01*
X154720907Y-48872057D01*
X154741913Y-48859467D01*
X154764051Y-48848996D01*
X154787109Y-48840746D01*
X154810865Y-48834795D01*
X154835090Y-48831202D01*
X154859550Y-48830000D01*
X155510450Y-48830000D01*
X155534910Y-48831202D01*
X155534910Y-48831202D01*
G37*
D14*
X155185000Y-49530000D03*
D10*
G36*
X157584910Y-48831202D02*
G01*
X157609135Y-48834795D01*
X157632891Y-48840746D01*
X157655949Y-48848996D01*
X157678087Y-48859467D01*
X157699093Y-48872057D01*
X157718763Y-48886645D01*
X157736908Y-48903092D01*
X157753355Y-48921237D01*
X157767943Y-48940907D01*
X157780533Y-48961913D01*
X157791004Y-48984051D01*
X157799254Y-49007109D01*
X157805205Y-49030865D01*
X157808798Y-49055090D01*
X157810000Y-49079550D01*
X157810000Y-49980450D01*
X157808798Y-50004910D01*
X157805205Y-50029135D01*
X157799254Y-50052891D01*
X157791004Y-50075949D01*
X157780533Y-50098087D01*
X157767943Y-50119093D01*
X157753355Y-50138763D01*
X157736908Y-50156908D01*
X157718763Y-50173355D01*
X157699093Y-50187943D01*
X157678087Y-50200533D01*
X157655949Y-50211004D01*
X157632891Y-50219254D01*
X157609135Y-50225205D01*
X157584910Y-50228798D01*
X157560450Y-50230000D01*
X156909550Y-50230000D01*
X156885090Y-50228798D01*
X156860865Y-50225205D01*
X156837109Y-50219254D01*
X156814051Y-50211004D01*
X156791913Y-50200533D01*
X156770907Y-50187943D01*
X156751237Y-50173355D01*
X156733092Y-50156908D01*
X156716645Y-50138763D01*
X156702057Y-50119093D01*
X156689467Y-50098087D01*
X156678996Y-50075949D01*
X156670746Y-50052891D01*
X156664795Y-50029135D01*
X156661202Y-50004910D01*
X156660000Y-49980450D01*
X156660000Y-49079550D01*
X156661202Y-49055090D01*
X156664795Y-49030865D01*
X156670746Y-49007109D01*
X156678996Y-48984051D01*
X156689467Y-48961913D01*
X156702057Y-48940907D01*
X156716645Y-48921237D01*
X156733092Y-48903092D01*
X156751237Y-48886645D01*
X156770907Y-48872057D01*
X156791913Y-48859467D01*
X156814051Y-48848996D01*
X156837109Y-48840746D01*
X156860865Y-48834795D01*
X156885090Y-48831202D01*
X156909550Y-48830000D01*
X157560450Y-48830000D01*
X157584910Y-48831202D01*
X157584910Y-48831202D01*
G37*
D14*
X157235000Y-49530000D03*
D10*
G36*
X180934505Y-58356204D02*
G01*
X180958773Y-58359804D01*
X180982572Y-58365765D01*
X181005671Y-58374030D01*
X181027850Y-58384520D01*
X181048893Y-58397132D01*
X181068599Y-58411747D01*
X181086777Y-58428223D01*
X181103253Y-58446401D01*
X181117868Y-58466107D01*
X181130480Y-58487150D01*
X181140970Y-58509329D01*
X181149235Y-58532428D01*
X181155196Y-58556227D01*
X181158796Y-58580495D01*
X181160000Y-58604999D01*
X181160000Y-59505001D01*
X181158796Y-59529505D01*
X181155196Y-59553773D01*
X181149235Y-59577572D01*
X181140970Y-59600671D01*
X181130480Y-59622850D01*
X181117868Y-59643893D01*
X181103253Y-59663599D01*
X181086777Y-59681777D01*
X181068599Y-59698253D01*
X181048893Y-59712868D01*
X181027850Y-59725480D01*
X181005671Y-59735970D01*
X180982572Y-59744235D01*
X180958773Y-59750196D01*
X180934505Y-59753796D01*
X180910001Y-59755000D01*
X180259999Y-59755000D01*
X180235495Y-59753796D01*
X180211227Y-59750196D01*
X180187428Y-59744235D01*
X180164329Y-59735970D01*
X180142150Y-59725480D01*
X180121107Y-59712868D01*
X180101401Y-59698253D01*
X180083223Y-59681777D01*
X180066747Y-59663599D01*
X180052132Y-59643893D01*
X180039520Y-59622850D01*
X180029030Y-59600671D01*
X180020765Y-59577572D01*
X180014804Y-59553773D01*
X180011204Y-59529505D01*
X180010000Y-59505001D01*
X180010000Y-58604999D01*
X180011204Y-58580495D01*
X180014804Y-58556227D01*
X180020765Y-58532428D01*
X180029030Y-58509329D01*
X180039520Y-58487150D01*
X180052132Y-58466107D01*
X180066747Y-58446401D01*
X180083223Y-58428223D01*
X180101401Y-58411747D01*
X180121107Y-58397132D01*
X180142150Y-58384520D01*
X180164329Y-58374030D01*
X180187428Y-58365765D01*
X180211227Y-58359804D01*
X180235495Y-58356204D01*
X180259999Y-58355000D01*
X180910001Y-58355000D01*
X180934505Y-58356204D01*
X180934505Y-58356204D01*
G37*
D14*
X180585000Y-59055000D03*
D10*
G36*
X182984505Y-58356204D02*
G01*
X183008773Y-58359804D01*
X183032572Y-58365765D01*
X183055671Y-58374030D01*
X183077850Y-58384520D01*
X183098893Y-58397132D01*
X183118599Y-58411747D01*
X183136777Y-58428223D01*
X183153253Y-58446401D01*
X183167868Y-58466107D01*
X183180480Y-58487150D01*
X183190970Y-58509329D01*
X183199235Y-58532428D01*
X183205196Y-58556227D01*
X183208796Y-58580495D01*
X183210000Y-58604999D01*
X183210000Y-59505001D01*
X183208796Y-59529505D01*
X183205196Y-59553773D01*
X183199235Y-59577572D01*
X183190970Y-59600671D01*
X183180480Y-59622850D01*
X183167868Y-59643893D01*
X183153253Y-59663599D01*
X183136777Y-59681777D01*
X183118599Y-59698253D01*
X183098893Y-59712868D01*
X183077850Y-59725480D01*
X183055671Y-59735970D01*
X183032572Y-59744235D01*
X183008773Y-59750196D01*
X182984505Y-59753796D01*
X182960001Y-59755000D01*
X182309999Y-59755000D01*
X182285495Y-59753796D01*
X182261227Y-59750196D01*
X182237428Y-59744235D01*
X182214329Y-59735970D01*
X182192150Y-59725480D01*
X182171107Y-59712868D01*
X182151401Y-59698253D01*
X182133223Y-59681777D01*
X182116747Y-59663599D01*
X182102132Y-59643893D01*
X182089520Y-59622850D01*
X182079030Y-59600671D01*
X182070765Y-59577572D01*
X182064804Y-59553773D01*
X182061204Y-59529505D01*
X182060000Y-59505001D01*
X182060000Y-58604999D01*
X182061204Y-58580495D01*
X182064804Y-58556227D01*
X182070765Y-58532428D01*
X182079030Y-58509329D01*
X182089520Y-58487150D01*
X182102132Y-58466107D01*
X182116747Y-58446401D01*
X182133223Y-58428223D01*
X182151401Y-58411747D01*
X182171107Y-58397132D01*
X182192150Y-58384520D01*
X182214329Y-58374030D01*
X182237428Y-58365765D01*
X182261227Y-58359804D01*
X182285495Y-58356204D01*
X182309999Y-58355000D01*
X182960001Y-58355000D01*
X182984505Y-58356204D01*
X182984505Y-58356204D01*
G37*
D14*
X182635000Y-59055000D03*
D10*
G36*
X173314505Y-67246204D02*
G01*
X173338773Y-67249804D01*
X173362572Y-67255765D01*
X173385671Y-67264030D01*
X173407850Y-67274520D01*
X173428893Y-67287132D01*
X173448599Y-67301747D01*
X173466777Y-67318223D01*
X173483253Y-67336401D01*
X173497868Y-67356107D01*
X173510480Y-67377150D01*
X173520970Y-67399329D01*
X173529235Y-67422428D01*
X173535196Y-67446227D01*
X173538796Y-67470495D01*
X173540000Y-67494999D01*
X173540000Y-68395001D01*
X173538796Y-68419505D01*
X173535196Y-68443773D01*
X173529235Y-68467572D01*
X173520970Y-68490671D01*
X173510480Y-68512850D01*
X173497868Y-68533893D01*
X173483253Y-68553599D01*
X173466777Y-68571777D01*
X173448599Y-68588253D01*
X173428893Y-68602868D01*
X173407850Y-68615480D01*
X173385671Y-68625970D01*
X173362572Y-68634235D01*
X173338773Y-68640196D01*
X173314505Y-68643796D01*
X173290001Y-68645000D01*
X172639999Y-68645000D01*
X172615495Y-68643796D01*
X172591227Y-68640196D01*
X172567428Y-68634235D01*
X172544329Y-68625970D01*
X172522150Y-68615480D01*
X172501107Y-68602868D01*
X172481401Y-68588253D01*
X172463223Y-68571777D01*
X172446747Y-68553599D01*
X172432132Y-68533893D01*
X172419520Y-68512850D01*
X172409030Y-68490671D01*
X172400765Y-68467572D01*
X172394804Y-68443773D01*
X172391204Y-68419505D01*
X172390000Y-68395001D01*
X172390000Y-67494999D01*
X172391204Y-67470495D01*
X172394804Y-67446227D01*
X172400765Y-67422428D01*
X172409030Y-67399329D01*
X172419520Y-67377150D01*
X172432132Y-67356107D01*
X172446747Y-67336401D01*
X172463223Y-67318223D01*
X172481401Y-67301747D01*
X172501107Y-67287132D01*
X172522150Y-67274520D01*
X172544329Y-67264030D01*
X172567428Y-67255765D01*
X172591227Y-67249804D01*
X172615495Y-67246204D01*
X172639999Y-67245000D01*
X173290001Y-67245000D01*
X173314505Y-67246204D01*
X173314505Y-67246204D01*
G37*
D14*
X172965000Y-67945000D03*
D10*
G36*
X175364505Y-67246204D02*
G01*
X175388773Y-67249804D01*
X175412572Y-67255765D01*
X175435671Y-67264030D01*
X175457850Y-67274520D01*
X175478893Y-67287132D01*
X175498599Y-67301747D01*
X175516777Y-67318223D01*
X175533253Y-67336401D01*
X175547868Y-67356107D01*
X175560480Y-67377150D01*
X175570970Y-67399329D01*
X175579235Y-67422428D01*
X175585196Y-67446227D01*
X175588796Y-67470495D01*
X175590000Y-67494999D01*
X175590000Y-68395001D01*
X175588796Y-68419505D01*
X175585196Y-68443773D01*
X175579235Y-68467572D01*
X175570970Y-68490671D01*
X175560480Y-68512850D01*
X175547868Y-68533893D01*
X175533253Y-68553599D01*
X175516777Y-68571777D01*
X175498599Y-68588253D01*
X175478893Y-68602868D01*
X175457850Y-68615480D01*
X175435671Y-68625970D01*
X175412572Y-68634235D01*
X175388773Y-68640196D01*
X175364505Y-68643796D01*
X175340001Y-68645000D01*
X174689999Y-68645000D01*
X174665495Y-68643796D01*
X174641227Y-68640196D01*
X174617428Y-68634235D01*
X174594329Y-68625970D01*
X174572150Y-68615480D01*
X174551107Y-68602868D01*
X174531401Y-68588253D01*
X174513223Y-68571777D01*
X174496747Y-68553599D01*
X174482132Y-68533893D01*
X174469520Y-68512850D01*
X174459030Y-68490671D01*
X174450765Y-68467572D01*
X174444804Y-68443773D01*
X174441204Y-68419505D01*
X174440000Y-68395001D01*
X174440000Y-67494999D01*
X174441204Y-67470495D01*
X174444804Y-67446227D01*
X174450765Y-67422428D01*
X174459030Y-67399329D01*
X174469520Y-67377150D01*
X174482132Y-67356107D01*
X174496747Y-67336401D01*
X174513223Y-67318223D01*
X174531401Y-67301747D01*
X174551107Y-67287132D01*
X174572150Y-67274520D01*
X174594329Y-67264030D01*
X174617428Y-67255765D01*
X174641227Y-67249804D01*
X174665495Y-67246204D01*
X174689999Y-67245000D01*
X175340001Y-67245000D01*
X175364505Y-67246204D01*
X175364505Y-67246204D01*
G37*
D14*
X175015000Y-67945000D03*
D10*
G36*
X178909505Y-71571204D02*
G01*
X178933773Y-71574804D01*
X178957572Y-71580765D01*
X178980671Y-71589030D01*
X179002850Y-71599520D01*
X179023893Y-71612132D01*
X179043599Y-71626747D01*
X179061777Y-71643223D01*
X179078253Y-71661401D01*
X179092868Y-71681107D01*
X179105480Y-71702150D01*
X179115970Y-71724329D01*
X179124235Y-71747428D01*
X179130196Y-71771227D01*
X179133796Y-71795495D01*
X179135000Y-71819999D01*
X179135000Y-72470001D01*
X179133796Y-72494505D01*
X179130196Y-72518773D01*
X179124235Y-72542572D01*
X179115970Y-72565671D01*
X179105480Y-72587850D01*
X179092868Y-72608893D01*
X179078253Y-72628599D01*
X179061777Y-72646777D01*
X179043599Y-72663253D01*
X179023893Y-72677868D01*
X179002850Y-72690480D01*
X178980671Y-72700970D01*
X178957572Y-72709235D01*
X178933773Y-72715196D01*
X178909505Y-72718796D01*
X178885001Y-72720000D01*
X177984999Y-72720000D01*
X177960495Y-72718796D01*
X177936227Y-72715196D01*
X177912428Y-72709235D01*
X177889329Y-72700970D01*
X177867150Y-72690480D01*
X177846107Y-72677868D01*
X177826401Y-72663253D01*
X177808223Y-72646777D01*
X177791747Y-72628599D01*
X177777132Y-72608893D01*
X177764520Y-72587850D01*
X177754030Y-72565671D01*
X177745765Y-72542572D01*
X177739804Y-72518773D01*
X177736204Y-72494505D01*
X177735000Y-72470001D01*
X177735000Y-71819999D01*
X177736204Y-71795495D01*
X177739804Y-71771227D01*
X177745765Y-71747428D01*
X177754030Y-71724329D01*
X177764520Y-71702150D01*
X177777132Y-71681107D01*
X177791747Y-71661401D01*
X177808223Y-71643223D01*
X177826401Y-71626747D01*
X177846107Y-71612132D01*
X177867150Y-71599520D01*
X177889329Y-71589030D01*
X177912428Y-71580765D01*
X177936227Y-71574804D01*
X177960495Y-71571204D01*
X177984999Y-71570000D01*
X178885001Y-71570000D01*
X178909505Y-71571204D01*
X178909505Y-71571204D01*
G37*
D14*
X178435000Y-72145000D03*
D10*
G36*
X178909505Y-69521204D02*
G01*
X178933773Y-69524804D01*
X178957572Y-69530765D01*
X178980671Y-69539030D01*
X179002850Y-69549520D01*
X179023893Y-69562132D01*
X179043599Y-69576747D01*
X179061777Y-69593223D01*
X179078253Y-69611401D01*
X179092868Y-69631107D01*
X179105480Y-69652150D01*
X179115970Y-69674329D01*
X179124235Y-69697428D01*
X179130196Y-69721227D01*
X179133796Y-69745495D01*
X179135000Y-69769999D01*
X179135000Y-70420001D01*
X179133796Y-70444505D01*
X179130196Y-70468773D01*
X179124235Y-70492572D01*
X179115970Y-70515671D01*
X179105480Y-70537850D01*
X179092868Y-70558893D01*
X179078253Y-70578599D01*
X179061777Y-70596777D01*
X179043599Y-70613253D01*
X179023893Y-70627868D01*
X179002850Y-70640480D01*
X178980671Y-70650970D01*
X178957572Y-70659235D01*
X178933773Y-70665196D01*
X178909505Y-70668796D01*
X178885001Y-70670000D01*
X177984999Y-70670000D01*
X177960495Y-70668796D01*
X177936227Y-70665196D01*
X177912428Y-70659235D01*
X177889329Y-70650970D01*
X177867150Y-70640480D01*
X177846107Y-70627868D01*
X177826401Y-70613253D01*
X177808223Y-70596777D01*
X177791747Y-70578599D01*
X177777132Y-70558893D01*
X177764520Y-70537850D01*
X177754030Y-70515671D01*
X177745765Y-70492572D01*
X177739804Y-70468773D01*
X177736204Y-70444505D01*
X177735000Y-70420001D01*
X177735000Y-69769999D01*
X177736204Y-69745495D01*
X177739804Y-69721227D01*
X177745765Y-69697428D01*
X177754030Y-69674329D01*
X177764520Y-69652150D01*
X177777132Y-69631107D01*
X177791747Y-69611401D01*
X177808223Y-69593223D01*
X177826401Y-69576747D01*
X177846107Y-69562132D01*
X177867150Y-69549520D01*
X177889329Y-69539030D01*
X177912428Y-69530765D01*
X177936227Y-69524804D01*
X177960495Y-69521204D01*
X177984999Y-69520000D01*
X178885001Y-69520000D01*
X178909505Y-69521204D01*
X178909505Y-69521204D01*
G37*
D14*
X178435000Y-70095000D03*
D10*
G36*
X162029505Y-62166204D02*
G01*
X162053773Y-62169804D01*
X162077572Y-62175765D01*
X162100671Y-62184030D01*
X162122850Y-62194520D01*
X162143893Y-62207132D01*
X162163599Y-62221747D01*
X162181777Y-62238223D01*
X162198253Y-62256401D01*
X162212868Y-62276107D01*
X162225480Y-62297150D01*
X162235970Y-62319329D01*
X162244235Y-62342428D01*
X162250196Y-62366227D01*
X162253796Y-62390495D01*
X162255000Y-62414999D01*
X162255000Y-63315001D01*
X162253796Y-63339505D01*
X162250196Y-63363773D01*
X162244235Y-63387572D01*
X162235970Y-63410671D01*
X162225480Y-63432850D01*
X162212868Y-63453893D01*
X162198253Y-63473599D01*
X162181777Y-63491777D01*
X162163599Y-63508253D01*
X162143893Y-63522868D01*
X162122850Y-63535480D01*
X162100671Y-63545970D01*
X162077572Y-63554235D01*
X162053773Y-63560196D01*
X162029505Y-63563796D01*
X162005001Y-63565000D01*
X161354999Y-63565000D01*
X161330495Y-63563796D01*
X161306227Y-63560196D01*
X161282428Y-63554235D01*
X161259329Y-63545970D01*
X161237150Y-63535480D01*
X161216107Y-63522868D01*
X161196401Y-63508253D01*
X161178223Y-63491777D01*
X161161747Y-63473599D01*
X161147132Y-63453893D01*
X161134520Y-63432850D01*
X161124030Y-63410671D01*
X161115765Y-63387572D01*
X161109804Y-63363773D01*
X161106204Y-63339505D01*
X161105000Y-63315001D01*
X161105000Y-62414999D01*
X161106204Y-62390495D01*
X161109804Y-62366227D01*
X161115765Y-62342428D01*
X161124030Y-62319329D01*
X161134520Y-62297150D01*
X161147132Y-62276107D01*
X161161747Y-62256401D01*
X161178223Y-62238223D01*
X161196401Y-62221747D01*
X161216107Y-62207132D01*
X161237150Y-62194520D01*
X161259329Y-62184030D01*
X161282428Y-62175765D01*
X161306227Y-62169804D01*
X161330495Y-62166204D01*
X161354999Y-62165000D01*
X162005001Y-62165000D01*
X162029505Y-62166204D01*
X162029505Y-62166204D01*
G37*
D14*
X161680000Y-62865000D03*
D10*
G36*
X159979505Y-62166204D02*
G01*
X160003773Y-62169804D01*
X160027572Y-62175765D01*
X160050671Y-62184030D01*
X160072850Y-62194520D01*
X160093893Y-62207132D01*
X160113599Y-62221747D01*
X160131777Y-62238223D01*
X160148253Y-62256401D01*
X160162868Y-62276107D01*
X160175480Y-62297150D01*
X160185970Y-62319329D01*
X160194235Y-62342428D01*
X160200196Y-62366227D01*
X160203796Y-62390495D01*
X160205000Y-62414999D01*
X160205000Y-63315001D01*
X160203796Y-63339505D01*
X160200196Y-63363773D01*
X160194235Y-63387572D01*
X160185970Y-63410671D01*
X160175480Y-63432850D01*
X160162868Y-63453893D01*
X160148253Y-63473599D01*
X160131777Y-63491777D01*
X160113599Y-63508253D01*
X160093893Y-63522868D01*
X160072850Y-63535480D01*
X160050671Y-63545970D01*
X160027572Y-63554235D01*
X160003773Y-63560196D01*
X159979505Y-63563796D01*
X159955001Y-63565000D01*
X159304999Y-63565000D01*
X159280495Y-63563796D01*
X159256227Y-63560196D01*
X159232428Y-63554235D01*
X159209329Y-63545970D01*
X159187150Y-63535480D01*
X159166107Y-63522868D01*
X159146401Y-63508253D01*
X159128223Y-63491777D01*
X159111747Y-63473599D01*
X159097132Y-63453893D01*
X159084520Y-63432850D01*
X159074030Y-63410671D01*
X159065765Y-63387572D01*
X159059804Y-63363773D01*
X159056204Y-63339505D01*
X159055000Y-63315001D01*
X159055000Y-62414999D01*
X159056204Y-62390495D01*
X159059804Y-62366227D01*
X159065765Y-62342428D01*
X159074030Y-62319329D01*
X159084520Y-62297150D01*
X159097132Y-62276107D01*
X159111747Y-62256401D01*
X159128223Y-62238223D01*
X159146401Y-62221747D01*
X159166107Y-62207132D01*
X159187150Y-62194520D01*
X159209329Y-62184030D01*
X159232428Y-62175765D01*
X159256227Y-62169804D01*
X159280495Y-62166204D01*
X159304999Y-62165000D01*
X159955001Y-62165000D01*
X159979505Y-62166204D01*
X159979505Y-62166204D01*
G37*
D14*
X159630000Y-62865000D03*
D10*
G36*
X192879505Y-66981204D02*
G01*
X192903773Y-66984804D01*
X192927572Y-66990765D01*
X192950671Y-66999030D01*
X192972850Y-67009520D01*
X192993893Y-67022132D01*
X193013599Y-67036747D01*
X193031777Y-67053223D01*
X193048253Y-67071401D01*
X193062868Y-67091107D01*
X193075480Y-67112150D01*
X193085970Y-67134329D01*
X193094235Y-67157428D01*
X193100196Y-67181227D01*
X193103796Y-67205495D01*
X193105000Y-67229999D01*
X193105000Y-67880001D01*
X193103796Y-67904505D01*
X193100196Y-67928773D01*
X193094235Y-67952572D01*
X193085970Y-67975671D01*
X193075480Y-67997850D01*
X193062868Y-68018893D01*
X193048253Y-68038599D01*
X193031777Y-68056777D01*
X193013599Y-68073253D01*
X192993893Y-68087868D01*
X192972850Y-68100480D01*
X192950671Y-68110970D01*
X192927572Y-68119235D01*
X192903773Y-68125196D01*
X192879505Y-68128796D01*
X192855001Y-68130000D01*
X191954999Y-68130000D01*
X191930495Y-68128796D01*
X191906227Y-68125196D01*
X191882428Y-68119235D01*
X191859329Y-68110970D01*
X191837150Y-68100480D01*
X191816107Y-68087868D01*
X191796401Y-68073253D01*
X191778223Y-68056777D01*
X191761747Y-68038599D01*
X191747132Y-68018893D01*
X191734520Y-67997850D01*
X191724030Y-67975671D01*
X191715765Y-67952572D01*
X191709804Y-67928773D01*
X191706204Y-67904505D01*
X191705000Y-67880001D01*
X191705000Y-67229999D01*
X191706204Y-67205495D01*
X191709804Y-67181227D01*
X191715765Y-67157428D01*
X191724030Y-67134329D01*
X191734520Y-67112150D01*
X191747132Y-67091107D01*
X191761747Y-67071401D01*
X191778223Y-67053223D01*
X191796401Y-67036747D01*
X191816107Y-67022132D01*
X191837150Y-67009520D01*
X191859329Y-66999030D01*
X191882428Y-66990765D01*
X191906227Y-66984804D01*
X191930495Y-66981204D01*
X191954999Y-66980000D01*
X192855001Y-66980000D01*
X192879505Y-66981204D01*
X192879505Y-66981204D01*
G37*
D14*
X192405000Y-67555000D03*
D10*
G36*
X192879505Y-69031204D02*
G01*
X192903773Y-69034804D01*
X192927572Y-69040765D01*
X192950671Y-69049030D01*
X192972850Y-69059520D01*
X192993893Y-69072132D01*
X193013599Y-69086747D01*
X193031777Y-69103223D01*
X193048253Y-69121401D01*
X193062868Y-69141107D01*
X193075480Y-69162150D01*
X193085970Y-69184329D01*
X193094235Y-69207428D01*
X193100196Y-69231227D01*
X193103796Y-69255495D01*
X193105000Y-69279999D01*
X193105000Y-69930001D01*
X193103796Y-69954505D01*
X193100196Y-69978773D01*
X193094235Y-70002572D01*
X193085970Y-70025671D01*
X193075480Y-70047850D01*
X193062868Y-70068893D01*
X193048253Y-70088599D01*
X193031777Y-70106777D01*
X193013599Y-70123253D01*
X192993893Y-70137868D01*
X192972850Y-70150480D01*
X192950671Y-70160970D01*
X192927572Y-70169235D01*
X192903773Y-70175196D01*
X192879505Y-70178796D01*
X192855001Y-70180000D01*
X191954999Y-70180000D01*
X191930495Y-70178796D01*
X191906227Y-70175196D01*
X191882428Y-70169235D01*
X191859329Y-70160970D01*
X191837150Y-70150480D01*
X191816107Y-70137868D01*
X191796401Y-70123253D01*
X191778223Y-70106777D01*
X191761747Y-70088599D01*
X191747132Y-70068893D01*
X191734520Y-70047850D01*
X191724030Y-70025671D01*
X191715765Y-70002572D01*
X191709804Y-69978773D01*
X191706204Y-69954505D01*
X191705000Y-69930001D01*
X191705000Y-69279999D01*
X191706204Y-69255495D01*
X191709804Y-69231227D01*
X191715765Y-69207428D01*
X191724030Y-69184329D01*
X191734520Y-69162150D01*
X191747132Y-69141107D01*
X191761747Y-69121401D01*
X191778223Y-69103223D01*
X191796401Y-69086747D01*
X191816107Y-69072132D01*
X191837150Y-69059520D01*
X191859329Y-69049030D01*
X191882428Y-69040765D01*
X191906227Y-69034804D01*
X191930495Y-69031204D01*
X191954999Y-69030000D01*
X192855001Y-69030000D01*
X192879505Y-69031204D01*
X192879505Y-69031204D01*
G37*
D14*
X192405000Y-69605000D03*
D10*
G36*
X162029505Y-57721204D02*
G01*
X162053773Y-57724804D01*
X162077572Y-57730765D01*
X162100671Y-57739030D01*
X162122850Y-57749520D01*
X162143893Y-57762132D01*
X162163599Y-57776747D01*
X162181777Y-57793223D01*
X162198253Y-57811401D01*
X162212868Y-57831107D01*
X162225480Y-57852150D01*
X162235970Y-57874329D01*
X162244235Y-57897428D01*
X162250196Y-57921227D01*
X162253796Y-57945495D01*
X162255000Y-57969999D01*
X162255000Y-58870001D01*
X162253796Y-58894505D01*
X162250196Y-58918773D01*
X162244235Y-58942572D01*
X162235970Y-58965671D01*
X162225480Y-58987850D01*
X162212868Y-59008893D01*
X162198253Y-59028599D01*
X162181777Y-59046777D01*
X162163599Y-59063253D01*
X162143893Y-59077868D01*
X162122850Y-59090480D01*
X162100671Y-59100970D01*
X162077572Y-59109235D01*
X162053773Y-59115196D01*
X162029505Y-59118796D01*
X162005001Y-59120000D01*
X161354999Y-59120000D01*
X161330495Y-59118796D01*
X161306227Y-59115196D01*
X161282428Y-59109235D01*
X161259329Y-59100970D01*
X161237150Y-59090480D01*
X161216107Y-59077868D01*
X161196401Y-59063253D01*
X161178223Y-59046777D01*
X161161747Y-59028599D01*
X161147132Y-59008893D01*
X161134520Y-58987850D01*
X161124030Y-58965671D01*
X161115765Y-58942572D01*
X161109804Y-58918773D01*
X161106204Y-58894505D01*
X161105000Y-58870001D01*
X161105000Y-57969999D01*
X161106204Y-57945495D01*
X161109804Y-57921227D01*
X161115765Y-57897428D01*
X161124030Y-57874329D01*
X161134520Y-57852150D01*
X161147132Y-57831107D01*
X161161747Y-57811401D01*
X161178223Y-57793223D01*
X161196401Y-57776747D01*
X161216107Y-57762132D01*
X161237150Y-57749520D01*
X161259329Y-57739030D01*
X161282428Y-57730765D01*
X161306227Y-57724804D01*
X161330495Y-57721204D01*
X161354999Y-57720000D01*
X162005001Y-57720000D01*
X162029505Y-57721204D01*
X162029505Y-57721204D01*
G37*
D14*
X161680000Y-58420000D03*
D10*
G36*
X159979505Y-57721204D02*
G01*
X160003773Y-57724804D01*
X160027572Y-57730765D01*
X160050671Y-57739030D01*
X160072850Y-57749520D01*
X160093893Y-57762132D01*
X160113599Y-57776747D01*
X160131777Y-57793223D01*
X160148253Y-57811401D01*
X160162868Y-57831107D01*
X160175480Y-57852150D01*
X160185970Y-57874329D01*
X160194235Y-57897428D01*
X160200196Y-57921227D01*
X160203796Y-57945495D01*
X160205000Y-57969999D01*
X160205000Y-58870001D01*
X160203796Y-58894505D01*
X160200196Y-58918773D01*
X160194235Y-58942572D01*
X160185970Y-58965671D01*
X160175480Y-58987850D01*
X160162868Y-59008893D01*
X160148253Y-59028599D01*
X160131777Y-59046777D01*
X160113599Y-59063253D01*
X160093893Y-59077868D01*
X160072850Y-59090480D01*
X160050671Y-59100970D01*
X160027572Y-59109235D01*
X160003773Y-59115196D01*
X159979505Y-59118796D01*
X159955001Y-59120000D01*
X159304999Y-59120000D01*
X159280495Y-59118796D01*
X159256227Y-59115196D01*
X159232428Y-59109235D01*
X159209329Y-59100970D01*
X159187150Y-59090480D01*
X159166107Y-59077868D01*
X159146401Y-59063253D01*
X159128223Y-59046777D01*
X159111747Y-59028599D01*
X159097132Y-59008893D01*
X159084520Y-58987850D01*
X159074030Y-58965671D01*
X159065765Y-58942572D01*
X159059804Y-58918773D01*
X159056204Y-58894505D01*
X159055000Y-58870001D01*
X159055000Y-57969999D01*
X159056204Y-57945495D01*
X159059804Y-57921227D01*
X159065765Y-57897428D01*
X159074030Y-57874329D01*
X159084520Y-57852150D01*
X159097132Y-57831107D01*
X159111747Y-57811401D01*
X159128223Y-57793223D01*
X159146401Y-57776747D01*
X159166107Y-57762132D01*
X159187150Y-57749520D01*
X159209329Y-57739030D01*
X159232428Y-57730765D01*
X159256227Y-57724804D01*
X159280495Y-57721204D01*
X159304999Y-57720000D01*
X159955001Y-57720000D01*
X159979505Y-57721204D01*
X159979505Y-57721204D01*
G37*
D14*
X159630000Y-58420000D03*
D10*
G36*
X162029505Y-53276204D02*
G01*
X162053773Y-53279804D01*
X162077572Y-53285765D01*
X162100671Y-53294030D01*
X162122850Y-53304520D01*
X162143893Y-53317132D01*
X162163599Y-53331747D01*
X162181777Y-53348223D01*
X162198253Y-53366401D01*
X162212868Y-53386107D01*
X162225480Y-53407150D01*
X162235970Y-53429329D01*
X162244235Y-53452428D01*
X162250196Y-53476227D01*
X162253796Y-53500495D01*
X162255000Y-53524999D01*
X162255000Y-54425001D01*
X162253796Y-54449505D01*
X162250196Y-54473773D01*
X162244235Y-54497572D01*
X162235970Y-54520671D01*
X162225480Y-54542850D01*
X162212868Y-54563893D01*
X162198253Y-54583599D01*
X162181777Y-54601777D01*
X162163599Y-54618253D01*
X162143893Y-54632868D01*
X162122850Y-54645480D01*
X162100671Y-54655970D01*
X162077572Y-54664235D01*
X162053773Y-54670196D01*
X162029505Y-54673796D01*
X162005001Y-54675000D01*
X161354999Y-54675000D01*
X161330495Y-54673796D01*
X161306227Y-54670196D01*
X161282428Y-54664235D01*
X161259329Y-54655970D01*
X161237150Y-54645480D01*
X161216107Y-54632868D01*
X161196401Y-54618253D01*
X161178223Y-54601777D01*
X161161747Y-54583599D01*
X161147132Y-54563893D01*
X161134520Y-54542850D01*
X161124030Y-54520671D01*
X161115765Y-54497572D01*
X161109804Y-54473773D01*
X161106204Y-54449505D01*
X161105000Y-54425001D01*
X161105000Y-53524999D01*
X161106204Y-53500495D01*
X161109804Y-53476227D01*
X161115765Y-53452428D01*
X161124030Y-53429329D01*
X161134520Y-53407150D01*
X161147132Y-53386107D01*
X161161747Y-53366401D01*
X161178223Y-53348223D01*
X161196401Y-53331747D01*
X161216107Y-53317132D01*
X161237150Y-53304520D01*
X161259329Y-53294030D01*
X161282428Y-53285765D01*
X161306227Y-53279804D01*
X161330495Y-53276204D01*
X161354999Y-53275000D01*
X162005001Y-53275000D01*
X162029505Y-53276204D01*
X162029505Y-53276204D01*
G37*
D14*
X161680000Y-53975000D03*
D10*
G36*
X159979505Y-53276204D02*
G01*
X160003773Y-53279804D01*
X160027572Y-53285765D01*
X160050671Y-53294030D01*
X160072850Y-53304520D01*
X160093893Y-53317132D01*
X160113599Y-53331747D01*
X160131777Y-53348223D01*
X160148253Y-53366401D01*
X160162868Y-53386107D01*
X160175480Y-53407150D01*
X160185970Y-53429329D01*
X160194235Y-53452428D01*
X160200196Y-53476227D01*
X160203796Y-53500495D01*
X160205000Y-53524999D01*
X160205000Y-54425001D01*
X160203796Y-54449505D01*
X160200196Y-54473773D01*
X160194235Y-54497572D01*
X160185970Y-54520671D01*
X160175480Y-54542850D01*
X160162868Y-54563893D01*
X160148253Y-54583599D01*
X160131777Y-54601777D01*
X160113599Y-54618253D01*
X160093893Y-54632868D01*
X160072850Y-54645480D01*
X160050671Y-54655970D01*
X160027572Y-54664235D01*
X160003773Y-54670196D01*
X159979505Y-54673796D01*
X159955001Y-54675000D01*
X159304999Y-54675000D01*
X159280495Y-54673796D01*
X159256227Y-54670196D01*
X159232428Y-54664235D01*
X159209329Y-54655970D01*
X159187150Y-54645480D01*
X159166107Y-54632868D01*
X159146401Y-54618253D01*
X159128223Y-54601777D01*
X159111747Y-54583599D01*
X159097132Y-54563893D01*
X159084520Y-54542850D01*
X159074030Y-54520671D01*
X159065765Y-54497572D01*
X159059804Y-54473773D01*
X159056204Y-54449505D01*
X159055000Y-54425001D01*
X159055000Y-53524999D01*
X159056204Y-53500495D01*
X159059804Y-53476227D01*
X159065765Y-53452428D01*
X159074030Y-53429329D01*
X159084520Y-53407150D01*
X159097132Y-53386107D01*
X159111747Y-53366401D01*
X159128223Y-53348223D01*
X159146401Y-53331747D01*
X159166107Y-53317132D01*
X159187150Y-53304520D01*
X159209329Y-53294030D01*
X159232428Y-53285765D01*
X159256227Y-53279804D01*
X159280495Y-53276204D01*
X159304999Y-53275000D01*
X159955001Y-53275000D01*
X159979505Y-53276204D01*
X159979505Y-53276204D01*
G37*
D14*
X159630000Y-53975000D03*
D10*
G36*
X162029505Y-48831204D02*
G01*
X162053773Y-48834804D01*
X162077572Y-48840765D01*
X162100671Y-48849030D01*
X162122850Y-48859520D01*
X162143893Y-48872132D01*
X162163599Y-48886747D01*
X162181777Y-48903223D01*
X162198253Y-48921401D01*
X162212868Y-48941107D01*
X162225480Y-48962150D01*
X162235970Y-48984329D01*
X162244235Y-49007428D01*
X162250196Y-49031227D01*
X162253796Y-49055495D01*
X162255000Y-49079999D01*
X162255000Y-49980001D01*
X162253796Y-50004505D01*
X162250196Y-50028773D01*
X162244235Y-50052572D01*
X162235970Y-50075671D01*
X162225480Y-50097850D01*
X162212868Y-50118893D01*
X162198253Y-50138599D01*
X162181777Y-50156777D01*
X162163599Y-50173253D01*
X162143893Y-50187868D01*
X162122850Y-50200480D01*
X162100671Y-50210970D01*
X162077572Y-50219235D01*
X162053773Y-50225196D01*
X162029505Y-50228796D01*
X162005001Y-50230000D01*
X161354999Y-50230000D01*
X161330495Y-50228796D01*
X161306227Y-50225196D01*
X161282428Y-50219235D01*
X161259329Y-50210970D01*
X161237150Y-50200480D01*
X161216107Y-50187868D01*
X161196401Y-50173253D01*
X161178223Y-50156777D01*
X161161747Y-50138599D01*
X161147132Y-50118893D01*
X161134520Y-50097850D01*
X161124030Y-50075671D01*
X161115765Y-50052572D01*
X161109804Y-50028773D01*
X161106204Y-50004505D01*
X161105000Y-49980001D01*
X161105000Y-49079999D01*
X161106204Y-49055495D01*
X161109804Y-49031227D01*
X161115765Y-49007428D01*
X161124030Y-48984329D01*
X161134520Y-48962150D01*
X161147132Y-48941107D01*
X161161747Y-48921401D01*
X161178223Y-48903223D01*
X161196401Y-48886747D01*
X161216107Y-48872132D01*
X161237150Y-48859520D01*
X161259329Y-48849030D01*
X161282428Y-48840765D01*
X161306227Y-48834804D01*
X161330495Y-48831204D01*
X161354999Y-48830000D01*
X162005001Y-48830000D01*
X162029505Y-48831204D01*
X162029505Y-48831204D01*
G37*
D14*
X161680000Y-49530000D03*
D10*
G36*
X159979505Y-48831204D02*
G01*
X160003773Y-48834804D01*
X160027572Y-48840765D01*
X160050671Y-48849030D01*
X160072850Y-48859520D01*
X160093893Y-48872132D01*
X160113599Y-48886747D01*
X160131777Y-48903223D01*
X160148253Y-48921401D01*
X160162868Y-48941107D01*
X160175480Y-48962150D01*
X160185970Y-48984329D01*
X160194235Y-49007428D01*
X160200196Y-49031227D01*
X160203796Y-49055495D01*
X160205000Y-49079999D01*
X160205000Y-49980001D01*
X160203796Y-50004505D01*
X160200196Y-50028773D01*
X160194235Y-50052572D01*
X160185970Y-50075671D01*
X160175480Y-50097850D01*
X160162868Y-50118893D01*
X160148253Y-50138599D01*
X160131777Y-50156777D01*
X160113599Y-50173253D01*
X160093893Y-50187868D01*
X160072850Y-50200480D01*
X160050671Y-50210970D01*
X160027572Y-50219235D01*
X160003773Y-50225196D01*
X159979505Y-50228796D01*
X159955001Y-50230000D01*
X159304999Y-50230000D01*
X159280495Y-50228796D01*
X159256227Y-50225196D01*
X159232428Y-50219235D01*
X159209329Y-50210970D01*
X159187150Y-50200480D01*
X159166107Y-50187868D01*
X159146401Y-50173253D01*
X159128223Y-50156777D01*
X159111747Y-50138599D01*
X159097132Y-50118893D01*
X159084520Y-50097850D01*
X159074030Y-50075671D01*
X159065765Y-50052572D01*
X159059804Y-50028773D01*
X159056204Y-50004505D01*
X159055000Y-49980001D01*
X159055000Y-49079999D01*
X159056204Y-49055495D01*
X159059804Y-49031227D01*
X159065765Y-49007428D01*
X159074030Y-48984329D01*
X159084520Y-48962150D01*
X159097132Y-48941107D01*
X159111747Y-48921401D01*
X159128223Y-48903223D01*
X159146401Y-48886747D01*
X159166107Y-48872132D01*
X159187150Y-48859520D01*
X159209329Y-48849030D01*
X159232428Y-48840765D01*
X159256227Y-48834804D01*
X159280495Y-48831204D01*
X159304999Y-48830000D01*
X159955001Y-48830000D01*
X159979505Y-48831204D01*
X159979505Y-48831204D01*
G37*
D14*
X159630000Y-49530000D03*
D10*
G36*
X166209505Y-60776204D02*
G01*
X166233773Y-60779804D01*
X166257572Y-60785765D01*
X166280671Y-60794030D01*
X166302850Y-60804520D01*
X166323893Y-60817132D01*
X166343599Y-60831747D01*
X166361777Y-60848223D01*
X166378253Y-60866401D01*
X166392868Y-60886107D01*
X166405480Y-60907150D01*
X166415970Y-60929329D01*
X166424235Y-60952428D01*
X166430196Y-60976227D01*
X166433796Y-61000495D01*
X166435000Y-61024999D01*
X166435000Y-61675001D01*
X166433796Y-61699505D01*
X166430196Y-61723773D01*
X166424235Y-61747572D01*
X166415970Y-61770671D01*
X166405480Y-61792850D01*
X166392868Y-61813893D01*
X166378253Y-61833599D01*
X166361777Y-61851777D01*
X166343599Y-61868253D01*
X166323893Y-61882868D01*
X166302850Y-61895480D01*
X166280671Y-61905970D01*
X166257572Y-61914235D01*
X166233773Y-61920196D01*
X166209505Y-61923796D01*
X166185001Y-61925000D01*
X165284999Y-61925000D01*
X165260495Y-61923796D01*
X165236227Y-61920196D01*
X165212428Y-61914235D01*
X165189329Y-61905970D01*
X165167150Y-61895480D01*
X165146107Y-61882868D01*
X165126401Y-61868253D01*
X165108223Y-61851777D01*
X165091747Y-61833599D01*
X165077132Y-61813893D01*
X165064520Y-61792850D01*
X165054030Y-61770671D01*
X165045765Y-61747572D01*
X165039804Y-61723773D01*
X165036204Y-61699505D01*
X165035000Y-61675001D01*
X165035000Y-61024999D01*
X165036204Y-61000495D01*
X165039804Y-60976227D01*
X165045765Y-60952428D01*
X165054030Y-60929329D01*
X165064520Y-60907150D01*
X165077132Y-60886107D01*
X165091747Y-60866401D01*
X165108223Y-60848223D01*
X165126401Y-60831747D01*
X165146107Y-60817132D01*
X165167150Y-60804520D01*
X165189329Y-60794030D01*
X165212428Y-60785765D01*
X165236227Y-60779804D01*
X165260495Y-60776204D01*
X165284999Y-60775000D01*
X166185001Y-60775000D01*
X166209505Y-60776204D01*
X166209505Y-60776204D01*
G37*
D14*
X165735000Y-61350000D03*
D10*
G36*
X166209505Y-58726204D02*
G01*
X166233773Y-58729804D01*
X166257572Y-58735765D01*
X166280671Y-58744030D01*
X166302850Y-58754520D01*
X166323893Y-58767132D01*
X166343599Y-58781747D01*
X166361777Y-58798223D01*
X166378253Y-58816401D01*
X166392868Y-58836107D01*
X166405480Y-58857150D01*
X166415970Y-58879329D01*
X166424235Y-58902428D01*
X166430196Y-58926227D01*
X166433796Y-58950495D01*
X166435000Y-58974999D01*
X166435000Y-59625001D01*
X166433796Y-59649505D01*
X166430196Y-59673773D01*
X166424235Y-59697572D01*
X166415970Y-59720671D01*
X166405480Y-59742850D01*
X166392868Y-59763893D01*
X166378253Y-59783599D01*
X166361777Y-59801777D01*
X166343599Y-59818253D01*
X166323893Y-59832868D01*
X166302850Y-59845480D01*
X166280671Y-59855970D01*
X166257572Y-59864235D01*
X166233773Y-59870196D01*
X166209505Y-59873796D01*
X166185001Y-59875000D01*
X165284999Y-59875000D01*
X165260495Y-59873796D01*
X165236227Y-59870196D01*
X165212428Y-59864235D01*
X165189329Y-59855970D01*
X165167150Y-59845480D01*
X165146107Y-59832868D01*
X165126401Y-59818253D01*
X165108223Y-59801777D01*
X165091747Y-59783599D01*
X165077132Y-59763893D01*
X165064520Y-59742850D01*
X165054030Y-59720671D01*
X165045765Y-59697572D01*
X165039804Y-59673773D01*
X165036204Y-59649505D01*
X165035000Y-59625001D01*
X165035000Y-58974999D01*
X165036204Y-58950495D01*
X165039804Y-58926227D01*
X165045765Y-58902428D01*
X165054030Y-58879329D01*
X165064520Y-58857150D01*
X165077132Y-58836107D01*
X165091747Y-58816401D01*
X165108223Y-58798223D01*
X165126401Y-58781747D01*
X165146107Y-58767132D01*
X165167150Y-58754520D01*
X165189329Y-58744030D01*
X165212428Y-58735765D01*
X165236227Y-58729804D01*
X165260495Y-58726204D01*
X165284999Y-58725000D01*
X166185001Y-58725000D01*
X166209505Y-58726204D01*
X166209505Y-58726204D01*
G37*
D14*
X165735000Y-59300000D03*
D10*
G36*
X166209505Y-54281204D02*
G01*
X166233773Y-54284804D01*
X166257572Y-54290765D01*
X166280671Y-54299030D01*
X166302850Y-54309520D01*
X166323893Y-54322132D01*
X166343599Y-54336747D01*
X166361777Y-54353223D01*
X166378253Y-54371401D01*
X166392868Y-54391107D01*
X166405480Y-54412150D01*
X166415970Y-54434329D01*
X166424235Y-54457428D01*
X166430196Y-54481227D01*
X166433796Y-54505495D01*
X166435000Y-54529999D01*
X166435000Y-55180001D01*
X166433796Y-55204505D01*
X166430196Y-55228773D01*
X166424235Y-55252572D01*
X166415970Y-55275671D01*
X166405480Y-55297850D01*
X166392868Y-55318893D01*
X166378253Y-55338599D01*
X166361777Y-55356777D01*
X166343599Y-55373253D01*
X166323893Y-55387868D01*
X166302850Y-55400480D01*
X166280671Y-55410970D01*
X166257572Y-55419235D01*
X166233773Y-55425196D01*
X166209505Y-55428796D01*
X166185001Y-55430000D01*
X165284999Y-55430000D01*
X165260495Y-55428796D01*
X165236227Y-55425196D01*
X165212428Y-55419235D01*
X165189329Y-55410970D01*
X165167150Y-55400480D01*
X165146107Y-55387868D01*
X165126401Y-55373253D01*
X165108223Y-55356777D01*
X165091747Y-55338599D01*
X165077132Y-55318893D01*
X165064520Y-55297850D01*
X165054030Y-55275671D01*
X165045765Y-55252572D01*
X165039804Y-55228773D01*
X165036204Y-55204505D01*
X165035000Y-55180001D01*
X165035000Y-54529999D01*
X165036204Y-54505495D01*
X165039804Y-54481227D01*
X165045765Y-54457428D01*
X165054030Y-54434329D01*
X165064520Y-54412150D01*
X165077132Y-54391107D01*
X165091747Y-54371401D01*
X165108223Y-54353223D01*
X165126401Y-54336747D01*
X165146107Y-54322132D01*
X165167150Y-54309520D01*
X165189329Y-54299030D01*
X165212428Y-54290765D01*
X165236227Y-54284804D01*
X165260495Y-54281204D01*
X165284999Y-54280000D01*
X166185001Y-54280000D01*
X166209505Y-54281204D01*
X166209505Y-54281204D01*
G37*
D14*
X165735000Y-54855000D03*
D10*
G36*
X166209505Y-56331204D02*
G01*
X166233773Y-56334804D01*
X166257572Y-56340765D01*
X166280671Y-56349030D01*
X166302850Y-56359520D01*
X166323893Y-56372132D01*
X166343599Y-56386747D01*
X166361777Y-56403223D01*
X166378253Y-56421401D01*
X166392868Y-56441107D01*
X166405480Y-56462150D01*
X166415970Y-56484329D01*
X166424235Y-56507428D01*
X166430196Y-56531227D01*
X166433796Y-56555495D01*
X166435000Y-56579999D01*
X166435000Y-57230001D01*
X166433796Y-57254505D01*
X166430196Y-57278773D01*
X166424235Y-57302572D01*
X166415970Y-57325671D01*
X166405480Y-57347850D01*
X166392868Y-57368893D01*
X166378253Y-57388599D01*
X166361777Y-57406777D01*
X166343599Y-57423253D01*
X166323893Y-57437868D01*
X166302850Y-57450480D01*
X166280671Y-57460970D01*
X166257572Y-57469235D01*
X166233773Y-57475196D01*
X166209505Y-57478796D01*
X166185001Y-57480000D01*
X165284999Y-57480000D01*
X165260495Y-57478796D01*
X165236227Y-57475196D01*
X165212428Y-57469235D01*
X165189329Y-57460970D01*
X165167150Y-57450480D01*
X165146107Y-57437868D01*
X165126401Y-57423253D01*
X165108223Y-57406777D01*
X165091747Y-57388599D01*
X165077132Y-57368893D01*
X165064520Y-57347850D01*
X165054030Y-57325671D01*
X165045765Y-57302572D01*
X165039804Y-57278773D01*
X165036204Y-57254505D01*
X165035000Y-57230001D01*
X165035000Y-56579999D01*
X165036204Y-56555495D01*
X165039804Y-56531227D01*
X165045765Y-56507428D01*
X165054030Y-56484329D01*
X165064520Y-56462150D01*
X165077132Y-56441107D01*
X165091747Y-56421401D01*
X165108223Y-56403223D01*
X165126401Y-56386747D01*
X165146107Y-56372132D01*
X165167150Y-56359520D01*
X165189329Y-56349030D01*
X165212428Y-56340765D01*
X165236227Y-56334804D01*
X165260495Y-56331204D01*
X165284999Y-56330000D01*
X166185001Y-56330000D01*
X166209505Y-56331204D01*
X166209505Y-56331204D01*
G37*
D14*
X165735000Y-56905000D03*
D10*
G36*
X170919505Y-65976204D02*
G01*
X170943773Y-65979804D01*
X170967572Y-65985765D01*
X170990671Y-65994030D01*
X171012850Y-66004520D01*
X171033893Y-66017132D01*
X171053599Y-66031747D01*
X171071777Y-66048223D01*
X171088253Y-66066401D01*
X171102868Y-66086107D01*
X171115480Y-66107150D01*
X171125970Y-66129329D01*
X171134235Y-66152428D01*
X171140196Y-66176227D01*
X171143796Y-66200495D01*
X171145000Y-66224999D01*
X171145000Y-67125001D01*
X171143796Y-67149505D01*
X171140196Y-67173773D01*
X171134235Y-67197572D01*
X171125970Y-67220671D01*
X171115480Y-67242850D01*
X171102868Y-67263893D01*
X171088253Y-67283599D01*
X171071777Y-67301777D01*
X171053599Y-67318253D01*
X171033893Y-67332868D01*
X171012850Y-67345480D01*
X170990671Y-67355970D01*
X170967572Y-67364235D01*
X170943773Y-67370196D01*
X170919505Y-67373796D01*
X170895001Y-67375000D01*
X170244999Y-67375000D01*
X170220495Y-67373796D01*
X170196227Y-67370196D01*
X170172428Y-67364235D01*
X170149329Y-67355970D01*
X170127150Y-67345480D01*
X170106107Y-67332868D01*
X170086401Y-67318253D01*
X170068223Y-67301777D01*
X170051747Y-67283599D01*
X170037132Y-67263893D01*
X170024520Y-67242850D01*
X170014030Y-67220671D01*
X170005765Y-67197572D01*
X169999804Y-67173773D01*
X169996204Y-67149505D01*
X169995000Y-67125001D01*
X169995000Y-66224999D01*
X169996204Y-66200495D01*
X169999804Y-66176227D01*
X170005765Y-66152428D01*
X170014030Y-66129329D01*
X170024520Y-66107150D01*
X170037132Y-66086107D01*
X170051747Y-66066401D01*
X170068223Y-66048223D01*
X170086401Y-66031747D01*
X170106107Y-66017132D01*
X170127150Y-66004520D01*
X170149329Y-65994030D01*
X170172428Y-65985765D01*
X170196227Y-65979804D01*
X170220495Y-65976204D01*
X170244999Y-65975000D01*
X170895001Y-65975000D01*
X170919505Y-65976204D01*
X170919505Y-65976204D01*
G37*
D14*
X170570000Y-66675000D03*
D10*
G36*
X168869505Y-65976204D02*
G01*
X168893773Y-65979804D01*
X168917572Y-65985765D01*
X168940671Y-65994030D01*
X168962850Y-66004520D01*
X168983893Y-66017132D01*
X169003599Y-66031747D01*
X169021777Y-66048223D01*
X169038253Y-66066401D01*
X169052868Y-66086107D01*
X169065480Y-66107150D01*
X169075970Y-66129329D01*
X169084235Y-66152428D01*
X169090196Y-66176227D01*
X169093796Y-66200495D01*
X169095000Y-66224999D01*
X169095000Y-67125001D01*
X169093796Y-67149505D01*
X169090196Y-67173773D01*
X169084235Y-67197572D01*
X169075970Y-67220671D01*
X169065480Y-67242850D01*
X169052868Y-67263893D01*
X169038253Y-67283599D01*
X169021777Y-67301777D01*
X169003599Y-67318253D01*
X168983893Y-67332868D01*
X168962850Y-67345480D01*
X168940671Y-67355970D01*
X168917572Y-67364235D01*
X168893773Y-67370196D01*
X168869505Y-67373796D01*
X168845001Y-67375000D01*
X168194999Y-67375000D01*
X168170495Y-67373796D01*
X168146227Y-67370196D01*
X168122428Y-67364235D01*
X168099329Y-67355970D01*
X168077150Y-67345480D01*
X168056107Y-67332868D01*
X168036401Y-67318253D01*
X168018223Y-67301777D01*
X168001747Y-67283599D01*
X167987132Y-67263893D01*
X167974520Y-67242850D01*
X167964030Y-67220671D01*
X167955765Y-67197572D01*
X167949804Y-67173773D01*
X167946204Y-67149505D01*
X167945000Y-67125001D01*
X167945000Y-66224999D01*
X167946204Y-66200495D01*
X167949804Y-66176227D01*
X167955765Y-66152428D01*
X167964030Y-66129329D01*
X167974520Y-66107150D01*
X167987132Y-66086107D01*
X168001747Y-66066401D01*
X168018223Y-66048223D01*
X168036401Y-66031747D01*
X168056107Y-66017132D01*
X168077150Y-66004520D01*
X168099329Y-65994030D01*
X168122428Y-65985765D01*
X168146227Y-65979804D01*
X168170495Y-65976204D01*
X168194999Y-65975000D01*
X168845001Y-65975000D01*
X168869505Y-65976204D01*
X168869505Y-65976204D01*
G37*
D14*
X168520000Y-66675000D03*
D10*
G36*
X187284505Y-49466204D02*
G01*
X187308773Y-49469804D01*
X187332572Y-49475765D01*
X187355671Y-49484030D01*
X187377850Y-49494520D01*
X187398893Y-49507132D01*
X187418599Y-49521747D01*
X187436777Y-49538223D01*
X187453253Y-49556401D01*
X187467868Y-49576107D01*
X187480480Y-49597150D01*
X187490970Y-49619329D01*
X187499235Y-49642428D01*
X187505196Y-49666227D01*
X187508796Y-49690495D01*
X187510000Y-49714999D01*
X187510000Y-50615001D01*
X187508796Y-50639505D01*
X187505196Y-50663773D01*
X187499235Y-50687572D01*
X187490970Y-50710671D01*
X187480480Y-50732850D01*
X187467868Y-50753893D01*
X187453253Y-50773599D01*
X187436777Y-50791777D01*
X187418599Y-50808253D01*
X187398893Y-50822868D01*
X187377850Y-50835480D01*
X187355671Y-50845970D01*
X187332572Y-50854235D01*
X187308773Y-50860196D01*
X187284505Y-50863796D01*
X187260001Y-50865000D01*
X186609999Y-50865000D01*
X186585495Y-50863796D01*
X186561227Y-50860196D01*
X186537428Y-50854235D01*
X186514329Y-50845970D01*
X186492150Y-50835480D01*
X186471107Y-50822868D01*
X186451401Y-50808253D01*
X186433223Y-50791777D01*
X186416747Y-50773599D01*
X186402132Y-50753893D01*
X186389520Y-50732850D01*
X186379030Y-50710671D01*
X186370765Y-50687572D01*
X186364804Y-50663773D01*
X186361204Y-50639505D01*
X186360000Y-50615001D01*
X186360000Y-49714999D01*
X186361204Y-49690495D01*
X186364804Y-49666227D01*
X186370765Y-49642428D01*
X186379030Y-49619329D01*
X186389520Y-49597150D01*
X186402132Y-49576107D01*
X186416747Y-49556401D01*
X186433223Y-49538223D01*
X186451401Y-49521747D01*
X186471107Y-49507132D01*
X186492150Y-49494520D01*
X186514329Y-49484030D01*
X186537428Y-49475765D01*
X186561227Y-49469804D01*
X186585495Y-49466204D01*
X186609999Y-49465000D01*
X187260001Y-49465000D01*
X187284505Y-49466204D01*
X187284505Y-49466204D01*
G37*
D14*
X186935000Y-50165000D03*
D10*
G36*
X189334505Y-49466204D02*
G01*
X189358773Y-49469804D01*
X189382572Y-49475765D01*
X189405671Y-49484030D01*
X189427850Y-49494520D01*
X189448893Y-49507132D01*
X189468599Y-49521747D01*
X189486777Y-49538223D01*
X189503253Y-49556401D01*
X189517868Y-49576107D01*
X189530480Y-49597150D01*
X189540970Y-49619329D01*
X189549235Y-49642428D01*
X189555196Y-49666227D01*
X189558796Y-49690495D01*
X189560000Y-49714999D01*
X189560000Y-50615001D01*
X189558796Y-50639505D01*
X189555196Y-50663773D01*
X189549235Y-50687572D01*
X189540970Y-50710671D01*
X189530480Y-50732850D01*
X189517868Y-50753893D01*
X189503253Y-50773599D01*
X189486777Y-50791777D01*
X189468599Y-50808253D01*
X189448893Y-50822868D01*
X189427850Y-50835480D01*
X189405671Y-50845970D01*
X189382572Y-50854235D01*
X189358773Y-50860196D01*
X189334505Y-50863796D01*
X189310001Y-50865000D01*
X188659999Y-50865000D01*
X188635495Y-50863796D01*
X188611227Y-50860196D01*
X188587428Y-50854235D01*
X188564329Y-50845970D01*
X188542150Y-50835480D01*
X188521107Y-50822868D01*
X188501401Y-50808253D01*
X188483223Y-50791777D01*
X188466747Y-50773599D01*
X188452132Y-50753893D01*
X188439520Y-50732850D01*
X188429030Y-50710671D01*
X188420765Y-50687572D01*
X188414804Y-50663773D01*
X188411204Y-50639505D01*
X188410000Y-50615001D01*
X188410000Y-49714999D01*
X188411204Y-49690495D01*
X188414804Y-49666227D01*
X188420765Y-49642428D01*
X188429030Y-49619329D01*
X188439520Y-49597150D01*
X188452132Y-49576107D01*
X188466747Y-49556401D01*
X188483223Y-49538223D01*
X188501401Y-49521747D01*
X188521107Y-49507132D01*
X188542150Y-49494520D01*
X188564329Y-49484030D01*
X188587428Y-49475765D01*
X188611227Y-49469804D01*
X188635495Y-49466204D01*
X188659999Y-49465000D01*
X189310001Y-49465000D01*
X189334505Y-49466204D01*
X189334505Y-49466204D01*
G37*
D14*
X188985000Y-50165000D03*
D10*
G36*
X192890505Y-58229204D02*
G01*
X192914773Y-58232804D01*
X192938572Y-58238765D01*
X192961671Y-58247030D01*
X192983850Y-58257520D01*
X193004893Y-58270132D01*
X193024599Y-58284747D01*
X193042777Y-58301223D01*
X193059253Y-58319401D01*
X193073868Y-58339107D01*
X193086480Y-58360150D01*
X193096970Y-58382329D01*
X193105235Y-58405428D01*
X193111196Y-58429227D01*
X193114796Y-58453495D01*
X193116000Y-58477999D01*
X193116000Y-59378001D01*
X193114796Y-59402505D01*
X193111196Y-59426773D01*
X193105235Y-59450572D01*
X193096970Y-59473671D01*
X193086480Y-59495850D01*
X193073868Y-59516893D01*
X193059253Y-59536599D01*
X193042777Y-59554777D01*
X193024599Y-59571253D01*
X193004893Y-59585868D01*
X192983850Y-59598480D01*
X192961671Y-59608970D01*
X192938572Y-59617235D01*
X192914773Y-59623196D01*
X192890505Y-59626796D01*
X192866001Y-59628000D01*
X192215999Y-59628000D01*
X192191495Y-59626796D01*
X192167227Y-59623196D01*
X192143428Y-59617235D01*
X192120329Y-59608970D01*
X192098150Y-59598480D01*
X192077107Y-59585868D01*
X192057401Y-59571253D01*
X192039223Y-59554777D01*
X192022747Y-59536599D01*
X192008132Y-59516893D01*
X191995520Y-59495850D01*
X191985030Y-59473671D01*
X191976765Y-59450572D01*
X191970804Y-59426773D01*
X191967204Y-59402505D01*
X191966000Y-59378001D01*
X191966000Y-58477999D01*
X191967204Y-58453495D01*
X191970804Y-58429227D01*
X191976765Y-58405428D01*
X191985030Y-58382329D01*
X191995520Y-58360150D01*
X192008132Y-58339107D01*
X192022747Y-58319401D01*
X192039223Y-58301223D01*
X192057401Y-58284747D01*
X192077107Y-58270132D01*
X192098150Y-58257520D01*
X192120329Y-58247030D01*
X192143428Y-58238765D01*
X192167227Y-58232804D01*
X192191495Y-58229204D01*
X192215999Y-58228000D01*
X192866001Y-58228000D01*
X192890505Y-58229204D01*
X192890505Y-58229204D01*
G37*
D14*
X192541000Y-58928000D03*
D10*
G36*
X190840505Y-58229204D02*
G01*
X190864773Y-58232804D01*
X190888572Y-58238765D01*
X190911671Y-58247030D01*
X190933850Y-58257520D01*
X190954893Y-58270132D01*
X190974599Y-58284747D01*
X190992777Y-58301223D01*
X191009253Y-58319401D01*
X191023868Y-58339107D01*
X191036480Y-58360150D01*
X191046970Y-58382329D01*
X191055235Y-58405428D01*
X191061196Y-58429227D01*
X191064796Y-58453495D01*
X191066000Y-58477999D01*
X191066000Y-59378001D01*
X191064796Y-59402505D01*
X191061196Y-59426773D01*
X191055235Y-59450572D01*
X191046970Y-59473671D01*
X191036480Y-59495850D01*
X191023868Y-59516893D01*
X191009253Y-59536599D01*
X190992777Y-59554777D01*
X190974599Y-59571253D01*
X190954893Y-59585868D01*
X190933850Y-59598480D01*
X190911671Y-59608970D01*
X190888572Y-59617235D01*
X190864773Y-59623196D01*
X190840505Y-59626796D01*
X190816001Y-59628000D01*
X190165999Y-59628000D01*
X190141495Y-59626796D01*
X190117227Y-59623196D01*
X190093428Y-59617235D01*
X190070329Y-59608970D01*
X190048150Y-59598480D01*
X190027107Y-59585868D01*
X190007401Y-59571253D01*
X189989223Y-59554777D01*
X189972747Y-59536599D01*
X189958132Y-59516893D01*
X189945520Y-59495850D01*
X189935030Y-59473671D01*
X189926765Y-59450572D01*
X189920804Y-59426773D01*
X189917204Y-59402505D01*
X189916000Y-59378001D01*
X189916000Y-58477999D01*
X189917204Y-58453495D01*
X189920804Y-58429227D01*
X189926765Y-58405428D01*
X189935030Y-58382329D01*
X189945520Y-58360150D01*
X189958132Y-58339107D01*
X189972747Y-58319401D01*
X189989223Y-58301223D01*
X190007401Y-58284747D01*
X190027107Y-58270132D01*
X190048150Y-58257520D01*
X190070329Y-58247030D01*
X190093428Y-58238765D01*
X190117227Y-58232804D01*
X190141495Y-58229204D01*
X190165999Y-58228000D01*
X190816001Y-58228000D01*
X190840505Y-58229204D01*
X190840505Y-58229204D01*
G37*
D14*
X190491000Y-58928000D03*
D10*
G36*
X189824505Y-54546204D02*
G01*
X189848773Y-54549804D01*
X189872572Y-54555765D01*
X189895671Y-54564030D01*
X189917850Y-54574520D01*
X189938893Y-54587132D01*
X189958599Y-54601747D01*
X189976777Y-54618223D01*
X189993253Y-54636401D01*
X190007868Y-54656107D01*
X190020480Y-54677150D01*
X190030970Y-54699329D01*
X190039235Y-54722428D01*
X190045196Y-54746227D01*
X190048796Y-54770495D01*
X190050000Y-54794999D01*
X190050000Y-55695001D01*
X190048796Y-55719505D01*
X190045196Y-55743773D01*
X190039235Y-55767572D01*
X190030970Y-55790671D01*
X190020480Y-55812850D01*
X190007868Y-55833893D01*
X189993253Y-55853599D01*
X189976777Y-55871777D01*
X189958599Y-55888253D01*
X189938893Y-55902868D01*
X189917850Y-55915480D01*
X189895671Y-55925970D01*
X189872572Y-55934235D01*
X189848773Y-55940196D01*
X189824505Y-55943796D01*
X189800001Y-55945000D01*
X189149999Y-55945000D01*
X189125495Y-55943796D01*
X189101227Y-55940196D01*
X189077428Y-55934235D01*
X189054329Y-55925970D01*
X189032150Y-55915480D01*
X189011107Y-55902868D01*
X188991401Y-55888253D01*
X188973223Y-55871777D01*
X188956747Y-55853599D01*
X188942132Y-55833893D01*
X188929520Y-55812850D01*
X188919030Y-55790671D01*
X188910765Y-55767572D01*
X188904804Y-55743773D01*
X188901204Y-55719505D01*
X188900000Y-55695001D01*
X188900000Y-54794999D01*
X188901204Y-54770495D01*
X188904804Y-54746227D01*
X188910765Y-54722428D01*
X188919030Y-54699329D01*
X188929520Y-54677150D01*
X188942132Y-54656107D01*
X188956747Y-54636401D01*
X188973223Y-54618223D01*
X188991401Y-54601747D01*
X189011107Y-54587132D01*
X189032150Y-54574520D01*
X189054329Y-54564030D01*
X189077428Y-54555765D01*
X189101227Y-54549804D01*
X189125495Y-54546204D01*
X189149999Y-54545000D01*
X189800001Y-54545000D01*
X189824505Y-54546204D01*
X189824505Y-54546204D01*
G37*
D14*
X189475000Y-55245000D03*
D10*
G36*
X191874505Y-54546204D02*
G01*
X191898773Y-54549804D01*
X191922572Y-54555765D01*
X191945671Y-54564030D01*
X191967850Y-54574520D01*
X191988893Y-54587132D01*
X192008599Y-54601747D01*
X192026777Y-54618223D01*
X192043253Y-54636401D01*
X192057868Y-54656107D01*
X192070480Y-54677150D01*
X192080970Y-54699329D01*
X192089235Y-54722428D01*
X192095196Y-54746227D01*
X192098796Y-54770495D01*
X192100000Y-54794999D01*
X192100000Y-55695001D01*
X192098796Y-55719505D01*
X192095196Y-55743773D01*
X192089235Y-55767572D01*
X192080970Y-55790671D01*
X192070480Y-55812850D01*
X192057868Y-55833893D01*
X192043253Y-55853599D01*
X192026777Y-55871777D01*
X192008599Y-55888253D01*
X191988893Y-55902868D01*
X191967850Y-55915480D01*
X191945671Y-55925970D01*
X191922572Y-55934235D01*
X191898773Y-55940196D01*
X191874505Y-55943796D01*
X191850001Y-55945000D01*
X191199999Y-55945000D01*
X191175495Y-55943796D01*
X191151227Y-55940196D01*
X191127428Y-55934235D01*
X191104329Y-55925970D01*
X191082150Y-55915480D01*
X191061107Y-55902868D01*
X191041401Y-55888253D01*
X191023223Y-55871777D01*
X191006747Y-55853599D01*
X190992132Y-55833893D01*
X190979520Y-55812850D01*
X190969030Y-55790671D01*
X190960765Y-55767572D01*
X190954804Y-55743773D01*
X190951204Y-55719505D01*
X190950000Y-55695001D01*
X190950000Y-54794999D01*
X190951204Y-54770495D01*
X190954804Y-54746227D01*
X190960765Y-54722428D01*
X190969030Y-54699329D01*
X190979520Y-54677150D01*
X190992132Y-54656107D01*
X191006747Y-54636401D01*
X191023223Y-54618223D01*
X191041401Y-54601747D01*
X191061107Y-54587132D01*
X191082150Y-54574520D01*
X191104329Y-54564030D01*
X191127428Y-54555765D01*
X191151227Y-54549804D01*
X191175495Y-54546204D01*
X191199999Y-54545000D01*
X191850001Y-54545000D01*
X191874505Y-54546204D01*
X191874505Y-54546204D01*
G37*
D14*
X191525000Y-55245000D03*
D10*
G36*
X184109505Y-46926204D02*
G01*
X184133773Y-46929804D01*
X184157572Y-46935765D01*
X184180671Y-46944030D01*
X184202850Y-46954520D01*
X184223893Y-46967132D01*
X184243599Y-46981747D01*
X184261777Y-46998223D01*
X184278253Y-47016401D01*
X184292868Y-47036107D01*
X184305480Y-47057150D01*
X184315970Y-47079329D01*
X184324235Y-47102428D01*
X184330196Y-47126227D01*
X184333796Y-47150495D01*
X184335000Y-47174999D01*
X184335000Y-48075001D01*
X184333796Y-48099505D01*
X184330196Y-48123773D01*
X184324235Y-48147572D01*
X184315970Y-48170671D01*
X184305480Y-48192850D01*
X184292868Y-48213893D01*
X184278253Y-48233599D01*
X184261777Y-48251777D01*
X184243599Y-48268253D01*
X184223893Y-48282868D01*
X184202850Y-48295480D01*
X184180671Y-48305970D01*
X184157572Y-48314235D01*
X184133773Y-48320196D01*
X184109505Y-48323796D01*
X184085001Y-48325000D01*
X183434999Y-48325000D01*
X183410495Y-48323796D01*
X183386227Y-48320196D01*
X183362428Y-48314235D01*
X183339329Y-48305970D01*
X183317150Y-48295480D01*
X183296107Y-48282868D01*
X183276401Y-48268253D01*
X183258223Y-48251777D01*
X183241747Y-48233599D01*
X183227132Y-48213893D01*
X183214520Y-48192850D01*
X183204030Y-48170671D01*
X183195765Y-48147572D01*
X183189804Y-48123773D01*
X183186204Y-48099505D01*
X183185000Y-48075001D01*
X183185000Y-47174999D01*
X183186204Y-47150495D01*
X183189804Y-47126227D01*
X183195765Y-47102428D01*
X183204030Y-47079329D01*
X183214520Y-47057150D01*
X183227132Y-47036107D01*
X183241747Y-47016401D01*
X183258223Y-46998223D01*
X183276401Y-46981747D01*
X183296107Y-46967132D01*
X183317150Y-46954520D01*
X183339329Y-46944030D01*
X183362428Y-46935765D01*
X183386227Y-46929804D01*
X183410495Y-46926204D01*
X183434999Y-46925000D01*
X184085001Y-46925000D01*
X184109505Y-46926204D01*
X184109505Y-46926204D01*
G37*
D14*
X183760000Y-47625000D03*
D10*
G36*
X186159505Y-46926204D02*
G01*
X186183773Y-46929804D01*
X186207572Y-46935765D01*
X186230671Y-46944030D01*
X186252850Y-46954520D01*
X186273893Y-46967132D01*
X186293599Y-46981747D01*
X186311777Y-46998223D01*
X186328253Y-47016401D01*
X186342868Y-47036107D01*
X186355480Y-47057150D01*
X186365970Y-47079329D01*
X186374235Y-47102428D01*
X186380196Y-47126227D01*
X186383796Y-47150495D01*
X186385000Y-47174999D01*
X186385000Y-48075001D01*
X186383796Y-48099505D01*
X186380196Y-48123773D01*
X186374235Y-48147572D01*
X186365970Y-48170671D01*
X186355480Y-48192850D01*
X186342868Y-48213893D01*
X186328253Y-48233599D01*
X186311777Y-48251777D01*
X186293599Y-48268253D01*
X186273893Y-48282868D01*
X186252850Y-48295480D01*
X186230671Y-48305970D01*
X186207572Y-48314235D01*
X186183773Y-48320196D01*
X186159505Y-48323796D01*
X186135001Y-48325000D01*
X185484999Y-48325000D01*
X185460495Y-48323796D01*
X185436227Y-48320196D01*
X185412428Y-48314235D01*
X185389329Y-48305970D01*
X185367150Y-48295480D01*
X185346107Y-48282868D01*
X185326401Y-48268253D01*
X185308223Y-48251777D01*
X185291747Y-48233599D01*
X185277132Y-48213893D01*
X185264520Y-48192850D01*
X185254030Y-48170671D01*
X185245765Y-48147572D01*
X185239804Y-48123773D01*
X185236204Y-48099505D01*
X185235000Y-48075001D01*
X185235000Y-47174999D01*
X185236204Y-47150495D01*
X185239804Y-47126227D01*
X185245765Y-47102428D01*
X185254030Y-47079329D01*
X185264520Y-47057150D01*
X185277132Y-47036107D01*
X185291747Y-47016401D01*
X185308223Y-46998223D01*
X185326401Y-46981747D01*
X185346107Y-46967132D01*
X185367150Y-46954520D01*
X185389329Y-46944030D01*
X185412428Y-46935765D01*
X185436227Y-46929804D01*
X185460495Y-46926204D01*
X185484999Y-46925000D01*
X186135001Y-46925000D01*
X186159505Y-46926204D01*
X186159505Y-46926204D01*
G37*
D14*
X185810000Y-47625000D03*
D10*
G36*
X195049505Y-43751204D02*
G01*
X195073773Y-43754804D01*
X195097572Y-43760765D01*
X195120671Y-43769030D01*
X195142850Y-43779520D01*
X195163893Y-43792132D01*
X195183599Y-43806747D01*
X195201777Y-43823223D01*
X195218253Y-43841401D01*
X195232868Y-43861107D01*
X195245480Y-43882150D01*
X195255970Y-43904329D01*
X195264235Y-43927428D01*
X195270196Y-43951227D01*
X195273796Y-43975495D01*
X195275000Y-43999999D01*
X195275000Y-44900001D01*
X195273796Y-44924505D01*
X195270196Y-44948773D01*
X195264235Y-44972572D01*
X195255970Y-44995671D01*
X195245480Y-45017850D01*
X195232868Y-45038893D01*
X195218253Y-45058599D01*
X195201777Y-45076777D01*
X195183599Y-45093253D01*
X195163893Y-45107868D01*
X195142850Y-45120480D01*
X195120671Y-45130970D01*
X195097572Y-45139235D01*
X195073773Y-45145196D01*
X195049505Y-45148796D01*
X195025001Y-45150000D01*
X194374999Y-45150000D01*
X194350495Y-45148796D01*
X194326227Y-45145196D01*
X194302428Y-45139235D01*
X194279329Y-45130970D01*
X194257150Y-45120480D01*
X194236107Y-45107868D01*
X194216401Y-45093253D01*
X194198223Y-45076777D01*
X194181747Y-45058599D01*
X194167132Y-45038893D01*
X194154520Y-45017850D01*
X194144030Y-44995671D01*
X194135765Y-44972572D01*
X194129804Y-44948773D01*
X194126204Y-44924505D01*
X194125000Y-44900001D01*
X194125000Y-43999999D01*
X194126204Y-43975495D01*
X194129804Y-43951227D01*
X194135765Y-43927428D01*
X194144030Y-43904329D01*
X194154520Y-43882150D01*
X194167132Y-43861107D01*
X194181747Y-43841401D01*
X194198223Y-43823223D01*
X194216401Y-43806747D01*
X194236107Y-43792132D01*
X194257150Y-43779520D01*
X194279329Y-43769030D01*
X194302428Y-43760765D01*
X194326227Y-43754804D01*
X194350495Y-43751204D01*
X194374999Y-43750000D01*
X195025001Y-43750000D01*
X195049505Y-43751204D01*
X195049505Y-43751204D01*
G37*
D14*
X194700000Y-44450000D03*
D10*
G36*
X192999505Y-43751204D02*
G01*
X193023773Y-43754804D01*
X193047572Y-43760765D01*
X193070671Y-43769030D01*
X193092850Y-43779520D01*
X193113893Y-43792132D01*
X193133599Y-43806747D01*
X193151777Y-43823223D01*
X193168253Y-43841401D01*
X193182868Y-43861107D01*
X193195480Y-43882150D01*
X193205970Y-43904329D01*
X193214235Y-43927428D01*
X193220196Y-43951227D01*
X193223796Y-43975495D01*
X193225000Y-43999999D01*
X193225000Y-44900001D01*
X193223796Y-44924505D01*
X193220196Y-44948773D01*
X193214235Y-44972572D01*
X193205970Y-44995671D01*
X193195480Y-45017850D01*
X193182868Y-45038893D01*
X193168253Y-45058599D01*
X193151777Y-45076777D01*
X193133599Y-45093253D01*
X193113893Y-45107868D01*
X193092850Y-45120480D01*
X193070671Y-45130970D01*
X193047572Y-45139235D01*
X193023773Y-45145196D01*
X192999505Y-45148796D01*
X192975001Y-45150000D01*
X192324999Y-45150000D01*
X192300495Y-45148796D01*
X192276227Y-45145196D01*
X192252428Y-45139235D01*
X192229329Y-45130970D01*
X192207150Y-45120480D01*
X192186107Y-45107868D01*
X192166401Y-45093253D01*
X192148223Y-45076777D01*
X192131747Y-45058599D01*
X192117132Y-45038893D01*
X192104520Y-45017850D01*
X192094030Y-44995671D01*
X192085765Y-44972572D01*
X192079804Y-44948773D01*
X192076204Y-44924505D01*
X192075000Y-44900001D01*
X192075000Y-43999999D01*
X192076204Y-43975495D01*
X192079804Y-43951227D01*
X192085765Y-43927428D01*
X192094030Y-43904329D01*
X192104520Y-43882150D01*
X192117132Y-43861107D01*
X192131747Y-43841401D01*
X192148223Y-43823223D01*
X192166401Y-43806747D01*
X192186107Y-43792132D01*
X192207150Y-43779520D01*
X192229329Y-43769030D01*
X192252428Y-43760765D01*
X192276227Y-43754804D01*
X192300495Y-43751204D01*
X192324999Y-43750000D01*
X192975001Y-43750000D01*
X192999505Y-43751204D01*
X192999505Y-43751204D01*
G37*
D14*
X192650000Y-44450000D03*
D10*
G36*
X182730505Y-54546204D02*
G01*
X182754773Y-54549804D01*
X182778572Y-54555765D01*
X182801671Y-54564030D01*
X182823850Y-54574520D01*
X182844893Y-54587132D01*
X182864599Y-54601747D01*
X182882777Y-54618223D01*
X182899253Y-54636401D01*
X182913868Y-54656107D01*
X182926480Y-54677150D01*
X182936970Y-54699329D01*
X182945235Y-54722428D01*
X182951196Y-54746227D01*
X182954796Y-54770495D01*
X182956000Y-54794999D01*
X182956000Y-55695001D01*
X182954796Y-55719505D01*
X182951196Y-55743773D01*
X182945235Y-55767572D01*
X182936970Y-55790671D01*
X182926480Y-55812850D01*
X182913868Y-55833893D01*
X182899253Y-55853599D01*
X182882777Y-55871777D01*
X182864599Y-55888253D01*
X182844893Y-55902868D01*
X182823850Y-55915480D01*
X182801671Y-55925970D01*
X182778572Y-55934235D01*
X182754773Y-55940196D01*
X182730505Y-55943796D01*
X182706001Y-55945000D01*
X182055999Y-55945000D01*
X182031495Y-55943796D01*
X182007227Y-55940196D01*
X181983428Y-55934235D01*
X181960329Y-55925970D01*
X181938150Y-55915480D01*
X181917107Y-55902868D01*
X181897401Y-55888253D01*
X181879223Y-55871777D01*
X181862747Y-55853599D01*
X181848132Y-55833893D01*
X181835520Y-55812850D01*
X181825030Y-55790671D01*
X181816765Y-55767572D01*
X181810804Y-55743773D01*
X181807204Y-55719505D01*
X181806000Y-55695001D01*
X181806000Y-54794999D01*
X181807204Y-54770495D01*
X181810804Y-54746227D01*
X181816765Y-54722428D01*
X181825030Y-54699329D01*
X181835520Y-54677150D01*
X181848132Y-54656107D01*
X181862747Y-54636401D01*
X181879223Y-54618223D01*
X181897401Y-54601747D01*
X181917107Y-54587132D01*
X181938150Y-54574520D01*
X181960329Y-54564030D01*
X181983428Y-54555765D01*
X182007227Y-54549804D01*
X182031495Y-54546204D01*
X182055999Y-54545000D01*
X182706001Y-54545000D01*
X182730505Y-54546204D01*
X182730505Y-54546204D01*
G37*
D14*
X182381000Y-55245000D03*
D10*
G36*
X180680505Y-54546204D02*
G01*
X180704773Y-54549804D01*
X180728572Y-54555765D01*
X180751671Y-54564030D01*
X180773850Y-54574520D01*
X180794893Y-54587132D01*
X180814599Y-54601747D01*
X180832777Y-54618223D01*
X180849253Y-54636401D01*
X180863868Y-54656107D01*
X180876480Y-54677150D01*
X180886970Y-54699329D01*
X180895235Y-54722428D01*
X180901196Y-54746227D01*
X180904796Y-54770495D01*
X180906000Y-54794999D01*
X180906000Y-55695001D01*
X180904796Y-55719505D01*
X180901196Y-55743773D01*
X180895235Y-55767572D01*
X180886970Y-55790671D01*
X180876480Y-55812850D01*
X180863868Y-55833893D01*
X180849253Y-55853599D01*
X180832777Y-55871777D01*
X180814599Y-55888253D01*
X180794893Y-55902868D01*
X180773850Y-55915480D01*
X180751671Y-55925970D01*
X180728572Y-55934235D01*
X180704773Y-55940196D01*
X180680505Y-55943796D01*
X180656001Y-55945000D01*
X180005999Y-55945000D01*
X179981495Y-55943796D01*
X179957227Y-55940196D01*
X179933428Y-55934235D01*
X179910329Y-55925970D01*
X179888150Y-55915480D01*
X179867107Y-55902868D01*
X179847401Y-55888253D01*
X179829223Y-55871777D01*
X179812747Y-55853599D01*
X179798132Y-55833893D01*
X179785520Y-55812850D01*
X179775030Y-55790671D01*
X179766765Y-55767572D01*
X179760804Y-55743773D01*
X179757204Y-55719505D01*
X179756000Y-55695001D01*
X179756000Y-54794999D01*
X179757204Y-54770495D01*
X179760804Y-54746227D01*
X179766765Y-54722428D01*
X179775030Y-54699329D01*
X179785520Y-54677150D01*
X179798132Y-54656107D01*
X179812747Y-54636401D01*
X179829223Y-54618223D01*
X179847401Y-54601747D01*
X179867107Y-54587132D01*
X179888150Y-54574520D01*
X179910329Y-54564030D01*
X179933428Y-54555765D01*
X179957227Y-54549804D01*
X179981495Y-54546204D01*
X180005999Y-54545000D01*
X180656001Y-54545000D01*
X180680505Y-54546204D01*
X180680505Y-54546204D01*
G37*
D14*
X180331000Y-55245000D03*
D10*
G36*
X182984505Y-63436204D02*
G01*
X183008773Y-63439804D01*
X183032572Y-63445765D01*
X183055671Y-63454030D01*
X183077850Y-63464520D01*
X183098893Y-63477132D01*
X183118599Y-63491747D01*
X183136777Y-63508223D01*
X183153253Y-63526401D01*
X183167868Y-63546107D01*
X183180480Y-63567150D01*
X183190970Y-63589329D01*
X183199235Y-63612428D01*
X183205196Y-63636227D01*
X183208796Y-63660495D01*
X183210000Y-63684999D01*
X183210000Y-64585001D01*
X183208796Y-64609505D01*
X183205196Y-64633773D01*
X183199235Y-64657572D01*
X183190970Y-64680671D01*
X183180480Y-64702850D01*
X183167868Y-64723893D01*
X183153253Y-64743599D01*
X183136777Y-64761777D01*
X183118599Y-64778253D01*
X183098893Y-64792868D01*
X183077850Y-64805480D01*
X183055671Y-64815970D01*
X183032572Y-64824235D01*
X183008773Y-64830196D01*
X182984505Y-64833796D01*
X182960001Y-64835000D01*
X182309999Y-64835000D01*
X182285495Y-64833796D01*
X182261227Y-64830196D01*
X182237428Y-64824235D01*
X182214329Y-64815970D01*
X182192150Y-64805480D01*
X182171107Y-64792868D01*
X182151401Y-64778253D01*
X182133223Y-64761777D01*
X182116747Y-64743599D01*
X182102132Y-64723893D01*
X182089520Y-64702850D01*
X182079030Y-64680671D01*
X182070765Y-64657572D01*
X182064804Y-64633773D01*
X182061204Y-64609505D01*
X182060000Y-64585001D01*
X182060000Y-63684999D01*
X182061204Y-63660495D01*
X182064804Y-63636227D01*
X182070765Y-63612428D01*
X182079030Y-63589329D01*
X182089520Y-63567150D01*
X182102132Y-63546107D01*
X182116747Y-63526401D01*
X182133223Y-63508223D01*
X182151401Y-63491747D01*
X182171107Y-63477132D01*
X182192150Y-63464520D01*
X182214329Y-63454030D01*
X182237428Y-63445765D01*
X182261227Y-63439804D01*
X182285495Y-63436204D01*
X182309999Y-63435000D01*
X182960001Y-63435000D01*
X182984505Y-63436204D01*
X182984505Y-63436204D01*
G37*
D14*
X182635000Y-64135000D03*
D10*
G36*
X180934505Y-63436204D02*
G01*
X180958773Y-63439804D01*
X180982572Y-63445765D01*
X181005671Y-63454030D01*
X181027850Y-63464520D01*
X181048893Y-63477132D01*
X181068599Y-63491747D01*
X181086777Y-63508223D01*
X181103253Y-63526401D01*
X181117868Y-63546107D01*
X181130480Y-63567150D01*
X181140970Y-63589329D01*
X181149235Y-63612428D01*
X181155196Y-63636227D01*
X181158796Y-63660495D01*
X181160000Y-63684999D01*
X181160000Y-64585001D01*
X181158796Y-64609505D01*
X181155196Y-64633773D01*
X181149235Y-64657572D01*
X181140970Y-64680671D01*
X181130480Y-64702850D01*
X181117868Y-64723893D01*
X181103253Y-64743599D01*
X181086777Y-64761777D01*
X181068599Y-64778253D01*
X181048893Y-64792868D01*
X181027850Y-64805480D01*
X181005671Y-64815970D01*
X180982572Y-64824235D01*
X180958773Y-64830196D01*
X180934505Y-64833796D01*
X180910001Y-64835000D01*
X180259999Y-64835000D01*
X180235495Y-64833796D01*
X180211227Y-64830196D01*
X180187428Y-64824235D01*
X180164329Y-64815970D01*
X180142150Y-64805480D01*
X180121107Y-64792868D01*
X180101401Y-64778253D01*
X180083223Y-64761777D01*
X180066747Y-64743599D01*
X180052132Y-64723893D01*
X180039520Y-64702850D01*
X180029030Y-64680671D01*
X180020765Y-64657572D01*
X180014804Y-64633773D01*
X180011204Y-64609505D01*
X180010000Y-64585001D01*
X180010000Y-63684999D01*
X180011204Y-63660495D01*
X180014804Y-63636227D01*
X180020765Y-63612428D01*
X180029030Y-63589329D01*
X180039520Y-63567150D01*
X180052132Y-63546107D01*
X180066747Y-63526401D01*
X180083223Y-63508223D01*
X180101401Y-63491747D01*
X180121107Y-63477132D01*
X180142150Y-63464520D01*
X180164329Y-63454030D01*
X180187428Y-63445765D01*
X180211227Y-63439804D01*
X180235495Y-63436204D01*
X180259999Y-63435000D01*
X180910001Y-63435000D01*
X180934505Y-63436204D01*
X180934505Y-63436204D01*
G37*
D14*
X180585000Y-64135000D03*
D10*
G36*
X182839505Y-49466204D02*
G01*
X182863773Y-49469804D01*
X182887572Y-49475765D01*
X182910671Y-49484030D01*
X182932850Y-49494520D01*
X182953893Y-49507132D01*
X182973599Y-49521747D01*
X182991777Y-49538223D01*
X183008253Y-49556401D01*
X183022868Y-49576107D01*
X183035480Y-49597150D01*
X183045970Y-49619329D01*
X183054235Y-49642428D01*
X183060196Y-49666227D01*
X183063796Y-49690495D01*
X183065000Y-49714999D01*
X183065000Y-50615001D01*
X183063796Y-50639505D01*
X183060196Y-50663773D01*
X183054235Y-50687572D01*
X183045970Y-50710671D01*
X183035480Y-50732850D01*
X183022868Y-50753893D01*
X183008253Y-50773599D01*
X182991777Y-50791777D01*
X182973599Y-50808253D01*
X182953893Y-50822868D01*
X182932850Y-50835480D01*
X182910671Y-50845970D01*
X182887572Y-50854235D01*
X182863773Y-50860196D01*
X182839505Y-50863796D01*
X182815001Y-50865000D01*
X182164999Y-50865000D01*
X182140495Y-50863796D01*
X182116227Y-50860196D01*
X182092428Y-50854235D01*
X182069329Y-50845970D01*
X182047150Y-50835480D01*
X182026107Y-50822868D01*
X182006401Y-50808253D01*
X181988223Y-50791777D01*
X181971747Y-50773599D01*
X181957132Y-50753893D01*
X181944520Y-50732850D01*
X181934030Y-50710671D01*
X181925765Y-50687572D01*
X181919804Y-50663773D01*
X181916204Y-50639505D01*
X181915000Y-50615001D01*
X181915000Y-49714999D01*
X181916204Y-49690495D01*
X181919804Y-49666227D01*
X181925765Y-49642428D01*
X181934030Y-49619329D01*
X181944520Y-49597150D01*
X181957132Y-49576107D01*
X181971747Y-49556401D01*
X181988223Y-49538223D01*
X182006401Y-49521747D01*
X182026107Y-49507132D01*
X182047150Y-49494520D01*
X182069329Y-49484030D01*
X182092428Y-49475765D01*
X182116227Y-49469804D01*
X182140495Y-49466204D01*
X182164999Y-49465000D01*
X182815001Y-49465000D01*
X182839505Y-49466204D01*
X182839505Y-49466204D01*
G37*
D14*
X182490000Y-50165000D03*
D10*
G36*
X184889505Y-49466204D02*
G01*
X184913773Y-49469804D01*
X184937572Y-49475765D01*
X184960671Y-49484030D01*
X184982850Y-49494520D01*
X185003893Y-49507132D01*
X185023599Y-49521747D01*
X185041777Y-49538223D01*
X185058253Y-49556401D01*
X185072868Y-49576107D01*
X185085480Y-49597150D01*
X185095970Y-49619329D01*
X185104235Y-49642428D01*
X185110196Y-49666227D01*
X185113796Y-49690495D01*
X185115000Y-49714999D01*
X185115000Y-50615001D01*
X185113796Y-50639505D01*
X185110196Y-50663773D01*
X185104235Y-50687572D01*
X185095970Y-50710671D01*
X185085480Y-50732850D01*
X185072868Y-50753893D01*
X185058253Y-50773599D01*
X185041777Y-50791777D01*
X185023599Y-50808253D01*
X185003893Y-50822868D01*
X184982850Y-50835480D01*
X184960671Y-50845970D01*
X184937572Y-50854235D01*
X184913773Y-50860196D01*
X184889505Y-50863796D01*
X184865001Y-50865000D01*
X184214999Y-50865000D01*
X184190495Y-50863796D01*
X184166227Y-50860196D01*
X184142428Y-50854235D01*
X184119329Y-50845970D01*
X184097150Y-50835480D01*
X184076107Y-50822868D01*
X184056401Y-50808253D01*
X184038223Y-50791777D01*
X184021747Y-50773599D01*
X184007132Y-50753893D01*
X183994520Y-50732850D01*
X183984030Y-50710671D01*
X183975765Y-50687572D01*
X183969804Y-50663773D01*
X183966204Y-50639505D01*
X183965000Y-50615001D01*
X183965000Y-49714999D01*
X183966204Y-49690495D01*
X183969804Y-49666227D01*
X183975765Y-49642428D01*
X183984030Y-49619329D01*
X183994520Y-49597150D01*
X184007132Y-49576107D01*
X184021747Y-49556401D01*
X184038223Y-49538223D01*
X184056401Y-49521747D01*
X184076107Y-49507132D01*
X184097150Y-49494520D01*
X184119329Y-49484030D01*
X184142428Y-49475765D01*
X184166227Y-49469804D01*
X184190495Y-49466204D01*
X184214999Y-49465000D01*
X184865001Y-49465000D01*
X184889505Y-49466204D01*
X184889505Y-49466204D01*
G37*
D14*
X184540000Y-50165000D03*
D10*
G36*
X185379505Y-66611204D02*
G01*
X185403773Y-66614804D01*
X185427572Y-66620765D01*
X185450671Y-66629030D01*
X185472850Y-66639520D01*
X185493893Y-66652132D01*
X185513599Y-66666747D01*
X185531777Y-66683223D01*
X185548253Y-66701401D01*
X185562868Y-66721107D01*
X185575480Y-66742150D01*
X185585970Y-66764329D01*
X185594235Y-66787428D01*
X185600196Y-66811227D01*
X185603796Y-66835495D01*
X185605000Y-66859999D01*
X185605000Y-67760001D01*
X185603796Y-67784505D01*
X185600196Y-67808773D01*
X185594235Y-67832572D01*
X185585970Y-67855671D01*
X185575480Y-67877850D01*
X185562868Y-67898893D01*
X185548253Y-67918599D01*
X185531777Y-67936777D01*
X185513599Y-67953253D01*
X185493893Y-67967868D01*
X185472850Y-67980480D01*
X185450671Y-67990970D01*
X185427572Y-67999235D01*
X185403773Y-68005196D01*
X185379505Y-68008796D01*
X185355001Y-68010000D01*
X184704999Y-68010000D01*
X184680495Y-68008796D01*
X184656227Y-68005196D01*
X184632428Y-67999235D01*
X184609329Y-67990970D01*
X184587150Y-67980480D01*
X184566107Y-67967868D01*
X184546401Y-67953253D01*
X184528223Y-67936777D01*
X184511747Y-67918599D01*
X184497132Y-67898893D01*
X184484520Y-67877850D01*
X184474030Y-67855671D01*
X184465765Y-67832572D01*
X184459804Y-67808773D01*
X184456204Y-67784505D01*
X184455000Y-67760001D01*
X184455000Y-66859999D01*
X184456204Y-66835495D01*
X184459804Y-66811227D01*
X184465765Y-66787428D01*
X184474030Y-66764329D01*
X184484520Y-66742150D01*
X184497132Y-66721107D01*
X184511747Y-66701401D01*
X184528223Y-66683223D01*
X184546401Y-66666747D01*
X184566107Y-66652132D01*
X184587150Y-66639520D01*
X184609329Y-66629030D01*
X184632428Y-66620765D01*
X184656227Y-66614804D01*
X184680495Y-66611204D01*
X184704999Y-66610000D01*
X185355001Y-66610000D01*
X185379505Y-66611204D01*
X185379505Y-66611204D01*
G37*
D14*
X185030000Y-67310000D03*
D10*
G36*
X187429505Y-66611204D02*
G01*
X187453773Y-66614804D01*
X187477572Y-66620765D01*
X187500671Y-66629030D01*
X187522850Y-66639520D01*
X187543893Y-66652132D01*
X187563599Y-66666747D01*
X187581777Y-66683223D01*
X187598253Y-66701401D01*
X187612868Y-66721107D01*
X187625480Y-66742150D01*
X187635970Y-66764329D01*
X187644235Y-66787428D01*
X187650196Y-66811227D01*
X187653796Y-66835495D01*
X187655000Y-66859999D01*
X187655000Y-67760001D01*
X187653796Y-67784505D01*
X187650196Y-67808773D01*
X187644235Y-67832572D01*
X187635970Y-67855671D01*
X187625480Y-67877850D01*
X187612868Y-67898893D01*
X187598253Y-67918599D01*
X187581777Y-67936777D01*
X187563599Y-67953253D01*
X187543893Y-67967868D01*
X187522850Y-67980480D01*
X187500671Y-67990970D01*
X187477572Y-67999235D01*
X187453773Y-68005196D01*
X187429505Y-68008796D01*
X187405001Y-68010000D01*
X186754999Y-68010000D01*
X186730495Y-68008796D01*
X186706227Y-68005196D01*
X186682428Y-67999235D01*
X186659329Y-67990970D01*
X186637150Y-67980480D01*
X186616107Y-67967868D01*
X186596401Y-67953253D01*
X186578223Y-67936777D01*
X186561747Y-67918599D01*
X186547132Y-67898893D01*
X186534520Y-67877850D01*
X186524030Y-67855671D01*
X186515765Y-67832572D01*
X186509804Y-67808773D01*
X186506204Y-67784505D01*
X186505000Y-67760001D01*
X186505000Y-66859999D01*
X186506204Y-66835495D01*
X186509804Y-66811227D01*
X186515765Y-66787428D01*
X186524030Y-66764329D01*
X186534520Y-66742150D01*
X186547132Y-66721107D01*
X186561747Y-66701401D01*
X186578223Y-66683223D01*
X186596401Y-66666747D01*
X186616107Y-66652132D01*
X186637150Y-66639520D01*
X186659329Y-66629030D01*
X186682428Y-66620765D01*
X186706227Y-66614804D01*
X186730495Y-66611204D01*
X186754999Y-66610000D01*
X187405001Y-66610000D01*
X187429505Y-66611204D01*
X187429505Y-66611204D01*
G37*
D14*
X187080000Y-67310000D03*
D10*
G36*
X166209505Y-49836204D02*
G01*
X166233773Y-49839804D01*
X166257572Y-49845765D01*
X166280671Y-49854030D01*
X166302850Y-49864520D01*
X166323893Y-49877132D01*
X166343599Y-49891747D01*
X166361777Y-49908223D01*
X166378253Y-49926401D01*
X166392868Y-49946107D01*
X166405480Y-49967150D01*
X166415970Y-49989329D01*
X166424235Y-50012428D01*
X166430196Y-50036227D01*
X166433796Y-50060495D01*
X166435000Y-50084999D01*
X166435000Y-50735001D01*
X166433796Y-50759505D01*
X166430196Y-50783773D01*
X166424235Y-50807572D01*
X166415970Y-50830671D01*
X166405480Y-50852850D01*
X166392868Y-50873893D01*
X166378253Y-50893599D01*
X166361777Y-50911777D01*
X166343599Y-50928253D01*
X166323893Y-50942868D01*
X166302850Y-50955480D01*
X166280671Y-50965970D01*
X166257572Y-50974235D01*
X166233773Y-50980196D01*
X166209505Y-50983796D01*
X166185001Y-50985000D01*
X165284999Y-50985000D01*
X165260495Y-50983796D01*
X165236227Y-50980196D01*
X165212428Y-50974235D01*
X165189329Y-50965970D01*
X165167150Y-50955480D01*
X165146107Y-50942868D01*
X165126401Y-50928253D01*
X165108223Y-50911777D01*
X165091747Y-50893599D01*
X165077132Y-50873893D01*
X165064520Y-50852850D01*
X165054030Y-50830671D01*
X165045765Y-50807572D01*
X165039804Y-50783773D01*
X165036204Y-50759505D01*
X165035000Y-50735001D01*
X165035000Y-50084999D01*
X165036204Y-50060495D01*
X165039804Y-50036227D01*
X165045765Y-50012428D01*
X165054030Y-49989329D01*
X165064520Y-49967150D01*
X165077132Y-49946107D01*
X165091747Y-49926401D01*
X165108223Y-49908223D01*
X165126401Y-49891747D01*
X165146107Y-49877132D01*
X165167150Y-49864520D01*
X165189329Y-49854030D01*
X165212428Y-49845765D01*
X165236227Y-49839804D01*
X165260495Y-49836204D01*
X165284999Y-49835000D01*
X166185001Y-49835000D01*
X166209505Y-49836204D01*
X166209505Y-49836204D01*
G37*
D14*
X165735000Y-50410000D03*
D10*
G36*
X166209505Y-51886204D02*
G01*
X166233773Y-51889804D01*
X166257572Y-51895765D01*
X166280671Y-51904030D01*
X166302850Y-51914520D01*
X166323893Y-51927132D01*
X166343599Y-51941747D01*
X166361777Y-51958223D01*
X166378253Y-51976401D01*
X166392868Y-51996107D01*
X166405480Y-52017150D01*
X166415970Y-52039329D01*
X166424235Y-52062428D01*
X166430196Y-52086227D01*
X166433796Y-52110495D01*
X166435000Y-52134999D01*
X166435000Y-52785001D01*
X166433796Y-52809505D01*
X166430196Y-52833773D01*
X166424235Y-52857572D01*
X166415970Y-52880671D01*
X166405480Y-52902850D01*
X166392868Y-52923893D01*
X166378253Y-52943599D01*
X166361777Y-52961777D01*
X166343599Y-52978253D01*
X166323893Y-52992868D01*
X166302850Y-53005480D01*
X166280671Y-53015970D01*
X166257572Y-53024235D01*
X166233773Y-53030196D01*
X166209505Y-53033796D01*
X166185001Y-53035000D01*
X165284999Y-53035000D01*
X165260495Y-53033796D01*
X165236227Y-53030196D01*
X165212428Y-53024235D01*
X165189329Y-53015970D01*
X165167150Y-53005480D01*
X165146107Y-52992868D01*
X165126401Y-52978253D01*
X165108223Y-52961777D01*
X165091747Y-52943599D01*
X165077132Y-52923893D01*
X165064520Y-52902850D01*
X165054030Y-52880671D01*
X165045765Y-52857572D01*
X165039804Y-52833773D01*
X165036204Y-52809505D01*
X165035000Y-52785001D01*
X165035000Y-52134999D01*
X165036204Y-52110495D01*
X165039804Y-52086227D01*
X165045765Y-52062428D01*
X165054030Y-52039329D01*
X165064520Y-52017150D01*
X165077132Y-51996107D01*
X165091747Y-51976401D01*
X165108223Y-51958223D01*
X165126401Y-51941747D01*
X165146107Y-51927132D01*
X165167150Y-51914520D01*
X165189329Y-51904030D01*
X165212428Y-51895765D01*
X165236227Y-51889804D01*
X165260495Y-51886204D01*
X165284999Y-51885000D01*
X166185001Y-51885000D01*
X166209505Y-51886204D01*
X166209505Y-51886204D01*
G37*
D14*
X165735000Y-52460000D03*
D10*
G36*
X170919505Y-61531204D02*
G01*
X170943773Y-61534804D01*
X170967572Y-61540765D01*
X170990671Y-61549030D01*
X171012850Y-61559520D01*
X171033893Y-61572132D01*
X171053599Y-61586747D01*
X171071777Y-61603223D01*
X171088253Y-61621401D01*
X171102868Y-61641107D01*
X171115480Y-61662150D01*
X171125970Y-61684329D01*
X171134235Y-61707428D01*
X171140196Y-61731227D01*
X171143796Y-61755495D01*
X171145000Y-61779999D01*
X171145000Y-62680001D01*
X171143796Y-62704505D01*
X171140196Y-62728773D01*
X171134235Y-62752572D01*
X171125970Y-62775671D01*
X171115480Y-62797850D01*
X171102868Y-62818893D01*
X171088253Y-62838599D01*
X171071777Y-62856777D01*
X171053599Y-62873253D01*
X171033893Y-62887868D01*
X171012850Y-62900480D01*
X170990671Y-62910970D01*
X170967572Y-62919235D01*
X170943773Y-62925196D01*
X170919505Y-62928796D01*
X170895001Y-62930000D01*
X170244999Y-62930000D01*
X170220495Y-62928796D01*
X170196227Y-62925196D01*
X170172428Y-62919235D01*
X170149329Y-62910970D01*
X170127150Y-62900480D01*
X170106107Y-62887868D01*
X170086401Y-62873253D01*
X170068223Y-62856777D01*
X170051747Y-62838599D01*
X170037132Y-62818893D01*
X170024520Y-62797850D01*
X170014030Y-62775671D01*
X170005765Y-62752572D01*
X169999804Y-62728773D01*
X169996204Y-62704505D01*
X169995000Y-62680001D01*
X169995000Y-61779999D01*
X169996204Y-61755495D01*
X169999804Y-61731227D01*
X170005765Y-61707428D01*
X170014030Y-61684329D01*
X170024520Y-61662150D01*
X170037132Y-61641107D01*
X170051747Y-61621401D01*
X170068223Y-61603223D01*
X170086401Y-61586747D01*
X170106107Y-61572132D01*
X170127150Y-61559520D01*
X170149329Y-61549030D01*
X170172428Y-61540765D01*
X170196227Y-61534804D01*
X170220495Y-61531204D01*
X170244999Y-61530000D01*
X170895001Y-61530000D01*
X170919505Y-61531204D01*
X170919505Y-61531204D01*
G37*
D14*
X170570000Y-62230000D03*
D10*
G36*
X168869505Y-61531204D02*
G01*
X168893773Y-61534804D01*
X168917572Y-61540765D01*
X168940671Y-61549030D01*
X168962850Y-61559520D01*
X168983893Y-61572132D01*
X169003599Y-61586747D01*
X169021777Y-61603223D01*
X169038253Y-61621401D01*
X169052868Y-61641107D01*
X169065480Y-61662150D01*
X169075970Y-61684329D01*
X169084235Y-61707428D01*
X169090196Y-61731227D01*
X169093796Y-61755495D01*
X169095000Y-61779999D01*
X169095000Y-62680001D01*
X169093796Y-62704505D01*
X169090196Y-62728773D01*
X169084235Y-62752572D01*
X169075970Y-62775671D01*
X169065480Y-62797850D01*
X169052868Y-62818893D01*
X169038253Y-62838599D01*
X169021777Y-62856777D01*
X169003599Y-62873253D01*
X168983893Y-62887868D01*
X168962850Y-62900480D01*
X168940671Y-62910970D01*
X168917572Y-62919235D01*
X168893773Y-62925196D01*
X168869505Y-62928796D01*
X168845001Y-62930000D01*
X168194999Y-62930000D01*
X168170495Y-62928796D01*
X168146227Y-62925196D01*
X168122428Y-62919235D01*
X168099329Y-62910970D01*
X168077150Y-62900480D01*
X168056107Y-62887868D01*
X168036401Y-62873253D01*
X168018223Y-62856777D01*
X168001747Y-62838599D01*
X167987132Y-62818893D01*
X167974520Y-62797850D01*
X167964030Y-62775671D01*
X167955765Y-62752572D01*
X167949804Y-62728773D01*
X167946204Y-62704505D01*
X167945000Y-62680001D01*
X167945000Y-61779999D01*
X167946204Y-61755495D01*
X167949804Y-61731227D01*
X167955765Y-61707428D01*
X167964030Y-61684329D01*
X167974520Y-61662150D01*
X167987132Y-61641107D01*
X168001747Y-61621401D01*
X168018223Y-61603223D01*
X168036401Y-61586747D01*
X168056107Y-61572132D01*
X168077150Y-61559520D01*
X168099329Y-61549030D01*
X168122428Y-61540765D01*
X168146227Y-61534804D01*
X168170495Y-61531204D01*
X168194999Y-61530000D01*
X168845001Y-61530000D01*
X168869505Y-61531204D01*
X168869505Y-61531204D01*
G37*
D14*
X168520000Y-62230000D03*
D10*
G36*
X166329505Y-46291204D02*
G01*
X166353773Y-46294804D01*
X166377572Y-46300765D01*
X166400671Y-46309030D01*
X166422850Y-46319520D01*
X166443893Y-46332132D01*
X166463599Y-46346747D01*
X166481777Y-46363223D01*
X166498253Y-46381401D01*
X166512868Y-46401107D01*
X166525480Y-46422150D01*
X166535970Y-46444329D01*
X166544235Y-46467428D01*
X166550196Y-46491227D01*
X166553796Y-46515495D01*
X166555000Y-46539999D01*
X166555000Y-47440001D01*
X166553796Y-47464505D01*
X166550196Y-47488773D01*
X166544235Y-47512572D01*
X166535970Y-47535671D01*
X166525480Y-47557850D01*
X166512868Y-47578893D01*
X166498253Y-47598599D01*
X166481777Y-47616777D01*
X166463599Y-47633253D01*
X166443893Y-47647868D01*
X166422850Y-47660480D01*
X166400671Y-47670970D01*
X166377572Y-47679235D01*
X166353773Y-47685196D01*
X166329505Y-47688796D01*
X166305001Y-47690000D01*
X165654999Y-47690000D01*
X165630495Y-47688796D01*
X165606227Y-47685196D01*
X165582428Y-47679235D01*
X165559329Y-47670970D01*
X165537150Y-47660480D01*
X165516107Y-47647868D01*
X165496401Y-47633253D01*
X165478223Y-47616777D01*
X165461747Y-47598599D01*
X165447132Y-47578893D01*
X165434520Y-47557850D01*
X165424030Y-47535671D01*
X165415765Y-47512572D01*
X165409804Y-47488773D01*
X165406204Y-47464505D01*
X165405000Y-47440001D01*
X165405000Y-46539999D01*
X165406204Y-46515495D01*
X165409804Y-46491227D01*
X165415765Y-46467428D01*
X165424030Y-46444329D01*
X165434520Y-46422150D01*
X165447132Y-46401107D01*
X165461747Y-46381401D01*
X165478223Y-46363223D01*
X165496401Y-46346747D01*
X165516107Y-46332132D01*
X165537150Y-46319520D01*
X165559329Y-46309030D01*
X165582428Y-46300765D01*
X165606227Y-46294804D01*
X165630495Y-46291204D01*
X165654999Y-46290000D01*
X166305001Y-46290000D01*
X166329505Y-46291204D01*
X166329505Y-46291204D01*
G37*
D14*
X165980000Y-46990000D03*
D10*
G36*
X168379505Y-46291204D02*
G01*
X168403773Y-46294804D01*
X168427572Y-46300765D01*
X168450671Y-46309030D01*
X168472850Y-46319520D01*
X168493893Y-46332132D01*
X168513599Y-46346747D01*
X168531777Y-46363223D01*
X168548253Y-46381401D01*
X168562868Y-46401107D01*
X168575480Y-46422150D01*
X168585970Y-46444329D01*
X168594235Y-46467428D01*
X168600196Y-46491227D01*
X168603796Y-46515495D01*
X168605000Y-46539999D01*
X168605000Y-47440001D01*
X168603796Y-47464505D01*
X168600196Y-47488773D01*
X168594235Y-47512572D01*
X168585970Y-47535671D01*
X168575480Y-47557850D01*
X168562868Y-47578893D01*
X168548253Y-47598599D01*
X168531777Y-47616777D01*
X168513599Y-47633253D01*
X168493893Y-47647868D01*
X168472850Y-47660480D01*
X168450671Y-47670970D01*
X168427572Y-47679235D01*
X168403773Y-47685196D01*
X168379505Y-47688796D01*
X168355001Y-47690000D01*
X167704999Y-47690000D01*
X167680495Y-47688796D01*
X167656227Y-47685196D01*
X167632428Y-47679235D01*
X167609329Y-47670970D01*
X167587150Y-47660480D01*
X167566107Y-47647868D01*
X167546401Y-47633253D01*
X167528223Y-47616777D01*
X167511747Y-47598599D01*
X167497132Y-47578893D01*
X167484520Y-47557850D01*
X167474030Y-47535671D01*
X167465765Y-47512572D01*
X167459804Y-47488773D01*
X167456204Y-47464505D01*
X167455000Y-47440001D01*
X167455000Y-46539999D01*
X167456204Y-46515495D01*
X167459804Y-46491227D01*
X167465765Y-46467428D01*
X167474030Y-46444329D01*
X167484520Y-46422150D01*
X167497132Y-46401107D01*
X167511747Y-46381401D01*
X167528223Y-46363223D01*
X167546401Y-46346747D01*
X167566107Y-46332132D01*
X167587150Y-46319520D01*
X167609329Y-46309030D01*
X167632428Y-46300765D01*
X167656227Y-46294804D01*
X167680495Y-46291204D01*
X167704999Y-46290000D01*
X168355001Y-46290000D01*
X168379505Y-46291204D01*
X168379505Y-46291204D01*
G37*
D14*
X168030000Y-46990000D03*
D16*
X165100000Y-63770000D03*
X166050000Y-65770000D03*
X164150000Y-65770000D03*
D17*
X169970000Y-49625000D03*
X170470000Y-49625000D03*
X170970000Y-49625000D03*
X171470000Y-49625000D03*
X171970000Y-49625000D03*
X172470000Y-49625000D03*
X172970000Y-49625000D03*
X173470000Y-49625000D03*
X173970000Y-49625000D03*
X174470000Y-49625000D03*
X174970000Y-49625000D03*
X175470000Y-49625000D03*
D18*
X177070000Y-51225000D03*
X177070000Y-51725000D03*
X177070000Y-52225000D03*
X177070000Y-52725000D03*
X177070000Y-53225000D03*
X177070000Y-53725000D03*
X177070000Y-54225000D03*
X177070000Y-54725000D03*
X177070000Y-55225000D03*
X177070000Y-55725000D03*
X177070000Y-56225000D03*
X177070000Y-56725000D03*
D17*
X175470000Y-58325000D03*
X174970000Y-58325000D03*
X174470000Y-58325000D03*
X173970000Y-58325000D03*
X173470000Y-58325000D03*
X172970000Y-58325000D03*
X172470000Y-58325000D03*
X171970000Y-58325000D03*
X171470000Y-58325000D03*
X170970000Y-58325000D03*
X170470000Y-58325000D03*
X169970000Y-58325000D03*
D18*
X168370000Y-56725000D03*
X168370000Y-56225000D03*
X168370000Y-55725000D03*
X168370000Y-55225000D03*
X168370000Y-54725000D03*
X168370000Y-54225000D03*
X168370000Y-53725000D03*
X168370000Y-53225000D03*
X168370000Y-52725000D03*
X168370000Y-52225000D03*
X168370000Y-51725000D03*
X168370000Y-51225000D03*
D10*
G36*
X176384802Y-60995482D02*
G01*
X176394509Y-60996921D01*
X176404028Y-60999306D01*
X176413268Y-61002612D01*
X176422140Y-61006808D01*
X176430557Y-61011853D01*
X176438439Y-61017699D01*
X176445711Y-61024289D01*
X176452301Y-61031561D01*
X176458147Y-61039443D01*
X176463192Y-61047860D01*
X176467388Y-61056732D01*
X176470694Y-61065972D01*
X176473079Y-61075491D01*
X176474518Y-61085198D01*
X176475000Y-61095000D01*
X176475000Y-61295000D01*
X176474518Y-61304802D01*
X176473079Y-61314509D01*
X176470694Y-61324028D01*
X176467388Y-61333268D01*
X176463192Y-61342140D01*
X176458147Y-61350557D01*
X176452301Y-61358439D01*
X176445711Y-61365711D01*
X176438439Y-61372301D01*
X176430557Y-61378147D01*
X176422140Y-61383192D01*
X176413268Y-61387388D01*
X176404028Y-61390694D01*
X176394509Y-61393079D01*
X176384802Y-61394518D01*
X176375000Y-61395000D01*
X175775000Y-61395000D01*
X175765198Y-61394518D01*
X175755491Y-61393079D01*
X175745972Y-61390694D01*
X175736732Y-61387388D01*
X175727860Y-61383192D01*
X175719443Y-61378147D01*
X175711561Y-61372301D01*
X175704289Y-61365711D01*
X175697699Y-61358439D01*
X175691853Y-61350557D01*
X175686808Y-61342140D01*
X175682612Y-61333268D01*
X175679306Y-61324028D01*
X175676921Y-61314509D01*
X175675482Y-61304802D01*
X175675000Y-61295000D01*
X175675000Y-61095000D01*
X175675482Y-61085198D01*
X175676921Y-61075491D01*
X175679306Y-61065972D01*
X175682612Y-61056732D01*
X175686808Y-61047860D01*
X175691853Y-61039443D01*
X175697699Y-61031561D01*
X175704289Y-61024289D01*
X175711561Y-61017699D01*
X175719443Y-61011853D01*
X175727860Y-61006808D01*
X175736732Y-61002612D01*
X175745972Y-60999306D01*
X175755491Y-60996921D01*
X175765198Y-60995482D01*
X175775000Y-60995000D01*
X176375000Y-60995000D01*
X176384802Y-60995482D01*
X176384802Y-60995482D01*
G37*
D19*
X176075000Y-61195000D03*
D10*
G36*
X176384802Y-61995482D02*
G01*
X176394509Y-61996921D01*
X176404028Y-61999306D01*
X176413268Y-62002612D01*
X176422140Y-62006808D01*
X176430557Y-62011853D01*
X176438439Y-62017699D01*
X176445711Y-62024289D01*
X176452301Y-62031561D01*
X176458147Y-62039443D01*
X176463192Y-62047860D01*
X176467388Y-62056732D01*
X176470694Y-62065972D01*
X176473079Y-62075491D01*
X176474518Y-62085198D01*
X176475000Y-62095000D01*
X176475000Y-62295000D01*
X176474518Y-62304802D01*
X176473079Y-62314509D01*
X176470694Y-62324028D01*
X176467388Y-62333268D01*
X176463192Y-62342140D01*
X176458147Y-62350557D01*
X176452301Y-62358439D01*
X176445711Y-62365711D01*
X176438439Y-62372301D01*
X176430557Y-62378147D01*
X176422140Y-62383192D01*
X176413268Y-62387388D01*
X176404028Y-62390694D01*
X176394509Y-62393079D01*
X176384802Y-62394518D01*
X176375000Y-62395000D01*
X175775000Y-62395000D01*
X175765198Y-62394518D01*
X175755491Y-62393079D01*
X175745972Y-62390694D01*
X175736732Y-62387388D01*
X175727860Y-62383192D01*
X175719443Y-62378147D01*
X175711561Y-62372301D01*
X175704289Y-62365711D01*
X175697699Y-62358439D01*
X175691853Y-62350557D01*
X175686808Y-62342140D01*
X175682612Y-62333268D01*
X175679306Y-62324028D01*
X175676921Y-62314509D01*
X175675482Y-62304802D01*
X175675000Y-62295000D01*
X175675000Y-62095000D01*
X175675482Y-62085198D01*
X175676921Y-62075491D01*
X175679306Y-62065972D01*
X175682612Y-62056732D01*
X175686808Y-62047860D01*
X175691853Y-62039443D01*
X175697699Y-62031561D01*
X175704289Y-62024289D01*
X175711561Y-62017699D01*
X175719443Y-62011853D01*
X175727860Y-62006808D01*
X175736732Y-62002612D01*
X175745972Y-61999306D01*
X175755491Y-61996921D01*
X175765198Y-61995482D01*
X175775000Y-61995000D01*
X176375000Y-61995000D01*
X176384802Y-61995482D01*
X176384802Y-61995482D01*
G37*
D19*
X176075000Y-62195000D03*
D10*
G36*
X176384802Y-62995482D02*
G01*
X176394509Y-62996921D01*
X176404028Y-62999306D01*
X176413268Y-63002612D01*
X176422140Y-63006808D01*
X176430557Y-63011853D01*
X176438439Y-63017699D01*
X176445711Y-63024289D01*
X176452301Y-63031561D01*
X176458147Y-63039443D01*
X176463192Y-63047860D01*
X176467388Y-63056732D01*
X176470694Y-63065972D01*
X176473079Y-63075491D01*
X176474518Y-63085198D01*
X176475000Y-63095000D01*
X176475000Y-63295000D01*
X176474518Y-63304802D01*
X176473079Y-63314509D01*
X176470694Y-63324028D01*
X176467388Y-63333268D01*
X176463192Y-63342140D01*
X176458147Y-63350557D01*
X176452301Y-63358439D01*
X176445711Y-63365711D01*
X176438439Y-63372301D01*
X176430557Y-63378147D01*
X176422140Y-63383192D01*
X176413268Y-63387388D01*
X176404028Y-63390694D01*
X176394509Y-63393079D01*
X176384802Y-63394518D01*
X176375000Y-63395000D01*
X175775000Y-63395000D01*
X175765198Y-63394518D01*
X175755491Y-63393079D01*
X175745972Y-63390694D01*
X175736732Y-63387388D01*
X175727860Y-63383192D01*
X175719443Y-63378147D01*
X175711561Y-63372301D01*
X175704289Y-63365711D01*
X175697699Y-63358439D01*
X175691853Y-63350557D01*
X175686808Y-63342140D01*
X175682612Y-63333268D01*
X175679306Y-63324028D01*
X175676921Y-63314509D01*
X175675482Y-63304802D01*
X175675000Y-63295000D01*
X175675000Y-63095000D01*
X175675482Y-63085198D01*
X175676921Y-63075491D01*
X175679306Y-63065972D01*
X175682612Y-63056732D01*
X175686808Y-63047860D01*
X175691853Y-63039443D01*
X175697699Y-63031561D01*
X175704289Y-63024289D01*
X175711561Y-63017699D01*
X175719443Y-63011853D01*
X175727860Y-63006808D01*
X175736732Y-63002612D01*
X175745972Y-62999306D01*
X175755491Y-62996921D01*
X175765198Y-62995482D01*
X175775000Y-62995000D01*
X176375000Y-62995000D01*
X176384802Y-62995482D01*
X176384802Y-62995482D01*
G37*
D19*
X176075000Y-63195000D03*
D10*
G36*
X173484802Y-62995482D02*
G01*
X173494509Y-62996921D01*
X173504028Y-62999306D01*
X173513268Y-63002612D01*
X173522140Y-63006808D01*
X173530557Y-63011853D01*
X173538439Y-63017699D01*
X173545711Y-63024289D01*
X173552301Y-63031561D01*
X173558147Y-63039443D01*
X173563192Y-63047860D01*
X173567388Y-63056732D01*
X173570694Y-63065972D01*
X173573079Y-63075491D01*
X173574518Y-63085198D01*
X173575000Y-63095000D01*
X173575000Y-63295000D01*
X173574518Y-63304802D01*
X173573079Y-63314509D01*
X173570694Y-63324028D01*
X173567388Y-63333268D01*
X173563192Y-63342140D01*
X173558147Y-63350557D01*
X173552301Y-63358439D01*
X173545711Y-63365711D01*
X173538439Y-63372301D01*
X173530557Y-63378147D01*
X173522140Y-63383192D01*
X173513268Y-63387388D01*
X173504028Y-63390694D01*
X173494509Y-63393079D01*
X173484802Y-63394518D01*
X173475000Y-63395000D01*
X172875000Y-63395000D01*
X172865198Y-63394518D01*
X172855491Y-63393079D01*
X172845972Y-63390694D01*
X172836732Y-63387388D01*
X172827860Y-63383192D01*
X172819443Y-63378147D01*
X172811561Y-63372301D01*
X172804289Y-63365711D01*
X172797699Y-63358439D01*
X172791853Y-63350557D01*
X172786808Y-63342140D01*
X172782612Y-63333268D01*
X172779306Y-63324028D01*
X172776921Y-63314509D01*
X172775482Y-63304802D01*
X172775000Y-63295000D01*
X172775000Y-63095000D01*
X172775482Y-63085198D01*
X172776921Y-63075491D01*
X172779306Y-63065972D01*
X172782612Y-63056732D01*
X172786808Y-63047860D01*
X172791853Y-63039443D01*
X172797699Y-63031561D01*
X172804289Y-63024289D01*
X172811561Y-63017699D01*
X172819443Y-63011853D01*
X172827860Y-63006808D01*
X172836732Y-63002612D01*
X172845972Y-62999306D01*
X172855491Y-62996921D01*
X172865198Y-62995482D01*
X172875000Y-62995000D01*
X173475000Y-62995000D01*
X173484802Y-62995482D01*
X173484802Y-62995482D01*
G37*
D19*
X173175000Y-63195000D03*
D10*
G36*
X173484802Y-61995482D02*
G01*
X173494509Y-61996921D01*
X173504028Y-61999306D01*
X173513268Y-62002612D01*
X173522140Y-62006808D01*
X173530557Y-62011853D01*
X173538439Y-62017699D01*
X173545711Y-62024289D01*
X173552301Y-62031561D01*
X173558147Y-62039443D01*
X173563192Y-62047860D01*
X173567388Y-62056732D01*
X173570694Y-62065972D01*
X173573079Y-62075491D01*
X173574518Y-62085198D01*
X173575000Y-62095000D01*
X173575000Y-62295000D01*
X173574518Y-62304802D01*
X173573079Y-62314509D01*
X173570694Y-62324028D01*
X173567388Y-62333268D01*
X173563192Y-62342140D01*
X173558147Y-62350557D01*
X173552301Y-62358439D01*
X173545711Y-62365711D01*
X173538439Y-62372301D01*
X173530557Y-62378147D01*
X173522140Y-62383192D01*
X173513268Y-62387388D01*
X173504028Y-62390694D01*
X173494509Y-62393079D01*
X173484802Y-62394518D01*
X173475000Y-62395000D01*
X172875000Y-62395000D01*
X172865198Y-62394518D01*
X172855491Y-62393079D01*
X172845972Y-62390694D01*
X172836732Y-62387388D01*
X172827860Y-62383192D01*
X172819443Y-62378147D01*
X172811561Y-62372301D01*
X172804289Y-62365711D01*
X172797699Y-62358439D01*
X172791853Y-62350557D01*
X172786808Y-62342140D01*
X172782612Y-62333268D01*
X172779306Y-62324028D01*
X172776921Y-62314509D01*
X172775482Y-62304802D01*
X172775000Y-62295000D01*
X172775000Y-62095000D01*
X172775482Y-62085198D01*
X172776921Y-62075491D01*
X172779306Y-62065972D01*
X172782612Y-62056732D01*
X172786808Y-62047860D01*
X172791853Y-62039443D01*
X172797699Y-62031561D01*
X172804289Y-62024289D01*
X172811561Y-62017699D01*
X172819443Y-62011853D01*
X172827860Y-62006808D01*
X172836732Y-62002612D01*
X172845972Y-61999306D01*
X172855491Y-61996921D01*
X172865198Y-61995482D01*
X172875000Y-61995000D01*
X173475000Y-61995000D01*
X173484802Y-61995482D01*
X173484802Y-61995482D01*
G37*
D19*
X173175000Y-62195000D03*
D10*
G36*
X173484802Y-60995482D02*
G01*
X173494509Y-60996921D01*
X173504028Y-60999306D01*
X173513268Y-61002612D01*
X173522140Y-61006808D01*
X173530557Y-61011853D01*
X173538439Y-61017699D01*
X173545711Y-61024289D01*
X173552301Y-61031561D01*
X173558147Y-61039443D01*
X173563192Y-61047860D01*
X173567388Y-61056732D01*
X173570694Y-61065972D01*
X173573079Y-61075491D01*
X173574518Y-61085198D01*
X173575000Y-61095000D01*
X173575000Y-61295000D01*
X173574518Y-61304802D01*
X173573079Y-61314509D01*
X173570694Y-61324028D01*
X173567388Y-61333268D01*
X173563192Y-61342140D01*
X173558147Y-61350557D01*
X173552301Y-61358439D01*
X173545711Y-61365711D01*
X173538439Y-61372301D01*
X173530557Y-61378147D01*
X173522140Y-61383192D01*
X173513268Y-61387388D01*
X173504028Y-61390694D01*
X173494509Y-61393079D01*
X173484802Y-61394518D01*
X173475000Y-61395000D01*
X172875000Y-61395000D01*
X172865198Y-61394518D01*
X172855491Y-61393079D01*
X172845972Y-61390694D01*
X172836732Y-61387388D01*
X172827860Y-61383192D01*
X172819443Y-61378147D01*
X172811561Y-61372301D01*
X172804289Y-61365711D01*
X172797699Y-61358439D01*
X172791853Y-61350557D01*
X172786808Y-61342140D01*
X172782612Y-61333268D01*
X172779306Y-61324028D01*
X172776921Y-61314509D01*
X172775482Y-61304802D01*
X172775000Y-61295000D01*
X172775000Y-61095000D01*
X172775482Y-61085198D01*
X172776921Y-61075491D01*
X172779306Y-61065972D01*
X172782612Y-61056732D01*
X172786808Y-61047860D01*
X172791853Y-61039443D01*
X172797699Y-61031561D01*
X172804289Y-61024289D01*
X172811561Y-61017699D01*
X172819443Y-61011853D01*
X172827860Y-61006808D01*
X172836732Y-61002612D01*
X172845972Y-60999306D01*
X172855491Y-60996921D01*
X172865198Y-60995482D01*
X172875000Y-60995000D01*
X173475000Y-60995000D01*
X173484802Y-60995482D01*
X173484802Y-60995482D01*
G37*
D19*
X173175000Y-61195000D03*
D10*
G36*
X175164703Y-62310722D02*
G01*
X175179264Y-62312882D01*
X175193543Y-62316459D01*
X175207403Y-62321418D01*
X175220710Y-62327712D01*
X175233336Y-62335280D01*
X175245159Y-62344048D01*
X175256066Y-62353934D01*
X175265952Y-62364841D01*
X175274720Y-62376664D01*
X175282288Y-62389290D01*
X175288582Y-62402597D01*
X175293541Y-62416457D01*
X175297118Y-62430736D01*
X175299278Y-62445297D01*
X175300000Y-62460000D01*
X175300000Y-63130000D01*
X175299278Y-63144703D01*
X175297118Y-63159264D01*
X175293541Y-63173543D01*
X175288582Y-63187403D01*
X175282288Y-63200710D01*
X175274720Y-63213336D01*
X175265952Y-63225159D01*
X175256066Y-63236066D01*
X175245159Y-63245952D01*
X175233336Y-63254720D01*
X175220710Y-63262288D01*
X175207403Y-63268582D01*
X175193543Y-63273541D01*
X175179264Y-63277118D01*
X175164703Y-63279278D01*
X175150000Y-63280000D01*
X174850000Y-63280000D01*
X174835297Y-63279278D01*
X174820736Y-63277118D01*
X174806457Y-63273541D01*
X174792597Y-63268582D01*
X174779290Y-63262288D01*
X174766664Y-63254720D01*
X174754841Y-63245952D01*
X174743934Y-63236066D01*
X174734048Y-63225159D01*
X174725280Y-63213336D01*
X174717712Y-63200710D01*
X174711418Y-63187403D01*
X174706459Y-63173543D01*
X174702882Y-63159264D01*
X174700722Y-63144703D01*
X174700000Y-63130000D01*
X174700000Y-62460000D01*
X174700722Y-62445297D01*
X174702882Y-62430736D01*
X174706459Y-62416457D01*
X174711418Y-62402597D01*
X174717712Y-62389290D01*
X174725280Y-62376664D01*
X174734048Y-62364841D01*
X174743934Y-62353934D01*
X174754841Y-62344048D01*
X174766664Y-62335280D01*
X174779290Y-62327712D01*
X174792597Y-62321418D01*
X174806457Y-62316459D01*
X174820736Y-62312882D01*
X174835297Y-62310722D01*
X174850000Y-62310000D01*
X175150000Y-62310000D01*
X175164703Y-62310722D01*
X175164703Y-62310722D01*
G37*
D20*
X175000000Y-62795000D03*
D10*
G36*
X175164703Y-61110722D02*
G01*
X175179264Y-61112882D01*
X175193543Y-61116459D01*
X175207403Y-61121418D01*
X175220710Y-61127712D01*
X175233336Y-61135280D01*
X175245159Y-61144048D01*
X175256066Y-61153934D01*
X175265952Y-61164841D01*
X175274720Y-61176664D01*
X175282288Y-61189290D01*
X175288582Y-61202597D01*
X175293541Y-61216457D01*
X175297118Y-61230736D01*
X175299278Y-61245297D01*
X175300000Y-61260000D01*
X175300000Y-61930000D01*
X175299278Y-61944703D01*
X175297118Y-61959264D01*
X175293541Y-61973543D01*
X175288582Y-61987403D01*
X175282288Y-62000710D01*
X175274720Y-62013336D01*
X175265952Y-62025159D01*
X175256066Y-62036066D01*
X175245159Y-62045952D01*
X175233336Y-62054720D01*
X175220710Y-62062288D01*
X175207403Y-62068582D01*
X175193543Y-62073541D01*
X175179264Y-62077118D01*
X175164703Y-62079278D01*
X175150000Y-62080000D01*
X174850000Y-62080000D01*
X174835297Y-62079278D01*
X174820736Y-62077118D01*
X174806457Y-62073541D01*
X174792597Y-62068582D01*
X174779290Y-62062288D01*
X174766664Y-62054720D01*
X174754841Y-62045952D01*
X174743934Y-62036066D01*
X174734048Y-62025159D01*
X174725280Y-62013336D01*
X174717712Y-62000710D01*
X174711418Y-61987403D01*
X174706459Y-61973543D01*
X174702882Y-61959264D01*
X174700722Y-61944703D01*
X174700000Y-61930000D01*
X174700000Y-61260000D01*
X174700722Y-61245297D01*
X174702882Y-61230736D01*
X174706459Y-61216457D01*
X174711418Y-61202597D01*
X174717712Y-61189290D01*
X174725280Y-61176664D01*
X174734048Y-61164841D01*
X174743934Y-61153934D01*
X174754841Y-61144048D01*
X174766664Y-61135280D01*
X174779290Y-61127712D01*
X174792597Y-61121418D01*
X174806457Y-61116459D01*
X174820736Y-61112882D01*
X174835297Y-61110722D01*
X174850000Y-61110000D01*
X175150000Y-61110000D01*
X175164703Y-61110722D01*
X175164703Y-61110722D01*
G37*
D20*
X175000000Y-61595000D03*
D10*
G36*
X174414703Y-62310722D02*
G01*
X174429264Y-62312882D01*
X174443543Y-62316459D01*
X174457403Y-62321418D01*
X174470710Y-62327712D01*
X174483336Y-62335280D01*
X174495159Y-62344048D01*
X174506066Y-62353934D01*
X174515952Y-62364841D01*
X174524720Y-62376664D01*
X174532288Y-62389290D01*
X174538582Y-62402597D01*
X174543541Y-62416457D01*
X174547118Y-62430736D01*
X174549278Y-62445297D01*
X174550000Y-62460000D01*
X174550000Y-63130000D01*
X174549278Y-63144703D01*
X174547118Y-63159264D01*
X174543541Y-63173543D01*
X174538582Y-63187403D01*
X174532288Y-63200710D01*
X174524720Y-63213336D01*
X174515952Y-63225159D01*
X174506066Y-63236066D01*
X174495159Y-63245952D01*
X174483336Y-63254720D01*
X174470710Y-63262288D01*
X174457403Y-63268582D01*
X174443543Y-63273541D01*
X174429264Y-63277118D01*
X174414703Y-63279278D01*
X174400000Y-63280000D01*
X174100000Y-63280000D01*
X174085297Y-63279278D01*
X174070736Y-63277118D01*
X174056457Y-63273541D01*
X174042597Y-63268582D01*
X174029290Y-63262288D01*
X174016664Y-63254720D01*
X174004841Y-63245952D01*
X173993934Y-63236066D01*
X173984048Y-63225159D01*
X173975280Y-63213336D01*
X173967712Y-63200710D01*
X173961418Y-63187403D01*
X173956459Y-63173543D01*
X173952882Y-63159264D01*
X173950722Y-63144703D01*
X173950000Y-63130000D01*
X173950000Y-62460000D01*
X173950722Y-62445297D01*
X173952882Y-62430736D01*
X173956459Y-62416457D01*
X173961418Y-62402597D01*
X173967712Y-62389290D01*
X173975280Y-62376664D01*
X173984048Y-62364841D01*
X173993934Y-62353934D01*
X174004841Y-62344048D01*
X174016664Y-62335280D01*
X174029290Y-62327712D01*
X174042597Y-62321418D01*
X174056457Y-62316459D01*
X174070736Y-62312882D01*
X174085297Y-62310722D01*
X174100000Y-62310000D01*
X174400000Y-62310000D01*
X174414703Y-62310722D01*
X174414703Y-62310722D01*
G37*
D20*
X174250000Y-62795000D03*
D10*
G36*
X174414703Y-61110722D02*
G01*
X174429264Y-61112882D01*
X174443543Y-61116459D01*
X174457403Y-61121418D01*
X174470710Y-61127712D01*
X174483336Y-61135280D01*
X174495159Y-61144048D01*
X174506066Y-61153934D01*
X174515952Y-61164841D01*
X174524720Y-61176664D01*
X174532288Y-61189290D01*
X174538582Y-61202597D01*
X174543541Y-61216457D01*
X174547118Y-61230736D01*
X174549278Y-61245297D01*
X174550000Y-61260000D01*
X174550000Y-61930000D01*
X174549278Y-61944703D01*
X174547118Y-61959264D01*
X174543541Y-61973543D01*
X174538582Y-61987403D01*
X174532288Y-62000710D01*
X174524720Y-62013336D01*
X174515952Y-62025159D01*
X174506066Y-62036066D01*
X174495159Y-62045952D01*
X174483336Y-62054720D01*
X174470710Y-62062288D01*
X174457403Y-62068582D01*
X174443543Y-62073541D01*
X174429264Y-62077118D01*
X174414703Y-62079278D01*
X174400000Y-62080000D01*
X174100000Y-62080000D01*
X174085297Y-62079278D01*
X174070736Y-62077118D01*
X174056457Y-62073541D01*
X174042597Y-62068582D01*
X174029290Y-62062288D01*
X174016664Y-62054720D01*
X174004841Y-62045952D01*
X173993934Y-62036066D01*
X173984048Y-62025159D01*
X173975280Y-62013336D01*
X173967712Y-62000710D01*
X173961418Y-61987403D01*
X173956459Y-61973543D01*
X173952882Y-61959264D01*
X173950722Y-61944703D01*
X173950000Y-61930000D01*
X173950000Y-61260000D01*
X173950722Y-61245297D01*
X173952882Y-61230736D01*
X173956459Y-61216457D01*
X173961418Y-61202597D01*
X173967712Y-61189290D01*
X173975280Y-61176664D01*
X173984048Y-61164841D01*
X173993934Y-61153934D01*
X174004841Y-61144048D01*
X174016664Y-61135280D01*
X174029290Y-61127712D01*
X174042597Y-61121418D01*
X174056457Y-61116459D01*
X174070736Y-61112882D01*
X174085297Y-61110722D01*
X174100000Y-61110000D01*
X174400000Y-61110000D01*
X174414703Y-61110722D01*
X174414703Y-61110722D01*
G37*
D20*
X174250000Y-61595000D03*
D21*
X188280000Y-43985000D03*
X190180000Y-43985000D03*
X190180000Y-46185000D03*
X189230000Y-46185000D03*
X188280000Y-46185000D03*
D22*
X198035000Y-69575000D03*
D23*
X196185000Y-70925000D03*
X196185000Y-75125000D03*
D22*
X198035000Y-76475000D03*
D24*
X196070000Y-65880000D03*
X196070000Y-58580000D03*
X198280000Y-58580000D03*
X198280000Y-65880000D03*
D25*
X195420000Y-59980000D03*
X195420000Y-61480000D03*
X195420000Y-64480000D03*
D16*
X187452000Y-60690000D03*
X186502000Y-58690000D03*
X188402000Y-58690000D03*
D26*
X187328000Y-55245000D03*
X184528000Y-55245000D03*
X166240000Y-43815000D03*
X169040000Y-43815000D03*
M02*
