G04 #@! TF.GenerationSoftware,KiCad,Pcbnew,(5.1.0-0)*
G04 #@! TF.CreationDate,2019-11-03T22:22:13+08:00*
G04 #@! TF.ProjectId,Pine,50696e65-2e6b-4696-9361-645f70636258,V1.0*
G04 #@! TF.SameCoordinates,Original*
G04 #@! TF.FileFunction,Copper,L2,Bot*
G04 #@! TF.FilePolarity,Positive*
%FSLAX46Y46*%
G04 Gerber Fmt 4.6, Leading zero omitted, Abs format (unit mm)*
G04 Created by KiCad (PCBNEW (5.1.0-0)) date 2019-11-03 22:22:13*
%MOMM*%
%LPD*%
G04 APERTURE LIST*
%ADD10C,0.100000*%
%ADD11C,0.150000*%
%ADD12C,0.300000*%
%ADD13C,0.400000*%
%ADD14C,1.800000*%
%ADD15R,1.800000X1.800000*%
%ADD16O,1.250000X1.050000*%
%ADD17O,1.900000X1.700000*%
%ADD18C,3.500000*%
%ADD19C,3.000000*%
%ADD20R,3.000000X3.000000*%
%ADD21O,1.700000X1.700000*%
%ADD22R,1.700000X1.700000*%
%ADD23C,1.700000*%
%ADD24C,0.700000*%
%ADD25C,0.800000*%
%ADD26C,0.250000*%
%ADD27C,0.254000*%
G04 APERTURE END LIST*
D10*
D11*
X177002200Y-166007200D02*
X177002200Y-198007200D01*
X285002200Y-198007200D01*
X285002200Y-166007200D01*
X177002200Y-166007200D01*
D10*
D11*
X10000000Y-10000000D02*
X10000000Y-200007200D01*
X287002200Y-200007200D01*
X287002200Y-10000000D01*
X10000000Y-10000000D01*
D10*
D11*
X12000000Y-12000000D02*
X12000000Y-198007200D01*
X285002200Y-198007200D01*
X285002200Y-12000000D01*
X12000000Y-12000000D01*
D10*
D11*
X60000000Y-12000000D02*
X60000000Y-10000000D01*
D10*
D11*
X110000000Y-12000000D02*
X110000000Y-10000000D01*
D10*
D11*
X160000000Y-12000000D02*
X160000000Y-10000000D01*
D10*
D11*
X210000000Y-12000000D02*
X210000000Y-10000000D01*
D10*
D11*
X260000000Y-12000000D02*
X260000000Y-10000000D01*
D10*
D11*
X36065476Y-11588095D02*
X35322619Y-11588095D01*
X35694047Y-11588095D02*
X35694047Y-10288095D01*
X35570238Y-10473809D01*
X35446428Y-10597619D01*
X35322619Y-10659523D01*
D10*
D11*
X85322619Y-10411904D02*
X85384523Y-10350000D01*
X85508333Y-10288095D01*
X85817857Y-10288095D01*
X85941666Y-10350000D01*
X86003571Y-10411904D01*
X86065476Y-10535714D01*
X86065476Y-10659523D01*
X86003571Y-10845238D01*
X85260714Y-11588095D01*
X86065476Y-11588095D01*
D10*
D11*
X135260714Y-10288095D02*
X136065476Y-10288095D01*
X135632142Y-10783333D01*
X135817857Y-10783333D01*
X135941666Y-10845238D01*
X136003571Y-10907142D01*
X136065476Y-11030952D01*
X136065476Y-11340476D01*
X136003571Y-11464285D01*
X135941666Y-11526190D01*
X135817857Y-11588095D01*
X135446428Y-11588095D01*
X135322619Y-11526190D01*
X135260714Y-11464285D01*
D10*
D11*
X185941666Y-10721428D02*
X185941666Y-11588095D01*
X185632142Y-10226190D02*
X185322619Y-11154761D01*
X186127380Y-11154761D01*
D10*
D11*
X236003571Y-10288095D02*
X235384523Y-10288095D01*
X235322619Y-10907142D01*
X235384523Y-10845238D01*
X235508333Y-10783333D01*
X235817857Y-10783333D01*
X235941666Y-10845238D01*
X236003571Y-10907142D01*
X236065476Y-11030952D01*
X236065476Y-11340476D01*
X236003571Y-11464285D01*
X235941666Y-11526190D01*
X235817857Y-11588095D01*
X235508333Y-11588095D01*
X235384523Y-11526190D01*
X235322619Y-11464285D01*
D10*
D11*
X285941666Y-10288095D02*
X285694047Y-10288095D01*
X285570238Y-10350000D01*
X285508333Y-10411904D01*
X285384523Y-10597619D01*
X285322619Y-10845238D01*
X285322619Y-11340476D01*
X285384523Y-11464285D01*
X285446428Y-11526190D01*
X285570238Y-11588095D01*
X285817857Y-11588095D01*
X285941666Y-11526190D01*
X286003571Y-11464285D01*
X286065476Y-11340476D01*
X286065476Y-11030952D01*
X286003571Y-10907142D01*
X285941666Y-10845238D01*
X285817857Y-10783333D01*
X285570238Y-10783333D01*
X285446428Y-10845238D01*
X285384523Y-10907142D01*
X285322619Y-11030952D01*
D10*
D11*
X60000000Y-198007200D02*
X60000000Y-200007200D01*
D10*
D11*
X110000000Y-198007200D02*
X110000000Y-200007200D01*
D10*
D11*
X160000000Y-198007200D02*
X160000000Y-200007200D01*
D10*
D11*
X210000000Y-198007200D02*
X210000000Y-200007200D01*
D10*
D11*
X260000000Y-198007200D02*
X260000000Y-200007200D01*
D10*
D11*
X36065476Y-199595295D02*
X35322619Y-199595295D01*
X35694047Y-199595295D02*
X35694047Y-198295295D01*
X35570238Y-198481009D01*
X35446428Y-198604819D01*
X35322619Y-198666723D01*
D10*
D11*
X85322619Y-198419104D02*
X85384523Y-198357200D01*
X85508333Y-198295295D01*
X85817857Y-198295295D01*
X85941666Y-198357200D01*
X86003571Y-198419104D01*
X86065476Y-198542914D01*
X86065476Y-198666723D01*
X86003571Y-198852438D01*
X85260714Y-199595295D01*
X86065476Y-199595295D01*
D10*
D11*
X135260714Y-198295295D02*
X136065476Y-198295295D01*
X135632142Y-198790533D01*
X135817857Y-198790533D01*
X135941666Y-198852438D01*
X136003571Y-198914342D01*
X136065476Y-199038152D01*
X136065476Y-199347676D01*
X136003571Y-199471485D01*
X135941666Y-199533390D01*
X135817857Y-199595295D01*
X135446428Y-199595295D01*
X135322619Y-199533390D01*
X135260714Y-199471485D01*
D10*
D11*
X185941666Y-198728628D02*
X185941666Y-199595295D01*
X185632142Y-198233390D02*
X185322619Y-199161961D01*
X186127380Y-199161961D01*
D10*
D11*
X236003571Y-198295295D02*
X235384523Y-198295295D01*
X235322619Y-198914342D01*
X235384523Y-198852438D01*
X235508333Y-198790533D01*
X235817857Y-198790533D01*
X235941666Y-198852438D01*
X236003571Y-198914342D01*
X236065476Y-199038152D01*
X236065476Y-199347676D01*
X236003571Y-199471485D01*
X235941666Y-199533390D01*
X235817857Y-199595295D01*
X235508333Y-199595295D01*
X235384523Y-199533390D01*
X235322619Y-199471485D01*
D10*
D11*
X285941666Y-198295295D02*
X285694047Y-198295295D01*
X285570238Y-198357200D01*
X285508333Y-198419104D01*
X285384523Y-198604819D01*
X285322619Y-198852438D01*
X285322619Y-199347676D01*
X285384523Y-199471485D01*
X285446428Y-199533390D01*
X285570238Y-199595295D01*
X285817857Y-199595295D01*
X285941666Y-199533390D01*
X286003571Y-199471485D01*
X286065476Y-199347676D01*
X286065476Y-199038152D01*
X286003571Y-198914342D01*
X285941666Y-198852438D01*
X285817857Y-198790533D01*
X285570238Y-198790533D01*
X285446428Y-198852438D01*
X285384523Y-198914342D01*
X285322619Y-199038152D01*
D10*
D11*
X10000000Y-60000000D02*
X12000000Y-60000000D01*
D10*
D11*
X10000000Y-110000000D02*
X12000000Y-110000000D01*
D10*
D11*
X10000000Y-160000000D02*
X12000000Y-160000000D01*
D10*
D11*
X10690476Y-35216666D02*
X11309523Y-35216666D01*
X10566666Y-35588095D02*
X11000000Y-34288095D01*
X11433333Y-35588095D01*
D10*
D11*
X11092857Y-84907142D02*
X11278571Y-84969047D01*
X11340476Y-85030952D01*
X11402380Y-85154761D01*
X11402380Y-85340476D01*
X11340476Y-85464285D01*
X11278571Y-85526190D01*
X11154761Y-85588095D01*
X10659523Y-85588095D01*
X10659523Y-84288095D01*
X11092857Y-84288095D01*
X11216666Y-84350000D01*
X11278571Y-84411904D01*
X11340476Y-84535714D01*
X11340476Y-84659523D01*
X11278571Y-84783333D01*
X11216666Y-84845238D01*
X11092857Y-84907142D01*
X10659523Y-84907142D01*
D10*
D11*
X11402380Y-135464285D02*
X11340476Y-135526190D01*
X11154761Y-135588095D01*
X11030952Y-135588095D01*
X10845238Y-135526190D01*
X10721428Y-135402380D01*
X10659523Y-135278571D01*
X10597619Y-135030952D01*
X10597619Y-134845238D01*
X10659523Y-134597619D01*
X10721428Y-134473809D01*
X10845238Y-134350000D01*
X11030952Y-134288095D01*
X11154761Y-134288095D01*
X11340476Y-134350000D01*
X11402380Y-134411904D01*
D10*
D11*
X10659523Y-185588095D02*
X10659523Y-184288095D01*
X10969047Y-184288095D01*
X11154761Y-184350000D01*
X11278571Y-184473809D01*
X11340476Y-184597619D01*
X11402380Y-184845238D01*
X11402380Y-185030952D01*
X11340476Y-185278571D01*
X11278571Y-185402380D01*
X11154761Y-185526190D01*
X10969047Y-185588095D01*
X10659523Y-185588095D01*
D10*
D11*
X287002200Y-60000000D02*
X285002200Y-60000000D01*
D10*
D11*
X287002200Y-110000000D02*
X285002200Y-110000000D01*
D10*
D11*
X287002200Y-160000000D02*
X285002200Y-160000000D01*
D10*
D11*
X285692676Y-35216666D02*
X286311723Y-35216666D01*
X285568866Y-35588095D02*
X286002200Y-34288095D01*
X286435533Y-35588095D01*
D10*
D11*
X286095057Y-84907142D02*
X286280771Y-84969047D01*
X286342676Y-85030952D01*
X286404580Y-85154761D01*
X286404580Y-85340476D01*
X286342676Y-85464285D01*
X286280771Y-85526190D01*
X286156961Y-85588095D01*
X285661723Y-85588095D01*
X285661723Y-84288095D01*
X286095057Y-84288095D01*
X286218866Y-84350000D01*
X286280771Y-84411904D01*
X286342676Y-84535714D01*
X286342676Y-84659523D01*
X286280771Y-84783333D01*
X286218866Y-84845238D01*
X286095057Y-84907142D01*
X285661723Y-84907142D01*
D10*
D11*
X286404580Y-135464285D02*
X286342676Y-135526190D01*
X286156961Y-135588095D01*
X286033152Y-135588095D01*
X285847438Y-135526190D01*
X285723628Y-135402380D01*
X285661723Y-135278571D01*
X285599819Y-135030952D01*
X285599819Y-134845238D01*
X285661723Y-134597619D01*
X285723628Y-134473809D01*
X285847438Y-134350000D01*
X286033152Y-134288095D01*
X286156961Y-134288095D01*
X286342676Y-134350000D01*
X286404580Y-134411904D01*
D10*
D11*
X285661723Y-185588095D02*
X285661723Y-184288095D01*
X285971247Y-184288095D01*
X286156961Y-184350000D01*
X286280771Y-184473809D01*
X286342676Y-184597619D01*
X286404580Y-184845238D01*
X286404580Y-185030952D01*
X286342676Y-185278571D01*
X286280771Y-185402380D01*
X286156961Y-185526190D01*
X285971247Y-185588095D01*
X285661723Y-185588095D01*
D10*
D11*
X200434342Y-193785771D02*
X200434342Y-192285771D01*
X200791485Y-192285771D01*
X201005771Y-192357200D01*
X201148628Y-192500057D01*
X201220057Y-192642914D01*
X201291485Y-192928628D01*
X201291485Y-193142914D01*
X201220057Y-193428628D01*
X201148628Y-193571485D01*
X201005771Y-193714342D01*
X200791485Y-193785771D01*
X200434342Y-193785771D01*
X202577200Y-193785771D02*
X202577200Y-193000057D01*
X202505771Y-192857200D01*
X202362914Y-192785771D01*
X202077200Y-192785771D01*
X201934342Y-192857200D01*
X202577200Y-193714342D02*
X202434342Y-193785771D01*
X202077200Y-193785771D01*
X201934342Y-193714342D01*
X201862914Y-193571485D01*
X201862914Y-193428628D01*
X201934342Y-193285771D01*
X202077200Y-193214342D01*
X202434342Y-193214342D01*
X202577200Y-193142914D01*
X203077200Y-192785771D02*
X203648628Y-192785771D01*
X203291485Y-192285771D02*
X203291485Y-193571485D01*
X203362914Y-193714342D01*
X203505771Y-193785771D01*
X203648628Y-193785771D01*
X204720057Y-193714342D02*
X204577200Y-193785771D01*
X204291485Y-193785771D01*
X204148628Y-193714342D01*
X204077200Y-193571485D01*
X204077200Y-193000057D01*
X204148628Y-192857200D01*
X204291485Y-192785771D01*
X204577200Y-192785771D01*
X204720057Y-192857200D01*
X204791485Y-193000057D01*
X204791485Y-193142914D01*
X204077200Y-193285771D01*
X205434342Y-193642914D02*
X205505771Y-193714342D01*
X205434342Y-193785771D01*
X205362914Y-193714342D01*
X205434342Y-193642914D01*
X205434342Y-193785771D01*
X205434342Y-192857200D02*
X205505771Y-192928628D01*
X205434342Y-193000057D01*
X205362914Y-192928628D01*
X205434342Y-192857200D01*
X205434342Y-193000057D01*
X207220057Y-192428628D02*
X207291485Y-192357200D01*
X207434342Y-192285771D01*
X207791485Y-192285771D01*
X207934342Y-192357200D01*
X208005771Y-192428628D01*
X208077200Y-192571485D01*
X208077200Y-192714342D01*
X208005771Y-192928628D01*
X207148628Y-193785771D01*
X208077200Y-193785771D01*
X209005771Y-192285771D02*
X209148628Y-192285771D01*
X209291485Y-192357200D01*
X209362914Y-192428628D01*
X209434342Y-192571485D01*
X209505771Y-192857200D01*
X209505771Y-193214342D01*
X209434342Y-193500057D01*
X209362914Y-193642914D01*
X209291485Y-193714342D01*
X209148628Y-193785771D01*
X209005771Y-193785771D01*
X208862914Y-193714342D01*
X208791485Y-193642914D01*
X208720057Y-193500057D01*
X208648628Y-193214342D01*
X208648628Y-192857200D01*
X208720057Y-192571485D01*
X208791485Y-192428628D01*
X208862914Y-192357200D01*
X209005771Y-192285771D01*
X210934342Y-193785771D02*
X210077200Y-193785771D01*
X210505771Y-193785771D02*
X210505771Y-192285771D01*
X210362914Y-192500057D01*
X210220057Y-192642914D01*
X210077200Y-192714342D01*
X211648628Y-193785771D02*
X211934342Y-193785771D01*
X212077200Y-193714342D01*
X212148628Y-193642914D01*
X212291485Y-193428628D01*
X212362914Y-193142914D01*
X212362914Y-192571485D01*
X212291485Y-192428628D01*
X212220057Y-192357200D01*
X212077200Y-192285771D01*
X211791485Y-192285771D01*
X211648628Y-192357200D01*
X211577200Y-192428628D01*
X211505771Y-192571485D01*
X211505771Y-192928628D01*
X211577200Y-193071485D01*
X211648628Y-193142914D01*
X211791485Y-193214342D01*
X212077200Y-193214342D01*
X212220057Y-193142914D01*
X212291485Y-193071485D01*
X212362914Y-192928628D01*
X213005771Y-193214342D02*
X214148628Y-193214342D01*
X215648628Y-193785771D02*
X214791485Y-193785771D01*
X215220057Y-193785771D02*
X215220057Y-192285771D01*
X215077200Y-192500057D01*
X214934342Y-192642914D01*
X214791485Y-192714342D01*
X217077200Y-193785771D02*
X216220057Y-193785771D01*
X216648628Y-193785771D02*
X216648628Y-192285771D01*
X216505771Y-192500057D01*
X216362914Y-192642914D01*
X216220057Y-192714342D01*
X217720057Y-193214342D02*
X218862914Y-193214342D01*
X219862914Y-192285771D02*
X220005771Y-192285771D01*
X220148628Y-192357200D01*
X220220057Y-192428628D01*
X220291485Y-192571485D01*
X220362914Y-192857200D01*
X220362914Y-193214342D01*
X220291485Y-193500057D01*
X220220057Y-193642914D01*
X220148628Y-193714342D01*
X220005771Y-193785771D01*
X219862914Y-193785771D01*
X219720057Y-193714342D01*
X219648628Y-193642914D01*
X219577200Y-193500057D01*
X219505771Y-193214342D01*
X219505771Y-192857200D01*
X219577200Y-192571485D01*
X219648628Y-192428628D01*
X219720057Y-192357200D01*
X219862914Y-192285771D01*
X220862914Y-192285771D02*
X221791485Y-192285771D01*
X221291485Y-192857200D01*
X221505771Y-192857200D01*
X221648628Y-192928628D01*
X221720057Y-193000057D01*
X221791485Y-193142914D01*
X221791485Y-193500057D01*
X221720057Y-193642914D01*
X221648628Y-193714342D01*
X221505771Y-193785771D01*
X221077200Y-193785771D01*
X220934342Y-193714342D01*
X220862914Y-193642914D01*
D10*
D11*
X177002200Y-194507200D02*
X285002200Y-194507200D01*
D10*
D11*
X178434342Y-196585771D02*
X178434342Y-195085771D01*
X179291485Y-196585771D02*
X178648628Y-195728628D01*
X179291485Y-195085771D02*
X178434342Y-195942914D01*
X179934342Y-196585771D02*
X179934342Y-195585771D01*
X179934342Y-195085771D02*
X179862914Y-195157200D01*
X179934342Y-195228628D01*
X180005771Y-195157200D01*
X179934342Y-195085771D01*
X179934342Y-195228628D01*
X181505771Y-196442914D02*
X181434342Y-196514342D01*
X181220057Y-196585771D01*
X181077200Y-196585771D01*
X180862914Y-196514342D01*
X180720057Y-196371485D01*
X180648628Y-196228628D01*
X180577200Y-195942914D01*
X180577200Y-195728628D01*
X180648628Y-195442914D01*
X180720057Y-195300057D01*
X180862914Y-195157200D01*
X181077200Y-195085771D01*
X181220057Y-195085771D01*
X181434342Y-195157200D01*
X181505771Y-195228628D01*
X182791485Y-196585771D02*
X182791485Y-195800057D01*
X182720057Y-195657200D01*
X182577200Y-195585771D01*
X182291485Y-195585771D01*
X182148628Y-195657200D01*
X182791485Y-196514342D02*
X182648628Y-196585771D01*
X182291485Y-196585771D01*
X182148628Y-196514342D01*
X182077200Y-196371485D01*
X182077200Y-196228628D01*
X182148628Y-196085771D01*
X182291485Y-196014342D01*
X182648628Y-196014342D01*
X182791485Y-195942914D01*
X184148628Y-196585771D02*
X184148628Y-195085771D01*
X184148628Y-196514342D02*
X184005771Y-196585771D01*
X183720057Y-196585771D01*
X183577200Y-196514342D01*
X183505771Y-196442914D01*
X183434342Y-196300057D01*
X183434342Y-195871485D01*
X183505771Y-195728628D01*
X183577200Y-195657200D01*
X183720057Y-195585771D01*
X184005771Y-195585771D01*
X184148628Y-195657200D01*
X186005771Y-195800057D02*
X186505771Y-195800057D01*
X186720057Y-196585771D02*
X186005771Y-196585771D01*
X186005771Y-195085771D01*
X186720057Y-195085771D01*
X187362914Y-196442914D02*
X187434342Y-196514342D01*
X187362914Y-196585771D01*
X187291485Y-196514342D01*
X187362914Y-196442914D01*
X187362914Y-196585771D01*
X188077200Y-196585771D02*
X188077200Y-195085771D01*
X188434342Y-195085771D01*
X188648628Y-195157200D01*
X188791485Y-195300057D01*
X188862914Y-195442914D01*
X188934342Y-195728628D01*
X188934342Y-195942914D01*
X188862914Y-196228628D01*
X188791485Y-196371485D01*
X188648628Y-196514342D01*
X188434342Y-196585771D01*
X188077200Y-196585771D01*
X189577200Y-196442914D02*
X189648628Y-196514342D01*
X189577200Y-196585771D01*
X189505771Y-196514342D01*
X189577200Y-196442914D01*
X189577200Y-196585771D01*
X190220057Y-196157200D02*
X190934342Y-196157200D01*
X190077200Y-196585771D02*
X190577200Y-195085771D01*
X191077200Y-196585771D01*
X191577200Y-196442914D02*
X191648628Y-196514342D01*
X191577200Y-196585771D01*
X191505771Y-196514342D01*
X191577200Y-196442914D01*
X191577200Y-196585771D01*
X194577200Y-196585771D02*
X194577200Y-195085771D01*
X194720057Y-196014342D02*
X195148628Y-196585771D01*
X195148628Y-195585771D02*
X194577200Y-196157200D01*
X195791485Y-196585771D02*
X195791485Y-195585771D01*
X195791485Y-195085771D02*
X195720057Y-195157200D01*
X195791485Y-195228628D01*
X195862914Y-195157200D01*
X195791485Y-195085771D01*
X195791485Y-195228628D01*
X197148628Y-196514342D02*
X197005771Y-196585771D01*
X196720057Y-196585771D01*
X196577200Y-196514342D01*
X196505771Y-196442914D01*
X196434342Y-196300057D01*
X196434342Y-195871485D01*
X196505771Y-195728628D01*
X196577200Y-195657200D01*
X196720057Y-195585771D01*
X197005771Y-195585771D01*
X197148628Y-195657200D01*
X198434342Y-196585771D02*
X198434342Y-195800057D01*
X198362914Y-195657200D01*
X198220057Y-195585771D01*
X197934342Y-195585771D01*
X197791485Y-195657200D01*
X198434342Y-196514342D02*
X198291485Y-196585771D01*
X197934342Y-196585771D01*
X197791485Y-196514342D01*
X197720057Y-196371485D01*
X197720057Y-196228628D01*
X197791485Y-196085771D01*
X197934342Y-196014342D01*
X198291485Y-196014342D01*
X198434342Y-195942914D01*
X199791485Y-196585771D02*
X199791485Y-195085771D01*
X199791485Y-196514342D02*
X199648628Y-196585771D01*
X199362914Y-196585771D01*
X199220057Y-196514342D01*
X199148628Y-196442914D01*
X199077200Y-196300057D01*
X199077200Y-195871485D01*
X199148628Y-195728628D01*
X199220057Y-195657200D01*
X199362914Y-195585771D01*
X199648628Y-195585771D01*
X199791485Y-195657200D01*
X202077200Y-197157200D02*
X202005771Y-197085771D01*
X201862914Y-196871485D01*
X201791485Y-196728628D01*
X201720057Y-196514342D01*
X201648628Y-196157200D01*
X201648628Y-195871485D01*
X201720057Y-195514342D01*
X201791485Y-195300057D01*
X201862914Y-195157200D01*
X202005771Y-194942914D01*
X202077200Y-194871485D01*
X203362914Y-195085771D02*
X202648628Y-195085771D01*
X202577200Y-195800057D01*
X202648628Y-195728628D01*
X202791485Y-195657200D01*
X203148628Y-195657200D01*
X203291485Y-195728628D01*
X203362914Y-195800057D01*
X203434342Y-195942914D01*
X203434342Y-196300057D01*
X203362914Y-196442914D01*
X203291485Y-196514342D01*
X203148628Y-196585771D01*
X202791485Y-196585771D01*
X202648628Y-196514342D01*
X202577200Y-196442914D01*
X204077200Y-196442914D02*
X204148628Y-196514342D01*
X204077200Y-196585771D01*
X204005771Y-196514342D01*
X204077200Y-196442914D01*
X204077200Y-196585771D01*
X205577200Y-196585771D02*
X204720057Y-196585771D01*
X205148628Y-196585771D02*
X205148628Y-195085771D01*
X205005771Y-195300057D01*
X204862914Y-195442914D01*
X204720057Y-195514342D01*
X206220057Y-196442914D02*
X206291485Y-196514342D01*
X206220057Y-196585771D01*
X206148628Y-196514342D01*
X206220057Y-196442914D01*
X206220057Y-196585771D01*
X207220057Y-195085771D02*
X207362914Y-195085771D01*
X207505771Y-195157200D01*
X207577200Y-195228628D01*
X207648628Y-195371485D01*
X207720057Y-195657200D01*
X207720057Y-196014342D01*
X207648628Y-196300057D01*
X207577200Y-196442914D01*
X207505771Y-196514342D01*
X207362914Y-196585771D01*
X207220057Y-196585771D01*
X207077200Y-196514342D01*
X207005771Y-196442914D01*
X206934342Y-196300057D01*
X206862914Y-196014342D01*
X206862914Y-195657200D01*
X206934342Y-195371485D01*
X207005771Y-195228628D01*
X207077200Y-195157200D01*
X207220057Y-195085771D01*
X208362914Y-196014342D02*
X209505771Y-196014342D01*
X210505771Y-195085771D02*
X210648628Y-195085771D01*
X210791485Y-195157200D01*
X210862914Y-195228628D01*
X210934342Y-195371485D01*
X211005771Y-195657200D01*
X211005771Y-196014342D01*
X210934342Y-196300057D01*
X210862914Y-196442914D01*
X210791485Y-196514342D01*
X210648628Y-196585771D01*
X210505771Y-196585771D01*
X210362914Y-196514342D01*
X210291485Y-196442914D01*
X210220057Y-196300057D01*
X210148628Y-196014342D01*
X210148628Y-195657200D01*
X210220057Y-195371485D01*
X210291485Y-195228628D01*
X210362914Y-195157200D01*
X210505771Y-195085771D01*
X211505771Y-197157200D02*
X211577200Y-197085771D01*
X211720057Y-196871485D01*
X211791485Y-196728628D01*
X211862914Y-196514342D01*
X211934342Y-196157200D01*
X211934342Y-195871485D01*
X211862914Y-195514342D01*
X211791485Y-195300057D01*
X211720057Y-195157200D01*
X211577200Y-194942914D01*
X211505771Y-194871485D01*
D10*
D11*
X177002200Y-191507200D02*
X285002200Y-191507200D01*
D10*
D12*
X264411485Y-193785771D02*
X263911485Y-193071485D01*
X263554342Y-193785771D02*
X263554342Y-192285771D01*
X264125771Y-192285771D01*
X264268628Y-192357200D01*
X264340057Y-192428628D01*
X264411485Y-192571485D01*
X264411485Y-192785771D01*
X264340057Y-192928628D01*
X264268628Y-193000057D01*
X264125771Y-193071485D01*
X263554342Y-193071485D01*
X265625771Y-193714342D02*
X265482914Y-193785771D01*
X265197200Y-193785771D01*
X265054342Y-193714342D01*
X264982914Y-193571485D01*
X264982914Y-193000057D01*
X265054342Y-192857200D01*
X265197200Y-192785771D01*
X265482914Y-192785771D01*
X265625771Y-192857200D01*
X265697200Y-193000057D01*
X265697200Y-193142914D01*
X264982914Y-193285771D01*
X266197200Y-192785771D02*
X266554342Y-193785771D01*
X266911485Y-192785771D01*
X267482914Y-193642914D02*
X267554342Y-193714342D01*
X267482914Y-193785771D01*
X267411485Y-193714342D01*
X267482914Y-193642914D01*
X267482914Y-193785771D01*
X267482914Y-192857200D02*
X267554342Y-192928628D01*
X267482914Y-193000057D01*
X267411485Y-192928628D01*
X267482914Y-192857200D01*
X267482914Y-193000057D01*
X269125771Y-192285771D02*
X269625771Y-193785771D01*
X270125771Y-192285771D01*
X271411485Y-193785771D02*
X270554342Y-193785771D01*
X270982914Y-193785771D02*
X270982914Y-192285771D01*
X270840057Y-192500057D01*
X270697200Y-192642914D01*
X270554342Y-192714342D01*
X272054342Y-193642914D02*
X272125771Y-193714342D01*
X272054342Y-193785771D01*
X271982914Y-193714342D01*
X272054342Y-193642914D01*
X272054342Y-193785771D01*
X273054342Y-192285771D02*
X273197200Y-192285771D01*
X273340057Y-192357200D01*
X273411485Y-192428628D01*
X273482914Y-192571485D01*
X273554342Y-192857200D01*
X273554342Y-193214342D01*
X273482914Y-193500057D01*
X273411485Y-193642914D01*
X273340057Y-193714342D01*
X273197200Y-193785771D01*
X273054342Y-193785771D01*
X272911485Y-193714342D01*
X272840057Y-193642914D01*
X272768628Y-193500057D01*
X272697200Y-193214342D01*
X272697200Y-192857200D01*
X272768628Y-192571485D01*
X272840057Y-192428628D01*
X272911485Y-192357200D01*
X273054342Y-192285771D01*
D10*
D11*
X178362914Y-193714342D02*
X178577200Y-193785771D01*
X178934342Y-193785771D01*
X179077200Y-193714342D01*
X179148628Y-193642914D01*
X179220057Y-193500057D01*
X179220057Y-193357200D01*
X179148628Y-193214342D01*
X179077200Y-193142914D01*
X178934342Y-193071485D01*
X178648628Y-193000057D01*
X178505771Y-192928628D01*
X178434342Y-192857200D01*
X178362914Y-192714342D01*
X178362914Y-192571485D01*
X178434342Y-192428628D01*
X178505771Y-192357200D01*
X178648628Y-192285771D01*
X179005771Y-192285771D01*
X179220057Y-192357200D01*
X179862914Y-193785771D02*
X179862914Y-192785771D01*
X179862914Y-192285771D02*
X179791485Y-192357200D01*
X179862914Y-192428628D01*
X179934342Y-192357200D01*
X179862914Y-192285771D01*
X179862914Y-192428628D01*
X180434342Y-192785771D02*
X181220057Y-192785771D01*
X180434342Y-193785771D01*
X181220057Y-193785771D01*
X182362914Y-193714342D02*
X182220057Y-193785771D01*
X181934342Y-193785771D01*
X181791485Y-193714342D01*
X181720057Y-193571485D01*
X181720057Y-193000057D01*
X181791485Y-192857200D01*
X181934342Y-192785771D01*
X182220057Y-192785771D01*
X182362914Y-192857200D01*
X182434342Y-193000057D01*
X182434342Y-193142914D01*
X181720057Y-193285771D01*
X183077200Y-193642914D02*
X183148628Y-193714342D01*
X183077200Y-193785771D01*
X183005771Y-193714342D01*
X183077200Y-193642914D01*
X183077200Y-193785771D01*
X183077200Y-192857200D02*
X183148628Y-192928628D01*
X183077200Y-193000057D01*
X183005771Y-192928628D01*
X183077200Y-192857200D01*
X183077200Y-193000057D01*
X184862914Y-193357200D02*
X185577200Y-193357200D01*
X184720057Y-193785771D02*
X185220057Y-192285771D01*
X185720057Y-193785771D01*
X186862914Y-192785771D02*
X186862914Y-193785771D01*
X186505771Y-192214342D02*
X186148628Y-193285771D01*
X187077200Y-193285771D01*
D10*
D11*
X263434342Y-196585771D02*
X263434342Y-195085771D01*
X264791485Y-196585771D02*
X264791485Y-195085771D01*
X264791485Y-196514342D02*
X264648628Y-196585771D01*
X264362914Y-196585771D01*
X264220057Y-196514342D01*
X264148628Y-196442914D01*
X264077200Y-196300057D01*
X264077200Y-195871485D01*
X264148628Y-195728628D01*
X264220057Y-195657200D01*
X264362914Y-195585771D01*
X264648628Y-195585771D01*
X264791485Y-195657200D01*
X265505771Y-196442914D02*
X265577200Y-196514342D01*
X265505771Y-196585771D01*
X265434342Y-196514342D01*
X265505771Y-196442914D01*
X265505771Y-196585771D01*
X265505771Y-195657200D02*
X265577200Y-195728628D01*
X265505771Y-195800057D01*
X265434342Y-195728628D01*
X265505771Y-195657200D01*
X265505771Y-195800057D01*
X268148628Y-196585771D02*
X267291485Y-196585771D01*
X267720057Y-196585771D02*
X267720057Y-195085771D01*
X267577200Y-195300057D01*
X267434342Y-195442914D01*
X267291485Y-195514342D01*
X269862914Y-195014342D02*
X268577200Y-196942914D01*
X271148628Y-196585771D02*
X270291485Y-196585771D01*
X270720057Y-196585771D02*
X270720057Y-195085771D01*
X270577200Y-195300057D01*
X270434342Y-195442914D01*
X270291485Y-195514342D01*
D10*
D11*
X177002200Y-187507200D02*
X285002200Y-187507200D01*
D10*
D13*
X178714580Y-188211961D02*
X179857438Y-188211961D01*
X179036009Y-190211961D02*
X179286009Y-188211961D01*
X180274104Y-190211961D02*
X180440771Y-188878628D01*
X180524104Y-188211961D02*
X180416961Y-188307200D01*
X180500295Y-188402438D01*
X180607438Y-188307200D01*
X180524104Y-188211961D01*
X180500295Y-188402438D01*
X181107438Y-188878628D02*
X181869342Y-188878628D01*
X181476485Y-188211961D02*
X181262200Y-189926247D01*
X181333628Y-190116723D01*
X181512200Y-190211961D01*
X181702676Y-190211961D01*
X182655057Y-190211961D02*
X182476485Y-190116723D01*
X182405057Y-189926247D01*
X182619342Y-188211961D01*
X184190771Y-190116723D02*
X183988390Y-190211961D01*
X183607438Y-190211961D01*
X183428866Y-190116723D01*
X183357438Y-189926247D01*
X183452676Y-189164342D01*
X183571723Y-188973866D01*
X183774104Y-188878628D01*
X184155057Y-188878628D01*
X184333628Y-188973866D01*
X184405057Y-189164342D01*
X184381247Y-189354819D01*
X183405057Y-189545295D01*
X185155057Y-190021485D02*
X185238390Y-190116723D01*
X185131247Y-190211961D01*
X185047914Y-190116723D01*
X185155057Y-190021485D01*
X185131247Y-190211961D01*
X185286009Y-188973866D02*
X185369342Y-189069104D01*
X185262200Y-189164342D01*
X185178866Y-189069104D01*
X185286009Y-188973866D01*
X185262200Y-189164342D01*
X187607438Y-190211961D02*
X187857438Y-188211961D01*
X188619342Y-188211961D01*
X188797914Y-188307200D01*
X188881247Y-188402438D01*
X188952676Y-188592914D01*
X188916961Y-188878628D01*
X188797914Y-189069104D01*
X188690771Y-189164342D01*
X188488390Y-189259580D01*
X187726485Y-189259580D01*
X189607438Y-190211961D02*
X189774104Y-188878628D01*
X189857438Y-188211961D02*
X189750295Y-188307200D01*
X189833628Y-188402438D01*
X189940771Y-188307200D01*
X189857438Y-188211961D01*
X189833628Y-188402438D01*
X190726485Y-188878628D02*
X190559819Y-190211961D01*
X190702676Y-189069104D02*
X190809819Y-188973866D01*
X191012200Y-188878628D01*
X191297914Y-188878628D01*
X191476485Y-188973866D01*
X191547914Y-189164342D01*
X191416961Y-190211961D01*
X193143152Y-190116723D02*
X192940771Y-190211961D01*
X192559819Y-190211961D01*
X192381247Y-190116723D01*
X192309819Y-189926247D01*
X192405057Y-189164342D01*
X192524104Y-188973866D01*
X192726485Y-188878628D01*
X193107438Y-188878628D01*
X193286009Y-188973866D01*
X193357438Y-189164342D01*
X193333628Y-189354819D01*
X192357438Y-189545295D01*
X195440771Y-189259580D02*
X195357438Y-189164342D01*
X195178866Y-189069104D01*
X194988390Y-189069104D01*
X194786009Y-189164342D01*
X194678866Y-189259580D01*
X194559819Y-189450057D01*
X194536009Y-189640533D01*
X194607438Y-189831009D01*
X194690771Y-189926247D01*
X194869342Y-190021485D01*
X195059819Y-190021485D01*
X195262200Y-189926247D01*
X195369342Y-189831009D01*
X195464580Y-189069104D02*
X195369342Y-189831009D01*
X195452676Y-189926247D01*
X195547914Y-189926247D01*
X195750295Y-189831009D01*
X195869342Y-189640533D01*
X195928866Y-189164342D01*
X195774104Y-188878628D01*
X195512200Y-188688152D01*
X195143152Y-188592914D01*
X194750295Y-188688152D01*
X194440771Y-188878628D01*
X194214580Y-189164342D01*
X194071723Y-189545295D01*
X194119342Y-189926247D01*
X194274104Y-190211961D01*
X194536009Y-190402438D01*
X194905057Y-190497676D01*
X195297914Y-190402438D01*
X195607438Y-190211961D01*
X196655057Y-190211961D02*
X196905057Y-188211961D01*
X196786009Y-189164342D02*
X197928866Y-189164342D01*
X197797914Y-190211961D02*
X198047914Y-188211961D01*
X199774104Y-188878628D02*
X199607438Y-190211961D01*
X198916961Y-188878628D02*
X198786009Y-189926247D01*
X198857438Y-190116723D01*
X199036009Y-190211961D01*
X199321723Y-190211961D01*
X199524104Y-190116723D01*
X199631247Y-190021485D01*
X200440771Y-188878628D02*
X201202676Y-188878628D01*
X200809819Y-188211961D02*
X200595533Y-189926247D01*
X200666961Y-190116723D01*
X200845533Y-190211961D01*
X201036009Y-190211961D01*
X201619342Y-190116723D02*
X201797914Y-190211961D01*
X202178866Y-190211961D01*
X202381247Y-190116723D01*
X202500295Y-189926247D01*
X202512200Y-189831009D01*
X202440771Y-189640533D01*
X202262200Y-189545295D01*
X201976485Y-189545295D01*
X201797914Y-189450057D01*
X201726485Y-189259580D01*
X201738390Y-189164342D01*
X201857438Y-188973866D01*
X202059819Y-188878628D01*
X202345533Y-188878628D01*
X202524104Y-188973866D01*
X204190771Y-190116723D02*
X203988390Y-190211961D01*
X203607438Y-190211961D01*
X203428866Y-190116723D01*
X203345533Y-190021485D01*
X203274104Y-189831009D01*
X203345533Y-189259580D01*
X203464580Y-189069104D01*
X203571723Y-188973866D01*
X203774104Y-188878628D01*
X204155057Y-188878628D01*
X204333628Y-188973866D01*
X205893152Y-190211961D02*
X206024104Y-189164342D01*
X205952676Y-188973866D01*
X205774104Y-188878628D01*
X205393152Y-188878628D01*
X205190771Y-188973866D01*
X205905057Y-190116723D02*
X205702676Y-190211961D01*
X205226485Y-190211961D01*
X205047914Y-190116723D01*
X204976485Y-189926247D01*
X205000295Y-189735771D01*
X205119342Y-189545295D01*
X205321723Y-189450057D01*
X205797914Y-189450057D01*
X206000295Y-189354819D01*
X207012200Y-188878628D02*
X206762200Y-190878628D01*
X207000295Y-188973866D02*
X207202676Y-188878628D01*
X207583628Y-188878628D01*
X207762200Y-188973866D01*
X207845533Y-189069104D01*
X207916961Y-189259580D01*
X207845533Y-189831009D01*
X207726485Y-190021485D01*
X207619342Y-190116723D01*
X207416961Y-190211961D01*
X207036009Y-190211961D01*
X206857438Y-190116723D01*
X209428866Y-190116723D02*
X209226485Y-190211961D01*
X208845533Y-190211961D01*
X208666961Y-190116723D01*
X208595533Y-189926247D01*
X208690771Y-189164342D01*
X208809819Y-188973866D01*
X209012200Y-188878628D01*
X209393152Y-188878628D01*
X209571723Y-188973866D01*
X209643152Y-189164342D01*
X209619342Y-189354819D01*
X208643152Y-189545295D01*
D10*
D11*
X178934342Y-185600057D02*
X178434342Y-185600057D01*
X178434342Y-186385771D02*
X178434342Y-184885771D01*
X179148628Y-184885771D01*
X179720057Y-186385771D02*
X179720057Y-185385771D01*
X179720057Y-184885771D02*
X179648628Y-184957200D01*
X179720057Y-185028628D01*
X179791485Y-184957200D01*
X179720057Y-184885771D01*
X179720057Y-185028628D01*
X180648628Y-186385771D02*
X180505771Y-186314342D01*
X180434342Y-186171485D01*
X180434342Y-184885771D01*
X181791485Y-186314342D02*
X181648628Y-186385771D01*
X181362914Y-186385771D01*
X181220057Y-186314342D01*
X181148628Y-186171485D01*
X181148628Y-185600057D01*
X181220057Y-185457200D01*
X181362914Y-185385771D01*
X181648628Y-185385771D01*
X181791485Y-185457200D01*
X181862914Y-185600057D01*
X181862914Y-185742914D01*
X181148628Y-185885771D01*
X182505771Y-186242914D02*
X182577200Y-186314342D01*
X182505771Y-186385771D01*
X182434342Y-186314342D01*
X182505771Y-186242914D01*
X182505771Y-186385771D01*
X182505771Y-185457200D02*
X182577200Y-185528628D01*
X182505771Y-185600057D01*
X182434342Y-185528628D01*
X182505771Y-185457200D01*
X182505771Y-185600057D01*
X184362914Y-186385771D02*
X184362914Y-184885771D01*
X184934342Y-184885771D01*
X185077200Y-184957200D01*
X185148628Y-185028628D01*
X185220057Y-185171485D01*
X185220057Y-185385771D01*
X185148628Y-185528628D01*
X185077200Y-185600057D01*
X184934342Y-185671485D01*
X184362914Y-185671485D01*
X185862914Y-186385771D02*
X185862914Y-185385771D01*
X185862914Y-184885771D02*
X185791485Y-184957200D01*
X185862914Y-185028628D01*
X185934342Y-184957200D01*
X185862914Y-184885771D01*
X185862914Y-185028628D01*
X186577200Y-185385771D02*
X186577200Y-186385771D01*
X186577200Y-185528628D02*
X186648628Y-185457200D01*
X186791485Y-185385771D01*
X187005771Y-185385771D01*
X187148628Y-185457200D01*
X187220057Y-185600057D01*
X187220057Y-186385771D01*
X188505771Y-186314342D02*
X188362914Y-186385771D01*
X188077200Y-186385771D01*
X187934342Y-186314342D01*
X187862914Y-186171485D01*
X187862914Y-185600057D01*
X187934342Y-185457200D01*
X188077200Y-185385771D01*
X188362914Y-185385771D01*
X188505771Y-185457200D01*
X188577200Y-185600057D01*
X188577200Y-185742914D01*
X187862914Y-185885771D01*
X189220057Y-186242914D02*
X189291485Y-186314342D01*
X189220057Y-186385771D01*
X189148628Y-186314342D01*
X189220057Y-186242914D01*
X189220057Y-186385771D01*
X189934342Y-186385771D02*
X189934342Y-184885771D01*
X190077200Y-185814342D02*
X190505771Y-186385771D01*
X190505771Y-185385771D02*
X189934342Y-185957200D01*
X191148628Y-186385771D02*
X191148628Y-185385771D01*
X191148628Y-184885771D02*
X191077200Y-184957200D01*
X191148628Y-185028628D01*
X191220057Y-184957200D01*
X191148628Y-184885771D01*
X191148628Y-185028628D01*
X192505771Y-186314342D02*
X192362914Y-186385771D01*
X192077200Y-186385771D01*
X191934342Y-186314342D01*
X191862914Y-186242914D01*
X191791485Y-186100057D01*
X191791485Y-185671485D01*
X191862914Y-185528628D01*
X191934342Y-185457200D01*
X192077200Y-185385771D01*
X192362914Y-185385771D01*
X192505771Y-185457200D01*
X193791485Y-186385771D02*
X193791485Y-185600057D01*
X193720057Y-185457200D01*
X193577200Y-185385771D01*
X193291485Y-185385771D01*
X193148628Y-185457200D01*
X193791485Y-186314342D02*
X193648628Y-186385771D01*
X193291485Y-186385771D01*
X193148628Y-186314342D01*
X193077200Y-186171485D01*
X193077200Y-186028628D01*
X193148628Y-185885771D01*
X193291485Y-185814342D01*
X193648628Y-185814342D01*
X193791485Y-185742914D01*
X195148628Y-186385771D02*
X195148628Y-184885771D01*
X195148628Y-186314342D02*
X195005771Y-186385771D01*
X194720057Y-186385771D01*
X194577200Y-186314342D01*
X194505771Y-186242914D01*
X194434342Y-186100057D01*
X194434342Y-185671485D01*
X194505771Y-185528628D01*
X194577200Y-185457200D01*
X194720057Y-185385771D01*
X195005771Y-185385771D01*
X195148628Y-185457200D01*
X195505771Y-186528628D02*
X196648628Y-186528628D01*
X197005771Y-185385771D02*
X197005771Y-186885771D01*
X197005771Y-185457200D02*
X197148628Y-185385771D01*
X197434342Y-185385771D01*
X197577200Y-185457200D01*
X197648628Y-185528628D01*
X197720057Y-185671485D01*
X197720057Y-186100057D01*
X197648628Y-186242914D01*
X197577200Y-186314342D01*
X197434342Y-186385771D01*
X197148628Y-186385771D01*
X197005771Y-186314342D01*
X199005771Y-186314342D02*
X198862914Y-186385771D01*
X198577200Y-186385771D01*
X198434342Y-186314342D01*
X198362914Y-186242914D01*
X198291485Y-186100057D01*
X198291485Y-185671485D01*
X198362914Y-185528628D01*
X198434342Y-185457200D01*
X198577200Y-185385771D01*
X198862914Y-185385771D01*
X199005771Y-185457200D01*
X199648628Y-186385771D02*
X199648628Y-184885771D01*
X199648628Y-185457200D02*
X199791485Y-185385771D01*
X200077200Y-185385771D01*
X200220057Y-185457200D01*
X200291485Y-185528628D01*
X200362914Y-185671485D01*
X200362914Y-186100057D01*
X200291485Y-186242914D01*
X200220057Y-186314342D01*
X200077200Y-186385771D01*
X199791485Y-186385771D01*
X199648628Y-186314342D01*
D10*
D11*
X177002200Y-181507200D02*
X285002200Y-181507200D01*
D10*
D11*
X178362914Y-183614342D02*
X178577200Y-183685771D01*
X178934342Y-183685771D01*
X179077200Y-183614342D01*
X179148628Y-183542914D01*
X179220057Y-183400057D01*
X179220057Y-183257200D01*
X179148628Y-183114342D01*
X179077200Y-183042914D01*
X178934342Y-182971485D01*
X178648628Y-182900057D01*
X178505771Y-182828628D01*
X178434342Y-182757200D01*
X178362914Y-182614342D01*
X178362914Y-182471485D01*
X178434342Y-182328628D01*
X178505771Y-182257200D01*
X178648628Y-182185771D01*
X179005771Y-182185771D01*
X179220057Y-182257200D01*
X179862914Y-183685771D02*
X179862914Y-182185771D01*
X180505771Y-183685771D02*
X180505771Y-182900057D01*
X180434342Y-182757200D01*
X180291485Y-182685771D01*
X180077200Y-182685771D01*
X179934342Y-182757200D01*
X179862914Y-182828628D01*
X181791485Y-183614342D02*
X181648628Y-183685771D01*
X181362914Y-183685771D01*
X181220057Y-183614342D01*
X181148628Y-183471485D01*
X181148628Y-182900057D01*
X181220057Y-182757200D01*
X181362914Y-182685771D01*
X181648628Y-182685771D01*
X181791485Y-182757200D01*
X181862914Y-182900057D01*
X181862914Y-183042914D01*
X181148628Y-183185771D01*
X183077200Y-183614342D02*
X182934342Y-183685771D01*
X182648628Y-183685771D01*
X182505771Y-183614342D01*
X182434342Y-183471485D01*
X182434342Y-182900057D01*
X182505771Y-182757200D01*
X182648628Y-182685771D01*
X182934342Y-182685771D01*
X183077200Y-182757200D01*
X183148628Y-182900057D01*
X183148628Y-183042914D01*
X182434342Y-183185771D01*
X183577200Y-182685771D02*
X184148628Y-182685771D01*
X183791485Y-182185771D02*
X183791485Y-183471485D01*
X183862914Y-183614342D01*
X184005771Y-183685771D01*
X184148628Y-183685771D01*
X184648628Y-183542914D02*
X184720057Y-183614342D01*
X184648628Y-183685771D01*
X184577200Y-183614342D01*
X184648628Y-183542914D01*
X184648628Y-183685771D01*
X184648628Y-182757200D02*
X184720057Y-182828628D01*
X184648628Y-182900057D01*
X184577200Y-182828628D01*
X184648628Y-182757200D01*
X184648628Y-182900057D01*
D10*
D12*
X179411485Y-180542914D02*
X179340057Y-180614342D01*
X179125771Y-180685771D01*
X178982914Y-180685771D01*
X178768628Y-180614342D01*
X178625771Y-180471485D01*
X178554342Y-180328628D01*
X178482914Y-180042914D01*
X178482914Y-179828628D01*
X178554342Y-179542914D01*
X178625771Y-179400057D01*
X178768628Y-179257200D01*
X178982914Y-179185771D01*
X179125771Y-179185771D01*
X179340057Y-179257200D01*
X179411485Y-179328628D01*
X180268628Y-180685771D02*
X180125771Y-180614342D01*
X180054342Y-180542914D01*
X179982914Y-180400057D01*
X179982914Y-179971485D01*
X180054342Y-179828628D01*
X180125771Y-179757200D01*
X180268628Y-179685771D01*
X180482914Y-179685771D01*
X180625771Y-179757200D01*
X180697200Y-179828628D01*
X180768628Y-179971485D01*
X180768628Y-180400057D01*
X180697200Y-180542914D01*
X180625771Y-180614342D01*
X180482914Y-180685771D01*
X180268628Y-180685771D01*
X181411485Y-179685771D02*
X181411485Y-180685771D01*
X181411485Y-179828628D02*
X181482914Y-179757200D01*
X181625771Y-179685771D01*
X181840057Y-179685771D01*
X181982914Y-179757200D01*
X182054342Y-179900057D01*
X182054342Y-180685771D01*
X182554342Y-179685771D02*
X183125771Y-179685771D01*
X182768628Y-179185771D02*
X182768628Y-180471485D01*
X182840057Y-180614342D01*
X182982914Y-180685771D01*
X183125771Y-180685771D01*
X183625771Y-180685771D02*
X183625771Y-179685771D01*
X183625771Y-179971485D02*
X183697200Y-179828628D01*
X183768628Y-179757200D01*
X183911485Y-179685771D01*
X184054342Y-179685771D01*
X184768628Y-180685771D02*
X184625771Y-180614342D01*
X184554342Y-180542914D01*
X184482914Y-180400057D01*
X184482914Y-179971485D01*
X184554342Y-179828628D01*
X184625771Y-179757200D01*
X184768628Y-179685771D01*
X184982914Y-179685771D01*
X185125771Y-179757200D01*
X185197200Y-179828628D01*
X185268628Y-179971485D01*
X185268628Y-180400057D01*
X185197200Y-180542914D01*
X185125771Y-180614342D01*
X184982914Y-180685771D01*
X184768628Y-180685771D01*
X186125771Y-180685771D02*
X185982914Y-180614342D01*
X185911485Y-180471485D01*
X185911485Y-179185771D01*
X188482914Y-180685771D02*
X188482914Y-179900057D01*
X188411485Y-179757200D01*
X188268628Y-179685771D01*
X187982914Y-179685771D01*
X187840057Y-179757200D01*
X188482914Y-180614342D02*
X188340057Y-180685771D01*
X187982914Y-180685771D01*
X187840057Y-180614342D01*
X187768628Y-180471485D01*
X187768628Y-180328628D01*
X187840057Y-180185771D01*
X187982914Y-180114342D01*
X188340057Y-180114342D01*
X188482914Y-180042914D01*
X189197200Y-180685771D02*
X189197200Y-179685771D01*
X189197200Y-179185771D02*
X189125771Y-179257200D01*
X189197200Y-179328628D01*
X189268628Y-179257200D01*
X189197200Y-179185771D01*
X189197200Y-179328628D01*
X189911485Y-180685771D02*
X189911485Y-179685771D01*
X189911485Y-179971485D02*
X189982914Y-179828628D01*
X190054342Y-179757200D01*
X190197200Y-179685771D01*
X190340057Y-179685771D01*
X191482914Y-180614342D02*
X191340057Y-180685771D01*
X191054342Y-180685771D01*
X190911485Y-180614342D01*
X190840057Y-180542914D01*
X190768628Y-180400057D01*
X190768628Y-179971485D01*
X190840057Y-179828628D01*
X190911485Y-179757200D01*
X191054342Y-179685771D01*
X191340057Y-179685771D01*
X191482914Y-179757200D01*
X192340057Y-180685771D02*
X192197200Y-180614342D01*
X192125771Y-180542914D01*
X192054342Y-180400057D01*
X192054342Y-179971485D01*
X192125771Y-179828628D01*
X192197200Y-179757200D01*
X192340057Y-179685771D01*
X192554342Y-179685771D01*
X192697200Y-179757200D01*
X192768628Y-179828628D01*
X192840057Y-179971485D01*
X192840057Y-180400057D01*
X192768628Y-180542914D01*
X192697200Y-180614342D01*
X192554342Y-180685771D01*
X192340057Y-180685771D01*
X193482914Y-179685771D02*
X193482914Y-180685771D01*
X193482914Y-179828628D02*
X193554342Y-179757200D01*
X193697200Y-179685771D01*
X193911485Y-179685771D01*
X194054342Y-179757200D01*
X194125771Y-179900057D01*
X194125771Y-180685771D01*
X195982914Y-180685771D02*
X195982914Y-179185771D01*
X195982914Y-179757200D02*
X196125771Y-179685771D01*
X196411485Y-179685771D01*
X196554342Y-179757200D01*
X196625771Y-179828628D01*
X196697200Y-179971485D01*
X196697200Y-180400057D01*
X196625771Y-180542914D01*
X196554342Y-180614342D01*
X196411485Y-180685771D01*
X196125771Y-180685771D01*
X195982914Y-180614342D01*
X197197200Y-179685771D02*
X197554342Y-180685771D01*
X197911485Y-179685771D02*
X197554342Y-180685771D01*
X197411485Y-181042914D01*
X197340057Y-181114342D01*
X197197200Y-181185771D01*
X199625771Y-180685771D02*
X199625771Y-179685771D01*
X199625771Y-179828628D02*
X199697200Y-179757200D01*
X199840057Y-179685771D01*
X200054342Y-179685771D01*
X200197200Y-179757200D01*
X200268628Y-179900057D01*
X200268628Y-180685771D01*
X200268628Y-179900057D02*
X200340057Y-179757200D01*
X200482914Y-179685771D01*
X200697200Y-179685771D01*
X200840057Y-179757200D01*
X200911485Y-179900057D01*
X200911485Y-180685771D01*
X201840057Y-180685771D02*
X201697200Y-180614342D01*
X201625771Y-180542914D01*
X201554342Y-180400057D01*
X201554342Y-179971485D01*
X201625771Y-179828628D01*
X201697200Y-179757200D01*
X201840057Y-179685771D01*
X202054342Y-179685771D01*
X202197200Y-179757200D01*
X202268628Y-179828628D01*
X202340057Y-179971485D01*
X202340057Y-180400057D01*
X202268628Y-180542914D01*
X202197200Y-180614342D01*
X202054342Y-180685771D01*
X201840057Y-180685771D01*
X202982914Y-179685771D02*
X202982914Y-180685771D01*
X202982914Y-179828628D02*
X203054342Y-179757200D01*
X203197200Y-179685771D01*
X203411485Y-179685771D01*
X203554342Y-179757200D01*
X203625771Y-179900057D01*
X203625771Y-180685771D01*
X204340057Y-180685771D02*
X204340057Y-179685771D01*
X204340057Y-179185771D02*
X204268628Y-179257200D01*
X204340057Y-179328628D01*
X204411485Y-179257200D01*
X204340057Y-179185771D01*
X204340057Y-179328628D01*
X204840057Y-179685771D02*
X205411485Y-179685771D01*
X205054342Y-179185771D02*
X205054342Y-180471485D01*
X205125771Y-180614342D01*
X205268628Y-180685771D01*
X205411485Y-180685771D01*
X206125771Y-180685771D02*
X205982914Y-180614342D01*
X205911485Y-180542914D01*
X205840057Y-180400057D01*
X205840057Y-179971485D01*
X205911485Y-179828628D01*
X205982914Y-179757200D01*
X206125771Y-179685771D01*
X206340057Y-179685771D01*
X206482914Y-179757200D01*
X206554342Y-179828628D01*
X206625771Y-179971485D01*
X206625771Y-180400057D01*
X206554342Y-180542914D01*
X206482914Y-180614342D01*
X206340057Y-180685771D01*
X206125771Y-180685771D01*
X207268628Y-180685771D02*
X207268628Y-179685771D01*
X207268628Y-179971485D02*
X207340057Y-179828628D01*
X207411485Y-179757200D01*
X207554342Y-179685771D01*
X207697200Y-179685771D01*
X208197200Y-180685771D02*
X208197200Y-179685771D01*
X208197200Y-179185771D02*
X208125771Y-179257200D01*
X208197200Y-179328628D01*
X208268628Y-179257200D01*
X208197200Y-179185771D01*
X208197200Y-179328628D01*
X208911485Y-179685771D02*
X208911485Y-180685771D01*
X208911485Y-179828628D02*
X208982914Y-179757200D01*
X209125771Y-179685771D01*
X209340057Y-179685771D01*
X209482914Y-179757200D01*
X209554342Y-179900057D01*
X209554342Y-180685771D01*
X210911485Y-179685771D02*
X210911485Y-180900057D01*
X210840057Y-181042914D01*
X210768628Y-181114342D01*
X210625771Y-181185771D01*
X210411485Y-181185771D01*
X210268628Y-181114342D01*
X210911485Y-180614342D02*
X210768628Y-180685771D01*
X210482914Y-180685771D01*
X210340057Y-180614342D01*
X210268628Y-180542914D01*
X210197200Y-180400057D01*
X210197200Y-179971485D01*
X210268628Y-179828628D01*
X210340057Y-179757200D01*
X210482914Y-179685771D01*
X210768628Y-179685771D01*
X210911485Y-179757200D01*
X212554342Y-179685771D02*
X213125771Y-179685771D01*
X212768628Y-179185771D02*
X212768628Y-180471485D01*
X212840057Y-180614342D01*
X212982914Y-180685771D01*
X213125771Y-180685771D01*
X214197200Y-180614342D02*
X214054342Y-180685771D01*
X213768628Y-180685771D01*
X213625771Y-180614342D01*
X213554342Y-180471485D01*
X213554342Y-179900057D01*
X213625771Y-179757200D01*
X213768628Y-179685771D01*
X214054342Y-179685771D01*
X214197200Y-179757200D01*
X214268628Y-179900057D01*
X214268628Y-180042914D01*
X213554342Y-180185771D01*
X214911485Y-180685771D02*
X214911485Y-179685771D01*
X214911485Y-179828628D02*
X214982914Y-179757200D01*
X215125771Y-179685771D01*
X215340057Y-179685771D01*
X215482914Y-179757200D01*
X215554342Y-179900057D01*
X215554342Y-180685771D01*
X215554342Y-179900057D02*
X215625771Y-179757200D01*
X215768628Y-179685771D01*
X215982914Y-179685771D01*
X216125771Y-179757200D01*
X216197200Y-179900057D01*
X216197200Y-180685771D01*
X216911485Y-179685771D02*
X216911485Y-181185771D01*
X216911485Y-179757200D02*
X217054342Y-179685771D01*
X217340057Y-179685771D01*
X217482914Y-179757200D01*
X217554342Y-179828628D01*
X217625771Y-179971485D01*
X217625771Y-180400057D01*
X217554342Y-180542914D01*
X217482914Y-180614342D01*
X217340057Y-180685771D01*
X217054342Y-180685771D01*
X216911485Y-180614342D01*
X218840057Y-180614342D02*
X218697200Y-180685771D01*
X218411485Y-180685771D01*
X218268628Y-180614342D01*
X218197200Y-180471485D01*
X218197200Y-179900057D01*
X218268628Y-179757200D01*
X218411485Y-179685771D01*
X218697200Y-179685771D01*
X218840057Y-179757200D01*
X218911485Y-179900057D01*
X218911485Y-180042914D01*
X218197200Y-180185771D01*
X219554342Y-180685771D02*
X219554342Y-179685771D01*
X219554342Y-179971485D02*
X219625771Y-179828628D01*
X219697200Y-179757200D01*
X219840057Y-179685771D01*
X219982914Y-179685771D01*
X221125771Y-180685771D02*
X221125771Y-179900057D01*
X221054342Y-179757200D01*
X220911485Y-179685771D01*
X220625771Y-179685771D01*
X220482914Y-179757200D01*
X221125771Y-180614342D02*
X220982914Y-180685771D01*
X220625771Y-180685771D01*
X220482914Y-180614342D01*
X220411485Y-180471485D01*
X220411485Y-180328628D01*
X220482914Y-180185771D01*
X220625771Y-180114342D01*
X220982914Y-180114342D01*
X221125771Y-180042914D01*
X221625771Y-179685771D02*
X222197200Y-179685771D01*
X221840057Y-179185771D02*
X221840057Y-180471485D01*
X221911485Y-180614342D01*
X222054342Y-180685771D01*
X222197200Y-180685771D01*
X223340057Y-179685771D02*
X223340057Y-180685771D01*
X222697200Y-179685771D02*
X222697200Y-180471485D01*
X222768628Y-180614342D01*
X222911485Y-180685771D01*
X223125771Y-180685771D01*
X223268628Y-180614342D01*
X223340057Y-180542914D01*
X224054342Y-180685771D02*
X224054342Y-179685771D01*
X224054342Y-179971485D02*
X224125771Y-179828628D01*
X224197200Y-179757200D01*
X224340057Y-179685771D01*
X224482914Y-179685771D01*
X225554342Y-180614342D02*
X225411485Y-180685771D01*
X225125771Y-180685771D01*
X224982914Y-180614342D01*
X224911485Y-180471485D01*
X224911485Y-179900057D01*
X224982914Y-179757200D01*
X225125771Y-179685771D01*
X225411485Y-179685771D01*
X225554342Y-179757200D01*
X225625771Y-179900057D01*
X225625771Y-180042914D01*
X224911485Y-180185771D01*
X227411485Y-180685771D02*
X227411485Y-179685771D01*
X227411485Y-179185771D02*
X227340057Y-179257200D01*
X227411485Y-179328628D01*
X227482914Y-179257200D01*
X227411485Y-179185771D01*
X227411485Y-179328628D01*
X228125771Y-179685771D02*
X228125771Y-180685771D01*
X228125771Y-179828628D02*
X228197200Y-179757200D01*
X228340057Y-179685771D01*
X228554342Y-179685771D01*
X228697200Y-179757200D01*
X228768628Y-179900057D01*
X228768628Y-180685771D01*
X230840057Y-180685771D02*
X230697200Y-180614342D01*
X230625771Y-180542914D01*
X230554342Y-180400057D01*
X230554342Y-179971485D01*
X230625771Y-179828628D01*
X230697200Y-179757200D01*
X230840057Y-179685771D01*
X231054342Y-179685771D01*
X231197200Y-179757200D01*
X231268628Y-179828628D01*
X231340057Y-179971485D01*
X231340057Y-180400057D01*
X231268628Y-180542914D01*
X231197200Y-180614342D01*
X231054342Y-180685771D01*
X230840057Y-180685771D01*
X231768628Y-179685771D02*
X232340057Y-179685771D01*
X231982914Y-179185771D02*
X231982914Y-180471485D01*
X232054342Y-180614342D01*
X232197200Y-180685771D01*
X232340057Y-180685771D01*
X232840057Y-180685771D02*
X232840057Y-179185771D01*
X233482914Y-180685771D02*
X233482914Y-179900057D01*
X233411485Y-179757200D01*
X233268628Y-179685771D01*
X233054342Y-179685771D01*
X232911485Y-179757200D01*
X232840057Y-179828628D01*
X234768628Y-180614342D02*
X234625771Y-180685771D01*
X234340057Y-180685771D01*
X234197200Y-180614342D01*
X234125771Y-180471485D01*
X234125771Y-179900057D01*
X234197200Y-179757200D01*
X234340057Y-179685771D01*
X234625771Y-179685771D01*
X234768628Y-179757200D01*
X234840057Y-179900057D01*
X234840057Y-180042914D01*
X234125771Y-180185771D01*
X235482914Y-180685771D02*
X235482914Y-179685771D01*
X235482914Y-179971485D02*
X235554342Y-179828628D01*
X235625771Y-179757200D01*
X235768628Y-179685771D01*
X235911485Y-179685771D01*
X237554342Y-179685771D02*
X237554342Y-181185771D01*
X237554342Y-179757200D02*
X237697200Y-179685771D01*
X237982914Y-179685771D01*
X238125771Y-179757200D01*
X238197200Y-179828628D01*
X238268628Y-179971485D01*
X238268628Y-180400057D01*
X238197200Y-180542914D01*
X238125771Y-180614342D01*
X237982914Y-180685771D01*
X237697200Y-180685771D01*
X237554342Y-180614342D01*
X239554342Y-180685771D02*
X239554342Y-179900057D01*
X239482914Y-179757200D01*
X239340057Y-179685771D01*
X239054342Y-179685771D01*
X238911485Y-179757200D01*
X239554342Y-180614342D02*
X239411485Y-180685771D01*
X239054342Y-180685771D01*
X238911485Y-180614342D01*
X238840057Y-180471485D01*
X238840057Y-180328628D01*
X238911485Y-180185771D01*
X239054342Y-180114342D01*
X239411485Y-180114342D01*
X239554342Y-180042914D01*
X240268628Y-180685771D02*
X240268628Y-179685771D01*
X240268628Y-179971485D02*
X240340057Y-179828628D01*
X240411485Y-179757200D01*
X240554342Y-179685771D01*
X240697200Y-179685771D01*
X240982914Y-179685771D02*
X241554342Y-179685771D01*
X241197200Y-179185771D02*
X241197200Y-180471485D01*
X241268628Y-180614342D01*
X241411485Y-180685771D01*
X241554342Y-180685771D01*
X241982914Y-180614342D02*
X242125771Y-180685771D01*
X242411485Y-180685771D01*
X242554342Y-180614342D01*
X242625771Y-180471485D01*
X242625771Y-180400057D01*
X242554342Y-180257200D01*
X242411485Y-180185771D01*
X242197200Y-180185771D01*
X242054342Y-180114342D01*
X241982914Y-179971485D01*
X241982914Y-179900057D01*
X242054342Y-179757200D01*
X242197200Y-179685771D01*
X242411485Y-179685771D01*
X242554342Y-179757200D01*
X244625771Y-180685771D02*
X244482914Y-180614342D01*
X244411485Y-180542914D01*
X244340057Y-180400057D01*
X244340057Y-179971485D01*
X244411485Y-179828628D01*
X244482914Y-179757200D01*
X244625771Y-179685771D01*
X244840057Y-179685771D01*
X244982914Y-179757200D01*
X245054342Y-179828628D01*
X245125771Y-179971485D01*
X245125771Y-180400057D01*
X245054342Y-180542914D01*
X244982914Y-180614342D01*
X244840057Y-180685771D01*
X244625771Y-180685771D01*
X245554342Y-179685771D02*
X246125771Y-179685771D01*
X245768628Y-180685771D02*
X245768628Y-179400057D01*
X245840057Y-179257200D01*
X245982914Y-179185771D01*
X246125771Y-179185771D01*
X247554342Y-179685771D02*
X248125771Y-179685771D01*
X247768628Y-179185771D02*
X247768628Y-180471485D01*
X247840057Y-180614342D01*
X247982914Y-180685771D01*
X248125771Y-180685771D01*
X248625771Y-180685771D02*
X248625771Y-179185771D01*
X249268628Y-180685771D02*
X249268628Y-179900057D01*
X249197200Y-179757200D01*
X249054342Y-179685771D01*
X248840057Y-179685771D01*
X248697200Y-179757200D01*
X248625771Y-179828628D01*
X250554342Y-180614342D02*
X250411485Y-180685771D01*
X250125771Y-180685771D01*
X249982914Y-180614342D01*
X249911485Y-180471485D01*
X249911485Y-179900057D01*
X249982914Y-179757200D01*
X250125771Y-179685771D01*
X250411485Y-179685771D01*
X250554342Y-179757200D01*
X250625771Y-179900057D01*
X250625771Y-180042914D01*
X249911485Y-180185771D01*
X252411485Y-180685771D02*
X252411485Y-179685771D01*
X252411485Y-179971485D02*
X252482914Y-179828628D01*
X252554342Y-179757200D01*
X252697200Y-179685771D01*
X252840057Y-179685771D01*
X253554342Y-180685771D02*
X253411485Y-180614342D01*
X253340057Y-180542914D01*
X253268628Y-180400057D01*
X253268628Y-179971485D01*
X253340057Y-179828628D01*
X253411485Y-179757200D01*
X253554342Y-179685771D01*
X253768628Y-179685771D01*
X253911485Y-179757200D01*
X253982914Y-179828628D01*
X254054342Y-179971485D01*
X254054342Y-180400057D01*
X253982914Y-180542914D01*
X253911485Y-180614342D01*
X253768628Y-180685771D01*
X253554342Y-180685771D01*
X254911485Y-180685771D02*
X254768628Y-180614342D01*
X254697199Y-180542914D01*
X254625771Y-180400057D01*
X254625771Y-179971485D01*
X254697199Y-179828628D01*
X254768628Y-179757200D01*
X254911485Y-179685771D01*
X255125771Y-179685771D01*
X255268628Y-179757200D01*
X255340057Y-179828628D01*
X255411485Y-179971485D01*
X255411485Y-180400057D01*
X255340057Y-180542914D01*
X255268628Y-180614342D01*
X255125771Y-180685771D01*
X254911485Y-180685771D01*
X256054342Y-180685771D02*
X256054342Y-179685771D01*
X256054342Y-179828628D02*
X256125771Y-179757200D01*
X256268628Y-179685771D01*
X256482914Y-179685771D01*
X256625771Y-179757200D01*
X256697199Y-179900057D01*
X256697199Y-180685771D01*
X256697199Y-179900057D02*
X256768628Y-179757200D01*
X256911485Y-179685771D01*
X257125771Y-179685771D01*
X257268628Y-179757200D01*
X257340057Y-179900057D01*
X257340057Y-180685771D01*
D10*
D11*
X197002200Y-191507200D02*
X197002200Y-194507200D01*
D10*
D11*
X261002200Y-191507200D02*
X261002200Y-198007200D01*
D14*
X166370000Y-71120000D03*
D15*
X168910000Y-71120000D03*
D16*
X193974400Y-53880000D03*
X193974400Y-49040000D03*
D17*
X197203000Y-55060000D03*
X197203000Y-47860000D03*
D18*
X160829999Y-73195000D03*
D19*
X160729999Y-44045000D03*
D20*
X173729999Y-44045000D03*
D18*
X190829999Y-73195000D03*
D14*
X187325000Y-70104000D03*
D15*
X184785000Y-70104000D03*
D14*
X182245000Y-70104000D03*
D21*
X169545000Y-76200000D03*
X172085000Y-76200000D03*
X174625000Y-76200000D03*
D22*
X177165000Y-76200000D03*
D21*
X179705000Y-76200000D03*
D23*
X182245000Y-76200000D03*
D24*
X170815000Y-45085000D03*
X196210000Y-50160000D03*
X196850000Y-44450000D03*
X189230000Y-47625000D03*
X180975000Y-50165000D03*
X184150000Y-64135000D03*
X170570000Y-63890000D03*
X162560000Y-66560000D03*
X163195000Y-58420000D03*
X193675000Y-76835000D03*
X163830000Y-51435000D03*
X175879711Y-51452912D03*
X170065000Y-53225000D03*
X181102000Y-43688000D03*
X164465000Y-46990000D03*
X182381000Y-53476000D03*
X190500000Y-60325000D03*
X172470000Y-56900000D03*
X172466000Y-51054000D03*
X167386000Y-60452000D03*
D25*
X176521000Y-47080000D03*
X172470000Y-47248000D03*
X173736000Y-51308000D03*
X170268314Y-47955686D03*
X154432000Y-66040000D03*
X171196000Y-51054000D03*
X168370000Y-58637000D03*
X169164000Y-64262000D03*
X162277000Y-52578000D03*
X170165104Y-50847398D03*
X162531000Y-61214000D03*
X175111314Y-55372000D03*
X175836314Y-53961028D03*
X172085000Y-60960000D03*
X172720000Y-66040000D03*
X178816000Y-58547000D03*
X178816000Y-53975000D03*
X175768000Y-59690000D03*
X179832000Y-71120000D03*
X167640000Y-45085000D03*
X193675000Y-64135000D03*
D24*
X163830000Y-57571000D03*
X193814000Y-61480000D03*
X185674000Y-49031000D03*
X185674000Y-53594000D03*
X185166000Y-59182000D03*
D25*
X155702000Y-66040000D03*
X171191347Y-53589347D03*
X157734000Y-66548000D03*
X172212000Y-53594000D03*
X173228000Y-53594000D03*
X155956000Y-70866000D03*
X174498000Y-53594000D03*
X158242000Y-75692000D03*
D26*
X172638000Y-47080000D02*
X172470000Y-47248000D01*
X176521000Y-47080000D02*
X172638000Y-47080000D01*
X180848000Y-52070000D02*
X179324000Y-50546000D01*
X180848000Y-65786000D02*
X180848000Y-52070000D01*
X188722000Y-67056000D02*
X182118000Y-67056000D01*
X179324000Y-50546000D02*
X174498000Y-50546000D01*
X189484000Y-67818000D02*
X188722000Y-67056000D01*
X174498000Y-50546000D02*
X173736000Y-51308000D01*
X186690000Y-73406000D02*
X189484000Y-70612000D01*
X182118000Y-67056000D02*
X180848000Y-65786000D01*
X173228000Y-73406000D02*
X186690000Y-73406000D01*
X189484000Y-70612000D02*
X189484000Y-67818000D01*
X172085000Y-74549000D02*
X173228000Y-73406000D01*
X172085000Y-76200000D02*
X172085000Y-74549000D01*
X169702629Y-47955686D02*
X168890315Y-48768000D01*
X170268314Y-47955686D02*
X169702629Y-47955686D01*
X168890315Y-48768000D02*
X156210000Y-48768000D01*
X156210000Y-48768000D02*
X153924000Y-51054000D01*
X153924000Y-51054000D02*
X153924000Y-65532000D01*
X153924000Y-65532000D02*
X154432000Y-66040000D01*
X173264999Y-48985001D02*
X171196000Y-51054000D01*
X180086000Y-48514000D02*
X179614999Y-48985001D01*
X194818000Y-68072000D02*
X188468000Y-61722000D01*
X183330010Y-50234010D02*
X181610000Y-48514000D01*
X194818000Y-73914000D02*
X194818000Y-68072000D01*
X193096001Y-75635999D02*
X194818000Y-73914000D01*
X184150000Y-61722000D02*
X183330010Y-60902010D01*
X181610000Y-48514000D02*
X180086000Y-48514000D01*
X183330010Y-60902010D02*
X183330010Y-50234010D01*
X188468000Y-61722000D02*
X184150000Y-61722000D01*
X179614999Y-48985001D02*
X173264999Y-48985001D01*
X179705000Y-76200000D02*
X179705000Y-75819000D01*
X179705000Y-75819000D02*
X180848000Y-74676000D01*
X180848000Y-74676000D02*
X183642000Y-74676000D01*
X183642000Y-74676000D02*
X184658000Y-75692000D01*
X184658000Y-75692000D02*
X193040000Y-75692000D01*
X168402000Y-64262000D02*
X169164000Y-64262000D01*
X166406999Y-62266999D02*
X168402000Y-64262000D01*
X166406999Y-60034316D02*
X166406999Y-62266999D01*
X167804315Y-58637000D02*
X166406999Y-60034316D01*
X168370000Y-58637000D02*
X167804315Y-58637000D01*
X169609706Y-50292000D02*
X170165104Y-50847398D01*
X165972002Y-50292000D02*
X169609706Y-50292000D01*
X163686002Y-52578000D02*
X165972002Y-50292000D01*
X162277000Y-52578000D02*
X163686002Y-52578000D01*
X172974000Y-55372000D02*
X175111314Y-55372000D01*
X171958000Y-56388000D02*
X172974000Y-55372000D01*
X167132000Y-56388000D02*
X171958000Y-56388000D01*
X166005998Y-57514002D02*
X167132000Y-56388000D01*
X165100000Y-57514002D02*
X166005998Y-57514002D01*
X162531000Y-60083002D02*
X165100000Y-57514002D01*
X162531000Y-61214000D02*
X162531000Y-60083002D01*
X175836314Y-56573686D02*
X172085000Y-60325000D01*
X175836314Y-53961028D02*
X175836314Y-56573686D01*
X172085000Y-60325000D02*
X172085000Y-60960000D01*
X172085000Y-60960000D02*
X172085000Y-65405000D01*
X172085000Y-65405000D02*
X172720000Y-66040000D01*
X178816000Y-58547000D02*
X178816000Y-54737000D01*
X178816000Y-54737000D02*
X178816000Y-54724998D01*
X178816000Y-54737000D02*
X178816000Y-53975000D01*
X178308000Y-60706000D02*
X177292000Y-59690000D01*
X179832000Y-71120000D02*
X178308000Y-69596000D01*
X178308000Y-69596000D02*
X178308000Y-60706000D01*
X175768000Y-59690000D02*
X177292000Y-59690000D01*
X191262000Y-48657998D02*
X191262000Y-61722000D01*
X188474003Y-45870001D02*
X191262000Y-48657998D01*
X168425001Y-45870001D02*
X188474003Y-45870001D01*
X191262000Y-61722000D02*
X193675000Y-64135000D01*
X167640000Y-45085000D02*
X168425001Y-45870001D01*
X196342000Y-64008000D02*
X193814000Y-61480000D01*
X196342000Y-76708000D02*
X196342000Y-64008000D01*
X194564000Y-78486000D02*
X196342000Y-76708000D01*
X157313000Y-57571000D02*
X156972000Y-57912000D01*
X160020000Y-68834000D02*
X154178000Y-74676000D01*
X160020000Y-66548000D02*
X160020000Y-68834000D01*
X163830000Y-57571000D02*
X157313000Y-57571000D01*
X156972000Y-57912000D02*
X156972000Y-63500000D01*
X154178000Y-77724000D02*
X154940000Y-78486000D01*
X156972000Y-63500000D02*
X160020000Y-66548000D01*
X154940000Y-78486000D02*
X194564000Y-78486000D01*
X154178000Y-74676000D02*
X154178000Y-77724000D01*
X185674000Y-49031000D02*
X185674000Y-53594000D01*
X193310998Y-76200000D02*
X182245000Y-76200000D01*
X195326000Y-74184998D02*
X193310998Y-76200000D01*
X195326000Y-67818000D02*
X195326000Y-74184998D01*
X186690000Y-59182000D02*
X195326000Y-67818000D01*
X185166000Y-59182000D02*
X186690000Y-59182000D01*
X170555694Y-54225000D02*
X171191347Y-53589347D01*
X166390998Y-54225000D02*
X170555694Y-54225000D01*
X155702000Y-55372000D02*
X165243998Y-55372000D01*
X154686000Y-56388000D02*
X155702000Y-55372000D01*
X154686000Y-65024000D02*
X154686000Y-56388000D01*
X165243998Y-55372000D02*
X166390998Y-54225000D01*
X155702000Y-66040000D02*
X154686000Y-65024000D01*
X166624000Y-54864000D02*
X170942000Y-54864000D01*
X165354000Y-56134000D02*
X166624000Y-54864000D01*
X170942000Y-54864000D02*
X172212000Y-53594000D01*
X157734000Y-66548000D02*
X155448000Y-64262000D01*
X165354000Y-56134000D02*
X156210000Y-56134000D01*
X156210000Y-56134000D02*
X155448000Y-56896000D01*
X155448000Y-56896000D02*
X155448000Y-64262000D01*
X172828001Y-53993999D02*
X173228000Y-53594000D01*
X166878000Y-55626000D02*
X171575590Y-55626000D01*
X165608000Y-56896000D02*
X166878000Y-55626000D01*
X156464000Y-56896000D02*
X165608000Y-56896000D01*
X171575590Y-55626000D02*
X172828001Y-54373589D01*
X159004000Y-66548000D02*
X156210000Y-63754000D01*
X156210000Y-63754000D02*
X156210000Y-57150000D01*
X159004000Y-67818000D02*
X159004000Y-66548000D01*
X172828001Y-54373589D02*
X172828001Y-53993999D01*
X156210000Y-57150000D02*
X156464000Y-56896000D01*
X155956000Y-70866000D02*
X159004000Y-67818000D01*
X161544000Y-75692000D02*
X158242000Y-75692000D01*
X174897999Y-53194001D02*
X174498000Y-53594000D01*
X173445001Y-60939997D02*
X176561315Y-57823683D01*
X173445001Y-66388001D02*
X173445001Y-60939997D01*
X163413000Y-71283000D02*
X167930999Y-66765001D01*
X173068001Y-66765001D02*
X173445001Y-66388001D01*
X176142289Y-53194001D02*
X174897999Y-53194001D01*
X167930999Y-66765001D02*
X173068001Y-66765001D01*
X176561315Y-53613027D02*
X176142289Y-53194001D01*
X163413000Y-74331000D02*
X163413000Y-71283000D01*
X176561315Y-57823683D02*
X176561315Y-53613027D01*
X162052000Y-75692000D02*
X163413000Y-74331000D01*
X162052000Y-75692000D02*
X161544000Y-75692000D01*
D27*
G36*
X159071636Y-42684017D02*
G01*
X158837987Y-43033698D01*
X158677046Y-43422244D01*
X158594999Y-43834721D01*
X158594999Y-44255279D01*
X158677046Y-44667756D01*
X158837987Y-45056302D01*
X159071636Y-45405983D01*
X159369016Y-45703363D01*
X159718697Y-45937012D01*
X160107243Y-46097953D01*
X160519720Y-46180000D01*
X160940278Y-46180000D01*
X161352755Y-46097953D01*
X161741301Y-45937012D01*
X162090982Y-45703363D01*
X162388362Y-45405983D01*
X162622011Y-45056302D01*
X162782952Y-44667756D01*
X162864999Y-44255279D01*
X162864999Y-43834721D01*
X162782952Y-43422244D01*
X162622011Y-43033698D01*
X162388362Y-42684017D01*
X162376345Y-42672000D01*
X171592248Y-42672000D01*
X171594999Y-43759250D01*
X171753749Y-43918000D01*
X173602999Y-43918000D01*
X173602999Y-43898000D01*
X173856999Y-43898000D01*
X173856999Y-43918000D01*
X175706249Y-43918000D01*
X175864999Y-43759250D01*
X175867750Y-42672000D01*
X196788513Y-42672000D01*
X196930208Y-42714780D01*
X197253625Y-42886744D01*
X197537484Y-43118254D01*
X197770965Y-43400486D01*
X197945183Y-43722695D01*
X197993000Y-43877165D01*
X197993000Y-46544990D01*
X197874034Y-46481401D01*
X197594111Y-46396487D01*
X197375950Y-46375000D01*
X197030050Y-46375000D01*
X196811889Y-46396487D01*
X196531966Y-46481401D01*
X196273986Y-46619294D01*
X196047866Y-46804866D01*
X195862294Y-47030986D01*
X195724401Y-47288966D01*
X195639487Y-47568889D01*
X195610815Y-47860000D01*
X195639487Y-48151111D01*
X195724401Y-48431034D01*
X195862294Y-48689014D01*
X196047866Y-48915134D01*
X196273986Y-49100706D01*
X196531966Y-49238599D01*
X196811889Y-49323513D01*
X197030050Y-49345000D01*
X197375950Y-49345000D01*
X197489824Y-49333784D01*
X197469550Y-49400618D01*
X197460000Y-49497582D01*
X197460000Y-49497591D01*
X197456808Y-49530000D01*
X197460000Y-49562409D01*
X197460001Y-53307581D01*
X197456808Y-53340000D01*
X197460001Y-53372419D01*
X197469551Y-53469383D01*
X197480675Y-53506052D01*
X197505459Y-53587756D01*
X197375950Y-53575000D01*
X197030050Y-53575000D01*
X196811889Y-53596487D01*
X196531966Y-53681401D01*
X196273986Y-53819294D01*
X196047866Y-54004866D01*
X195862294Y-54230986D01*
X195724401Y-54488966D01*
X195639487Y-54768889D01*
X195610815Y-55060000D01*
X195639487Y-55351111D01*
X195724401Y-55631034D01*
X195862294Y-55889014D01*
X196047866Y-56115134D01*
X196273986Y-56300706D01*
X196531966Y-56438599D01*
X196811889Y-56523513D01*
X197030050Y-56545000D01*
X197375950Y-56545000D01*
X197594111Y-56523513D01*
X197874034Y-56438599D01*
X197993000Y-56375010D01*
X197993000Y-60008578D01*
X197871647Y-59887225D01*
X197693940Y-59768485D01*
X197496483Y-59686696D01*
X197286863Y-59645000D01*
X197073137Y-59645000D01*
X196863517Y-59686696D01*
X196666060Y-59768485D01*
X196488353Y-59887225D01*
X196337225Y-60038353D01*
X196218485Y-60216060D01*
X196136696Y-60413517D01*
X196095000Y-60623137D01*
X196095000Y-60836863D01*
X196136696Y-61046483D01*
X196218485Y-61243940D01*
X196337225Y-61421647D01*
X196488353Y-61572775D01*
X196666060Y-61691515D01*
X196863517Y-61773304D01*
X197073137Y-61815000D01*
X197286863Y-61815000D01*
X197496483Y-61773304D01*
X197693940Y-61691515D01*
X197871647Y-61572775D01*
X197993000Y-61451422D01*
X197993000Y-63008578D01*
X197871647Y-62887225D01*
X197693940Y-62768485D01*
X197496483Y-62686696D01*
X197286863Y-62645000D01*
X197073137Y-62645000D01*
X196863517Y-62686696D01*
X196666060Y-62768485D01*
X196488353Y-62887225D01*
X196392190Y-62983388D01*
X194799000Y-61390199D01*
X194799000Y-61382986D01*
X194761147Y-61192686D01*
X194686896Y-61013428D01*
X194579099Y-60852099D01*
X194441901Y-60714901D01*
X194280572Y-60607104D01*
X194101314Y-60532853D01*
X193911014Y-60495000D01*
X193716986Y-60495000D01*
X193526686Y-60532853D01*
X193347428Y-60607104D01*
X193186099Y-60714901D01*
X193048901Y-60852099D01*
X192941104Y-61013428D01*
X192866853Y-61192686D01*
X192829000Y-61382986D01*
X192829000Y-61577014D01*
X192866853Y-61767314D01*
X192941104Y-61946572D01*
X193048901Y-62107901D01*
X193186099Y-62245099D01*
X193347428Y-62352896D01*
X193526686Y-62427147D01*
X193716986Y-62465000D01*
X193724199Y-62465000D01*
X195582001Y-64322803D01*
X195582001Y-66999199D01*
X193752802Y-65170000D01*
X193776939Y-65170000D01*
X193976898Y-65130226D01*
X194165256Y-65052205D01*
X194334774Y-64938937D01*
X194478937Y-64794774D01*
X194592205Y-64625256D01*
X194670226Y-64436898D01*
X194710000Y-64236939D01*
X194710000Y-64033061D01*
X194670226Y-63833102D01*
X194592205Y-63644744D01*
X194478937Y-63475226D01*
X194334774Y-63331063D01*
X194165256Y-63217795D01*
X193976898Y-63139774D01*
X193776939Y-63100000D01*
X193714802Y-63100000D01*
X192022000Y-61407199D01*
X192022000Y-53880000D01*
X192708788Y-53880000D01*
X192731185Y-54107400D01*
X192797515Y-54326060D01*
X192905229Y-54527579D01*
X193050188Y-54704212D01*
X193226821Y-54849171D01*
X193428340Y-54956885D01*
X193647000Y-55023215D01*
X193817421Y-55040000D01*
X194131379Y-55040000D01*
X194301800Y-55023215D01*
X194520460Y-54956885D01*
X194721979Y-54849171D01*
X194898612Y-54704212D01*
X195043571Y-54527579D01*
X195151285Y-54326060D01*
X195217615Y-54107400D01*
X195240012Y-53880000D01*
X195217615Y-53652600D01*
X195151285Y-53433940D01*
X195043571Y-53232421D01*
X194898612Y-53055788D01*
X194721979Y-52910829D01*
X194520460Y-52803115D01*
X194301800Y-52736785D01*
X194131379Y-52720000D01*
X193817421Y-52720000D01*
X193647000Y-52736785D01*
X193428340Y-52803115D01*
X193226821Y-52910829D01*
X193050188Y-53055788D01*
X192905229Y-53232421D01*
X192797515Y-53433940D01*
X192731185Y-53652600D01*
X192708788Y-53880000D01*
X192022000Y-53880000D01*
X192022000Y-49040000D01*
X192708788Y-49040000D01*
X192731185Y-49267400D01*
X192797515Y-49486060D01*
X192905229Y-49687579D01*
X193050188Y-49864212D01*
X193226821Y-50009171D01*
X193428340Y-50116885D01*
X193647000Y-50183215D01*
X193817421Y-50200000D01*
X194131379Y-50200000D01*
X194301800Y-50183215D01*
X194520460Y-50116885D01*
X194721979Y-50009171D01*
X194898612Y-49864212D01*
X195043571Y-49687579D01*
X195151285Y-49486060D01*
X195217615Y-49267400D01*
X195240012Y-49040000D01*
X195217615Y-48812600D01*
X195151285Y-48593940D01*
X195043571Y-48392421D01*
X194898612Y-48215788D01*
X194721979Y-48070829D01*
X194520460Y-47963115D01*
X194301800Y-47896785D01*
X194131379Y-47880000D01*
X193817421Y-47880000D01*
X193647000Y-47896785D01*
X193428340Y-47963115D01*
X193226821Y-48070829D01*
X193050188Y-48215788D01*
X192905229Y-48392421D01*
X192797515Y-48593940D01*
X192731185Y-48812600D01*
X192708788Y-49040000D01*
X192022000Y-49040000D01*
X192022000Y-48695320D01*
X192025676Y-48657997D01*
X192022000Y-48620674D01*
X192022000Y-48620665D01*
X192011003Y-48509012D01*
X191967546Y-48365751D01*
X191896974Y-48233722D01*
X191802001Y-48117997D01*
X191773004Y-48094200D01*
X189037807Y-45359004D01*
X189014004Y-45330000D01*
X188898279Y-45235027D01*
X188766250Y-45164455D01*
X188622989Y-45120998D01*
X188511336Y-45110001D01*
X188511325Y-45110001D01*
X188474003Y-45106325D01*
X188436681Y-45110001D01*
X175866970Y-45110001D01*
X175864999Y-44330750D01*
X175706249Y-44172000D01*
X173856999Y-44172000D01*
X173856999Y-44192000D01*
X173602999Y-44192000D01*
X173602999Y-44172000D01*
X171753749Y-44172000D01*
X171594999Y-44330750D01*
X171593028Y-45110001D01*
X168739803Y-45110001D01*
X168675000Y-45045198D01*
X168675000Y-44983061D01*
X168635226Y-44783102D01*
X168557205Y-44594744D01*
X168443937Y-44425226D01*
X168299774Y-44281063D01*
X168130256Y-44167795D01*
X167941898Y-44089774D01*
X167741939Y-44050000D01*
X167538061Y-44050000D01*
X167338102Y-44089774D01*
X167149744Y-44167795D01*
X166980226Y-44281063D01*
X166836063Y-44425226D01*
X166722795Y-44594744D01*
X166644774Y-44783102D01*
X166605000Y-44983061D01*
X166605000Y-45186939D01*
X166644774Y-45386898D01*
X166722795Y-45575256D01*
X166836063Y-45744774D01*
X166980226Y-45888937D01*
X167149744Y-46002205D01*
X167338102Y-46080226D01*
X167538061Y-46120000D01*
X167600198Y-46120000D01*
X167861202Y-46381003D01*
X167885000Y-46410002D01*
X167913998Y-46433800D01*
X168000724Y-46504975D01*
X168066249Y-46539999D01*
X168132754Y-46575547D01*
X168276015Y-46619004D01*
X168387668Y-46630001D01*
X168387677Y-46630001D01*
X168425000Y-46633677D01*
X168462323Y-46630001D01*
X171638150Y-46630001D01*
X171552795Y-46757744D01*
X171474774Y-46946102D01*
X171435000Y-47146061D01*
X171435000Y-47349939D01*
X171474774Y-47549898D01*
X171552795Y-47738256D01*
X171666063Y-47907774D01*
X171810226Y-48051937D01*
X171979744Y-48165205D01*
X172168102Y-48243226D01*
X172368061Y-48283000D01*
X172571939Y-48283000D01*
X172771898Y-48243226D01*
X172960256Y-48165205D01*
X173129774Y-48051937D01*
X173273937Y-47907774D01*
X173319222Y-47840000D01*
X175817289Y-47840000D01*
X175861226Y-47883937D01*
X176030744Y-47997205D01*
X176219102Y-48075226D01*
X176419061Y-48115000D01*
X176622939Y-48115000D01*
X176822898Y-48075226D01*
X177011256Y-47997205D01*
X177180774Y-47883937D01*
X177324937Y-47739774D01*
X177438205Y-47570256D01*
X177516226Y-47381898D01*
X177556000Y-47181939D01*
X177556000Y-46978061D01*
X177516226Y-46778102D01*
X177454880Y-46630001D01*
X188159202Y-46630001D01*
X190502000Y-48972800D01*
X190502001Y-61684668D01*
X190498324Y-61722000D01*
X190502001Y-61759333D01*
X190512998Y-61870986D01*
X190523096Y-61904276D01*
X190538779Y-61955978D01*
X187253804Y-58671003D01*
X187230001Y-58641999D01*
X187114276Y-58547026D01*
X186982247Y-58476454D01*
X186838986Y-58432997D01*
X186727333Y-58422000D01*
X186727322Y-58422000D01*
X186690000Y-58418324D01*
X186652678Y-58422000D01*
X185799000Y-58422000D01*
X185793901Y-58416901D01*
X185632572Y-58309104D01*
X185453314Y-58234853D01*
X185263014Y-58197000D01*
X185068986Y-58197000D01*
X184878686Y-58234853D01*
X184699428Y-58309104D01*
X184538099Y-58416901D01*
X184400901Y-58554099D01*
X184293104Y-58715428D01*
X184218853Y-58894686D01*
X184181000Y-59084986D01*
X184181000Y-59279014D01*
X184218853Y-59469314D01*
X184293104Y-59648572D01*
X184400901Y-59809901D01*
X184538099Y-59947099D01*
X184699428Y-60054896D01*
X184878686Y-60129147D01*
X185068986Y-60167000D01*
X185263014Y-60167000D01*
X185453314Y-60129147D01*
X185632572Y-60054896D01*
X185793901Y-59947099D01*
X185799000Y-59942000D01*
X186375199Y-59942000D01*
X187395199Y-60962000D01*
X184464802Y-60962000D01*
X184090010Y-60587209D01*
X184090010Y-50271332D01*
X184093686Y-50234009D01*
X184090010Y-50196686D01*
X184090010Y-50196677D01*
X184079013Y-50085024D01*
X184035556Y-49941763D01*
X183964984Y-49809734D01*
X183942489Y-49782324D01*
X183893809Y-49723006D01*
X183893805Y-49723002D01*
X183870011Y-49694009D01*
X183841018Y-49670215D01*
X183104789Y-48933986D01*
X184689000Y-48933986D01*
X184689000Y-49128014D01*
X184726853Y-49318314D01*
X184801104Y-49497572D01*
X184908901Y-49658901D01*
X184914000Y-49664000D01*
X184914001Y-52960999D01*
X184908901Y-52966099D01*
X184801104Y-53127428D01*
X184726853Y-53306686D01*
X184689000Y-53496986D01*
X184689000Y-53691014D01*
X184726853Y-53881314D01*
X184801104Y-54060572D01*
X184908901Y-54221901D01*
X185046099Y-54359099D01*
X185207428Y-54466896D01*
X185386686Y-54541147D01*
X185576986Y-54579000D01*
X185771014Y-54579000D01*
X185961314Y-54541147D01*
X186140572Y-54466896D01*
X186301901Y-54359099D01*
X186439099Y-54221901D01*
X186546896Y-54060572D01*
X186621147Y-53881314D01*
X186659000Y-53691014D01*
X186659000Y-53496986D01*
X186621147Y-53306686D01*
X186546896Y-53127428D01*
X186439099Y-52966099D01*
X186434000Y-52961000D01*
X186434000Y-49664000D01*
X186439099Y-49658901D01*
X186546896Y-49497572D01*
X186621147Y-49318314D01*
X186659000Y-49128014D01*
X186659000Y-48933986D01*
X186621147Y-48743686D01*
X186546896Y-48564428D01*
X186439099Y-48403099D01*
X186301901Y-48265901D01*
X186140572Y-48158104D01*
X185961314Y-48083853D01*
X185771014Y-48046000D01*
X185576986Y-48046000D01*
X185386686Y-48083853D01*
X185207428Y-48158104D01*
X185046099Y-48265901D01*
X184908901Y-48403099D01*
X184801104Y-48564428D01*
X184726853Y-48743686D01*
X184689000Y-48933986D01*
X183104789Y-48933986D01*
X182173803Y-48003002D01*
X182150001Y-47973999D01*
X182034276Y-47879026D01*
X181902247Y-47808454D01*
X181758986Y-47764997D01*
X181647333Y-47754000D01*
X181647322Y-47754000D01*
X181610000Y-47750324D01*
X181572678Y-47754000D01*
X180123322Y-47754000D01*
X180085999Y-47750324D01*
X180048677Y-47754000D01*
X180048667Y-47754000D01*
X179937014Y-47764997D01*
X179799535Y-47806700D01*
X179793753Y-47808454D01*
X179661723Y-47879026D01*
X179626694Y-47907774D01*
X179545999Y-47973999D01*
X179522196Y-48003003D01*
X179300198Y-48225001D01*
X173302321Y-48225001D01*
X173264998Y-48221325D01*
X173227675Y-48225001D01*
X173227666Y-48225001D01*
X173116013Y-48235998D01*
X172972752Y-48279455D01*
X172840723Y-48350027D01*
X172840721Y-48350028D01*
X172840722Y-48350028D01*
X172753995Y-48421202D01*
X172753991Y-48421206D01*
X172724998Y-48445000D01*
X172701204Y-48473993D01*
X171156199Y-50019000D01*
X171094061Y-50019000D01*
X170894102Y-50058774D01*
X170855981Y-50074564D01*
X170824878Y-50043461D01*
X170655360Y-49930193D01*
X170467002Y-49852172D01*
X170267043Y-49812398D01*
X170204905Y-49812398D01*
X170173509Y-49781002D01*
X170149707Y-49751999D01*
X170033982Y-49657026D01*
X169901953Y-49586454D01*
X169758692Y-49542997D01*
X169647039Y-49532000D01*
X169647028Y-49532000D01*
X169609706Y-49528324D01*
X169572384Y-49532000D01*
X166009324Y-49532000D01*
X165972001Y-49528324D01*
X165934678Y-49532000D01*
X165934669Y-49532000D01*
X165823016Y-49542997D01*
X165679755Y-49586454D01*
X165547726Y-49657026D01*
X165432001Y-49751999D01*
X165408203Y-49780997D01*
X163371201Y-51818000D01*
X162980711Y-51818000D01*
X162936774Y-51774063D01*
X162767256Y-51660795D01*
X162578898Y-51582774D01*
X162378939Y-51543000D01*
X162175061Y-51543000D01*
X161975102Y-51582774D01*
X161786744Y-51660795D01*
X161617226Y-51774063D01*
X161473063Y-51918226D01*
X161359795Y-52087744D01*
X161281774Y-52276102D01*
X161242000Y-52476061D01*
X161242000Y-52679939D01*
X161281774Y-52879898D01*
X161359795Y-53068256D01*
X161473063Y-53237774D01*
X161617226Y-53381937D01*
X161786744Y-53495205D01*
X161975102Y-53573226D01*
X162175061Y-53613000D01*
X162378939Y-53613000D01*
X162578898Y-53573226D01*
X162767256Y-53495205D01*
X162936774Y-53381937D01*
X162980711Y-53338000D01*
X163648680Y-53338000D01*
X163686002Y-53341676D01*
X163723324Y-53338000D01*
X163723335Y-53338000D01*
X163834988Y-53327003D01*
X163978249Y-53283546D01*
X164110278Y-53212974D01*
X164226003Y-53118001D01*
X164249806Y-53088997D01*
X166286804Y-51052000D01*
X169150525Y-51052000D01*
X169169878Y-51149296D01*
X169247899Y-51337654D01*
X169361167Y-51507172D01*
X169505330Y-51651335D01*
X169674848Y-51764603D01*
X169863206Y-51842624D01*
X170063165Y-51882398D01*
X170267043Y-51882398D01*
X170467002Y-51842624D01*
X170505123Y-51826834D01*
X170536226Y-51857937D01*
X170705744Y-51971205D01*
X170894102Y-52049226D01*
X171094061Y-52089000D01*
X171297939Y-52089000D01*
X171497898Y-52049226D01*
X171686256Y-51971205D01*
X171855774Y-51857937D01*
X171999937Y-51713774D01*
X172113205Y-51544256D01*
X172191226Y-51355898D01*
X172231000Y-51155939D01*
X172231000Y-51093801D01*
X173579802Y-49745001D01*
X179577677Y-49745001D01*
X179614999Y-49748677D01*
X179652321Y-49745001D01*
X179652332Y-49745001D01*
X179763985Y-49734004D01*
X179907246Y-49690547D01*
X180039275Y-49619975D01*
X180155000Y-49525002D01*
X180178803Y-49495998D01*
X180400801Y-49274000D01*
X181295199Y-49274000D01*
X182570011Y-50548814D01*
X182570010Y-60864688D01*
X182566334Y-60902010D01*
X182570010Y-60939332D01*
X182570010Y-60939342D01*
X182581007Y-61050995D01*
X182613527Y-61158201D01*
X182624464Y-61194256D01*
X182695036Y-61326286D01*
X182734881Y-61374836D01*
X182790009Y-61442011D01*
X182819012Y-61465813D01*
X183586201Y-62233002D01*
X183609999Y-62262001D01*
X183638997Y-62285799D01*
X183725723Y-62356974D01*
X183836122Y-62415984D01*
X183857753Y-62427546D01*
X184001014Y-62471003D01*
X184112667Y-62482000D01*
X184112677Y-62482000D01*
X184150000Y-62485676D01*
X184187322Y-62482000D01*
X188153199Y-62482000D01*
X194058001Y-68386803D01*
X194058000Y-73599198D01*
X192725199Y-74932000D01*
X192465898Y-74932000D01*
X192682549Y-74715349D01*
X192943559Y-74324721D01*
X193123345Y-73890679D01*
X193214999Y-73429902D01*
X193214999Y-72960098D01*
X193123345Y-72499321D01*
X192943559Y-72065279D01*
X192682549Y-71674651D01*
X192350348Y-71342450D01*
X191959720Y-71081440D01*
X191525678Y-70901654D01*
X191064901Y-70810000D01*
X190595097Y-70810000D01*
X190193929Y-70889797D01*
X190233003Y-70760986D01*
X190244000Y-70649333D01*
X190244000Y-70649325D01*
X190247676Y-70612000D01*
X190244000Y-70574675D01*
X190244000Y-67855325D01*
X190247676Y-67818000D01*
X190244000Y-67780675D01*
X190244000Y-67780667D01*
X190233003Y-67669014D01*
X190189546Y-67525753D01*
X190118974Y-67393724D01*
X190024001Y-67277999D01*
X189995002Y-67254201D01*
X189285803Y-66545002D01*
X189262001Y-66515999D01*
X189146276Y-66421026D01*
X189014247Y-66350454D01*
X188870986Y-66306997D01*
X188759333Y-66296000D01*
X188759322Y-66296000D01*
X188722000Y-66292324D01*
X188684678Y-66296000D01*
X182432802Y-66296000D01*
X181608000Y-65471199D01*
X181608000Y-52107322D01*
X181611676Y-52069999D01*
X181608000Y-52032676D01*
X181608000Y-52032667D01*
X181597003Y-51921014D01*
X181553546Y-51777753D01*
X181482974Y-51645724D01*
X181460057Y-51617799D01*
X181411799Y-51558996D01*
X181411795Y-51558992D01*
X181388001Y-51529999D01*
X181359008Y-51506205D01*
X179887803Y-50035002D01*
X179864001Y-50005999D01*
X179748276Y-49911026D01*
X179616247Y-49840454D01*
X179472986Y-49796997D01*
X179361333Y-49786000D01*
X179361322Y-49786000D01*
X179324000Y-49782324D01*
X179286678Y-49786000D01*
X174535325Y-49786000D01*
X174498000Y-49782324D01*
X174460675Y-49786000D01*
X174460667Y-49786000D01*
X174349014Y-49796997D01*
X174205753Y-49840454D01*
X174073724Y-49911026D01*
X173957999Y-50005999D01*
X173934201Y-50034998D01*
X173696198Y-50273000D01*
X173634061Y-50273000D01*
X173434102Y-50312774D01*
X173245744Y-50390795D01*
X173076226Y-50504063D01*
X172932063Y-50648226D01*
X172818795Y-50817744D01*
X172740774Y-51006102D01*
X172701000Y-51206061D01*
X172701000Y-51409939D01*
X172740774Y-51609898D01*
X172818795Y-51798256D01*
X172932063Y-51967774D01*
X173076226Y-52111937D01*
X173245744Y-52225205D01*
X173434102Y-52303226D01*
X173634061Y-52343000D01*
X173837939Y-52343000D01*
X174037898Y-52303226D01*
X174226256Y-52225205D01*
X174395774Y-52111937D01*
X174539937Y-51967774D01*
X174653205Y-51798256D01*
X174731226Y-51609898D01*
X174771000Y-51409939D01*
X174771000Y-51347802D01*
X174812802Y-51306000D01*
X179009199Y-51306000D01*
X180088001Y-52384804D01*
X180088000Y-65748678D01*
X180084324Y-65786000D01*
X180088000Y-65823322D01*
X180088000Y-65823332D01*
X180098997Y-65934985D01*
X180131763Y-66043002D01*
X180142454Y-66078246D01*
X180213026Y-66210276D01*
X180236612Y-66239015D01*
X180307999Y-66326001D01*
X180337003Y-66349804D01*
X181554200Y-67567002D01*
X181577999Y-67596001D01*
X181693724Y-67690974D01*
X181825753Y-67761546D01*
X181969014Y-67805003D01*
X182080667Y-67816000D01*
X182080676Y-67816000D01*
X182117999Y-67819676D01*
X182155322Y-67816000D01*
X188407199Y-67816000D01*
X188724001Y-68132803D01*
X188724000Y-69470338D01*
X188685299Y-69376905D01*
X188517312Y-69125495D01*
X188303505Y-68911688D01*
X188052095Y-68743701D01*
X187772743Y-68627989D01*
X187476184Y-68569000D01*
X187173816Y-68569000D01*
X186877257Y-68627989D01*
X186597905Y-68743701D01*
X186346495Y-68911688D01*
X186280056Y-68978127D01*
X186274502Y-68959820D01*
X186215537Y-68849506D01*
X186136185Y-68752815D01*
X186039494Y-68673463D01*
X185929180Y-68614498D01*
X185809482Y-68578188D01*
X185685000Y-68565928D01*
X185070750Y-68569000D01*
X184912000Y-68727750D01*
X184912000Y-69977000D01*
X184932000Y-69977000D01*
X184932000Y-70231000D01*
X184912000Y-70231000D01*
X184912000Y-71480250D01*
X185070750Y-71639000D01*
X185685000Y-71642072D01*
X185809482Y-71629812D01*
X185929180Y-71593502D01*
X186039494Y-71534537D01*
X186136185Y-71455185D01*
X186215537Y-71358494D01*
X186274502Y-71248180D01*
X186280056Y-71229873D01*
X186346495Y-71296312D01*
X186597905Y-71464299D01*
X186877257Y-71580011D01*
X187173816Y-71639000D01*
X187382199Y-71639000D01*
X186375199Y-72646000D01*
X173265322Y-72646000D01*
X173227999Y-72642324D01*
X173190676Y-72646000D01*
X173190667Y-72646000D01*
X173079014Y-72656997D01*
X172935753Y-72700454D01*
X172803723Y-72771026D01*
X172723925Y-72836515D01*
X172687999Y-72865999D01*
X172664201Y-72894997D01*
X171573998Y-73985201D01*
X171545000Y-74008999D01*
X171521202Y-74037997D01*
X171521201Y-74037998D01*
X171450026Y-74124724D01*
X171379454Y-74256754D01*
X171356027Y-74333985D01*
X171335998Y-74400014D01*
X171328121Y-74479986D01*
X171321324Y-74549000D01*
X171325001Y-74586332D01*
X171325001Y-74922405D01*
X171255986Y-74959294D01*
X171029866Y-75144866D01*
X170844294Y-75370986D01*
X170815000Y-75425791D01*
X170785706Y-75370986D01*
X170600134Y-75144866D01*
X170374014Y-74959294D01*
X170116034Y-74821401D01*
X169836111Y-74736487D01*
X169617950Y-74715000D01*
X169472050Y-74715000D01*
X169253889Y-74736487D01*
X168973966Y-74821401D01*
X168715986Y-74959294D01*
X168489866Y-75144866D01*
X168304294Y-75370986D01*
X168166401Y-75628966D01*
X168081487Y-75908889D01*
X168052815Y-76200000D01*
X168081487Y-76491111D01*
X168166401Y-76771034D01*
X168304294Y-77029014D01*
X168489866Y-77255134D01*
X168715986Y-77440706D01*
X168973966Y-77578599D01*
X169253889Y-77663513D01*
X169472050Y-77685000D01*
X169617950Y-77685000D01*
X169836111Y-77663513D01*
X170116034Y-77578599D01*
X170374014Y-77440706D01*
X170600134Y-77255134D01*
X170785706Y-77029014D01*
X170815000Y-76974209D01*
X170844294Y-77029014D01*
X171029866Y-77255134D01*
X171255986Y-77440706D01*
X171513966Y-77578599D01*
X171793889Y-77663513D01*
X172012050Y-77685000D01*
X172157950Y-77685000D01*
X172376111Y-77663513D01*
X172656034Y-77578599D01*
X172914014Y-77440706D01*
X173140134Y-77255134D01*
X173325706Y-77029014D01*
X173355000Y-76974209D01*
X173384294Y-77029014D01*
X173569866Y-77255134D01*
X173795986Y-77440706D01*
X174053966Y-77578599D01*
X174333889Y-77663513D01*
X174552050Y-77685000D01*
X174697950Y-77685000D01*
X174916111Y-77663513D01*
X175196034Y-77578599D01*
X175454014Y-77440706D01*
X175680134Y-77255134D01*
X175704607Y-77225313D01*
X175725498Y-77294180D01*
X175784463Y-77404494D01*
X175863815Y-77501185D01*
X175960506Y-77580537D01*
X176070820Y-77639502D01*
X176190518Y-77675812D01*
X176315000Y-77688072D01*
X176879250Y-77685000D01*
X177038000Y-77526250D01*
X177038000Y-76327000D01*
X177018000Y-76327000D01*
X177018000Y-76073000D01*
X177038000Y-76073000D01*
X177038000Y-74873750D01*
X176879250Y-74715000D01*
X176315000Y-74711928D01*
X176190518Y-74724188D01*
X176070820Y-74760498D01*
X175960506Y-74819463D01*
X175863815Y-74898815D01*
X175784463Y-74995506D01*
X175725498Y-75105820D01*
X175704607Y-75174687D01*
X175680134Y-75144866D01*
X175454014Y-74959294D01*
X175196034Y-74821401D01*
X174916111Y-74736487D01*
X174697950Y-74715000D01*
X174552050Y-74715000D01*
X174333889Y-74736487D01*
X174053966Y-74821401D01*
X173795986Y-74959294D01*
X173569866Y-75144866D01*
X173384294Y-75370986D01*
X173355000Y-75425791D01*
X173325706Y-75370986D01*
X173140134Y-75144866D01*
X172914014Y-74959294D01*
X172845000Y-74922405D01*
X172845000Y-74863801D01*
X173542802Y-74166000D01*
X180283198Y-74166000D01*
X179734199Y-74715000D01*
X179632050Y-74715000D01*
X179413889Y-74736487D01*
X179133966Y-74821401D01*
X178875986Y-74959294D01*
X178649866Y-75144866D01*
X178625393Y-75174687D01*
X178604502Y-75105820D01*
X178545537Y-74995506D01*
X178466185Y-74898815D01*
X178369494Y-74819463D01*
X178259180Y-74760498D01*
X178139482Y-74724188D01*
X178015000Y-74711928D01*
X177450750Y-74715000D01*
X177292000Y-74873750D01*
X177292000Y-76073000D01*
X177312000Y-76073000D01*
X177312000Y-76327000D01*
X177292000Y-76327000D01*
X177292000Y-77526250D01*
X177450750Y-77685000D01*
X178015000Y-77688072D01*
X178139482Y-77675812D01*
X178259180Y-77639502D01*
X178369494Y-77580537D01*
X178466185Y-77501185D01*
X178545537Y-77404494D01*
X178604502Y-77294180D01*
X178625393Y-77225313D01*
X178649866Y-77255134D01*
X178875986Y-77440706D01*
X179133966Y-77578599D01*
X179413889Y-77663513D01*
X179632050Y-77685000D01*
X179777950Y-77685000D01*
X179996111Y-77663513D01*
X180276034Y-77578599D01*
X180534014Y-77440706D01*
X180760134Y-77255134D01*
X180945706Y-77029014D01*
X180975585Y-76973115D01*
X181091525Y-77146632D01*
X181298368Y-77353475D01*
X181541589Y-77515990D01*
X181811842Y-77627932D01*
X182098740Y-77685000D01*
X182391260Y-77685000D01*
X182678158Y-77627932D01*
X182948411Y-77515990D01*
X183191632Y-77353475D01*
X183398475Y-77146632D01*
X183523178Y-76960000D01*
X193273676Y-76960000D01*
X193310998Y-76963676D01*
X193348320Y-76960000D01*
X193348331Y-76960000D01*
X193459984Y-76949003D01*
X193603245Y-76905546D01*
X193735274Y-76834974D01*
X193850999Y-76740001D01*
X193874802Y-76710997D01*
X195582000Y-75003800D01*
X195582000Y-76393198D01*
X194249199Y-77726000D01*
X155254802Y-77726000D01*
X154938000Y-77409199D01*
X154938000Y-74990801D01*
X160531003Y-69397799D01*
X160560001Y-69374001D01*
X160654974Y-69258276D01*
X160725546Y-69126247D01*
X160769003Y-68982986D01*
X160780000Y-68871333D01*
X160780000Y-68871325D01*
X160783676Y-68834000D01*
X160780000Y-68796675D01*
X160780000Y-66585323D01*
X160783676Y-66548000D01*
X160780000Y-66510677D01*
X160780000Y-66510667D01*
X160769003Y-66399014D01*
X160725546Y-66255753D01*
X160715814Y-66237546D01*
X160654974Y-66123723D01*
X160583799Y-66036997D01*
X160560001Y-66007999D01*
X160531004Y-65984202D01*
X157732000Y-63185199D01*
X157732000Y-58331000D01*
X163197000Y-58331000D01*
X163202099Y-58336099D01*
X163202700Y-58336501D01*
X162019998Y-59519203D01*
X161991000Y-59543001D01*
X161967202Y-59571999D01*
X161967201Y-59572000D01*
X161896026Y-59658726D01*
X161825454Y-59790756D01*
X161796766Y-59885330D01*
X161781998Y-59934016D01*
X161779735Y-59956997D01*
X161767324Y-60083002D01*
X161771001Y-60120334D01*
X161771001Y-60510288D01*
X161727063Y-60554226D01*
X161613795Y-60723744D01*
X161535774Y-60912102D01*
X161496000Y-61112061D01*
X161496000Y-61315939D01*
X161535774Y-61515898D01*
X161613795Y-61704256D01*
X161727063Y-61873774D01*
X161871226Y-62017937D01*
X162040744Y-62131205D01*
X162229102Y-62209226D01*
X162429061Y-62249000D01*
X162632939Y-62249000D01*
X162832898Y-62209226D01*
X163021256Y-62131205D01*
X163190774Y-62017937D01*
X163334937Y-61873774D01*
X163448205Y-61704256D01*
X163526226Y-61515898D01*
X163566000Y-61315939D01*
X163566000Y-61112061D01*
X163526226Y-60912102D01*
X163448205Y-60723744D01*
X163334937Y-60554226D01*
X163291000Y-60510289D01*
X163291000Y-60397803D01*
X163654487Y-60034316D01*
X165643323Y-60034316D01*
X165646999Y-60071639D01*
X165647000Y-62229667D01*
X165643323Y-62266999D01*
X165657997Y-62415984D01*
X165701453Y-62559245D01*
X165772025Y-62691275D01*
X165843200Y-62778001D01*
X165866999Y-62807000D01*
X165895997Y-62830798D01*
X167838205Y-64773008D01*
X167861999Y-64802001D01*
X167890992Y-64825795D01*
X167890996Y-64825799D01*
X167909764Y-64841201D01*
X167977724Y-64896974D01*
X168109753Y-64967546D01*
X168253014Y-65011003D01*
X168364667Y-65022000D01*
X168364676Y-65022000D01*
X168401999Y-65025676D01*
X168439322Y-65022000D01*
X168460289Y-65022000D01*
X168504226Y-65065937D01*
X168673744Y-65179205D01*
X168862102Y-65257226D01*
X169062061Y-65297000D01*
X169265939Y-65297000D01*
X169465898Y-65257226D01*
X169654256Y-65179205D01*
X169823774Y-65065937D01*
X169967937Y-64921774D01*
X170081205Y-64752256D01*
X170159226Y-64563898D01*
X170199000Y-64363939D01*
X170199000Y-64160061D01*
X170159226Y-63960102D01*
X170081205Y-63771744D01*
X169967937Y-63602226D01*
X169823774Y-63458063D01*
X169654256Y-63344795D01*
X169465898Y-63266774D01*
X169265939Y-63227000D01*
X169062061Y-63227000D01*
X168862102Y-63266774D01*
X168673744Y-63344795D01*
X168605318Y-63390516D01*
X167166999Y-61952198D01*
X167166999Y-60349117D01*
X167937845Y-59578271D01*
X168068102Y-59632226D01*
X168268061Y-59672000D01*
X168471939Y-59672000D01*
X168671898Y-59632226D01*
X168860256Y-59554205D01*
X169029774Y-59440937D01*
X169173937Y-59296774D01*
X169287205Y-59127256D01*
X169365226Y-58938898D01*
X169405000Y-58738939D01*
X169405000Y-58535061D01*
X169365226Y-58335102D01*
X169287205Y-58146744D01*
X169173937Y-57977226D01*
X169029774Y-57833063D01*
X168860256Y-57719795D01*
X168671898Y-57641774D01*
X168471939Y-57602000D01*
X168268061Y-57602000D01*
X168068102Y-57641774D01*
X167879744Y-57719795D01*
X167710226Y-57833063D01*
X167655276Y-57888013D01*
X167512068Y-57931454D01*
X167380039Y-58002026D01*
X167264314Y-58096999D01*
X167240516Y-58125997D01*
X165896002Y-59470512D01*
X165866998Y-59494315D01*
X165828673Y-59541015D01*
X165772025Y-59610040D01*
X165727681Y-59693002D01*
X165701453Y-59742070D01*
X165657996Y-59885331D01*
X165646999Y-59996984D01*
X165646999Y-59996994D01*
X165643323Y-60034316D01*
X163654487Y-60034316D01*
X165414802Y-58274002D01*
X165968676Y-58274002D01*
X166005998Y-58277678D01*
X166043320Y-58274002D01*
X166043331Y-58274002D01*
X166154984Y-58263005D01*
X166298245Y-58219548D01*
X166430274Y-58148976D01*
X166545999Y-58054003D01*
X166569802Y-58025000D01*
X167446802Y-57148000D01*
X171920678Y-57148000D01*
X171958000Y-57151676D01*
X171995322Y-57148000D01*
X171995333Y-57148000D01*
X172106986Y-57137003D01*
X172250247Y-57093546D01*
X172382276Y-57022974D01*
X172498001Y-56928001D01*
X172521804Y-56898998D01*
X173288802Y-56132000D01*
X174407603Y-56132000D01*
X174451540Y-56175937D01*
X174621058Y-56289205D01*
X174809416Y-56367226D01*
X174941666Y-56393532D01*
X171574003Y-59761196D01*
X171544999Y-59784999D01*
X171489871Y-59852174D01*
X171450026Y-59900724D01*
X171406451Y-59982246D01*
X171379454Y-60032754D01*
X171335997Y-60176015D01*
X171328428Y-60252861D01*
X171281063Y-60300226D01*
X171167795Y-60469744D01*
X171089774Y-60658102D01*
X171050000Y-60858061D01*
X171050000Y-61061939D01*
X171089774Y-61261898D01*
X171167795Y-61450256D01*
X171281063Y-61619774D01*
X171325000Y-61663711D01*
X171325001Y-65367668D01*
X171321324Y-65405000D01*
X171325001Y-65442333D01*
X171335998Y-65553986D01*
X171349180Y-65597442D01*
X171379454Y-65697246D01*
X171450026Y-65829276D01*
X171465393Y-65848000D01*
X171545000Y-65945001D01*
X171573998Y-65968799D01*
X171610200Y-66005001D01*
X167968321Y-66005001D01*
X167930998Y-66001325D01*
X167893675Y-66005001D01*
X167893666Y-66005001D01*
X167782013Y-66015998D01*
X167638752Y-66059455D01*
X167506723Y-66130027D01*
X167506721Y-66130028D01*
X167506722Y-66130028D01*
X167419995Y-66201202D01*
X167419991Y-66201206D01*
X167390998Y-66225000D01*
X167367204Y-66253993D01*
X162901998Y-70719201D01*
X162873000Y-70742999D01*
X162849202Y-70771997D01*
X162849201Y-70771998D01*
X162778026Y-70858724D01*
X162707454Y-70990754D01*
X162693646Y-71036275D01*
X162663998Y-71134014D01*
X162655338Y-71221939D01*
X162649324Y-71283000D01*
X162653001Y-71320332D01*
X162653001Y-71645103D01*
X162350348Y-71342450D01*
X161959720Y-71081440D01*
X161525678Y-70901654D01*
X161064901Y-70810000D01*
X160595097Y-70810000D01*
X160134320Y-70901654D01*
X159700278Y-71081440D01*
X159309650Y-71342450D01*
X158977449Y-71674651D01*
X158716439Y-72065279D01*
X158536653Y-72499321D01*
X158444999Y-72960098D01*
X158444999Y-73429902D01*
X158536653Y-73890679D01*
X158716439Y-74324721D01*
X158977449Y-74715349D01*
X159194100Y-74932000D01*
X158945711Y-74932000D01*
X158901774Y-74888063D01*
X158732256Y-74774795D01*
X158543898Y-74696774D01*
X158343939Y-74657000D01*
X158140061Y-74657000D01*
X157940102Y-74696774D01*
X157751744Y-74774795D01*
X157582226Y-74888063D01*
X157438063Y-75032226D01*
X157324795Y-75201744D01*
X157246774Y-75390102D01*
X157207000Y-75590061D01*
X157207000Y-75793939D01*
X157246774Y-75993898D01*
X157324795Y-76182256D01*
X157438063Y-76351774D01*
X157582226Y-76495937D01*
X157751744Y-76609205D01*
X157940102Y-76687226D01*
X158140061Y-76727000D01*
X158343939Y-76727000D01*
X158543898Y-76687226D01*
X158732256Y-76609205D01*
X158901774Y-76495937D01*
X158945711Y-76452000D01*
X162014678Y-76452000D01*
X162052000Y-76455676D01*
X162089322Y-76452000D01*
X162089333Y-76452000D01*
X162200986Y-76441003D01*
X162344247Y-76397546D01*
X162476276Y-76326974D01*
X162592001Y-76232001D01*
X162615804Y-76202997D01*
X163924004Y-74894798D01*
X163953001Y-74871001D01*
X164047974Y-74755276D01*
X164118546Y-74623247D01*
X164162003Y-74479986D01*
X164173000Y-74368333D01*
X164173000Y-74368325D01*
X164176676Y-74331000D01*
X164173000Y-74293675D01*
X164173000Y-71597801D01*
X164843198Y-70927604D01*
X164835000Y-70968816D01*
X164835000Y-71271184D01*
X164893989Y-71567743D01*
X165009701Y-71847095D01*
X165177688Y-72098505D01*
X165391495Y-72312312D01*
X165642905Y-72480299D01*
X165922257Y-72596011D01*
X166218816Y-72655000D01*
X166521184Y-72655000D01*
X166817743Y-72596011D01*
X167097095Y-72480299D01*
X167348505Y-72312312D01*
X167414944Y-72245873D01*
X167420498Y-72264180D01*
X167479463Y-72374494D01*
X167558815Y-72471185D01*
X167655506Y-72550537D01*
X167765820Y-72609502D01*
X167885518Y-72645812D01*
X168010000Y-72658072D01*
X169810000Y-72658072D01*
X169934482Y-72645812D01*
X170054180Y-72609502D01*
X170164494Y-72550537D01*
X170261185Y-72471185D01*
X170340537Y-72374494D01*
X170399502Y-72264180D01*
X170435812Y-72144482D01*
X170448072Y-72020000D01*
X170448072Y-70220000D01*
X170435812Y-70095518D01*
X170399502Y-69975820D01*
X170340537Y-69865506D01*
X170261185Y-69768815D01*
X170164494Y-69689463D01*
X170054180Y-69630498D01*
X169934482Y-69594188D01*
X169810000Y-69581928D01*
X168010000Y-69581928D01*
X167885518Y-69594188D01*
X167765820Y-69630498D01*
X167655506Y-69689463D01*
X167558815Y-69768815D01*
X167479463Y-69865506D01*
X167420498Y-69975820D01*
X167414944Y-69994127D01*
X167348505Y-69927688D01*
X167097095Y-69759701D01*
X166817743Y-69643989D01*
X166521184Y-69585000D01*
X166218816Y-69585000D01*
X166177605Y-69593197D01*
X168245802Y-67525001D01*
X173030679Y-67525001D01*
X173068001Y-67528677D01*
X173105323Y-67525001D01*
X173105334Y-67525001D01*
X173216987Y-67514004D01*
X173360248Y-67470547D01*
X173492277Y-67399975D01*
X173608002Y-67305002D01*
X173631805Y-67275998D01*
X173955999Y-66951804D01*
X173985002Y-66928002D01*
X174079975Y-66812277D01*
X174150547Y-66680248D01*
X174194004Y-66536987D01*
X174205001Y-66425334D01*
X174205001Y-66425333D01*
X174208678Y-66388001D01*
X174205001Y-66350668D01*
X174205001Y-61254798D01*
X175037044Y-60422755D01*
X175108226Y-60493937D01*
X175277744Y-60607205D01*
X175466102Y-60685226D01*
X175666061Y-60725000D01*
X175869939Y-60725000D01*
X176069898Y-60685226D01*
X176258256Y-60607205D01*
X176427774Y-60493937D01*
X176471711Y-60450000D01*
X176977199Y-60450000D01*
X177548001Y-61020803D01*
X177548000Y-69558678D01*
X177544324Y-69596000D01*
X177548000Y-69633322D01*
X177548000Y-69633332D01*
X177558997Y-69744985D01*
X177585089Y-69831000D01*
X177602454Y-69888246D01*
X177673026Y-70020276D01*
X177695944Y-70048201D01*
X177767999Y-70136001D01*
X177797002Y-70159803D01*
X178797000Y-71159802D01*
X178797000Y-71221939D01*
X178836774Y-71421898D01*
X178914795Y-71610256D01*
X179028063Y-71779774D01*
X179172226Y-71923937D01*
X179341744Y-72037205D01*
X179530102Y-72115226D01*
X179730061Y-72155000D01*
X179933939Y-72155000D01*
X180133898Y-72115226D01*
X180322256Y-72037205D01*
X180491774Y-71923937D01*
X180635937Y-71779774D01*
X180749205Y-71610256D01*
X180827226Y-71421898D01*
X180867000Y-71221939D01*
X180867000Y-71018061D01*
X180827226Y-70818102D01*
X180749205Y-70629744D01*
X180635937Y-70460226D01*
X180491774Y-70316063D01*
X180322256Y-70202795D01*
X180133898Y-70124774D01*
X179933939Y-70085000D01*
X179871802Y-70085000D01*
X179739618Y-69952816D01*
X180710000Y-69952816D01*
X180710000Y-70255184D01*
X180768989Y-70551743D01*
X180884701Y-70831095D01*
X181052688Y-71082505D01*
X181266495Y-71296312D01*
X181517905Y-71464299D01*
X181797257Y-71580011D01*
X182093816Y-71639000D01*
X182396184Y-71639000D01*
X182692743Y-71580011D01*
X182972095Y-71464299D01*
X183223505Y-71296312D01*
X183289944Y-71229873D01*
X183295498Y-71248180D01*
X183354463Y-71358494D01*
X183433815Y-71455185D01*
X183530506Y-71534537D01*
X183640820Y-71593502D01*
X183760518Y-71629812D01*
X183885000Y-71642072D01*
X184499250Y-71639000D01*
X184658000Y-71480250D01*
X184658000Y-70231000D01*
X184638000Y-70231000D01*
X184638000Y-69977000D01*
X184658000Y-69977000D01*
X184658000Y-68727750D01*
X184499250Y-68569000D01*
X183885000Y-68565928D01*
X183760518Y-68578188D01*
X183640820Y-68614498D01*
X183530506Y-68673463D01*
X183433815Y-68752815D01*
X183354463Y-68849506D01*
X183295498Y-68959820D01*
X183289944Y-68978127D01*
X183223505Y-68911688D01*
X182972095Y-68743701D01*
X182692743Y-68627989D01*
X182396184Y-68569000D01*
X182093816Y-68569000D01*
X181797257Y-68627989D01*
X181517905Y-68743701D01*
X181266495Y-68911688D01*
X181052688Y-69125495D01*
X180884701Y-69376905D01*
X180768989Y-69656257D01*
X180710000Y-69952816D01*
X179739618Y-69952816D01*
X179068000Y-69281199D01*
X179068000Y-60743322D01*
X179071676Y-60706000D01*
X179068000Y-60668677D01*
X179068000Y-60668667D01*
X179057003Y-60557014D01*
X179013546Y-60413753D01*
X179003814Y-60395546D01*
X178942974Y-60281723D01*
X178871799Y-60194997D01*
X178848001Y-60165999D01*
X178819003Y-60142201D01*
X177855804Y-59179002D01*
X177832001Y-59149999D01*
X177716276Y-59055026D01*
X177584247Y-58984454D01*
X177440986Y-58940997D01*
X177329333Y-58930000D01*
X177329322Y-58930000D01*
X177292000Y-58926324D01*
X177254678Y-58930000D01*
X176529800Y-58930000D01*
X177072319Y-58387481D01*
X177101316Y-58363684D01*
X177196289Y-58247959D01*
X177266861Y-58115930D01*
X177310318Y-57972669D01*
X177321315Y-57861016D01*
X177321315Y-57861015D01*
X177324992Y-57823683D01*
X177321315Y-57786350D01*
X177321315Y-53873061D01*
X177781000Y-53873061D01*
X177781000Y-54076939D01*
X177820774Y-54276898D01*
X177898795Y-54465256D01*
X178012063Y-54634774D01*
X178056000Y-54678711D01*
X178056000Y-54774332D01*
X178056001Y-54774342D01*
X178056000Y-57843289D01*
X178012063Y-57887226D01*
X177898795Y-58056744D01*
X177820774Y-58245102D01*
X177781000Y-58445061D01*
X177781000Y-58648939D01*
X177820774Y-58848898D01*
X177898795Y-59037256D01*
X178012063Y-59206774D01*
X178156226Y-59350937D01*
X178325744Y-59464205D01*
X178514102Y-59542226D01*
X178714061Y-59582000D01*
X178917939Y-59582000D01*
X179117898Y-59542226D01*
X179306256Y-59464205D01*
X179475774Y-59350937D01*
X179619937Y-59206774D01*
X179733205Y-59037256D01*
X179811226Y-58848898D01*
X179851000Y-58648939D01*
X179851000Y-58445061D01*
X179811226Y-58245102D01*
X179733205Y-58056744D01*
X179619937Y-57887226D01*
X179576000Y-57843289D01*
X179576000Y-54678711D01*
X179619937Y-54634774D01*
X179733205Y-54465256D01*
X179811226Y-54276898D01*
X179851000Y-54076939D01*
X179851000Y-53873061D01*
X179811226Y-53673102D01*
X179733205Y-53484744D01*
X179619937Y-53315226D01*
X179475774Y-53171063D01*
X179306256Y-53057795D01*
X179117898Y-52979774D01*
X178917939Y-52940000D01*
X178714061Y-52940000D01*
X178514102Y-52979774D01*
X178325744Y-53057795D01*
X178156226Y-53171063D01*
X178012063Y-53315226D01*
X177898795Y-53484744D01*
X177820774Y-53673102D01*
X177781000Y-53873061D01*
X177321315Y-53873061D01*
X177321315Y-53650349D01*
X177324991Y-53613026D01*
X177321315Y-53575703D01*
X177321315Y-53575694D01*
X177310318Y-53464041D01*
X177266861Y-53320780D01*
X177196289Y-53188751D01*
X177101316Y-53073026D01*
X177072312Y-53049223D01*
X176706093Y-52683004D01*
X176682290Y-52654000D01*
X176566565Y-52559027D01*
X176434536Y-52488455D01*
X176291275Y-52444998D01*
X176179622Y-52434001D01*
X176179611Y-52434001D01*
X176142289Y-52430325D01*
X176104967Y-52434001D01*
X174935321Y-52434001D01*
X174897998Y-52430325D01*
X174860676Y-52434001D01*
X174860666Y-52434001D01*
X174749013Y-52444998D01*
X174605752Y-52488455D01*
X174473774Y-52559000D01*
X174396061Y-52559000D01*
X174196102Y-52598774D01*
X174007744Y-52676795D01*
X173863000Y-52773510D01*
X173718256Y-52676795D01*
X173529898Y-52598774D01*
X173329939Y-52559000D01*
X173126061Y-52559000D01*
X172926102Y-52598774D01*
X172737744Y-52676795D01*
X172720000Y-52688651D01*
X172702256Y-52676795D01*
X172513898Y-52598774D01*
X172313939Y-52559000D01*
X172110061Y-52559000D01*
X171910102Y-52598774D01*
X171721744Y-52676795D01*
X171705155Y-52687879D01*
X171681603Y-52672142D01*
X171493245Y-52594121D01*
X171293286Y-52554347D01*
X171089408Y-52554347D01*
X170889449Y-52594121D01*
X170701091Y-52672142D01*
X170531573Y-52785410D01*
X170387410Y-52929573D01*
X170274142Y-53099091D01*
X170196121Y-53287449D01*
X170160804Y-53465000D01*
X166428321Y-53465000D01*
X166390998Y-53461324D01*
X166353675Y-53465000D01*
X166353665Y-53465000D01*
X166242012Y-53475997D01*
X166098751Y-53519454D01*
X165966721Y-53590026D01*
X165924610Y-53624586D01*
X165850997Y-53684999D01*
X165827199Y-53713997D01*
X164929197Y-54612000D01*
X155739322Y-54612000D01*
X155702000Y-54608324D01*
X155664677Y-54612000D01*
X155664667Y-54612000D01*
X155553014Y-54622997D01*
X155411794Y-54665835D01*
X155409753Y-54666454D01*
X155277723Y-54737026D01*
X155232266Y-54774332D01*
X155161999Y-54831999D01*
X155138201Y-54860997D01*
X154684000Y-55315198D01*
X154684000Y-51368801D01*
X156524802Y-49528000D01*
X168852993Y-49528000D01*
X168890315Y-49531676D01*
X168927637Y-49528000D01*
X168927648Y-49528000D01*
X169039301Y-49517003D01*
X169182562Y-49473546D01*
X169314591Y-49402974D01*
X169430316Y-49308001D01*
X169454118Y-49278998D01*
X169836159Y-48896958D01*
X169966416Y-48950912D01*
X170166375Y-48990686D01*
X170370253Y-48990686D01*
X170570212Y-48950912D01*
X170758570Y-48872891D01*
X170928088Y-48759623D01*
X171072251Y-48615460D01*
X171185519Y-48445942D01*
X171263540Y-48257584D01*
X171303314Y-48057625D01*
X171303314Y-47853747D01*
X171263540Y-47653788D01*
X171185519Y-47465430D01*
X171072251Y-47295912D01*
X170928088Y-47151749D01*
X170758570Y-47038481D01*
X170570212Y-46960460D01*
X170370253Y-46920686D01*
X170166375Y-46920686D01*
X169966416Y-46960460D01*
X169778058Y-47038481D01*
X169608540Y-47151749D01*
X169553590Y-47206699D01*
X169410382Y-47250140D01*
X169278353Y-47320712D01*
X169278351Y-47320713D01*
X169278352Y-47320713D01*
X169191625Y-47391887D01*
X169191621Y-47391891D01*
X169162628Y-47415685D01*
X169138834Y-47444678D01*
X168575513Y-48008000D01*
X156247322Y-48008000D01*
X156209999Y-48004324D01*
X156172676Y-48008000D01*
X156172667Y-48008000D01*
X156061014Y-48018997D01*
X155917753Y-48062454D01*
X155785724Y-48133026D01*
X155669999Y-48227999D01*
X155646201Y-48256997D01*
X153797000Y-50106199D01*
X153797000Y-43876487D01*
X153839780Y-43734792D01*
X154011744Y-43411375D01*
X154243254Y-43127516D01*
X154525486Y-42894035D01*
X154847695Y-42719817D01*
X155002165Y-42672000D01*
X159083653Y-42672000D01*
X159071636Y-42684017D01*
X159071636Y-42684017D01*
G37*
X159071636Y-42684017D02*
X158837987Y-43033698D01*
X158677046Y-43422244D01*
X158594999Y-43834721D01*
X158594999Y-44255279D01*
X158677046Y-44667756D01*
X158837987Y-45056302D01*
X159071636Y-45405983D01*
X159369016Y-45703363D01*
X159718697Y-45937012D01*
X160107243Y-46097953D01*
X160519720Y-46180000D01*
X160940278Y-46180000D01*
X161352755Y-46097953D01*
X161741301Y-45937012D01*
X162090982Y-45703363D01*
X162388362Y-45405983D01*
X162622011Y-45056302D01*
X162782952Y-44667756D01*
X162864999Y-44255279D01*
X162864999Y-43834721D01*
X162782952Y-43422244D01*
X162622011Y-43033698D01*
X162388362Y-42684017D01*
X162376345Y-42672000D01*
X171592248Y-42672000D01*
X171594999Y-43759250D01*
X171753749Y-43918000D01*
X173602999Y-43918000D01*
X173602999Y-43898000D01*
X173856999Y-43898000D01*
X173856999Y-43918000D01*
X175706249Y-43918000D01*
X175864999Y-43759250D01*
X175867750Y-42672000D01*
X196788513Y-42672000D01*
X196930208Y-42714780D01*
X197253625Y-42886744D01*
X197537484Y-43118254D01*
X197770965Y-43400486D01*
X197945183Y-43722695D01*
X197993000Y-43877165D01*
X197993000Y-46544990D01*
X197874034Y-46481401D01*
X197594111Y-46396487D01*
X197375950Y-46375000D01*
X197030050Y-46375000D01*
X196811889Y-46396487D01*
X196531966Y-46481401D01*
X196273986Y-46619294D01*
X196047866Y-46804866D01*
X195862294Y-47030986D01*
X195724401Y-47288966D01*
X195639487Y-47568889D01*
X195610815Y-47860000D01*
X195639487Y-48151111D01*
X195724401Y-48431034D01*
X195862294Y-48689014D01*
X196047866Y-48915134D01*
X196273986Y-49100706D01*
X196531966Y-49238599D01*
X196811889Y-49323513D01*
X197030050Y-49345000D01*
X197375950Y-49345000D01*
X197489824Y-49333784D01*
X197469550Y-49400618D01*
X197460000Y-49497582D01*
X197460000Y-49497591D01*
X197456808Y-49530000D01*
X197460000Y-49562409D01*
X197460001Y-53307581D01*
X197456808Y-53340000D01*
X197460001Y-53372419D01*
X197469551Y-53469383D01*
X197480675Y-53506052D01*
X197505459Y-53587756D01*
X197375950Y-53575000D01*
X197030050Y-53575000D01*
X196811889Y-53596487D01*
X196531966Y-53681401D01*
X196273986Y-53819294D01*
X196047866Y-54004866D01*
X195862294Y-54230986D01*
X195724401Y-54488966D01*
X195639487Y-54768889D01*
X195610815Y-55060000D01*
X195639487Y-55351111D01*
X195724401Y-55631034D01*
X195862294Y-55889014D01*
X196047866Y-56115134D01*
X196273986Y-56300706D01*
X196531966Y-56438599D01*
X196811889Y-56523513D01*
X197030050Y-56545000D01*
X197375950Y-56545000D01*
X197594111Y-56523513D01*
X197874034Y-56438599D01*
X197993000Y-56375010D01*
X197993000Y-60008578D01*
X197871647Y-59887225D01*
X197693940Y-59768485D01*
X197496483Y-59686696D01*
X197286863Y-59645000D01*
X197073137Y-59645000D01*
X196863517Y-59686696D01*
X196666060Y-59768485D01*
X196488353Y-59887225D01*
X196337225Y-60038353D01*
X196218485Y-60216060D01*
X196136696Y-60413517D01*
X196095000Y-60623137D01*
X196095000Y-60836863D01*
X196136696Y-61046483D01*
X196218485Y-61243940D01*
X196337225Y-61421647D01*
X196488353Y-61572775D01*
X196666060Y-61691515D01*
X196863517Y-61773304D01*
X197073137Y-61815000D01*
X197286863Y-61815000D01*
X197496483Y-61773304D01*
X197693940Y-61691515D01*
X197871647Y-61572775D01*
X197993000Y-61451422D01*
X197993000Y-63008578D01*
X197871647Y-62887225D01*
X197693940Y-62768485D01*
X197496483Y-62686696D01*
X197286863Y-62645000D01*
X197073137Y-62645000D01*
X196863517Y-62686696D01*
X196666060Y-62768485D01*
X196488353Y-62887225D01*
X196392190Y-62983388D01*
X194799000Y-61390199D01*
X194799000Y-61382986D01*
X194761147Y-61192686D01*
X194686896Y-61013428D01*
X194579099Y-60852099D01*
X194441901Y-60714901D01*
X194280572Y-60607104D01*
X194101314Y-60532853D01*
X193911014Y-60495000D01*
X193716986Y-60495000D01*
X193526686Y-60532853D01*
X193347428Y-60607104D01*
X193186099Y-60714901D01*
X193048901Y-60852099D01*
X192941104Y-61013428D01*
X192866853Y-61192686D01*
X192829000Y-61382986D01*
X192829000Y-61577014D01*
X192866853Y-61767314D01*
X192941104Y-61946572D01*
X193048901Y-62107901D01*
X193186099Y-62245099D01*
X193347428Y-62352896D01*
X193526686Y-62427147D01*
X193716986Y-62465000D01*
X193724199Y-62465000D01*
X195582001Y-64322803D01*
X195582001Y-66999199D01*
X193752802Y-65170000D01*
X193776939Y-65170000D01*
X193976898Y-65130226D01*
X194165256Y-65052205D01*
X194334774Y-64938937D01*
X194478937Y-64794774D01*
X194592205Y-64625256D01*
X194670226Y-64436898D01*
X194710000Y-64236939D01*
X194710000Y-64033061D01*
X194670226Y-63833102D01*
X194592205Y-63644744D01*
X194478937Y-63475226D01*
X194334774Y-63331063D01*
X194165256Y-63217795D01*
X193976898Y-63139774D01*
X193776939Y-63100000D01*
X193714802Y-63100000D01*
X192022000Y-61407199D01*
X192022000Y-53880000D01*
X192708788Y-53880000D01*
X192731185Y-54107400D01*
X192797515Y-54326060D01*
X192905229Y-54527579D01*
X193050188Y-54704212D01*
X193226821Y-54849171D01*
X193428340Y-54956885D01*
X193647000Y-55023215D01*
X193817421Y-55040000D01*
X194131379Y-55040000D01*
X194301800Y-55023215D01*
X194520460Y-54956885D01*
X194721979Y-54849171D01*
X194898612Y-54704212D01*
X195043571Y-54527579D01*
X195151285Y-54326060D01*
X195217615Y-54107400D01*
X195240012Y-53880000D01*
X195217615Y-53652600D01*
X195151285Y-53433940D01*
X195043571Y-53232421D01*
X194898612Y-53055788D01*
X194721979Y-52910829D01*
X194520460Y-52803115D01*
X194301800Y-52736785D01*
X194131379Y-52720000D01*
X193817421Y-52720000D01*
X193647000Y-52736785D01*
X193428340Y-52803115D01*
X193226821Y-52910829D01*
X193050188Y-53055788D01*
X192905229Y-53232421D01*
X192797515Y-53433940D01*
X192731185Y-53652600D01*
X192708788Y-53880000D01*
X192022000Y-53880000D01*
X192022000Y-49040000D01*
X192708788Y-49040000D01*
X192731185Y-49267400D01*
X192797515Y-49486060D01*
X192905229Y-49687579D01*
X193050188Y-49864212D01*
X193226821Y-50009171D01*
X193428340Y-50116885D01*
X193647000Y-50183215D01*
X193817421Y-50200000D01*
X194131379Y-50200000D01*
X194301800Y-50183215D01*
X194520460Y-50116885D01*
X194721979Y-50009171D01*
X194898612Y-49864212D01*
X195043571Y-49687579D01*
X195151285Y-49486060D01*
X195217615Y-49267400D01*
X195240012Y-49040000D01*
X195217615Y-48812600D01*
X195151285Y-48593940D01*
X195043571Y-48392421D01*
X194898612Y-48215788D01*
X194721979Y-48070829D01*
X194520460Y-47963115D01*
X194301800Y-47896785D01*
X194131379Y-47880000D01*
X193817421Y-47880000D01*
X193647000Y-47896785D01*
X193428340Y-47963115D01*
X193226821Y-48070829D01*
X193050188Y-48215788D01*
X192905229Y-48392421D01*
X192797515Y-48593940D01*
X192731185Y-48812600D01*
X192708788Y-49040000D01*
X192022000Y-49040000D01*
X192022000Y-48695320D01*
X192025676Y-48657997D01*
X192022000Y-48620674D01*
X192022000Y-48620665D01*
X192011003Y-48509012D01*
X191967546Y-48365751D01*
X191896974Y-48233722D01*
X191802001Y-48117997D01*
X191773004Y-48094200D01*
X189037807Y-45359004D01*
X189014004Y-45330000D01*
X188898279Y-45235027D01*
X188766250Y-45164455D01*
X188622989Y-45120998D01*
X188511336Y-45110001D01*
X188511325Y-45110001D01*
X188474003Y-45106325D01*
X188436681Y-45110001D01*
X175866970Y-45110001D01*
X175864999Y-44330750D01*
X175706249Y-44172000D01*
X173856999Y-44172000D01*
X173856999Y-44192000D01*
X173602999Y-44192000D01*
X173602999Y-44172000D01*
X171753749Y-44172000D01*
X171594999Y-44330750D01*
X171593028Y-45110001D01*
X168739803Y-45110001D01*
X168675000Y-45045198D01*
X168675000Y-44983061D01*
X168635226Y-44783102D01*
X168557205Y-44594744D01*
X168443937Y-44425226D01*
X168299774Y-44281063D01*
X168130256Y-44167795D01*
X167941898Y-44089774D01*
X167741939Y-44050000D01*
X167538061Y-44050000D01*
X167338102Y-44089774D01*
X167149744Y-44167795D01*
X166980226Y-44281063D01*
X166836063Y-44425226D01*
X166722795Y-44594744D01*
X166644774Y-44783102D01*
X166605000Y-44983061D01*
X166605000Y-45186939D01*
X166644774Y-45386898D01*
X166722795Y-45575256D01*
X166836063Y-45744774D01*
X166980226Y-45888937D01*
X167149744Y-46002205D01*
X167338102Y-46080226D01*
X167538061Y-46120000D01*
X167600198Y-46120000D01*
X167861202Y-46381003D01*
X167885000Y-46410002D01*
X167913998Y-46433800D01*
X168000724Y-46504975D01*
X168066249Y-46539999D01*
X168132754Y-46575547D01*
X168276015Y-46619004D01*
X168387668Y-46630001D01*
X168387677Y-46630001D01*
X168425000Y-46633677D01*
X168462323Y-46630001D01*
X171638150Y-46630001D01*
X171552795Y-46757744D01*
X171474774Y-46946102D01*
X171435000Y-47146061D01*
X171435000Y-47349939D01*
X171474774Y-47549898D01*
X171552795Y-47738256D01*
X171666063Y-47907774D01*
X171810226Y-48051937D01*
X171979744Y-48165205D01*
X172168102Y-48243226D01*
X172368061Y-48283000D01*
X172571939Y-48283000D01*
X172771898Y-48243226D01*
X172960256Y-48165205D01*
X173129774Y-48051937D01*
X173273937Y-47907774D01*
X173319222Y-47840000D01*
X175817289Y-47840000D01*
X175861226Y-47883937D01*
X176030744Y-47997205D01*
X176219102Y-48075226D01*
X176419061Y-48115000D01*
X176622939Y-48115000D01*
X176822898Y-48075226D01*
X177011256Y-47997205D01*
X177180774Y-47883937D01*
X177324937Y-47739774D01*
X177438205Y-47570256D01*
X177516226Y-47381898D01*
X177556000Y-47181939D01*
X177556000Y-46978061D01*
X177516226Y-46778102D01*
X177454880Y-46630001D01*
X188159202Y-46630001D01*
X190502000Y-48972800D01*
X190502001Y-61684668D01*
X190498324Y-61722000D01*
X190502001Y-61759333D01*
X190512998Y-61870986D01*
X190523096Y-61904276D01*
X190538779Y-61955978D01*
X187253804Y-58671003D01*
X187230001Y-58641999D01*
X187114276Y-58547026D01*
X186982247Y-58476454D01*
X186838986Y-58432997D01*
X186727333Y-58422000D01*
X186727322Y-58422000D01*
X186690000Y-58418324D01*
X186652678Y-58422000D01*
X185799000Y-58422000D01*
X185793901Y-58416901D01*
X185632572Y-58309104D01*
X185453314Y-58234853D01*
X185263014Y-58197000D01*
X185068986Y-58197000D01*
X184878686Y-58234853D01*
X184699428Y-58309104D01*
X184538099Y-58416901D01*
X184400901Y-58554099D01*
X184293104Y-58715428D01*
X184218853Y-58894686D01*
X184181000Y-59084986D01*
X184181000Y-59279014D01*
X184218853Y-59469314D01*
X184293104Y-59648572D01*
X184400901Y-59809901D01*
X184538099Y-59947099D01*
X184699428Y-60054896D01*
X184878686Y-60129147D01*
X185068986Y-60167000D01*
X185263014Y-60167000D01*
X185453314Y-60129147D01*
X185632572Y-60054896D01*
X185793901Y-59947099D01*
X185799000Y-59942000D01*
X186375199Y-59942000D01*
X187395199Y-60962000D01*
X184464802Y-60962000D01*
X184090010Y-60587209D01*
X184090010Y-50271332D01*
X184093686Y-50234009D01*
X184090010Y-50196686D01*
X184090010Y-50196677D01*
X184079013Y-50085024D01*
X184035556Y-49941763D01*
X183964984Y-49809734D01*
X183942489Y-49782324D01*
X183893809Y-49723006D01*
X183893805Y-49723002D01*
X183870011Y-49694009D01*
X183841018Y-49670215D01*
X183104789Y-48933986D01*
X184689000Y-48933986D01*
X184689000Y-49128014D01*
X184726853Y-49318314D01*
X184801104Y-49497572D01*
X184908901Y-49658901D01*
X184914000Y-49664000D01*
X184914001Y-52960999D01*
X184908901Y-52966099D01*
X184801104Y-53127428D01*
X184726853Y-53306686D01*
X184689000Y-53496986D01*
X184689000Y-53691014D01*
X184726853Y-53881314D01*
X184801104Y-54060572D01*
X184908901Y-54221901D01*
X185046099Y-54359099D01*
X185207428Y-54466896D01*
X185386686Y-54541147D01*
X185576986Y-54579000D01*
X185771014Y-54579000D01*
X185961314Y-54541147D01*
X186140572Y-54466896D01*
X186301901Y-54359099D01*
X186439099Y-54221901D01*
X186546896Y-54060572D01*
X186621147Y-53881314D01*
X186659000Y-53691014D01*
X186659000Y-53496986D01*
X186621147Y-53306686D01*
X186546896Y-53127428D01*
X186439099Y-52966099D01*
X186434000Y-52961000D01*
X186434000Y-49664000D01*
X186439099Y-49658901D01*
X186546896Y-49497572D01*
X186621147Y-49318314D01*
X186659000Y-49128014D01*
X186659000Y-48933986D01*
X186621147Y-48743686D01*
X186546896Y-48564428D01*
X186439099Y-48403099D01*
X186301901Y-48265901D01*
X186140572Y-48158104D01*
X185961314Y-48083853D01*
X185771014Y-48046000D01*
X185576986Y-48046000D01*
X185386686Y-48083853D01*
X185207428Y-48158104D01*
X185046099Y-48265901D01*
X184908901Y-48403099D01*
X184801104Y-48564428D01*
X184726853Y-48743686D01*
X184689000Y-48933986D01*
X183104789Y-48933986D01*
X182173803Y-48003002D01*
X182150001Y-47973999D01*
X182034276Y-47879026D01*
X181902247Y-47808454D01*
X181758986Y-47764997D01*
X181647333Y-47754000D01*
X181647322Y-47754000D01*
X181610000Y-47750324D01*
X181572678Y-47754000D01*
X180123322Y-47754000D01*
X180085999Y-47750324D01*
X180048677Y-47754000D01*
X180048667Y-47754000D01*
X179937014Y-47764997D01*
X179799535Y-47806700D01*
X179793753Y-47808454D01*
X179661723Y-47879026D01*
X179626694Y-47907774D01*
X179545999Y-47973999D01*
X179522196Y-48003003D01*
X179300198Y-48225001D01*
X173302321Y-48225001D01*
X173264998Y-48221325D01*
X173227675Y-48225001D01*
X173227666Y-48225001D01*
X173116013Y-48235998D01*
X172972752Y-48279455D01*
X172840723Y-48350027D01*
X172840721Y-48350028D01*
X172840722Y-48350028D01*
X172753995Y-48421202D01*
X172753991Y-48421206D01*
X172724998Y-48445000D01*
X172701204Y-48473993D01*
X171156199Y-50019000D01*
X171094061Y-50019000D01*
X170894102Y-50058774D01*
X170855981Y-50074564D01*
X170824878Y-50043461D01*
X170655360Y-49930193D01*
X170467002Y-49852172D01*
X170267043Y-49812398D01*
X170204905Y-49812398D01*
X170173509Y-49781002D01*
X170149707Y-49751999D01*
X170033982Y-49657026D01*
X169901953Y-49586454D01*
X169758692Y-49542997D01*
X169647039Y-49532000D01*
X169647028Y-49532000D01*
X169609706Y-49528324D01*
X169572384Y-49532000D01*
X166009324Y-49532000D01*
X165972001Y-49528324D01*
X165934678Y-49532000D01*
X165934669Y-49532000D01*
X165823016Y-49542997D01*
X165679755Y-49586454D01*
X165547726Y-49657026D01*
X165432001Y-49751999D01*
X165408203Y-49780997D01*
X163371201Y-51818000D01*
X162980711Y-51818000D01*
X162936774Y-51774063D01*
X162767256Y-51660795D01*
X162578898Y-51582774D01*
X162378939Y-51543000D01*
X162175061Y-51543000D01*
X161975102Y-51582774D01*
X161786744Y-51660795D01*
X161617226Y-51774063D01*
X161473063Y-51918226D01*
X161359795Y-52087744D01*
X161281774Y-52276102D01*
X161242000Y-52476061D01*
X161242000Y-52679939D01*
X161281774Y-52879898D01*
X161359795Y-53068256D01*
X161473063Y-53237774D01*
X161617226Y-53381937D01*
X161786744Y-53495205D01*
X161975102Y-53573226D01*
X162175061Y-53613000D01*
X162378939Y-53613000D01*
X162578898Y-53573226D01*
X162767256Y-53495205D01*
X162936774Y-53381937D01*
X162980711Y-53338000D01*
X163648680Y-53338000D01*
X163686002Y-53341676D01*
X163723324Y-53338000D01*
X163723335Y-53338000D01*
X163834988Y-53327003D01*
X163978249Y-53283546D01*
X164110278Y-53212974D01*
X164226003Y-53118001D01*
X164249806Y-53088997D01*
X166286804Y-51052000D01*
X169150525Y-51052000D01*
X169169878Y-51149296D01*
X169247899Y-51337654D01*
X169361167Y-51507172D01*
X169505330Y-51651335D01*
X169674848Y-51764603D01*
X169863206Y-51842624D01*
X170063165Y-51882398D01*
X170267043Y-51882398D01*
X170467002Y-51842624D01*
X170505123Y-51826834D01*
X170536226Y-51857937D01*
X170705744Y-51971205D01*
X170894102Y-52049226D01*
X171094061Y-52089000D01*
X171297939Y-52089000D01*
X171497898Y-52049226D01*
X171686256Y-51971205D01*
X171855774Y-51857937D01*
X171999937Y-51713774D01*
X172113205Y-51544256D01*
X172191226Y-51355898D01*
X172231000Y-51155939D01*
X172231000Y-51093801D01*
X173579802Y-49745001D01*
X179577677Y-49745001D01*
X179614999Y-49748677D01*
X179652321Y-49745001D01*
X179652332Y-49745001D01*
X179763985Y-49734004D01*
X179907246Y-49690547D01*
X180039275Y-49619975D01*
X180155000Y-49525002D01*
X180178803Y-49495998D01*
X180400801Y-49274000D01*
X181295199Y-49274000D01*
X182570011Y-50548814D01*
X182570010Y-60864688D01*
X182566334Y-60902010D01*
X182570010Y-60939332D01*
X182570010Y-60939342D01*
X182581007Y-61050995D01*
X182613527Y-61158201D01*
X182624464Y-61194256D01*
X182695036Y-61326286D01*
X182734881Y-61374836D01*
X182790009Y-61442011D01*
X182819012Y-61465813D01*
X183586201Y-62233002D01*
X183609999Y-62262001D01*
X183638997Y-62285799D01*
X183725723Y-62356974D01*
X183836122Y-62415984D01*
X183857753Y-62427546D01*
X184001014Y-62471003D01*
X184112667Y-62482000D01*
X184112677Y-62482000D01*
X184150000Y-62485676D01*
X184187322Y-62482000D01*
X188153199Y-62482000D01*
X194058001Y-68386803D01*
X194058000Y-73599198D01*
X192725199Y-74932000D01*
X192465898Y-74932000D01*
X192682549Y-74715349D01*
X192943559Y-74324721D01*
X193123345Y-73890679D01*
X193214999Y-73429902D01*
X193214999Y-72960098D01*
X193123345Y-72499321D01*
X192943559Y-72065279D01*
X192682549Y-71674651D01*
X192350348Y-71342450D01*
X191959720Y-71081440D01*
X191525678Y-70901654D01*
X191064901Y-70810000D01*
X190595097Y-70810000D01*
X190193929Y-70889797D01*
X190233003Y-70760986D01*
X190244000Y-70649333D01*
X190244000Y-70649325D01*
X190247676Y-70612000D01*
X190244000Y-70574675D01*
X190244000Y-67855325D01*
X190247676Y-67818000D01*
X190244000Y-67780675D01*
X190244000Y-67780667D01*
X190233003Y-67669014D01*
X190189546Y-67525753D01*
X190118974Y-67393724D01*
X190024001Y-67277999D01*
X189995002Y-67254201D01*
X189285803Y-66545002D01*
X189262001Y-66515999D01*
X189146276Y-66421026D01*
X189014247Y-66350454D01*
X188870986Y-66306997D01*
X188759333Y-66296000D01*
X188759322Y-66296000D01*
X188722000Y-66292324D01*
X188684678Y-66296000D01*
X182432802Y-66296000D01*
X181608000Y-65471199D01*
X181608000Y-52107322D01*
X181611676Y-52069999D01*
X181608000Y-52032676D01*
X181608000Y-52032667D01*
X181597003Y-51921014D01*
X181553546Y-51777753D01*
X181482974Y-51645724D01*
X181460057Y-51617799D01*
X181411799Y-51558996D01*
X181411795Y-51558992D01*
X181388001Y-51529999D01*
X181359008Y-51506205D01*
X179887803Y-50035002D01*
X179864001Y-50005999D01*
X179748276Y-49911026D01*
X179616247Y-49840454D01*
X179472986Y-49796997D01*
X179361333Y-49786000D01*
X179361322Y-49786000D01*
X179324000Y-49782324D01*
X179286678Y-49786000D01*
X174535325Y-49786000D01*
X174498000Y-49782324D01*
X174460675Y-49786000D01*
X174460667Y-49786000D01*
X174349014Y-49796997D01*
X174205753Y-49840454D01*
X174073724Y-49911026D01*
X173957999Y-50005999D01*
X173934201Y-50034998D01*
X173696198Y-50273000D01*
X173634061Y-50273000D01*
X173434102Y-50312774D01*
X173245744Y-50390795D01*
X173076226Y-50504063D01*
X172932063Y-50648226D01*
X172818795Y-50817744D01*
X172740774Y-51006102D01*
X172701000Y-51206061D01*
X172701000Y-51409939D01*
X172740774Y-51609898D01*
X172818795Y-51798256D01*
X172932063Y-51967774D01*
X173076226Y-52111937D01*
X173245744Y-52225205D01*
X173434102Y-52303226D01*
X173634061Y-52343000D01*
X173837939Y-52343000D01*
X174037898Y-52303226D01*
X174226256Y-52225205D01*
X174395774Y-52111937D01*
X174539937Y-51967774D01*
X174653205Y-51798256D01*
X174731226Y-51609898D01*
X174771000Y-51409939D01*
X174771000Y-51347802D01*
X174812802Y-51306000D01*
X179009199Y-51306000D01*
X180088001Y-52384804D01*
X180088000Y-65748678D01*
X180084324Y-65786000D01*
X180088000Y-65823322D01*
X180088000Y-65823332D01*
X180098997Y-65934985D01*
X180131763Y-66043002D01*
X180142454Y-66078246D01*
X180213026Y-66210276D01*
X180236612Y-66239015D01*
X180307999Y-66326001D01*
X180337003Y-66349804D01*
X181554200Y-67567002D01*
X181577999Y-67596001D01*
X181693724Y-67690974D01*
X181825753Y-67761546D01*
X181969014Y-67805003D01*
X182080667Y-67816000D01*
X182080676Y-67816000D01*
X182117999Y-67819676D01*
X182155322Y-67816000D01*
X188407199Y-67816000D01*
X188724001Y-68132803D01*
X188724000Y-69470338D01*
X188685299Y-69376905D01*
X188517312Y-69125495D01*
X188303505Y-68911688D01*
X188052095Y-68743701D01*
X187772743Y-68627989D01*
X187476184Y-68569000D01*
X187173816Y-68569000D01*
X186877257Y-68627989D01*
X186597905Y-68743701D01*
X186346495Y-68911688D01*
X186280056Y-68978127D01*
X186274502Y-68959820D01*
X186215537Y-68849506D01*
X186136185Y-68752815D01*
X186039494Y-68673463D01*
X185929180Y-68614498D01*
X185809482Y-68578188D01*
X185685000Y-68565928D01*
X185070750Y-68569000D01*
X184912000Y-68727750D01*
X184912000Y-69977000D01*
X184932000Y-69977000D01*
X184932000Y-70231000D01*
X184912000Y-70231000D01*
X184912000Y-71480250D01*
X185070750Y-71639000D01*
X185685000Y-71642072D01*
X185809482Y-71629812D01*
X185929180Y-71593502D01*
X186039494Y-71534537D01*
X186136185Y-71455185D01*
X186215537Y-71358494D01*
X186274502Y-71248180D01*
X186280056Y-71229873D01*
X186346495Y-71296312D01*
X186597905Y-71464299D01*
X186877257Y-71580011D01*
X187173816Y-71639000D01*
X187382199Y-71639000D01*
X186375199Y-72646000D01*
X173265322Y-72646000D01*
X173227999Y-72642324D01*
X173190676Y-72646000D01*
X173190667Y-72646000D01*
X173079014Y-72656997D01*
X172935753Y-72700454D01*
X172803723Y-72771026D01*
X172723925Y-72836515D01*
X172687999Y-72865999D01*
X172664201Y-72894997D01*
X171573998Y-73985201D01*
X171545000Y-74008999D01*
X171521202Y-74037997D01*
X171521201Y-74037998D01*
X171450026Y-74124724D01*
X171379454Y-74256754D01*
X171356027Y-74333985D01*
X171335998Y-74400014D01*
X171328121Y-74479986D01*
X171321324Y-74549000D01*
X171325001Y-74586332D01*
X171325001Y-74922405D01*
X171255986Y-74959294D01*
X171029866Y-75144866D01*
X170844294Y-75370986D01*
X170815000Y-75425791D01*
X170785706Y-75370986D01*
X170600134Y-75144866D01*
X170374014Y-74959294D01*
X170116034Y-74821401D01*
X169836111Y-74736487D01*
X169617950Y-74715000D01*
X169472050Y-74715000D01*
X169253889Y-74736487D01*
X168973966Y-74821401D01*
X168715986Y-74959294D01*
X168489866Y-75144866D01*
X168304294Y-75370986D01*
X168166401Y-75628966D01*
X168081487Y-75908889D01*
X168052815Y-76200000D01*
X168081487Y-76491111D01*
X168166401Y-76771034D01*
X168304294Y-77029014D01*
X168489866Y-77255134D01*
X168715986Y-77440706D01*
X168973966Y-77578599D01*
X169253889Y-77663513D01*
X169472050Y-77685000D01*
X169617950Y-77685000D01*
X169836111Y-77663513D01*
X170116034Y-77578599D01*
X170374014Y-77440706D01*
X170600134Y-77255134D01*
X170785706Y-77029014D01*
X170815000Y-76974209D01*
X170844294Y-77029014D01*
X171029866Y-77255134D01*
X171255986Y-77440706D01*
X171513966Y-77578599D01*
X171793889Y-77663513D01*
X172012050Y-77685000D01*
X172157950Y-77685000D01*
X172376111Y-77663513D01*
X172656034Y-77578599D01*
X172914014Y-77440706D01*
X173140134Y-77255134D01*
X173325706Y-77029014D01*
X173355000Y-76974209D01*
X173384294Y-77029014D01*
X173569866Y-77255134D01*
X173795986Y-77440706D01*
X174053966Y-77578599D01*
X174333889Y-77663513D01*
X174552050Y-77685000D01*
X174697950Y-77685000D01*
X174916111Y-77663513D01*
X175196034Y-77578599D01*
X175454014Y-77440706D01*
X175680134Y-77255134D01*
X175704607Y-77225313D01*
X175725498Y-77294180D01*
X175784463Y-77404494D01*
X175863815Y-77501185D01*
X175960506Y-77580537D01*
X176070820Y-77639502D01*
X176190518Y-77675812D01*
X176315000Y-77688072D01*
X176879250Y-77685000D01*
X177038000Y-77526250D01*
X177038000Y-76327000D01*
X177018000Y-76327000D01*
X177018000Y-76073000D01*
X177038000Y-76073000D01*
X177038000Y-74873750D01*
X176879250Y-74715000D01*
X176315000Y-74711928D01*
X176190518Y-74724188D01*
X176070820Y-74760498D01*
X175960506Y-74819463D01*
X175863815Y-74898815D01*
X175784463Y-74995506D01*
X175725498Y-75105820D01*
X175704607Y-75174687D01*
X175680134Y-75144866D01*
X175454014Y-74959294D01*
X175196034Y-74821401D01*
X174916111Y-74736487D01*
X174697950Y-74715000D01*
X174552050Y-74715000D01*
X174333889Y-74736487D01*
X174053966Y-74821401D01*
X173795986Y-74959294D01*
X173569866Y-75144866D01*
X173384294Y-75370986D01*
X173355000Y-75425791D01*
X173325706Y-75370986D01*
X173140134Y-75144866D01*
X172914014Y-74959294D01*
X172845000Y-74922405D01*
X172845000Y-74863801D01*
X173542802Y-74166000D01*
X180283198Y-74166000D01*
X179734199Y-74715000D01*
X179632050Y-74715000D01*
X179413889Y-74736487D01*
X179133966Y-74821401D01*
X178875986Y-74959294D01*
X178649866Y-75144866D01*
X178625393Y-75174687D01*
X178604502Y-75105820D01*
X178545537Y-74995506D01*
X178466185Y-74898815D01*
X178369494Y-74819463D01*
X178259180Y-74760498D01*
X178139482Y-74724188D01*
X178015000Y-74711928D01*
X177450750Y-74715000D01*
X177292000Y-74873750D01*
X177292000Y-76073000D01*
X177312000Y-76073000D01*
X177312000Y-76327000D01*
X177292000Y-76327000D01*
X177292000Y-77526250D01*
X177450750Y-77685000D01*
X178015000Y-77688072D01*
X178139482Y-77675812D01*
X178259180Y-77639502D01*
X178369494Y-77580537D01*
X178466185Y-77501185D01*
X178545537Y-77404494D01*
X178604502Y-77294180D01*
X178625393Y-77225313D01*
X178649866Y-77255134D01*
X178875986Y-77440706D01*
X179133966Y-77578599D01*
X179413889Y-77663513D01*
X179632050Y-77685000D01*
X179777950Y-77685000D01*
X179996111Y-77663513D01*
X180276034Y-77578599D01*
X180534014Y-77440706D01*
X180760134Y-77255134D01*
X180945706Y-77029014D01*
X180975585Y-76973115D01*
X181091525Y-77146632D01*
X181298368Y-77353475D01*
X181541589Y-77515990D01*
X181811842Y-77627932D01*
X182098740Y-77685000D01*
X182391260Y-77685000D01*
X182678158Y-77627932D01*
X182948411Y-77515990D01*
X183191632Y-77353475D01*
X183398475Y-77146632D01*
X183523178Y-76960000D01*
X193273676Y-76960000D01*
X193310998Y-76963676D01*
X193348320Y-76960000D01*
X193348331Y-76960000D01*
X193459984Y-76949003D01*
X193603245Y-76905546D01*
X193735274Y-76834974D01*
X193850999Y-76740001D01*
X193874802Y-76710997D01*
X195582000Y-75003800D01*
X195582000Y-76393198D01*
X194249199Y-77726000D01*
X155254802Y-77726000D01*
X154938000Y-77409199D01*
X154938000Y-74990801D01*
X160531003Y-69397799D01*
X160560001Y-69374001D01*
X160654974Y-69258276D01*
X160725546Y-69126247D01*
X160769003Y-68982986D01*
X160780000Y-68871333D01*
X160780000Y-68871325D01*
X160783676Y-68834000D01*
X160780000Y-68796675D01*
X160780000Y-66585323D01*
X160783676Y-66548000D01*
X160780000Y-66510677D01*
X160780000Y-66510667D01*
X160769003Y-66399014D01*
X160725546Y-66255753D01*
X160715814Y-66237546D01*
X160654974Y-66123723D01*
X160583799Y-66036997D01*
X160560001Y-66007999D01*
X160531004Y-65984202D01*
X157732000Y-63185199D01*
X157732000Y-58331000D01*
X163197000Y-58331000D01*
X163202099Y-58336099D01*
X163202700Y-58336501D01*
X162019998Y-59519203D01*
X161991000Y-59543001D01*
X161967202Y-59571999D01*
X161967201Y-59572000D01*
X161896026Y-59658726D01*
X161825454Y-59790756D01*
X161796766Y-59885330D01*
X161781998Y-59934016D01*
X161779735Y-59956997D01*
X161767324Y-60083002D01*
X161771001Y-60120334D01*
X161771001Y-60510288D01*
X161727063Y-60554226D01*
X161613795Y-60723744D01*
X161535774Y-60912102D01*
X161496000Y-61112061D01*
X161496000Y-61315939D01*
X161535774Y-61515898D01*
X161613795Y-61704256D01*
X161727063Y-61873774D01*
X161871226Y-62017937D01*
X162040744Y-62131205D01*
X162229102Y-62209226D01*
X162429061Y-62249000D01*
X162632939Y-62249000D01*
X162832898Y-62209226D01*
X163021256Y-62131205D01*
X163190774Y-62017937D01*
X163334937Y-61873774D01*
X163448205Y-61704256D01*
X163526226Y-61515898D01*
X163566000Y-61315939D01*
X163566000Y-61112061D01*
X163526226Y-60912102D01*
X163448205Y-60723744D01*
X163334937Y-60554226D01*
X163291000Y-60510289D01*
X163291000Y-60397803D01*
X163654487Y-60034316D01*
X165643323Y-60034316D01*
X165646999Y-60071639D01*
X165647000Y-62229667D01*
X165643323Y-62266999D01*
X165657997Y-62415984D01*
X165701453Y-62559245D01*
X165772025Y-62691275D01*
X165843200Y-62778001D01*
X165866999Y-62807000D01*
X165895997Y-62830798D01*
X167838205Y-64773008D01*
X167861999Y-64802001D01*
X167890992Y-64825795D01*
X167890996Y-64825799D01*
X167909764Y-64841201D01*
X167977724Y-64896974D01*
X168109753Y-64967546D01*
X168253014Y-65011003D01*
X168364667Y-65022000D01*
X168364676Y-65022000D01*
X168401999Y-65025676D01*
X168439322Y-65022000D01*
X168460289Y-65022000D01*
X168504226Y-65065937D01*
X168673744Y-65179205D01*
X168862102Y-65257226D01*
X169062061Y-65297000D01*
X169265939Y-65297000D01*
X169465898Y-65257226D01*
X169654256Y-65179205D01*
X169823774Y-65065937D01*
X169967937Y-64921774D01*
X170081205Y-64752256D01*
X170159226Y-64563898D01*
X170199000Y-64363939D01*
X170199000Y-64160061D01*
X170159226Y-63960102D01*
X170081205Y-63771744D01*
X169967937Y-63602226D01*
X169823774Y-63458063D01*
X169654256Y-63344795D01*
X169465898Y-63266774D01*
X169265939Y-63227000D01*
X169062061Y-63227000D01*
X168862102Y-63266774D01*
X168673744Y-63344795D01*
X168605318Y-63390516D01*
X167166999Y-61952198D01*
X167166999Y-60349117D01*
X167937845Y-59578271D01*
X168068102Y-59632226D01*
X168268061Y-59672000D01*
X168471939Y-59672000D01*
X168671898Y-59632226D01*
X168860256Y-59554205D01*
X169029774Y-59440937D01*
X169173937Y-59296774D01*
X169287205Y-59127256D01*
X169365226Y-58938898D01*
X169405000Y-58738939D01*
X169405000Y-58535061D01*
X169365226Y-58335102D01*
X169287205Y-58146744D01*
X169173937Y-57977226D01*
X169029774Y-57833063D01*
X168860256Y-57719795D01*
X168671898Y-57641774D01*
X168471939Y-57602000D01*
X168268061Y-57602000D01*
X168068102Y-57641774D01*
X167879744Y-57719795D01*
X167710226Y-57833063D01*
X167655276Y-57888013D01*
X167512068Y-57931454D01*
X167380039Y-58002026D01*
X167264314Y-58096999D01*
X167240516Y-58125997D01*
X165896002Y-59470512D01*
X165866998Y-59494315D01*
X165828673Y-59541015D01*
X165772025Y-59610040D01*
X165727681Y-59693002D01*
X165701453Y-59742070D01*
X165657996Y-59885331D01*
X165646999Y-59996984D01*
X165646999Y-59996994D01*
X165643323Y-60034316D01*
X163654487Y-60034316D01*
X165414802Y-58274002D01*
X165968676Y-58274002D01*
X166005998Y-58277678D01*
X166043320Y-58274002D01*
X166043331Y-58274002D01*
X166154984Y-58263005D01*
X166298245Y-58219548D01*
X166430274Y-58148976D01*
X166545999Y-58054003D01*
X166569802Y-58025000D01*
X167446802Y-57148000D01*
X171920678Y-57148000D01*
X171958000Y-57151676D01*
X171995322Y-57148000D01*
X171995333Y-57148000D01*
X172106986Y-57137003D01*
X172250247Y-57093546D01*
X172382276Y-57022974D01*
X172498001Y-56928001D01*
X172521804Y-56898998D01*
X173288802Y-56132000D01*
X174407603Y-56132000D01*
X174451540Y-56175937D01*
X174621058Y-56289205D01*
X174809416Y-56367226D01*
X174941666Y-56393532D01*
X171574003Y-59761196D01*
X171544999Y-59784999D01*
X171489871Y-59852174D01*
X171450026Y-59900724D01*
X171406451Y-59982246D01*
X171379454Y-60032754D01*
X171335997Y-60176015D01*
X171328428Y-60252861D01*
X171281063Y-60300226D01*
X171167795Y-60469744D01*
X171089774Y-60658102D01*
X171050000Y-60858061D01*
X171050000Y-61061939D01*
X171089774Y-61261898D01*
X171167795Y-61450256D01*
X171281063Y-61619774D01*
X171325000Y-61663711D01*
X171325001Y-65367668D01*
X171321324Y-65405000D01*
X171325001Y-65442333D01*
X171335998Y-65553986D01*
X171349180Y-65597442D01*
X171379454Y-65697246D01*
X171450026Y-65829276D01*
X171465393Y-65848000D01*
X171545000Y-65945001D01*
X171573998Y-65968799D01*
X171610200Y-66005001D01*
X167968321Y-66005001D01*
X167930998Y-66001325D01*
X167893675Y-66005001D01*
X167893666Y-66005001D01*
X167782013Y-66015998D01*
X167638752Y-66059455D01*
X167506723Y-66130027D01*
X167506721Y-66130028D01*
X167506722Y-66130028D01*
X167419995Y-66201202D01*
X167419991Y-66201206D01*
X167390998Y-66225000D01*
X167367204Y-66253993D01*
X162901998Y-70719201D01*
X162873000Y-70742999D01*
X162849202Y-70771997D01*
X162849201Y-70771998D01*
X162778026Y-70858724D01*
X162707454Y-70990754D01*
X162693646Y-71036275D01*
X162663998Y-71134014D01*
X162655338Y-71221939D01*
X162649324Y-71283000D01*
X162653001Y-71320332D01*
X162653001Y-71645103D01*
X162350348Y-71342450D01*
X161959720Y-71081440D01*
X161525678Y-70901654D01*
X161064901Y-70810000D01*
X160595097Y-70810000D01*
X160134320Y-70901654D01*
X159700278Y-71081440D01*
X159309650Y-71342450D01*
X158977449Y-71674651D01*
X158716439Y-72065279D01*
X158536653Y-72499321D01*
X158444999Y-72960098D01*
X158444999Y-73429902D01*
X158536653Y-73890679D01*
X158716439Y-74324721D01*
X158977449Y-74715349D01*
X159194100Y-74932000D01*
X158945711Y-74932000D01*
X158901774Y-74888063D01*
X158732256Y-74774795D01*
X158543898Y-74696774D01*
X158343939Y-74657000D01*
X158140061Y-74657000D01*
X157940102Y-74696774D01*
X157751744Y-74774795D01*
X157582226Y-74888063D01*
X157438063Y-75032226D01*
X157324795Y-75201744D01*
X157246774Y-75390102D01*
X157207000Y-75590061D01*
X157207000Y-75793939D01*
X157246774Y-75993898D01*
X157324795Y-76182256D01*
X157438063Y-76351774D01*
X157582226Y-76495937D01*
X157751744Y-76609205D01*
X157940102Y-76687226D01*
X158140061Y-76727000D01*
X158343939Y-76727000D01*
X158543898Y-76687226D01*
X158732256Y-76609205D01*
X158901774Y-76495937D01*
X158945711Y-76452000D01*
X162014678Y-76452000D01*
X162052000Y-76455676D01*
X162089322Y-76452000D01*
X162089333Y-76452000D01*
X162200986Y-76441003D01*
X162344247Y-76397546D01*
X162476276Y-76326974D01*
X162592001Y-76232001D01*
X162615804Y-76202997D01*
X163924004Y-74894798D01*
X163953001Y-74871001D01*
X164047974Y-74755276D01*
X164118546Y-74623247D01*
X164162003Y-74479986D01*
X164173000Y-74368333D01*
X164173000Y-74368325D01*
X164176676Y-74331000D01*
X164173000Y-74293675D01*
X164173000Y-71597801D01*
X164843198Y-70927604D01*
X164835000Y-70968816D01*
X164835000Y-71271184D01*
X164893989Y-71567743D01*
X165009701Y-71847095D01*
X165177688Y-72098505D01*
X165391495Y-72312312D01*
X165642905Y-72480299D01*
X165922257Y-72596011D01*
X166218816Y-72655000D01*
X166521184Y-72655000D01*
X166817743Y-72596011D01*
X167097095Y-72480299D01*
X167348505Y-72312312D01*
X167414944Y-72245873D01*
X167420498Y-72264180D01*
X167479463Y-72374494D01*
X167558815Y-72471185D01*
X167655506Y-72550537D01*
X167765820Y-72609502D01*
X167885518Y-72645812D01*
X168010000Y-72658072D01*
X169810000Y-72658072D01*
X169934482Y-72645812D01*
X170054180Y-72609502D01*
X170164494Y-72550537D01*
X170261185Y-72471185D01*
X170340537Y-72374494D01*
X170399502Y-72264180D01*
X170435812Y-72144482D01*
X170448072Y-72020000D01*
X170448072Y-70220000D01*
X170435812Y-70095518D01*
X170399502Y-69975820D01*
X170340537Y-69865506D01*
X170261185Y-69768815D01*
X170164494Y-69689463D01*
X170054180Y-69630498D01*
X169934482Y-69594188D01*
X169810000Y-69581928D01*
X168010000Y-69581928D01*
X167885518Y-69594188D01*
X167765820Y-69630498D01*
X167655506Y-69689463D01*
X167558815Y-69768815D01*
X167479463Y-69865506D01*
X167420498Y-69975820D01*
X167414944Y-69994127D01*
X167348505Y-69927688D01*
X167097095Y-69759701D01*
X166817743Y-69643989D01*
X166521184Y-69585000D01*
X166218816Y-69585000D01*
X166177605Y-69593197D01*
X168245802Y-67525001D01*
X173030679Y-67525001D01*
X173068001Y-67528677D01*
X173105323Y-67525001D01*
X173105334Y-67525001D01*
X173216987Y-67514004D01*
X173360248Y-67470547D01*
X173492277Y-67399975D01*
X173608002Y-67305002D01*
X173631805Y-67275998D01*
X173955999Y-66951804D01*
X173985002Y-66928002D01*
X174079975Y-66812277D01*
X174150547Y-66680248D01*
X174194004Y-66536987D01*
X174205001Y-66425334D01*
X174205001Y-66425333D01*
X174208678Y-66388001D01*
X174205001Y-66350668D01*
X174205001Y-61254798D01*
X175037044Y-60422755D01*
X175108226Y-60493937D01*
X175277744Y-60607205D01*
X175466102Y-60685226D01*
X175666061Y-60725000D01*
X175869939Y-60725000D01*
X176069898Y-60685226D01*
X176258256Y-60607205D01*
X176427774Y-60493937D01*
X176471711Y-60450000D01*
X176977199Y-60450000D01*
X177548001Y-61020803D01*
X177548000Y-69558678D01*
X177544324Y-69596000D01*
X177548000Y-69633322D01*
X177548000Y-69633332D01*
X177558997Y-69744985D01*
X177585089Y-69831000D01*
X177602454Y-69888246D01*
X177673026Y-70020276D01*
X177695944Y-70048201D01*
X177767999Y-70136001D01*
X177797002Y-70159803D01*
X178797000Y-71159802D01*
X178797000Y-71221939D01*
X178836774Y-71421898D01*
X178914795Y-71610256D01*
X179028063Y-71779774D01*
X179172226Y-71923937D01*
X179341744Y-72037205D01*
X179530102Y-72115226D01*
X179730061Y-72155000D01*
X179933939Y-72155000D01*
X180133898Y-72115226D01*
X180322256Y-72037205D01*
X180491774Y-71923937D01*
X180635937Y-71779774D01*
X180749205Y-71610256D01*
X180827226Y-71421898D01*
X180867000Y-71221939D01*
X180867000Y-71018061D01*
X180827226Y-70818102D01*
X180749205Y-70629744D01*
X180635937Y-70460226D01*
X180491774Y-70316063D01*
X180322256Y-70202795D01*
X180133898Y-70124774D01*
X179933939Y-70085000D01*
X179871802Y-70085000D01*
X179739618Y-69952816D01*
X180710000Y-69952816D01*
X180710000Y-70255184D01*
X180768989Y-70551743D01*
X180884701Y-70831095D01*
X181052688Y-71082505D01*
X181266495Y-71296312D01*
X181517905Y-71464299D01*
X181797257Y-71580011D01*
X182093816Y-71639000D01*
X182396184Y-71639000D01*
X182692743Y-71580011D01*
X182972095Y-71464299D01*
X183223505Y-71296312D01*
X183289944Y-71229873D01*
X183295498Y-71248180D01*
X183354463Y-71358494D01*
X183433815Y-71455185D01*
X183530506Y-71534537D01*
X183640820Y-71593502D01*
X183760518Y-71629812D01*
X183885000Y-71642072D01*
X184499250Y-71639000D01*
X184658000Y-71480250D01*
X184658000Y-70231000D01*
X184638000Y-70231000D01*
X184638000Y-69977000D01*
X184658000Y-69977000D01*
X184658000Y-68727750D01*
X184499250Y-68569000D01*
X183885000Y-68565928D01*
X183760518Y-68578188D01*
X183640820Y-68614498D01*
X183530506Y-68673463D01*
X183433815Y-68752815D01*
X183354463Y-68849506D01*
X183295498Y-68959820D01*
X183289944Y-68978127D01*
X183223505Y-68911688D01*
X182972095Y-68743701D01*
X182692743Y-68627989D01*
X182396184Y-68569000D01*
X182093816Y-68569000D01*
X181797257Y-68627989D01*
X181517905Y-68743701D01*
X181266495Y-68911688D01*
X181052688Y-69125495D01*
X180884701Y-69376905D01*
X180768989Y-69656257D01*
X180710000Y-69952816D01*
X179739618Y-69952816D01*
X179068000Y-69281199D01*
X179068000Y-60743322D01*
X179071676Y-60706000D01*
X179068000Y-60668677D01*
X179068000Y-60668667D01*
X179057003Y-60557014D01*
X179013546Y-60413753D01*
X179003814Y-60395546D01*
X178942974Y-60281723D01*
X178871799Y-60194997D01*
X178848001Y-60165999D01*
X178819003Y-60142201D01*
X177855804Y-59179002D01*
X177832001Y-59149999D01*
X177716276Y-59055026D01*
X177584247Y-58984454D01*
X177440986Y-58940997D01*
X177329333Y-58930000D01*
X177329322Y-58930000D01*
X177292000Y-58926324D01*
X177254678Y-58930000D01*
X176529800Y-58930000D01*
X177072319Y-58387481D01*
X177101316Y-58363684D01*
X177196289Y-58247959D01*
X177266861Y-58115930D01*
X177310318Y-57972669D01*
X177321315Y-57861016D01*
X177321315Y-57861015D01*
X177324992Y-57823683D01*
X177321315Y-57786350D01*
X177321315Y-53873061D01*
X177781000Y-53873061D01*
X177781000Y-54076939D01*
X177820774Y-54276898D01*
X177898795Y-54465256D01*
X178012063Y-54634774D01*
X178056000Y-54678711D01*
X178056000Y-54774332D01*
X178056001Y-54774342D01*
X178056000Y-57843289D01*
X178012063Y-57887226D01*
X177898795Y-58056744D01*
X177820774Y-58245102D01*
X177781000Y-58445061D01*
X177781000Y-58648939D01*
X177820774Y-58848898D01*
X177898795Y-59037256D01*
X178012063Y-59206774D01*
X178156226Y-59350937D01*
X178325744Y-59464205D01*
X178514102Y-59542226D01*
X178714061Y-59582000D01*
X178917939Y-59582000D01*
X179117898Y-59542226D01*
X179306256Y-59464205D01*
X179475774Y-59350937D01*
X179619937Y-59206774D01*
X179733205Y-59037256D01*
X179811226Y-58848898D01*
X179851000Y-58648939D01*
X179851000Y-58445061D01*
X179811226Y-58245102D01*
X179733205Y-58056744D01*
X179619937Y-57887226D01*
X179576000Y-57843289D01*
X179576000Y-54678711D01*
X179619937Y-54634774D01*
X179733205Y-54465256D01*
X179811226Y-54276898D01*
X179851000Y-54076939D01*
X179851000Y-53873061D01*
X179811226Y-53673102D01*
X179733205Y-53484744D01*
X179619937Y-53315226D01*
X179475774Y-53171063D01*
X179306256Y-53057795D01*
X179117898Y-52979774D01*
X178917939Y-52940000D01*
X178714061Y-52940000D01*
X178514102Y-52979774D01*
X178325744Y-53057795D01*
X178156226Y-53171063D01*
X178012063Y-53315226D01*
X177898795Y-53484744D01*
X177820774Y-53673102D01*
X177781000Y-53873061D01*
X177321315Y-53873061D01*
X177321315Y-53650349D01*
X177324991Y-53613026D01*
X177321315Y-53575703D01*
X177321315Y-53575694D01*
X177310318Y-53464041D01*
X177266861Y-53320780D01*
X177196289Y-53188751D01*
X177101316Y-53073026D01*
X177072312Y-53049223D01*
X176706093Y-52683004D01*
X176682290Y-52654000D01*
X176566565Y-52559027D01*
X176434536Y-52488455D01*
X176291275Y-52444998D01*
X176179622Y-52434001D01*
X176179611Y-52434001D01*
X176142289Y-52430325D01*
X176104967Y-52434001D01*
X174935321Y-52434001D01*
X174897998Y-52430325D01*
X174860676Y-52434001D01*
X174860666Y-52434001D01*
X174749013Y-52444998D01*
X174605752Y-52488455D01*
X174473774Y-52559000D01*
X174396061Y-52559000D01*
X174196102Y-52598774D01*
X174007744Y-52676795D01*
X173863000Y-52773510D01*
X173718256Y-52676795D01*
X173529898Y-52598774D01*
X173329939Y-52559000D01*
X173126061Y-52559000D01*
X172926102Y-52598774D01*
X172737744Y-52676795D01*
X172720000Y-52688651D01*
X172702256Y-52676795D01*
X172513898Y-52598774D01*
X172313939Y-52559000D01*
X172110061Y-52559000D01*
X171910102Y-52598774D01*
X171721744Y-52676795D01*
X171705155Y-52687879D01*
X171681603Y-52672142D01*
X171493245Y-52594121D01*
X171293286Y-52554347D01*
X171089408Y-52554347D01*
X170889449Y-52594121D01*
X170701091Y-52672142D01*
X170531573Y-52785410D01*
X170387410Y-52929573D01*
X170274142Y-53099091D01*
X170196121Y-53287449D01*
X170160804Y-53465000D01*
X166428321Y-53465000D01*
X166390998Y-53461324D01*
X166353675Y-53465000D01*
X166353665Y-53465000D01*
X166242012Y-53475997D01*
X166098751Y-53519454D01*
X165966721Y-53590026D01*
X165924610Y-53624586D01*
X165850997Y-53684999D01*
X165827199Y-53713997D01*
X164929197Y-54612000D01*
X155739322Y-54612000D01*
X155702000Y-54608324D01*
X155664677Y-54612000D01*
X155664667Y-54612000D01*
X155553014Y-54622997D01*
X155411794Y-54665835D01*
X155409753Y-54666454D01*
X155277723Y-54737026D01*
X155232266Y-54774332D01*
X155161999Y-54831999D01*
X155138201Y-54860997D01*
X154684000Y-55315198D01*
X154684000Y-51368801D01*
X156524802Y-49528000D01*
X168852993Y-49528000D01*
X168890315Y-49531676D01*
X168927637Y-49528000D01*
X168927648Y-49528000D01*
X169039301Y-49517003D01*
X169182562Y-49473546D01*
X169314591Y-49402974D01*
X169430316Y-49308001D01*
X169454118Y-49278998D01*
X169836159Y-48896958D01*
X169966416Y-48950912D01*
X170166375Y-48990686D01*
X170370253Y-48990686D01*
X170570212Y-48950912D01*
X170758570Y-48872891D01*
X170928088Y-48759623D01*
X171072251Y-48615460D01*
X171185519Y-48445942D01*
X171263540Y-48257584D01*
X171303314Y-48057625D01*
X171303314Y-47853747D01*
X171263540Y-47653788D01*
X171185519Y-47465430D01*
X171072251Y-47295912D01*
X170928088Y-47151749D01*
X170758570Y-47038481D01*
X170570212Y-46960460D01*
X170370253Y-46920686D01*
X170166375Y-46920686D01*
X169966416Y-46960460D01*
X169778058Y-47038481D01*
X169608540Y-47151749D01*
X169553590Y-47206699D01*
X169410382Y-47250140D01*
X169278353Y-47320712D01*
X169278351Y-47320713D01*
X169278352Y-47320713D01*
X169191625Y-47391887D01*
X169191621Y-47391891D01*
X169162628Y-47415685D01*
X169138834Y-47444678D01*
X168575513Y-48008000D01*
X156247322Y-48008000D01*
X156209999Y-48004324D01*
X156172676Y-48008000D01*
X156172667Y-48008000D01*
X156061014Y-48018997D01*
X155917753Y-48062454D01*
X155785724Y-48133026D01*
X155669999Y-48227999D01*
X155646201Y-48256997D01*
X153797000Y-50106199D01*
X153797000Y-43876487D01*
X153839780Y-43734792D01*
X154011744Y-43411375D01*
X154243254Y-43127516D01*
X154525486Y-42894035D01*
X154847695Y-42719817D01*
X155002165Y-42672000D01*
X159083653Y-42672000D01*
X159071636Y-42684017D01*
M02*
