M48
; DRILL file {KiCad (5.1.0-0)} date 2019 November 03, Sunday 22:22:06
; FORMAT={-:-/ absolute / inch / decimal}
; #@! TF.CreationDate,2019-11-03T22:22:06+08:00
; #@! TF.GenerationSoftware,Kicad,Pcbnew,(5.1.0-0)
FMAT,2
INCH
T1C0.0157
T2C0.0197
T3C0.0256
T4C0.0315
T5C0.0354
T6C0.0394
T7C0.0354
T8C0.0984
%
G90
G05
T1
X6.08Y-2.6
X6.13Y-2.6
X6.14Y-2.79
X6.21Y-2.62
X6.23Y-2.98
X6.3889Y-2.07
X6.3989Y-2.41
X6.6Y-1.775
X6.6287Y-2.3085
X6.66Y-2.53
X6.6994Y-2.0019
X6.7035Y-1.888
X6.7398Y-2.1098
X6.74Y-2.01
X6.775Y-2.4
X6.78Y-2.11
X6.7902Y-1.8602
X6.8Y-2.6
X6.82Y-2.11
X6.84Y-2.02
X6.87Y-2.11
X6.8941Y-2.18
X6.92Y-2.35
X6.9227Y-2.1244
X6.9496Y-1.8535
X7.04Y-2.125
X7.04Y-2.305
X7.08Y-2.8
X7.625Y-2.525
T2
X6.4Y-2.6205
X6.425Y-2.3
X6.45Y-2.025
X6.45Y-2.2666
X6.475Y-1.85
X6.59Y-2.38
X6.6955Y-2.0955
X6.7154Y-2.5154
X6.725Y-1.775
X6.79Y-2.01
X6.7902Y-2.2402
X6.9244Y-2.0257
X7.125Y-1.975
X7.13Y-1.72
X7.1804Y-2.1054
X7.25Y-2.525
X7.29Y-2.33
X7.31Y-1.9304
X7.31Y-2.11
X7.45Y-1.875
X7.5Y-2.375
X7.625Y-3.025
X7.6305Y-2.4205
X7.7248Y-1.9748
X7.75Y-1.75
T5
X6.55Y-2.8
X6.65Y-2.8
X7.175Y-2.76
X7.275Y-2.76
X7.375Y-2.76
X6.328Y-1.7341
X6.8398Y-1.7341
T6
X6.675Y-3.0
X6.775Y-3.0
X6.875Y-3.0
X6.975Y-3.0
X7.075Y-3.0
X7.175Y-3.0
T7
X7.775Y-2.8297
X7.775Y-2.9203
X7.763Y-2.3909
X7.763Y-2.5091
T8
X6.3319Y-2.8817
X7.513Y-2.8817
T3
G00X7.6329Y-1.9307
M15
G01X7.6407Y-1.9307
M16
G05
G00X7.6329Y-2.1213
M15
G01X7.6407Y-2.1213
M16
G05
T4
G00X7.7501Y-1.8843
M15
G01X7.7777Y-1.8843
M16
G05
G00X7.7501Y-2.1677
M15
G01X7.7777Y-2.1677
M16
G05
T0
M30
